<?xml version="1.0" encoding="UTF-8" standalone="no"?>
<svg xmlns:dc="http://purl.org/dc/elements/1.1/" xmlns:cc="http://creativecommons.org/ns#" xmlns:rdf="http://www.w3.org/1999/02/22-rdf-syntax-ns#"
    xmlns="http://www.w3.org/2000/svg" xmlns:sodipodi="http://sodipodi.sourceforge.net/DTD/sodipodi-0.dtd"
    xmlns:inkscape="http://www.inkscape.org/namespaces/inkscape" width="18.5" height="18.5" viewBox="0 0 18.5 18.5"
    version="1.1" id="svg6" sodipodi:docname="drug.svg" inkscape:version="0.92.4 (5da689c313, 2019-01-14)">
  <metadata
     id="metadata12">
    <rdf:RDF>
      <cc:Work
         rdf:about="">
        <dc:format>image/svg+xml</dc:format>
        <dc:type
           rdf:resource="http://purl.org/dc/dcmitype/StillImage" />
        <dc:title />
      </cc:Work>
    </rdf:RDF>
  </metadata>
  <defs
     id="defs10">
    <clipPath
       id="clipPath2454"
       clipPathUnits="userSpaceOnUse">
      <path
         inkscape:connector-curvature="0"
         id="path2452"
         d="m 106.02,1384.65 v 0 L 0,1445.87 v 11.86 l 116.27,-67.12 -10.25,-5.96" />
    </clipPath>
    <radialGradient
       id="radialGradient2460"
       spreadMethod="pad"
       gradientTransform="matrix(2725.26,0,0,-2725.26,2173.85,1947.93)"
       gradientUnits="userSpaceOnUse"
       r="1"
       cy="0"
       cx="0"
       fy="0"
       fx="0">
      <stop
         id="stop2456"
         offset="0"
         style="stop-opacity:1;stop-color:#4398b6" />
      <stop
         id="stop2458"
         offset="1"
         style="stop-opacity:1;stop-color:#2288ab" />
    </radialGradient>
    <clipPath
       id="clipPath2438"
       clipPathUnits="userSpaceOnUse">
      <path
         inkscape:connector-curvature="0"
         id="path2436"
         d="m 657.551,1384.65 -266.367,153.79 10.254,5.96 266.355,-153.79 -10.242,-5.96" />
    </clipPath>
    <radialGradient
       id="radialGradient2444"
       spreadMethod="pad"
       gradientTransform="matrix(2725.26,0,0,-2725.26,2173.85,1947.93)"
       gradientUnits="userSpaceOnUse"
       r="1"
       cy="0"
       cx="0"
       fy="0"
       fx="0">
      <stop
         id="stop2440"
         offset="0"
         style="stop-opacity:1;stop-color:#4398b6" />
      <stop
         id="stop2442"
         offset="1"
         style="stop-opacity:1;stop-color:#2288ab" />
    </radialGradient>
    <clipPath
       id="clipPath2326"
       clipPathUnits="userSpaceOnUse">
      <path
         inkscape:connector-curvature="0"
         id="path2324"
         d="m 380.891,1544.4 v 0 l -266.453,153.82 10.25,5.96 266.433,-153.83 -10.23,-5.95" />
    </clipPath>
    <radialGradient
       id="radialGradient2332"
       spreadMethod="pad"
       gradientTransform="matrix(2725.26,0,0,-2725.26,2173.85,1947.93)"
       gradientUnits="userSpaceOnUse"
       r="1"
       cy="0"
       cx="0"
       fy="0"
       fx="0">
      <stop
         id="stop2328"
         offset="0"
         style="stop-opacity:1;stop-color:#4398b6" />
      <stop
         id="stop2330"
         offset="1"
         style="stop-opacity:1;stop-color:#2288ab" />
    </radialGradient>
    <clipPath
       id="clipPath2214"
       clipPathUnits="userSpaceOnUse">
      <path
         inkscape:connector-curvature="0"
         id="path2212"
         d="m 104.125,1704.18 v 0 L 0,1764.3 v 11.87 l 114.371,-66.03 -10.246,-5.96" />
    </clipPath>
    <radialGradient
       id="radialGradient2220"
       spreadMethod="pad"
       gradientTransform="matrix(2725.26,0,0,-2725.26,2173.85,1947.93)"
       gradientUnits="userSpaceOnUse"
       r="1"
       cy="0"
       cx="0"
       fy="0"
       fx="0">
      <stop
         id="stop2216"
         offset="0"
         style="stop-opacity:1;stop-color:#4398b6" />
      <stop
         id="stop2218"
         offset="1"
         style="stop-opacity:1;stop-color:#2288ab" />
    </radialGradient>
    <clipPath
       id="clipPath2198"
       clipPathUnits="userSpaceOnUse">
      <path
         inkscape:connector-curvature="0"
         id="path2196"
         d="m 655.762,1704.12 -0.008,0.01 -266.445,153.84 10.347,6.01 266.449,-153.84 -10.343,-6.02" />
    </clipPath>
    <radialGradient
       id="radialGradient2204"
       spreadMethod="pad"
       gradientTransform="matrix(2725.26,0,0,-2725.26,2173.85,1947.93)"
       gradientUnits="userSpaceOnUse"
       r="1"
       cy="0"
       cx="0"
       fy="0"
       fx="0">
      <stop
         id="stop2200"
         offset="0"
         style="stop-opacity:1;stop-color:#4398b6" />
      <stop
         id="stop2202"
         offset="1"
         style="stop-opacity:1;stop-color:#2288ab" />
    </radialGradient>
    <clipPath
       id="clipPath2086"
       clipPathUnits="userSpaceOnUse">
      <path
         inkscape:connector-curvature="0"
         id="path2084"
         d="m 378.992,1863.93 v 0 l -266.355,153.76 10.343,6.02 266.356,-153.79 -10.344,-5.99" />
    </clipPath>
    <radialGradient
       id="radialGradient2092"
       spreadMethod="pad"
       gradientTransform="matrix(2725.26,0,0,-2725.26,2173.85,1947.93)"
       gradientUnits="userSpaceOnUse"
       r="1"
       cy="0"
       cx="0"
       fy="0"
       fx="0">
      <stop
         id="stop2088"
         offset="0"
         style="stop-opacity:1;stop-color:#4398b6" />
      <stop
         id="stop2090"
         offset="1"
         style="stop-opacity:1;stop-color:#2288ab" />
    </radialGradient>
    <clipPath
       id="clipPath1974"
       clipPathUnits="userSpaceOnUse">
      <path
         inkscape:connector-curvature="0"
         id="path1972"
         d="M 102.324,2023.65 0,2082.73 v 11.98 l 112.672,-65.04 h -0.008 l -10.344,-6.02" />
    </clipPath>
    <radialGradient
       id="radialGradient1980"
       spreadMethod="pad"
       gradientTransform="matrix(2725.26,0,0,-2725.26,2173.85,1947.93)"
       gradientUnits="userSpaceOnUse"
       r="1"
       cy="0"
       cx="0"
       fy="0"
       fx="0">
      <stop
         id="stop1976"
         offset="0"
         style="stop-opacity:1;stop-color:#4398b6" />
      <stop
         id="stop1978"
         offset="1"
         style="stop-opacity:1;stop-color:#2288ab" />
    </radialGradient>
  </defs>
  <sodipodi:namedview
     pagecolor="#ffffff"
     bordercolor="#666666"
     borderopacity="1"
     objecttolerance="10"
     gridtolerance="10"
     guidetolerance="10"
     inkscape:pageopacity="0"
     inkscape:pageshadow="2"
     inkscape:window-width="1366"
     inkscape:window-height="705"
     id="namedview8"
     showgrid="false"
     inkscape:measure-start="0,0"
     inkscape:measure-end="0,0"
     inkscape:zoom="7.5405405"
     inkscape:cx="9.25"
     inkscape:cy="9.25"
     inkscape:window-x="-8"
     inkscape:window-y="-8"
     inkscape:window-maximized="1"
     inkscape:current-layer="svg6"
     fit-margin-top="0"
     fit-margin-left="0"
     fit-margin-right="0"
     fit-margin-bottom="0" />
  <path
     d="m 16.536209,3.8843589 c -0.07131,-0.364464 -0.396157,-0.633851 -0.776467,-0.633851 H 6.7567664 c -0.3803101,0 -0.7051584,0.269387 -0.7764667,0.633851 l -2.0104314,6.1363021 0.6541404,0.950776 h 0.1426162 v 3.961564 c 0,0.435772 0.2790484,0.792313 0.7148205,0.792313 h 6.8431556 c 0.435772,0 0.79834,-0.356583 0.792313,-0.792313 v -3.961564 h 2.961985 v 3.961564 c 0,0.435772 0.301127,0.792313 0.736899,0.792313 0.435772,0 0.79071,-0.356561 0.794972,-0.792313 v -3.961564 h 0.142616 c 0.499157,0 0.736503,-0.459542 0.641426,-0.950776 z"
     id="path4"
     inkscape:connector-curvature="0"
     sodipodi:nodetypes="cssccccssscccssscscc"
     style="stroke-width:0.79231286" />
  <g
     transform="matrix(0.22470598,0,0,0.22470598,1.3144908,-0.33305317)"
     id="g26" />
  <g
     transform="matrix(0.22470598,0,0,0.22470598,1.3144908,-0.33305317)"
     id="g28" />
  <g
     transform="matrix(0.22470598,0,0,0.22470598,1.3144908,-0.33305317)"
     id="g30" />
  <g
     transform="matrix(0.22470598,0,0,0.22470598,1.3144908,-0.33305317)"
     id="g32" />
  <g
     transform="matrix(0.22470598,0,0,0.22470598,1.3144908,-0.33305317)"
     id="g34" />
  <g
     transform="matrix(0.22470598,0,0,0.22470598,1.3144908,-0.33305317)"
     id="g36" />
  <g
     transform="matrix(0.22470598,0,0,0.22470598,1.3144908,-0.33305317)"
     id="g38" />
  <g
     transform="matrix(0.22470598,0,0,0.22470598,1.3144908,-0.33305317)"
     id="g40" />
  <g
     transform="matrix(0.22470598,0,0,0.22470598,1.3144908,-0.33305317)"
     id="g42" />
  <g
     transform="matrix(0.22470598,0,0,0.22470598,1.3144908,-0.33305317)"
     id="g44" />
  <g
     transform="matrix(0.22470598,0,0,0.22470598,1.3144908,-0.33305317)"
     id="g46" />
  <g
     transform="matrix(0.22470598,0,0,0.22470598,1.3144908,-0.33305317)"
     id="g48" />
  <g
     transform="matrix(0.22470598,0,0,0.22470598,1.3144908,-0.33305317)"
     id="g50" />
  <g
     transform="matrix(0.22470598,0,0,0.22470598,1.3144908,-0.33305317)"
     id="g52" />
  <g
     transform="matrix(0.22470598,0,0,0.22470598,1.3144908,-0.33305317)"
     id="g54" />
  <g
     id="g4139"
     transform="matrix(0.15670091,0,0,0.15670091,2.1233382,5.997983)">
    <path
       inkscape:connector-curvature="0"
       d="m 5.9328891,54.845174 c -0.35,-0.21733 -0.8224,-0.5 -1.153066,-0.74533 -0.607334,-0.44933 -1.4204,-1.052 -1.970934,-1.57067 -0.374933,-0.35333 -0.867733,-0.83466 -1.198933,-1.22933 -0.416667,-0.49733 -0.92813296,-1.19733 -1.28853296,-1.73733 -0.271867,-0.40667 -0.5692,-0.99334 -0.766133,-1.44134 -0.2036,-0.464 -0.420267,-1.104 -0.56453404,-1.588 -0.08187,-0.27333 -0.1672,-0.64666 -0.2052,-0.93066 -0.06773,-0.5 -0.126133,-1.172 -0.1464,-1.676 0.0093,3.36533 2.17133304,6.73066 6.512533,9.344 8.9437329,5.38266 23.7514659,5.532 33.0738659,0.33333 4.797996,-2.67467 7.207866,-6.24533 7.197466,-9.81467 0,0.284 -0.003,0.66534 -0.0423,0.94667 -0.0785,0.564 -0.214,1.31467 -0.35,1.868 -0.0828,0.33733 -0.24893,0.77067 -0.37653,1.09333 -0.10987,0.27867 -0.28693,0.63734 -0.41453,0.90934 -0.22707,0.48133 -0.59587,1.09466 -0.91934,1.51866 -0.3156,0.41467 -0.74533,0.96134 -1.08746,1.35467 -0.23334,0.268 -0.57134,0.60133 -0.82974,0.84667 -0.79053,0.74933 -1.60666,1.37466 -2.429062,1.928 -0.449067,0.30133 -1.0672,0.672 -1.5376,0.93866 -0.389067,0.22134 -0.9224,0.488 -1.323867,0.68667 -0.474,0.23333 -1.122933,0.50933 -1.612533,0.708 -0.433334,0.176 -1.019334,0.388 -1.462,0.54 -1.5,0.512 -2.776534,0.79733 -3.1964,0.892 -2.094267,0.46933 -4.311467,0.74933 -6.59,0.83067 -1.637067,0.0587 -2.902667,-0.0107 -3.318267,-0.0333 -1.2016,-0.0667 -1.852666,-0.13733 -3.2808,-0.328 -0.01453,-10e-4 -1.487466,-0.19866 -3.2004,-0.62266 -0.463066,-0.11467 -1.077733,-0.28 -1.534399,-0.41867 -0.466667,-0.14 -1.081867,-0.352 -1.543334,-0.50933 -0.4353329,-0.148 -1.0041329,-0.38 -1.4265329,-0.56 -0.451067,-0.19467 -1.040133,-0.48 -1.4844,-0.68934 -0.473867,-0.224 -1.0848,-0.568 -1.530667,-0.844"
       style="fill:#025074;fill-opacity:1;fill-rule:nonzero;stroke:none;stroke-width:0.13333333"
       id="path4412" />
    <path
       inkscape:connector-curvature="0"
       d="m -1.3608439,43.926514 -0.03693,-12.99733 c 0.0099,3.36533 2.17133304,6.73066 6.5124,9.344 8.9437329,5.38266 23.7515989,5.53199 33.0739989,0.33466 4.797866,-2.676 7.207866,-6.24533 7.197326,-9.81466 l 0.0371,12.99599 c 0.0104,3.56934 -2.39947,7.14 -7.197463,9.81467 -9.3224,5.19867 -24.130133,5.04933 -33.0738659,-0.33333 -4.34119996,-2.61334 -6.503199,-5.97867 -6.512533,-9.344"
       style="fill:#025074;fill-opacity:1;fill-rule:nonzero;stroke:none;stroke-width:0.13333333"
       id="path4414" />
    <path
       inkscape:connector-curvature="0"
       d="m -1.3977769,30.929184 -0.08907,-31.51066993 c 0.0093,3.36667003 2.17133304,6.73200003 6.5124,9.34400003 8.9437329,5.3826699 23.7515989,5.5333299 33.0739989,0.33467 4.797339,-2.67467 7.207339,-6.24534 7.197339,-9.81467003 l 0.0891,31.51066993 c 0.0105,3.56933 -2.39946,7.13866 -7.197332,9.81466 -9.3224,5.19733 -24.130266,5.048 -33.0739989,-0.33466 -4.34106696,-2.61334 -6.502533,-5.97867 -6.5124,-9.344"
       style="fill:#ff4a39;fill-opacity:1;fill-rule:nonzero;stroke:none;stroke-width:0.13333333"
       id="path4416" />
    <path
       inkscape:connector-curvature="0"
       d="m 45.192751,-7.4041559 c -0.0323,-0.356 -0.1172,-0.82533 -0.1672,-1.18 -0.0713,-0.50266 -0.24,-1.16 -0.38173,-1.6466601 -0.24067,-0.82934 -0.74587,-2.432 -1.936,-4.368 -0.38587,-0.628 -0.96453,-1.42534 -1.4228,-2.00267 -0.38907,-0.49067 -0.948,-1.11467 -1.398,-1.54933 -0.319732,-0.31067 -0.751999,-0.72 -1.086932,-1.01334 -0.2964,-0.26 -0.706267,-0.58933 -1.0172,-0.83066 -0.625067,-0.48534 -1.514,-1.05867 -2.180267,-1.48534 -0.507733,-0.296 -1.1952,-0.67333 -1.718133,-0.94266 -0.3532,-0.18134 -0.836534,-0.39867 -1.2,-0.55734 -0.455734,-0.2 -1.074,-0.44 -1.541734,-0.60933 -0.409866,-0.14933 -0.961466,-0.33733 -1.382266,-0.452 -0.745334,-0.20533 -1.747334,-0.448 -2.502667,-0.61467 -0.388,-0.0853 -0.9124,-0.16266 -1.3052,-0.22133 -0.375466,-0.056 -0.878133,-0.12533 -1.256666,-0.15467 -0.748,-0.0573 -1.747467,-0.12533 -2.497467,-0.136 -0.374933,-0.005 -0.874933,0.003 -1.25,0.0147 -0.374933,0.0133 -0.8744,0.0493 -1.248933,0.0707 -0.386934,0.0227 -0.899467,0.0907 -1.2844,0.132 -0.602534,0.0627 -1.9932,0.30266 -2.619734,0.45866 -0.454266,0.112 -1.064666,0.248 -1.511466,0.38667 -0.755734,0.23467 -1.7552,0.57467 -2.4948,0.85467 -0.5172,0.19733 -1.186933,0.51066 -1.686533,0.748 -0.3691999,0.176 -0.8509339,0.43333 -1.2082669,0.63066 -0.647467,0.36 -1.487467,0.884 -2.091733,1.312 -0.6432,0.456 -1.476534,1.10267 -2.0588,1.63467 -0.464534,0.42267 -1.0776,0.99733 -1.488,1.47333 -0.2464,0.28667 -0.586534,0.65867 -0.818267,0.956 -0.345333,0.44534 -0.798933,1.04667 -1.102,1.52134 -0.287067,0.44933 -0.66666696,1.05333 -0.89746696,1.53333 -0.156266,0.32533 -0.380266,0.75333 -0.520266,1.08667 -0.198,0.47066 -0.4568,1.10133 -0.604667,1.59066 -0.103733,0.34267 -0.2464,0.7973401 -0.32760004,1.1466701 -0.1136,0.488 -0.242266,1.14533 -0.3204,1.64 -0.111466,0.708 -0.142133,1.66667 -0.166133,2.384 0.0093,3.36533 2.17133304,6.73067 6.512,9.344 8.9442659,5.38267 23.7521319,5.532 33.0739989,0.33467 4.797869,-2.676 7.207729,-6.24534 7.197869,-9.816 -0.009,-0.50267 -0.0453,-1.172 -0.0901,-1.67334"
       style="fill:#025074;fill-opacity:1;fill-rule:nonzero;stroke:none;stroke-width:0.13333333"
       id="path4418" />
    <path
       inkscape:connector-curvature="0"
       d="m -1.4868439,-0.58148593 -0.01413,-5.01199997 c 0.0093,3.36533 2.17133304,6.73067 6.512,9.344 8.9442659,5.38267 23.7521319,5.532 33.0745319,0.33467 4.797333,-2.676 7.207193,-6.24534 7.197333,-9.81467 l 0.014,5.01199997 c 0.01,3.56933003 -2.4,7.14000003 -7.197333,9.81467003 -9.3224,5.1986599 -24.130266,5.0479999 -33.0739989,-0.33467 -4.34106696,-2.612 -6.503066,-5.97733 -6.5124,-9.34400003"
       style="fill:#025074;fill-opacity:1;fill-rule:nonzero;stroke:none;stroke-width:0.13333333"
       id="path4420" />
    <path
       inkscape:connector-curvature="0"
       d="m 31.226622,-35.845486 c 4.984933,3 4.8136,7.78 -0.3812,10.67733 -5.195333,2.896 -13.448,2.81334 -18.432266,-0.18666 -4.9843999,-3 -4.8130669,-7.78 0.381733,-10.67734 5.195333,-2.89733 13.447867,-2.81333 18.431733,0.18667"
       style="fill:#ff5545;fill-opacity:1;fill-rule:nonzero;stroke:none;stroke-width:0.13333333"
       id="path4422" />
    <path
       inkscape:connector-curvature="0"
       d="m 6.0302231,-19.761486 -0.0244,-8.52 c 0.0068,2.276 1.468666,4.552 4.4046659,6.32 6.048933,3.64 16.064,3.74133 22.3688,0.22533 3.2448,-1.80933 4.8744,-4.224 4.8676,-6.63733 l 0.02453,8.52 c 0.0068,2.41333 -1.622933,4.828 -4.868267,6.63733 -6.304666,3.5160001 -16.319733,3.4146701 -22.368666,-0.22533 -2.9359999,-1.768 -4.3979999,-4.044 -4.4042659,-6.32"
       style="fill:#db4031;fill-opacity:1;fill-rule:nonzero;stroke:none;stroke-width:0.13333333"
       id="path4424" />
    <path
       inkscape:connector-curvature="0"
       d="m 11.448489,-36.190816 c 0.262,-0.14267 0.6136,-0.32934 0.8828,-0.45734 0.320934,-0.152 0.750533,-0.352 1.083333,-0.476 0.591734,-0.22 1.389067,-0.48933 1.992267,-0.67466 0.337467,-0.104 0.797333,-0.208 1.141067,-0.288 0.895333,-0.208 2.0068,-0.36267 2.209866,-0.38267 0.336534,-0.0347 0.783867,-0.096 1.121467,-0.11467 0.335867,-0.0187 0.784267,-0.052 1.1208,-0.0627 0.336933,-0.012 0.786933,-0.0173 1.1244,-0.0147 0.672,0.008 1.5672,0.0707 2.2376,0.12267 0.332267,0.0253 0.771867,0.0947 1.103067,0.13466 0.250533,0.0307 1.341199,0.21067 2.159333,0.42134 0.326133,0.0827 0.762,0.19066 1.081333,0.296 0.588533,0.19466 1.368267,0.472 1.9432,0.70266 0.3032,0.12267 0.6964,0.31067 0.987467,0.45867 0.314666,0.16 0.726666,0.388 1.030266,0.568 -0.366666,-0.22133 -0.877066,-0.20133 -1.440133,0.112 -4.983866,-3 -13.2364,-3.084 -18.431733,-0.18667 -5.1947999,2.89734 -5.3661329,7.67734 -0.381733,10.67734 4.984266,3 13.236933,3.08266 18.432266,0.18666 5.1948,-2.89733 5.366133,-7.67733 0.3812,-10.67733 0.563067,-0.31333 1.073467,-0.33333 1.440133,-0.112 0.222934,0.144 0.530134,0.32133 0.743734,0.47867 0.404666,0.29866 0.942666,0.704 1.3156,1.04133 0.933333,0.84667 1.482266,1.676 1.5052,1.71067 0.209466,0.31866 0.4704,0.756 0.642266,1.096 0.136934,0.27066 0.2916,0.64666 0.385334,0.93466 0.08493,0.26134 0.194266,0.61334 0.2396,0.884 0.02813,0.17067 0.0756,0.396 0.0932,0.568 0.0272,0.26 0.04947,0.60934 0.0552,0.87067 0.0068,2.41333 -1.6228,4.828 -4.8676,6.63733 -6.3048,3.516 -16.319867,3.41467 -22.3688,-0.22533 -2.9359999,-1.768 -4.3978659,-4.044 -4.4046659,-6.32 0.01307,-0.34533 0.03853,-0.808 0.08907,-1.14933 0.04427,-0.30134 0.1328,-0.69867 0.226534,-0.988 0.152133,-0.46934 0.4068,-1.25467 1.120266,-2.29067 0.214134,-0.31067 0.5272,-0.70667 0.783334,-0.98267 0.3152,-0.34 0.767733,-0.76266 1.117733,-1.06666 0.3,-0.26134 0.7327999,-0.56934 1.0614669,-0.79334 0.304133,-0.20666 0.721866,-0.46266 1.044266,-0.63866"
       style="fill:#ff4a39;fill-opacity:1;fill-rule:nonzero;stroke:none;stroke-width:0.13333333"
       id="path4426" />
    <path
       inkscape:connector-curvature="0"
       d="m 37.095422,20.242514 c -3.791733,1.848 -5.8652,2.46 -10.041733,3.06267 0,-3.484 0,-5.22534 0,-8.70934 -4.0448,0.584 -6.140533,0.584 -10.185333,0 0,3.484 0,5.22534 0,8.70934 -4.176667,-0.60267 -6.25,-1.216 -10.0422669,-3.06267 0,3.37333 0,5.06 0,8.43333 3.7922669,1.848 5.8655999,2.46 10.0422669,3.06267 0,3.484 0,5.22533 0,8.70933 4.0448,0.584 6.140533,0.584 10.185333,0 0,-3.484 0,-5.22533 0,-8.70933 4.176533,-0.60267 6.25,-1.21467 10.041733,-3.06267 0,-3.37333 0,-5.06 0,-8.43333"
       style="fill:#ffffff;fill-opacity:1;fill-rule:nonzero;stroke:none;stroke-width:0.13333333"
       id="path4428" />
  </g>
</svg>
