<?xml version="1.0" encoding="UTF-8" standalone="no"?>
<svg xmlns:dc="http://purl.org/dc/elements/1.1/" xmlns:cc="http://creativecommons.org/ns#" xmlns:rdf="http://www.w3.org/1999/02/22-rdf-syntax-ns#"
    xmlns="http://www.w3.org/2000/svg" xmlns:sodipodi="http://sodipodi.sourceforge.net/DTD/sodipodi-0.dtd"
    xmlns:inkscape="http://www.inkscape.org/namespaces/inkscape" width="18.5" height="18.5" viewBox="0 0 18.5 18.5"
    version="1.1" id="svg6" sodipodi:docname="pastry (2).svg" inkscape:version="0.92.3 (2405546, 2018-03-11)">
  <metadata
     id="metadata12">
    <rdf:RDF>
      <cc:Work
         rdf:about="">
        <dc:format>image/svg+xml</dc:format>
        <dc:type
           rdf:resource="http://purl.org/dc/dcmitype/StillImage" />
        <dc:title />
      </cc:Work>
    </rdf:RDF>
  </metadata>
  <defs
     id="defs10" />
  <sodipodi:namedview
     pagecolor="#ffffff"
     bordercolor="#666666"
     borderopacity="1"
     objecttolerance="10"
     gridtolerance="10"
     guidetolerance="10"
     inkscape:pageopacity="0"
     inkscape:pageshadow="2"
     inkscape:window-width="1366"
     inkscape:window-height="705"
     id="namedview8"
     showgrid="false"
     inkscape:measure-start="0,0"
     inkscape:measure-end="0,0"
     inkscape:zoom="20.448764"
     inkscape:cx="9.25"
     inkscape:cy="9.25"
     inkscape:window-x="-8"
     inkscape:window-y="-8"
     inkscape:window-maximized="1"
     inkscape:current-layer="svg6"
     fit-margin-top="0"
     fit-margin-left="0"
     fit-margin-right="0"
     fit-margin-bottom="0" />
  <path
     d="m 16.536209,3.8843589 c -0.07131,-0.364464 -0.396157,-0.633851 -0.776467,-0.633851 H 6.7567664 c -0.3803101,0 -0.7051584,0.269387 -0.7764667,0.633851 l -2.0104314,6.1363021 0.6541404,0.950776 h 0.1426162 v 3.961564 c 0,0.435772 0.2790484,0.792313 0.7148205,0.792313 h 6.8431556 c 0.435772,0 0.79834,-0.356583 0.792313,-0.792313 v -3.961564 h 2.961985 v 3.961564 c 0,0.435772 0.301127,0.792313 0.736899,0.792313 0.435772,0 0.79071,-0.356561 0.794972,-0.792313 v -3.961564 h 0.142616 c 0.499157,0 0.736503,-0.459542 0.641426,-0.950776 z"
     id="path4"
     inkscape:connector-curvature="0"
     sodipodi:nodetypes="cssccccssscccssscscc"
     style="stroke-width:0.79231286" />
  <g
     transform="matrix(0.22470598,0,0,0.22470598,1.3144908,-0.33305317)"
     id="g26" />
  <g
     transform="matrix(0.22470598,0,0,0.22470598,1.3144908,-0.33305317)"
     id="g28" />
  <g
     transform="matrix(0.22470598,0,0,0.22470598,1.3144908,-0.33305317)"
     id="g30" />
  <g
     transform="matrix(0.22470598,0,0,0.22470598,1.3144908,-0.33305317)"
     id="g32" />
  <g
     transform="matrix(0.22470598,0,0,0.22470598,1.3144908,-0.33305317)"
     id="g34" />
  <g
     transform="matrix(0.22470598,0,0,0.22470598,1.3144908,-0.33305317)"
     id="g36" />
  <g
     transform="matrix(0.22470598,0,0,0.22470598,1.3144908,-0.33305317)"
     id="g38" />
  <g
     transform="matrix(0.22470598,0,0,0.22470598,1.3144908,-0.33305317)"
     id="g40" />
  <g
     transform="matrix(0.22470598,0,0,0.22470598,1.3144908,-0.33305317)"
     id="g42" />
  <g
     transform="matrix(0.22470598,0,0,0.22470598,1.3144908,-0.33305317)"
     id="g44" />
  <g
     transform="matrix(0.22470598,0,0,0.22470598,1.3144908,-0.33305317)"
     id="g46" />
  <g
     transform="matrix(0.22470598,0,0,0.22470598,1.3144908,-0.33305317)"
     id="g48" />
  <g
     transform="matrix(0.22470598,0,0,0.22470598,1.3144908,-0.33305317)"
     id="g50" />
  <g
     transform="matrix(0.22470598,0,0,0.22470598,1.3144908,-0.33305317)"
     id="g52" />
  <g
     transform="matrix(0.22470598,0,0,0.22470598,1.3144908,-0.33305317)"
     id="g54" />
  <g
     id="g990"
     transform="matrix(0.23102388,0,0,0.23102388,0.11790124,-0.79487357)">
    <g
       id="g917">
	<path
   id="path881"
   d="m 57,24.004 h -0.077 c 0,-11.046 -12.76,-20 -28.5,-20 -15.74,0 -28.423,8.954 -28.423,20 0,0 0.016,9.436 0.016,9.438 0,11.046 12.667,19.563 28.408,19.563 15.741,0 28.585,-8.923 28.585,-19.969 C 57.008,33.034 57,24.004 57,24.004 Z m -28,5 c -4.524,0 -8.342,-1.804 -9.577,-4.277 2.672,-1.202 5.98,-1.923 9.577,-1.923 3.597,0 6.905,0.721 9.577,1.923 C 37.342,27.2 33.524,29.004 29,29.004 Z"
   style="fill:#fbd490"
   inkscape:connector-curvature="0" />

	<path
   id="path883"
   d="m 0,24.004 c 0,0 0.006,3.827 0.011,6.608 0.057,0.774 0.701,1.392 1.489,1.392 0.77,0 1.402,-0.59 1.484,-1.339 0.005,0.006 0.011,0.012 0.016,0.017 v 4.821 c 0,0.825 0.675,1.5 1.5,1.5 0.825,0 1.5,-0.675 1.5,-1.5 v 4 c 0,0.825 0.675,1.5 1.5,1.5 0.825,0 1.5,-0.675 1.5,-1.5 v -2 c 0,0.825 0.675,1.5 1.5,1.5 0.825,0 1.5,-0.675 1.5,-1.5 v 5 c 0,0.825 0.675,1.5 1.5,1.5 0.825,0 1.5,-0.675 1.5,-1.5 v -2 c 0,0.825 0.675,1.5 1.5,1.5 0.825,0 1.5,-0.675 1.5,-1.5 v 3.5 c 0,1.1 0.9,2 2,2 1.1,0 2,-0.9 2,-2 v -1.5 c 0,0.825 0.675,1.5 1.5,1.5 0.825,0 1.5,-0.675 1.5,-1.5 v 3.5 c 0,1.1 0.9,2 2,2 1.1,0 2,-0.9 2,-2 v -4 c 0,1.1 0.9,2 2,2 1.1,0 2,-0.9 2,-2 v 1.5 c 0,0.825 0.675,1.5 1.5,1.5 0.825,0 1.5,-0.675 1.5,-1.5 v -3.5 c 0,1.1 0.9,2 2,2 1.1,0 2,-0.9 2,-2 v 3.5 c 0,0.825 0.675,1.5 1.5,1.5 0.825,0 1.5,-0.675 1.5,-1.5 v -5 c 0,0.825 0.675,1.5 1.5,1.5 0.825,0 1.5,-0.675 1.5,-1.5 v 1 c 0,0.825 0.675,1.5 1.5,1.5 0.825,0 1.5,-0.675 1.5,-1.5 v -4 c 0,0.825 0.675,1.5 1.5,1.5 0.825,0 1.5,-0.675 1.5,-1.5 v -3 c 0,0.825 0.676,1.532 1.5,1.5 2.927,-0.115 3.464,-3.887 3.503,-6.821 0,-0.318 -10e-4,-0.625 -10e-4,-0.916 -0.018,-1.03 -0.079,-1.869 -0.079,-2.263 0,-11.046 -12.76,-20 -28.5,-20 C 12.683,4.003 0,12.958 0,24.004 Z m 29,-1.2 c 3.597,0 6.905,0.721 9.577,1.923 -1.235,2.473 -5.053,4.277 -9.577,4.277 -4.524,0 -8.342,-1.804 -9.577,-4.277 2.672,-1.202 5.98,-1.923 9.577,-1.923 z"
   style="fill:#d85c81"
   inkscape:connector-curvature="0" />

	<g
   id="g887">
		<path
   id="path885"
   d="m 29.088,17.004 c -5.523,0 -10,2.686 -10,6 0,0.599 0.161,1.173 0.435,1.718 2.67,-1.199 5.973,-1.918 9.565,-1.918 3.592,0 6.894,0.719 9.565,1.918 0.274,-0.545 0.435,-1.119 0.435,-1.718 0,-3.314 -4.477,-6 -10,-6 z"
   style="fill:#fbd490"
   inkscape:connector-curvature="0" />

	</g>

	<path
   id="path889"
   d="m 12.476,28.588 c -0.441,0 -0.844,-0.293 -0.965,-0.739 -0.144,-0.532 0.171,-1.082 0.704,-1.226 l 4.317,-1.168 c 0.531,-0.15 1.083,0.17 1.227,0.704 0.144,0.532 -0.171,1.082 -0.704,1.226 l -4.317,1.168 c -0.088,0.024 -0.176,0.035 -0.262,0.035 z"
   style="fill:#a4e869"
   inkscape:connector-curvature="0" />

	<path
   id="path891"
   d="m 28.301,36.075 c -0.104,0 -0.211,-0.017 -0.316,-0.052 l -3,-1 c -0.524,-0.174 -0.807,-0.74 -0.632,-1.265 0.175,-0.523 0.74,-0.809 1.265,-0.632 l 3,1 c 0.524,0.174 0.807,0.74 0.632,1.265 -0.14,0.419 -0.53,0.684 -0.949,0.684 z"
   style="fill:#ffffff"
   inkscape:connector-curvature="0" />

	<path
   id="path893"
   d="m 47.635,28.904 c -0.552,0 -1,-0.447 -1,-1 v -4 c 0,-0.553 0.448,-1 1,-1 0.552,0 1,0.447 1,1 v 4 c 0,0.553 -0.448,1 -1,1 z"
   style="fill:#a4e869"
   inkscape:connector-curvature="0" />

	<path
   id="path895"
   d="m 24.042,12.514 c -0.274,0 -0.547,-0.112 -0.744,-0.332 L 21.184,9.829 C 20.815,9.419 20.849,8.786 21.259,8.417 21.67,8.05 22.303,8.083 22.671,8.493 l 2.114,2.353 c 0.369,0.41 0.335,1.043 -0.075,1.412 -0.191,0.171 -0.43,0.256 -0.668,0.256 z"
   style="fill:#48a0dc"
   inkscape:connector-curvature="0" />

	<path
   id="path897"
   d="m 49.868,18.504 c -0.104,0 -0.211,-0.017 -0.316,-0.052 l -3,-1 c -0.524,-0.174 -0.807,-0.74 -0.632,-1.265 0.174,-0.523 0.74,-0.809 1.265,-0.632 l 3,1 c 0.524,0.174 0.807,0.74 0.632,1.265 -0.14,0.419 -0.53,0.684 -0.949,0.684 z"
   style="fill:#48a0dc"
   inkscape:connector-curvature="0" />

	<path
   id="path899"
   d="m 35.927,33.262 c -0.02,0 -0.04,-10e-4 -0.06,-0.002 -0.551,-0.032 -0.972,-0.506 -0.939,-1.057 l 0.083,-1.411 c 0.032,-0.552 0.508,-0.963 1.057,-0.939 0.551,0.032 0.972,0.506 0.939,1.057 l -0.083,1.411 c -0.031,0.531 -0.471,0.941 -0.997,0.941 z"
   style="fill:#a4e869"
   inkscape:connector-curvature="0" />

	<path
   id="path901"
   d="m 43.801,35.575 c -0.256,0 -0.512,-0.098 -0.707,-0.293 l -1,-1 c -0.391,-0.391 -0.391,-1.023 0,-1.414 0.391,-0.391 1.023,-0.391 1.414,0 l 1,1 c 0.391,0.391 0.391,1.023 0,1.414 -0.195,0.195 -0.451,0.293 -0.707,0.293 z"
   style="fill:#d75a4a"
   inkscape:connector-curvature="0" />

	<path
   id="path903"
   d="m 15.635,36.075 c -0.256,0 -0.512,-0.098 -0.707,-0.293 l -1,-1 c -0.391,-0.391 -0.391,-1.023 0,-1.414 0.391,-0.391 1.023,-0.391 1.414,0 l 1,1 c 0.391,0.391 0.391,1.023 0,1.414 -0.196,0.195 -0.451,0.293 -0.707,0.293 z"
   style="fill:#48a0dc"
   inkscape:connector-curvature="0" />

	<path
   id="path905"
   d="m 43.831,13.544 c -0.532,0 -0.975,-0.42 -0.998,-0.956 l -0.062,-1.413 c -0.024,-0.552 0.404,-1.019 0.956,-1.043 0.546,-0.023 1.019,0.404 1.042,0.955 l 0.062,1.413 c 0.024,0.552 -0.404,1.019 -0.956,1.043 -0.014,0.001 -0.029,0.001 -0.044,0.001 z"
   style="fill:#a4e869"
   inkscape:connector-curvature="0" />

	<g
   id="g911">
		<line
   id="line907"
   y2="17.759001"
   x2="12.948"
   y1="13.759"
   x1="11.948"
   style="fill:#d75a4a" />

		<path
   id="path909"
   d="m 12.947,18.759 c -0.448,0 -0.855,-0.303 -0.969,-0.758 l -1,-4 c -0.134,-0.535 0.192,-1.078 0.728,-1.212 0.537,-0.135 1.079,0.19 1.213,0.728 l 1,4 c 0.134,0.535 -0.192,1.078 -0.728,1.212 -0.082,0.02 -0.163,0.03 -0.244,0.03 z"
   style="fill:#d75a4a"
   inkscape:connector-curvature="0" />

	</g>

	<path
   id="path913"
   d="m 8.135,24.304 c -0.256,0 -0.512,-0.098 -0.707,-0.293 l -1,-1 c -0.391,-0.391 -0.391,-1.023 0,-1.414 0.391,-0.391 1.023,-0.391 1.414,0 l 1,1 c 0.391,0.391 0.391,1.023 0,1.414 -0.196,0.195 -0.451,0.293 -0.707,0.293 z"
   style="fill:#fbd490"
   inkscape:connector-curvature="0" />

	<path
   id="path915"
   d="m 36.968,13.337 c -0.256,0 -0.512,-0.098 -0.707,-0.293 l -1,-1 c -0.391,-0.391 -0.391,-1.023 0,-1.414 0.391,-0.391 1.023,-0.391 1.414,0 l 1,1 c 0.391,0.391 0.391,1.023 0,1.414 -0.196,0.195 -0.451,0.293 -0.707,0.293 z"
   style="fill:#d75a4a"
   inkscape:connector-curvature="0" />

</g>
    <g
       id="g919">
</g>
    <g
       id="g921">
</g>
    <g
       id="g923">
</g>
    <g
       id="g925">
</g>
    <g
       id="g927">
</g>
    <g
       id="g929">
</g>
    <g
       id="g931">
</g>
    <g
       id="g933">
</g>
    <g
       id="g935">
</g>
    <g
       id="g937">
</g>
    <g
       id="g939">
</g>
    <g
       id="g941">
</g>
    <g
       id="g943">
</g>
    <g
       id="g945">
</g>
    <g
       id="g947">
</g>
  </g>
</svg>
