<?xml version="1.0" encoding="UTF-8" standalone="no"?>
<!-- Generator: Adobe Illustrator 18.0.0, SVG Export Plug-In . SVG Version: 6.00 Build 0)  -->

<svg xmlns:dc="http://purl.org/dc/elements/1.1/" xmlns:cc="http://creativecommons.org/ns#" xmlns:rdf="http://www.w3.org/1999/02/22-rdf-syntax-ns#"
    xmlns="http://www.w3.org/2000/svg" xmlns:sodipodi="http://sodipodi.sourceforge.net/DTD/sodipodi-0.dtd"
    xmlns:inkscape="http://www.inkscape.org/namespaces/inkscape" version="1.1" id="Capa_1" x="0px" y="0px"
    viewBox="0 0 58 58" xml:space="preserve" sodipodi:docname="dairy.svg" width="58" height="58"
    inkscape:version="0.92.3 (2405546, 2018-03-11)"><metadata
   id="metadata63"><rdf:RDF><cc:Work
       rdf:about=""><dc:format>image/svg+xml</dc:format><dc:type
         rdf:resource="http://purl.org/dc/dcmitype/StillImage" /><dc:title></dc:title></cc:Work></rdf:RDF></metadata><defs
   id="defs61" /><sodipodi:namedview
   pagecolor="#ffffff"
   bordercolor="#666666"
   borderopacity="1"
   objecttolerance="10"
   gridtolerance="10"
   guidetolerance="10"
   inkscape:pageopacity="0"
   inkscape:pageshadow="2"
   inkscape:window-width="1366"
   inkscape:window-height="705"
   id="namedview59"
   showgrid="false"
   fit-margin-top="0"
   fit-margin-left="0"
   fit-margin-right="0"
   fit-margin-bottom="0"
   inkscape:zoom="4.3145161"
   inkscape:cx="25.986488"
   inkscape:cy="27.026325"
   inkscape:window-x="-8"
   inkscape:window-y="-8"
   inkscape:window-maximized="1"
   inkscape:current-layer="Capa_1" />
















<g
   id="g172"
   transform="translate(4.5135119,-0.47367457)"><g
     transform="translate(3.9729762,0.94734955)"
     id="g26">
	<polygon
   id="polygon2"
   points="12,18 26,23 26,57 12,51 "
   style="fill:#c6c6c6" />
	<polygon
   id="polygon4"
   points="26,23 45,18 45,52 26,57 "
   style="fill:#e6e6e6" />
	<polygon
   id="polygon6"
   points="19,4 38,0 38,4 19,8 "
   style="fill:#e2e2e2" />
	<polygon
   id="polygon8"
   points="26,23 12,18 19,8 "
   style="fill:#d1d1d1" />
	<polygon
   id="polygon10"
   points="19,8 38,4 45,18 26,23 "
   style="fill:#eaeaea" />
	<polygon
   id="polygon12"
   points="26,37 45,21 45,37 26,52 "
   style="fill:#3dabef" />
	<polygon
   id="polygon14"
   points="26,37 12,31 12,46 26,52 "
   style="fill:#2b9dd6" />
	<path
   inkscape:connector-curvature="0"
   id="path16"
   d="m 34.215,16.875 v 0 c -2.217,0.58 -2.956,-1.423 -3.305,-2.753 v 0 c -0.348,-1.33 -0.684,-3.439 1.533,-4.019 v 0 c 2.217,-0.58 2.956,1.423 3.304,2.753 v 0 c 0.348,1.33 0.685,3.439 -1.532,4.019 z"
   style="fill:#ffffff" />
	<polygon
   id="polygon18"
   points="36,0.421 34,0.842 34,4.842 36,4.421 "
   style="fill:#ededed" />
	<polygon
   id="polygon20"
   points="32,1.263 30,1.684 30,5.684 32,5.263 "
   style="fill:#ededed" />
	<polygon
   id="polygon22"
   points="28,2.105 26,2.526 26,6.526 28,6.105 "
   style="fill:#ededed" />
	<polygon
   id="polygon24"
   points="24,2.947 22,3.368 22,7.368 24,6.947 "
   style="fill:#ededed" />
</g><g
     transform="translate(3.9729762,0.94734955)"
     id="g28">
</g><g
     transform="translate(3.9729762,0.94734955)"
     id="g30">
</g><g
     transform="translate(3.9729762,0.94734955)"
     id="g32">
</g><g
     transform="translate(3.9729762,0.94734955)"
     id="g34">
</g><g
     transform="translate(3.9729762,0.94734955)"
     id="g36">
</g><g
     transform="translate(3.9729762,0.94734955)"
     id="g38">
</g><g
     transform="translate(3.9729762,0.94734955)"
     id="g40">
</g><g
     transform="translate(3.9729762,0.94734955)"
     id="g42">
</g><g
     transform="translate(3.9729762,0.94734955)"
     id="g44">
</g><g
     transform="translate(3.9729762,0.94734955)"
     id="g46">
</g><g
     transform="translate(3.9729762,0.94734955)"
     id="g48">
</g><g
     transform="translate(3.9729762,0.94734955)"
     id="g50">
</g><g
     transform="translate(3.9729762,0.94734955)"
     id="g52">
</g><g
     transform="translate(3.9729762,0.94734955)"
     id="g54">
</g><g
     transform="translate(3.9729762,0.94734955)"
     id="g56">
</g><g
     transform="matrix(0.62597624,0,0,0.62597624,-0.19217471,25.689895)"
     id="g150"><g
       id="g85">
	<path
   inkscape:connector-curvature="0"
   style="fill:#eeaf4b"
   d="m 47.923,33.056 c 0.388,-0.431 0.935,-0.702 1.587,-0.755 0.217,-0.018 0.446,-0.011 0.685,0.021 0.198,0.027 0.394,0.077 0.587,0.14 0.178,0.054 0.352,0.127 0.525,0.206 v -2.234 c 0,-1.875 -0.871,-3.644 -2.357,-4.788 L 31.54,9.176 C 30.991,9.627 30.197,9.781 29.303,9.505 27.649,8.993 26.308,7.237 26.308,5.582 c 0,-0.426 0.091,-0.801 0.251,-1.118 L 23.579,1.645 C 21.407,-0.01 18.97,-0.37 17.308,0.357 L 2.479,7.51 c -1.341,0.579 -2.172,1.94 -2.172,3.44 0,0.012 0,0.012 0,0.009 v 15.747 c 0.463,-0.085 0.976,-0.066 1.527,0.105 1.918,0.594 3.473,2.63 3.473,4.548 0,1.918 -1.555,2.992 -3.473,2.398 C 1.283,33.587 0.77,33.288 0.307,32.916 v 2.163 c 0,1.688 1.149,3.159 2.786,3.568 l 43.644,12.857 c 2.321,0.58 4.57,-1.175 4.57,-3.568 v -8.341 h -0.001 c -0.939,-0.152 -1.85,-0.677 -2.567,-1.417 -0.016,-0.016 -0.029,-0.035 -0.044,-0.052 -0.161,-0.17 -0.314,-0.347 -0.453,-0.536 -0.046,-0.062 -0.081,-0.131 -0.124,-0.195 -0.1,-0.15 -0.203,-0.298 -0.287,-0.457 -0.067,-0.125 -0.115,-0.258 -0.171,-0.388 -0.045,-0.105 -0.101,-0.208 -0.138,-0.315 -0.084,-0.242 -0.148,-0.489 -0.189,-0.739 -0.041,-0.252 -0.057,-0.494 -0.05,-0.725 0.014,-0.462 0.122,-0.879 0.307,-1.233 0.092,-0.178 0.204,-0.339 0.333,-0.482 z"
   id="path65" />
	<path
   inkscape:connector-curvature="0"
   style="fill:#fcdf76"
   d="m 50.196,32.322 c 0.379,0.052 0.751,0.181 1.112,0.346 v -2.235 c 0,-1.735 -1.212,-3.233 -2.908,-3.596 L 29.233,21.129 c 0.01,0.103 0.03,0.206 0.03,0.308 0,1.655 -1.341,2.581 -2.995,2.068 -1.654,-0.512 -2.995,-2.268 -2.995,-3.923 0,-0.078 0.017,-0.147 0.023,-0.222 L 2.244,13.091 C 1.073,12.866 0.498,11.975 0.373,10.965 L 0.308,10.95 v 15.755 c 0.463,-0.085 0.976,-0.066 1.527,0.105 1.918,0.594 3.473,2.63 3.473,4.548 0,1.918 -1.555,2.992 -3.473,2.398 -0.551,-0.17 -1.064,-0.469 -1.527,-0.841 v 2.163 c 0,1.688 1.149,3.159 2.786,3.568 l 43.644,12.857 c 2.321,0.58 4.57,-1.175 4.57,-3.568 v -8.341 c -1.88,-0.304 -3.649,-2.115 -3.975,-4.099 -0.331,-2.013 0.951,-3.434 2.863,-3.173 z"
   id="path67" />
	<path
   inkscape:connector-curvature="0"
   style="fill:#f4c44e"
   d="m 26.124,32.007 c 0,2.254 -1.827,3.515 -4.081,2.818 -2.254,-0.698 -4.081,-3.09 -4.081,-5.344 0,-2.254 1.827,-3.515 4.081,-2.818 2.254,0.697 4.081,3.09 4.081,5.344 z"
   id="path69" />
	<path
   inkscape:connector-curvature="0"
   style="fill:#eeaf4b"
   d="m 22.043,26.663 c -1.672,-0.518 -3.106,0.047 -3.736,1.292 0.63,1.635 2.064,3.087 3.736,3.605 1.672,0.518 3.106,-0.047 3.736,-1.292 -0.63,-1.635 -2.064,-3.088 -3.736,-3.605 z"
   id="path71" />
	<path
   inkscape:connector-curvature="0"
   style="fill:#f4c44e"
   d="m 43.021,37.539 c 0,1.578 -1.279,2.461 -2.857,1.972 -1.578,-0.488 -2.857,-2.163 -2.857,-3.741 0,-1.578 1.279,-2.461 2.857,-1.972 1.578,0.489 2.857,2.164 2.857,3.741 z"
   id="path73" />
	<path
   inkscape:connector-curvature="0"
   style="fill:#eeaf4b"
   d="m 15.021,35.539 c 0,1.578 -1.279,2.461 -2.857,1.972 -1.578,-0.489 -2.857,-2.163 -2.857,-3.741 0,-1.578 1.279,-2.461 2.857,-1.972 1.578,0.489 2.857,2.164 2.857,3.741 z"
   id="path75" />
	<path
   inkscape:connector-curvature="0"
   style="fill:#eeaf4b"
   d="m 35.021,43.165 c 0,1.025 -0.831,1.599 -1.857,1.282 -1.025,-0.317 -1.857,-1.406 -1.857,-2.431 0,-1.025 0.831,-1.599 1.857,-1.282 1.026,0.317 1.857,1.405 1.857,2.431 z"
   id="path77" />
	<path
   inkscape:connector-curvature="0"
   style="fill:#eeaf4b"
   d="m 34.308,31.277 c 0,1.025 -0.831,1.599 -1.857,1.282 -1.025,-0.317 -1.857,-1.406 -1.857,-2.431 0,-1.025 0.831,-1.599 1.857,-1.282 1.025,0.317 1.857,1.405 1.857,2.431 z"
   id="path79" />
	<path
   inkscape:connector-curvature="0"
   style="fill:#f4c44e"
   d="m 9.308,20.775 c 0,1.127 -0.914,1.758 -2.04,1.409 -1.127,-0.349 -2.04,-1.545 -2.04,-2.672 0,-1.127 0.914,-1.758 2.04,-1.409 1.126,0.349 2.04,1.545 2.04,2.672 z"
   id="path81" />
	<path
   inkscape:connector-curvature="0"
   style="fill:#f4c44e"
   d="m 29.263,21.437 c 0,1.654 -1.341,2.58 -2.995,2.068 -1.654,-0.512 -2.995,-2.268 -2.995,-3.923 0,-1.654 1.341,-2.58 2.995,-2.068 1.653,0.512 2.995,2.268 2.995,3.923 z"
   id="path83" />
</g><g
       id="g87">
</g><g
       id="g89">
</g><g
       id="g91">
</g><g
       id="g93">
</g><g
       id="g95">
</g><g
       id="g97">
</g><g
       id="g99">
</g><g
       id="g101">
</g><g
       id="g103">
</g><g
       id="g105">
</g><g
       id="g107">
</g><g
       id="g109">
</g><g
       id="g111">
</g><g
       id="g113">
</g><g
       id="g115">
</g></g></g></svg>
