<?xml version="1.0" encoding="UTF-8" standalone="no"?>
<svg xmlns:dc="http://purl.org/dc/elements/1.1/" xmlns:cc="http://creativecommons.org/ns#" xmlns:rdf="http://www.w3.org/1999/02/22-rdf-syntax-ns#"
    xmlns="http://www.w3.org/2000/svg" xmlns:sodipodi="http://sodipodi.sourceforge.net/DTD/sodipodi-0.dtd"
    xmlns:inkscape="http://www.inkscape.org/namespaces/inkscape" width="640pt" height="640pt"
    viewBox="0 0 640 640" version="1.1" id="svg24" sodipodi:docname="drug.svg" inkscape:version="0.92.4 (5da689c313, 2019-01-14)">
  <metadata
     id="metadata30">
    <rdf:RDF>
      <cc:Work
         rdf:about="">
        <dc:format>image/svg+xml</dc:format>
        <dc:type
           rdf:resource="http://purl.org/dc/dcmitype/StillImage" />
        <dc:title></dc:title>
      </cc:Work>
    </rdf:RDF>
  </metadata>
  <defs
     id="defs28">
    <pattern
       y="0"
       x="0"
       height="6"
       width="6"
       patternUnits="userSpaceOnUse"
       id="EMFhbasepattern" />
  </defs>
  <sodipodi:namedview
     pagecolor="#ffffff"
     bordercolor="#666666"
     borderopacity="1"
     objecttolerance="10"
     gridtolerance="10"
     guidetolerance="10"
     inkscape:pageopacity="0"
     inkscape:pageshadow="2"
     inkscape:window-width="1366"
     inkscape:window-height="705"
     id="namedview26"
     showgrid="false"
     inkscape:zoom="0.31347657"
     inkscape:cx="805.48287"
     inkscape:cy="426.66667"
     inkscape:window-x="-8"
     inkscape:window-y="-8"
     inkscape:window-maximized="1"
     inkscape:current-layer="svg24" />
  <g
     id="g4008"
     transform="matrix(3.0161775,0,0,3.0161775,-3973.6066,-2328.373)">
    <path
       inkscape:connector-curvature="0"
       style="fill:#025074;fill-opacity:1;fill-rule:nonzero;stroke:none;stroke-width:13.74612713"
       d="m 1389.4364,974.27825 c -1.0997,0 -2.1994,-1.09969 -3.2991,-1.09969 -1.0997,-1.09969 -2.1994,-2.19938 -4.3988,-3.29907 0,-1.09969 -1.0997,-2.1992 -2.1994,-3.29889 -1.0996,-1.09969 -2.1993,-2.19938 -2.1993,-3.29907 -1.0997,-1.09969 -2.1994,-2.19938 -2.1994,-3.29907 0,-1.09969 -1.0997,-2.19938 -1.0997,-3.29907 0,-1.09969 0,-1.09969 0,-2.19938 -1.0997,-1.09969 -1.0997,-2.19938 -1.0997,-3.29907 0,6.59814 5.4985,14.29597 14.296,19.79424 19.7944,12.09659 51.6836,12.09659 71.478,1.09969 9.8972,-6.59796 15.3957,-14.29579 15.3957,-20.89393 0,0 0,1.09969 0,1.09969 0,1.09969 -1.0997,3.29907 -1.0997,4.39876 0,1.09969 0,2.19938 -1.0997,2.19938 0,1.09969 0,1.09969 0,2.19938 -1.0997,1.09969 -2.1994,2.19938 -2.1994,3.29907 -1.0997,1.09969 -2.1994,2.19938 -2.1994,3.29907 -1.0997,0 -1.0997,1.09969 -2.1994,1.09969 -2.1993,2.1992 -3.299,3.29889 -5.4984,4.39858 -1.0997,1.09969 -2.1994,1.09969 -3.2991,2.19938 0,0 -2.1994,1.09969 -2.1994,1.09969 -1.0996,1.09969 -3.299,1.09969 -3.299,2.19938 -1.0997,0 -2.1994,0 -3.2991,1.09969 -3.2991,1.09969 -6.5981,1.09969 -7.6978,1.09969 -4.397,1.09969 -8.7957,2.19938 -14.2942,2.19938 -3.299,0 -5.4984,0 -6.5981,0 -2.1994,0 -4.3988,0 -6.5982,-1.09969 0,0 -3.299,0 -7.6978,-1.09969 -1.0997,0 -2.1994,0 -3.2991,-1.09969 -1.0996,0 -2.1993,0 -3.299,-1.09969 -1.0997,0 -2.1994,0 -3.2991,-1.09969 0,0 -2.1994,-1.09969 -2.1994,-1.09969 -1.0997,-1.09969 -3.299,-1.09969 -3.299,-2.19938 z"
       id="path3965" />
    <path
       inkscape:connector-curvature="0"
       style="fill:#025074;fill-opacity:1;fill-rule:nonzero;stroke:none;stroke-width:13.74612713"
       d="m 1372.941,951.18494 v -28.59176 c 0,7.69783 4.3988,14.29597 14.296,20.89393 18.6947,10.9969 50.5839,10.9969 71.478,0 9.8972,-5.49827 15.3957,-13.1961 15.3957,-20.89393 v 28.59176 c 0,6.59814 -5.4985,14.29597 -15.3957,20.89393 -19.7944,10.9969 -51.6836,10.9969 -71.478,-1.09969 -8.7975,-5.49827 -14.296,-13.1961 -14.296,-19.79424 z"
       id="path3967" />
    <path
       inkscape:connector-curvature="0"
       style="fill:#ff4a39;fill-opacity:1;fill-rule:nonzero;stroke:none;stroke-width:13.74612713"
       d="m 1372.941,922.59318 v -67.08055 c 0,6.59814 4.3988,14.29578 14.296,19.79424 18.6947,10.9969 50.5839,12.09659 71.478,1.09969 9.8972,-6.59815 15.3957,-14.29579 15.3957,-21.99362 v 68.18024 c 0,7.69783 -5.4985,15.39566 -15.3957,20.89393 -20.8941,10.9969 -52.7833,10.9969 -71.478,0 -9.8972,-6.59796 -14.296,-13.1961 -14.296,-20.89393 z"
       id="path3969" />
    <path
       inkscape:connector-curvature="0"
       style="fill:#025074;fill-opacity:1;fill-rule:nonzero;stroke:none;stroke-width:13.74612713"
       d="m 1473.011,840.11715 c 0,0 0,-1.09969 0,-2.19938 0,-1.09969 0,-2.19939 -1.0997,-3.29908 0,-2.19938 -1.0997,-5.49845 -3.2991,-9.89721 -1.0997,-1.09969 -2.1994,-3.29907 -3.2991,-4.39876 -1.0996,-1.09969 -2.1993,-2.1992 -3.299,-3.29889 -1.0997,0 -1.0997,-1.09969 -2.1994,-2.19938 -1.0997,0 -1.0997,-1.09969 -2.1994,-1.09969 -1.0997,-1.09969 -3.2991,-3.29907 -4.3987,-3.29907 -1.0997,-1.09969 -3.2991,-2.19938 -4.3988,-2.19938 0,-1.09969 -1.0997,-1.09969 -2.1994,-1.09969 -1.0997,-1.09969 -2.1994,-1.09969 -3.2991,-1.09969 -1.0997,-1.09969 -2.1993,-1.09969 -3.299,-1.09969 -1.0997,-1.09969 -3.2973,-1.09969 -5.4966,-2.19938 0,0 -1.0997,0 -2.1994,0 -1.0997,0 -2.1994,0 -3.2991,0 -1.0997,0 -3.2991,-1.09969 -5.4985,-1.09969 0,0 -1.0996,0 -2.1993,0 -1.0997,0 -2.1994,1.09969 -2.1994,1.09969 -1.0997,0 -2.1994,0 -3.2991,0 -1.0997,0 -4.3987,0 -5.4984,1.09969 -1.0997,0 -2.1994,0 -3.2991,1.09969 -2.1994,0 -4.3988,1.09969 -5.4985,1.09969 -1.0996,1.09969 -2.1993,1.09969 -3.299,2.19938 -1.0997,0 -2.1994,1.09969 -3.2991,1.09969 -1.0997,1.09969 -3.2991,2.19938 -4.3988,2.19938 -1.0996,1.09969 -3.299,3.29907 -4.3987,4.39876 -1.0997,0 -2.1994,2.1992 -3.2991,3.29889 0,0 -1.0997,1.09969 -1.0997,1.09969 -1.0997,1.09969 -2.1994,2.19938 -2.1994,3.29907 -1.0996,1.09969 -2.1993,2.19938 -2.1993,3.29907 -1.0997,1.09969 -1.0997,2.19938 -1.0997,3.29907 -1.0997,0 -1.0997,2.19938 -1.0997,3.29907 -1.0997,0 -1.0997,1.09969 -1.0997,2.19938 0,1.0997 -1.0997,2.19939 -1.0997,3.29908 0,1.09969 0,3.29907 0,5.49826 0,6.59814 4.3988,14.29598 14.296,19.79443 18.6947,12.09641 50.5839,12.09641 71.478,1.09969 9.8972,-6.59814 15.3957,-14.29598 15.3957,-20.89393 0,-1.09969 0,-3.29907 -1.0997,-4.39876 z"
       id="path3971" />
    <path
       inkscape:connector-curvature="0"
       style="fill:#025074;fill-opacity:1;fill-rule:nonzero;stroke:none;stroke-width:13.74612713"
       d="m 1372.941,855.51263 v -10.99691 c 0,6.59814 4.3988,14.29598 14.296,19.79443 18.6947,12.09641 50.5839,12.09641 71.478,1.09969 9.8972,-6.59814 15.3957,-14.29598 15.3957,-20.89412 v 9.89722 c 0,7.69783 -5.4985,15.39547 -15.3957,21.99362 -20.8941,10.9969 -52.7833,9.89721 -71.478,-1.09969 -9.8972,-5.49846 -14.296,-13.1961 -14.296,-19.79424 z"
       id="path3973" />
    <path
       inkscape:connector-curvature="0"
       style="fill:#ff5545;fill-opacity:1;fill-rule:nonzero;stroke:none;stroke-width:13.74612713"
       d="m 1443.3193,779.63455 c 10.9969,5.49845 10.9969,16.49517 -1.0997,21.99362 -10.995,6.59814 -28.5901,6.59814 -39.587,0 -10.9969,-6.59814 -9.8972,-16.49517 1.0997,-23.09331 10.9969,-6.59814 28.592,-5.49845 39.587,1.09969 z"
       id="path3975" />
    <path
       inkscape:connector-curvature="0"
       style="fill:#db4031;fill-opacity:1;fill-rule:nonzero;stroke:none;stroke-width:13.74612713"
       d="m 1389.4364,813.72476 v -18.69473 c 0,5.49845 3.299,9.89721 8.7975,14.29597 13.1963,7.69783 35.1901,7.69783 48.3845,0 7.6978,-3.29907 10.9969,-8.79752 10.9969,-14.29597 v 18.69473 c 0,5.49827 -3.2991,9.89703 -10.9969,14.29579 -13.1944,7.69783 -35.1882,7.69783 -48.3845,-1.09969 -5.4985,-3.29907 -8.7975,-8.79734 -8.7975,-13.1961 z"
       id="path3977" />
    <path
       inkscape:connector-curvature="0"
       style="fill:#ff4a39;fill-opacity:1;fill-rule:nonzero;stroke:none;stroke-width:13.74612713"
       d="m 1400.4333,778.53486 c 1.0996,0 2.1993,-1.09969 2.1993,-1.09969 1.0997,0 2.1994,-1.09969 2.1994,-1.09969 1.0997,0 3.2991,-1.09969 4.3988,-1.09969 1.0997,-1.09969 2.1994,-1.09969 2.1994,-1.09969 2.1993,0 4.3987,-1.09969 5.4984,-1.09969 0,0 1.0997,0 2.1994,0 1.0997,0 1.0997,0 2.1994,0 1.0997,0 2.1993,0 2.1993,0 2.1994,0 3.2991,0 5.4985,0 0,0 1.0997,0 2.1994,1.09969 0,0 2.1994,0 4.3987,0 1.0997,0 2.1976,1.09969 2.1976,1.09969 1.0997,0 3.2991,1.09969 4.3987,1.09969 1.0997,1.09969 1.0997,1.09969 2.1994,1.09969 1.0997,0 1.0997,1.09969 2.1994,1.09969 -1.0997,0 -2.1994,0 -3.2991,1.09969 -10.995,-6.59814 -28.5901,-7.69783 -39.587,-1.09969 -10.9969,6.59814 -12.0966,16.49517 -1.0997,23.09331 10.9969,6.59814 28.592,6.59814 39.587,0 12.0966,-5.49845 12.0966,-16.49517 1.0997,-21.99362 1.0997,-1.09969 2.1994,-1.09969 3.2991,-1.09969 0,1.09969 1.0997,1.09969 1.0997,1.09969 1.0997,1.09969 2.1994,2.19938 3.2991,2.19938 2.1994,2.19938 3.299,4.39876 3.299,4.39876 0,0 1.0997,1.09969 1.0997,2.19938 0,0 1.0997,1.09969 1.0997,2.19938 0,0 0,1.09969 0,1.09969 0,1.09969 1.0997,1.09969 1.0997,1.09969 0,1.09969 0,2.19938 0,2.19938 0,5.49827 -3.2991,10.99672 -10.9969,14.29579 -13.1944,7.69783 -35.1882,7.69783 -48.3845,0 -5.4985,-4.39876 -8.7975,-8.79752 -8.7975,-14.29597 0,0 0,-1.09969 0,-2.1992 0,-1.09969 0,-1.09969 0,-2.19938 1.0996,-1.09969 1.0996,-2.19938 3.299,-4.39876 0,-1.09969 1.0997,-2.19938 1.0997,-2.19938 1.0997,-1.09969 2.1994,-2.19938 2.1994,-2.19938 1.0997,-1.09969 2.1994,-1.09969 2.1994,-2.19938 1.0997,0 2.1994,-1.09969 2.1994,-1.09969 z"
       id="path3979" />
    <path
       inkscape:connector-curvature="0"
       style="fill:#ffffff;fill-opacity:1;fill-rule:nonzero;stroke:none;stroke-width:13.74612713"
       d="m 1456.5156,899.49987 c -8.7975,4.39876 -13.1963,5.49845 -21.9919,6.59814 v -18.69455 c -8.7976,1.09969 -13.1963,1.09969 -21.9939,0 v 18.69455 c -8.7975,-1.09969 -13.1962,-2.19938 -21.9938,-6.59814 v 18.69473 c 8.7976,4.39858 13.1963,5.49827 21.9938,6.59796 v 18.69455 c 8.7976,1.09969 13.1963,1.09969 21.9939,0 v -18.69455 c 8.7956,-1.09969 13.1944,-2.19938 21.9919,-6.59796 z"
       id="path3981" />
  </g>
</svg>
