<?xml version="1.0" encoding="UTF-8" standalone="no"?>
<!-- Generator: Adobe Illustrator 18.0.0, SVG Export Plug-In . SVG Version: 6.00 Build 0)  -->

<svg xmlns:dc="http://purl.org/dc/elements/1.1/" xmlns:cc="http://creativecommons.org/ns#" xmlns:rdf="http://www.w3.org/1999/02/22-rdf-syntax-ns#"
    xmlns="http://www.w3.org/2000/svg" xmlns:sodipodi="http://sodipodi.sourceforge.net/DTD/sodipodi-0.dtd"
    xmlns:inkscape="http://www.inkscape.org/namespaces/inkscape" version="1.1" id="Capa_1" x="0px" y="0px"
    viewBox="0 0 52 52" xml:space="preserve" sodipodi:docname="meat.svg" width="52" height="52"
    inkscape:version="0.92.3 (2405546, 2018-03-11)"><metadata
   id="metadata51"><rdf:RDF><cc:Work
       rdf:about=""><dc:format>image/svg+xml</dc:format><dc:type
         rdf:resource="http://purl.org/dc/dcmitype/StillImage" /><dc:title></dc:title></cc:Work></rdf:RDF></metadata><defs
   id="defs49">







</defs><sodipodi:namedview
   pagecolor="#ffffff"
   bordercolor="#666666"
   borderopacity="1"
   objecttolerance="10"
   gridtolerance="10"
   guidetolerance="10"
   inkscape:pageopacity="0"
   inkscape:pageshadow="2"
   inkscape:window-width="1366"
   inkscape:window-height="705"
   id="namedview47"
   showgrid="false"
   fit-margin-top="0"
   fit-margin-left="0"
   fit-margin-right="0"
   fit-margin-bottom="0"
   inkscape:zoom="10.540437"
   inkscape:cx="47.549421"
   inkscape:cy="25.378454"
   inkscape:window-x="-8"
   inkscape:window-y="-8"
   inkscape:window-maximized="1"
   inkscape:current-layer="Capa_1" />
<g
   id="g65"
   transform="translate(-4.9791537,0.61776627)"><path
     style="fill:#fbd490"
     d="m 28.65429,30.51229 c -0.52,-0.283 -0.993,-0.624 -1.406,-1.037 -0.546,-0.546 -0.967,-1.196 -1.288,-1.925 l -6.872,6.872 c -2.341,2.341 -5.573,3.552 -8.876,3.347 -0.3829997,-0.024 -0.7819997,0.007 -1.1899997,0.1 -1.444,0.33 -2.619,1.5 -2.951,2.944 -0.603,2.621 1.372,4.948 3.89,4.948 0.05,0 0.096,-0.013 0.1459997,-0.015 -0.2879997,1.095 -0.2879997,2.303 1.317,3.883 0.716,0.705 1.657,1.16 2.661,1.13 2.152,-0.065 3.876,-1.83 3.876,-3.998 0,-0.015 0,-0.03 0,-0.045 -0.037,-3.305 1.015,-6.526 3.352,-8.863 z"
     id="path8"
     inkscape:connector-curvature="0" /><ellipse
     transform="rotate(45)"
     style="fill:#c56458;stroke-width:0.9999904"
     cx="39.598038"
     cy="-22.50485"
     rx="15.999846"
     ry="5.9999423"
     id="ellipse2" /><path
     style="fill:#fbd490"
     d="M 42.499,13.501 C 40.117,11.119 38.451,8.856 37.379,7.015 36.822,6.06 37.886,4.996 38.842,5.552 c 1.84,1.072 4.104,2.738 6.486,5.12 2.382,2.382 4.048,4.645 5.12,6.486 0.557,0.955 -0.507,2.019 -1.463,1.463 -1.84,-1.073 -4.104,-2.738 -6.486,-5.12 z"
     id="path4"
     inkscape:connector-curvature="0" /><path
     style="fill:#773f3a"
     d="M 39.671,16.329 C 33.423,10.081 30.257,3.116 32.6,0.773 24.204,9.169 15.038,28.466 21.286,34.714 27.534,40.962 46.831,31.796 55.227,23.4 52.884,25.743 45.919,22.578 39.671,16.329 Z"
     id="path6"
     inkscape:connector-curvature="0" /><path
     style="fill:#994530"
     d="m 38.31,21.667 c -0.194,0 -0.391,-0.057 -0.563,-0.175 -1.036,-0.708 -2.057,-1.563 -3.034,-2.539 -0.977,-0.976 -1.832,-1.998 -2.54,-3.034 -0.414,-0.606 -1.098,-0.953 -1.848,-0.916 -0.746,0.032 -1.407,0.435 -1.77,1.077 -0.633,1.125 -1.181,2.261 -1.628,3.377 -0.205,0.512 -0.786,0.761 -1.3,0.557 -0.513,-0.206 -0.762,-0.788 -0.556,-1.301 0.479,-1.197 1.065,-2.413 1.742,-3.613 0.703,-1.25 1.984,-2.033 3.425,-2.095 1.448,-0.063 2.779,0.604 3.585,1.785 0.629,0.922 1.426,1.872 2.302,2.749 0.89,0.889 1.814,1.663 2.749,2.303 0.456,0.312 0.573,0.934 0.261,1.39 -0.192,0.282 -0.506,0.435 -0.825,0.435 z"
     id="path10"
     inkscape:connector-curvature="0" /><path
     style="fill:#994530"
     d="M 27.91,33.292 C 26.339,33.293 24.972,32.891 24.004,31.922 23.09,31.008 22.628,29.687 22.63,28 c 0.001,-0.553 0.448,-0.999 1,-0.999 0,0 0.001,0 0.001,0 0.552,10e-4 1,0.449 0.999,1.002 -10e-4,1.138 0.263,1.98 0.788,2.505 1.574,1.574 6.136,0.727 11.091,-2.063 0.483,-0.273 1.091,-0.101 1.362,0.381 0.271,0.48 0.1,1.091 -0.381,1.361 -3.057,1.722 -6.668,3.105 -9.58,3.105 z"
     id="path12"
     inkscape:connector-curvature="0" /></g>
<g
   id="g16"
   transform="translate(-5.9620041,1.2393129)">
</g>
<g
   id="g18"
   transform="translate(-5.9620041,1.2393129)">
</g>
<g
   id="g20"
   transform="translate(-5.9620041,1.2393129)">
</g>
<g
   id="g22"
   transform="translate(-5.9620041,1.2393129)">
</g>
<g
   id="g24"
   transform="translate(-5.9620041,1.2393129)">
</g>
<g
   id="g26"
   transform="translate(-5.9620041,1.2393129)">
</g>
<g
   id="g28"
   transform="translate(-5.9620041,1.2393129)">
</g>
<g
   id="g30"
   transform="translate(-5.9620041,1.2393129)">
</g>
<g
   id="g32"
   transform="translate(-5.9620041,1.2393129)">
</g>
<g
   id="g34"
   transform="translate(-5.9620041,1.2393129)">
</g>
<g
   id="g36"
   transform="translate(-5.9620041,1.2393129)">
</g>
<g
   id="g38"
   transform="translate(-5.9620041,1.2393129)">
</g>
<g
   id="g40"
   transform="translate(-5.9620041,1.2393129)">
</g>
<g
   id="g42"
   transform="translate(-5.9620041,1.2393129)">
</g>
<g
   id="g44"
   transform="translate(-5.9620041,1.2393129)">
</g>
</svg>
