<?xml version="1.0" encoding="UTF-8" standalone="no"?>
<svg xmlns:dc="http://purl.org/dc/elements/1.1/" xmlns:cc="http://creativecommons.org/ns#" xmlns:rdf="http://www.w3.org/1999/02/22-rdf-syntax-ns#"
    xmlns="http://www.w3.org/2000/svg" xmlns:sodipodi="http://sodipodi.sourceforge.net/DTD/sodipodi-0.dtd"
    xmlns:inkscape="http://www.inkscape.org/namespaces/inkscape" version="1.1" x="0px" y="0px"
    viewBox="0 0 160 160" xml:space="preserve" id="svg18" sodipodi:docname="other.svg"
    inkscape:version="0.92.3 (2405546, 2018-03-11)" width="160" height="160"><metadata
     id="metadata24"><rdf:RDF><cc:Work
         rdf:about=""><dc:format>image/svg+xml</dc:format><dc:type
           rdf:resource="http://purl.org/dc/dcmitype/StillImage" /><dc:title /></cc:Work></rdf:RDF></metadata><defs
     id="defs22" /><sodipodi:namedview
     pagecolor="#ffffff"
     bordercolor="#666666"
     borderopacity="1"
     objecttolerance="10"
     gridtolerance="10"
     guidetolerance="10"
     inkscape:pageopacity="0"
     inkscape:pageshadow="2"
     inkscape:window-width="1366"
     inkscape:window-height="705"
     id="namedview20"
     showgrid="false"
     inkscape:zoom="3.34375"
     inkscape:cx="80"
     inkscape:cy="80"
     inkscape:window-x="-8"
     inkscape:window-y="-8"
     inkscape:window-maximized="1"
     inkscape:current-layer="svg18" /><g
     id="g823"
     style="fill:#c2c4c8;fill-opacity:1;stroke:none;stroke-opacity:1"><g
       transform="translate(-20.5,-17.5)"
       style="fill:#c2c4c8;fill-opacity:1;stroke:none;stroke-opacity:1;stroke-width:8;stroke-miterlimit:4;stroke-dasharray:none"
       id="g4"><path
         style="fill:#c2c4c8;fill-opacity:1;stroke:none;stroke-width:8;stroke-miterlimit:4;stroke-dasharray:none;stroke-opacity:1"
         sodipodi:nodetypes="sssss"
         inkscape:connector-curvature="0"
         id="path2"
         d="m 101.1,88.7 c -14.7,0 -20.7,-6 -20.7,-20.7 0,-14.7 6,-20.7 20.7,-20.7 14.7,0 20.7,6 20.7,20.7 0,14.7 -6,20.7 -20.7,20.7 z" /></g><g
       style="fill:#c2c4c8;fill-opacity:1;stroke-width:8;stroke-miterlimit:4;stroke-dasharray:none;stroke:none;stroke-opacity:1"
       transform="translate(-20.5,-17.5)"
       id="g8"><path
         style="fill:#c2c4c8;fill-opacity:1;stroke:none;stroke-width:8;stroke-miterlimit:4;stroke-dasharray:none;stroke-opacity:1"
         sodipodi:nodetypes="sssss"
         inkscape:connector-curvature="0"
         id="path6"
         d="m 134.8,147.7 c -14.7,0 -20.7,-6 -20.7,-20.7 0,-14.7 6,-20.7 20.7,-20.7 14.7,0 20.7,6 20.7,20.7 0,14.7 -6,20.7 -20.7,20.7 z" /></g><g
       style="fill:#c2c4c8;fill-opacity:1;stroke:none;stroke-opacity:1;stroke-width:8;stroke-miterlimit:4;stroke-dasharray:none"
       transform="translate(-20.5,-17.5)"
       id="g12"><path
         style="fill:#c2c4c8;fill-opacity:1;stroke:none;stroke-width:8;stroke-miterlimit:4;stroke-dasharray:none;stroke-opacity:1"
         sodipodi:nodetypes="sssss"
         inkscape:connector-curvature="0"
         id="path10"
         d="m 66.2,147.7 c -14.7,0 -20.7,-6 -20.7,-20.7 0,-14.7 6,-20.7 20.7,-20.7 14.7,0 20.7,6 20.7,20.7 0,14.7 -6,20.7 -20.7,20.7 z" /></g></g></svg>
