<?xml version="1.0" encoding="UTF-8" standalone="no"?>
<!-- Generator: Adobe Illustrator 18.0.0, SVG Export Plug-In . SVG Version: 6.00 Build 0)  -->

<svg xmlns:dc="http://purl.org/dc/elements/1.1/" xmlns:cc="http://creativecommons.org/ns#" xmlns:rdf="http://www.w3.org/1999/02/22-rdf-syntax-ns#"
    xmlns="http://www.w3.org/2000/svg" xmlns:sodipodi="http://sodipodi.sourceforge.net/DTD/sodipodi-0.dtd"
    xmlns:inkscape="http://www.inkscape.org/namespaces/inkscape" version="1.1" id="Capa_1" x="0px" y="0px"
    viewBox="0 0 55.277 55.277" style="enable-background:new 0 0 55.277 55.277;" xml:space="preserve"
    sodipodi:docname="pastry.svg" inkscape:version="0.92.3 (2405546, 2018-03-11)"><metadata
   id="metadata65"><rdf:RDF><cc:Work
       rdf:about=""><dc:format>image/svg+xml</dc:format><dc:type
         rdf:resource="http://purl.org/dc/dcmitype/StillImage" /></cc:Work></rdf:RDF></metadata><defs
   id="defs63">













</defs><sodipodi:namedview
   pagecolor="#ffffff"
   bordercolor="#666666"
   borderopacity="1"
   objecttolerance="10"
   gridtolerance="10"
   guidetolerance="10"
   inkscape:pageopacity="0"
   inkscape:pageshadow="2"
   inkscape:window-width="694"
   inkscape:window-height="406"
   id="namedview61"
   showgrid="false"
   showguides="false"
   inkscape:zoom="1.5094632"
   inkscape:cx="27.6385"
   inkscape:cy="44.729339"
   inkscape:window-x="0"
   inkscape:window-y="74"
   inkscape:window-maximized="0"
   inkscape:current-layer="Capa_1" />
















<path
   inkscape:connector-curvature="0"
   id="path6"
   d="m 4.8510002,32.465611 4.5,11.085 c 2.9699998,5.46 5.3599998,6.893 11.1629998,9.118 3.793,1.455 10.978,1.455 14.742,0 5.742,-2.219 8.171,-3.616 11.112,-9.023 l 4.551,-11.18 c -2.546,-2.521 -6.667,0.291 -9.214,2.812 -2.533,-2.521 -6.634,-0.726 -9.167,1.795 -2.533,-2.521 -6.634,-2.521 -9.167,0 -2.559,-2.521 -6.701,-4.316 -9.26,-1.795 -2.559,-2.521 -6.7009998,-5.332 -9.2599998,-2.812 z"
   style="fill:#a46f3e" /><path
   inkscape:connector-curvature="0"
   id="path8"
   d="m 17.75,47.573611 c -0.376,0 -0.736,-0.213 -0.906,-0.576 l -2.764,-5.904 c -0.234,-0.5 -0.019,-1.096 0.482,-1.329 0.501,-0.233 1.096,-0.02 1.33,0.481 l 2.764,5.904 c 0.234,0.5 0.019,1.096 -0.482,1.329 -0.138,0.065 -0.282,0.095 -0.424,0.095 z"
   style="fill:#c18b5f" /><path
   inkscape:connector-curvature="0"
   id="path10"
   d="m 38.019,47.573611 c -0.142,0 -0.287,-0.03 -0.423,-0.095 -0.5,-0.233 -0.716,-0.829 -0.482,-1.329 l 2.764,-5.904 c 0.233,-0.501 0.831,-0.719 1.33,-0.481 0.5,0.233 0.716,0.829 0.482,1.329 l -2.764,5.904 c -0.171,0.363 -0.531,0.576 -0.907,0.576 z"
   style="fill:#c18b5f" /><path
   inkscape:connector-curvature="0"
   id="path12"
   d="m 31.571,49.669611 c -0.051,0 -0.104,-0.004 -0.156,-0.012 -0.545,-0.085 -0.919,-0.597 -0.834,-1.143 l 0.921,-5.904 c 0.085,-0.546 0.596,-0.916 1.143,-0.834 0.545,0.085 0.919,0.597 0.834,1.143 l -0.921,5.904 c -0.077,0.493 -0.503,0.846 -0.987,0.846 z"
   style="fill:#c18b5f" /><path
   inkscape:connector-curvature="0"
   id="path14"
   d="m 24.198,49.669611 c -0.484,0 -0.91,-0.353 -0.987,-0.846 l -0.921,-5.904 c -0.085,-0.546 0.289,-1.058 0.834,-1.143 0.546,-0.082 1.057,0.288 1.143,0.834 l 0.921,5.904 c 0.085,0.546 -0.289,1.058 -0.834,1.143 -0.053,0.008 -0.105,0.012 -0.156,0.012 z"
   style="fill:#c18b5f" /><path
   inkscape:connector-curvature="0"
   id="path16"
   d="m 47.823,23.741611 c 0.146,-0.497 0.224,-1.006 0.224,-1.524 0,-2.784 -0.790653,-6.713347 -5.757,-7.161 C 42.310431,8.0540935 37.3388,1.3494854 31.564174,1.5434272 27.803369,1.6697345 25.579334,6.191233 20.046224,2.8794455 11.919862,1.8192754 17.802632,13.61659 11.512263,11.474874 7.6566783,10.162142 11.208,21.732611 7.9430002,19.556611 c -0.452,0.85 -0.713,1.74 -0.713,2.662 0,0.518 0.078,1.027 0.224,1.524 -2.368,1.752 -3.746,3.831 -3.746,6.063 0,1.527 0.646,2.983 1.81,4.311 l -0.667,-1.651 c 2.559,-2.521 6.7009998,0.291 9.2599998,2.812 2.559,-2.521 6.701,-0.726 9.26,1.795 2.533,-2.521 6.634,-2.521 9.167,0 2.533,-2.521 6.634,-4.316 9.167,-1.795 2.541,-2.515 6.649,-5.318 9.196,-2.826 0.433,-0.85 0.668,-1.735 0.668,-2.648 0,-2.232 -1.378,-4.31 -3.746,-6.062 z"
   style="fill:#fff5bb"
   sodipodi:nodetypes="cscscscscscccccccsc" /><path
   inkscape:connector-curvature="0"
   id="path20"
   d="m 27.887,18.629611 c -0.552,0 -1,-0.447 -1,-1 0,-0.553 0.448,-1 1,-1 4.132,0 8.052,-0.523 11.335,-1.515 0.527,-0.159 1.087,0.14 1.247,0.668 0.159,0.529 -0.14,1.087 -0.668,1.246 -3.469,1.047 -7.589,1.601 -11.914,1.601 z"
   style="fill:#f9da49" /><path
   inkscape:connector-curvature="0"
   id="path22"
   d="m 13.054,27.587611 c -0.114,0 -0.229,-0.02 -0.342,-0.061 -1.111,-0.404 -2.181,-0.875 -3.1809998,-1.398 -0.489,-0.256 -0.679,-0.859 -0.423,-1.35 0.256,-0.489 0.86,-0.68 1.3499998,-0.422 0.922,0.481 1.911,0.916 2.939,1.291 0.519,0.189 0.786,0.763 0.597,1.282 -0.148,0.406 -0.532,0.658 -0.94,0.658 z"
   style="fill:#f9da49" /><path
   inkscape:connector-curvature="0"
   id="path24"
   d="m 27.637,29.934611 c -2.042,0 -4.073,-0.123 -6.08,-0.37 -0.548,-0.067 -0.938,-0.565 -0.871,-1.114 0.068,-0.548 0.575,-0.938 1.115,-0.87 4.012,0.493 8.124,0.472 12.222,-0.061 0.55,-0.08 1.049,0.314 1.121,0.862 0.072,0.548 -0.315,1.05 -0.863,1.12 -2.217,0.289 -4.437,0.433 -6.644,0.433 z"
   style="fill:#f9da49" /><path
   inkscape:connector-curvature="0"
   id="path26"
   d="m 39.711,28.414611 c -0.44,0 -0.843,-0.292 -0.964,-0.737 -0.145,-0.532 0.169,-1.082 0.702,-1.228 2.07,-0.564 3.914,-1.271 5.48,-2.098 0.488,-0.256 1.094,-0.07 1.351,0.418 0.258,0.488 0.071,1.093 -0.417,1.352 -1.695,0.895 -3.676,1.654 -5.887,2.258 -0.089,0.024 -0.178,0.035 -0.265,0.035 z"
   style="fill:#f9da49" /><g
   id="g30"
   transform="translate(-1.9989998,-1.5163892)">
</g><g
   id="g32"
   transform="translate(-1.9989998,-1.5163892)">
</g><g
   id="g34"
   transform="translate(-1.9989998,-1.5163892)">
</g><g
   id="g36"
   transform="translate(-1.9989998,-1.5163892)">
</g><g
   id="g38"
   transform="translate(-1.9989998,-1.5163892)">
</g><g
   id="g40"
   transform="translate(-1.9989998,-1.5163892)">
</g><g
   id="g42"
   transform="translate(-1.9989998,-1.5163892)">
</g><g
   id="g44"
   transform="translate(-1.9989998,-1.5163892)">
</g><g
   id="g46"
   transform="translate(-1.9989998,-1.5163892)">
</g><g
   id="g48"
   transform="translate(-1.9989998,-1.5163892)">
</g><g
   id="g50"
   transform="translate(-1.9989998,-1.5163892)">
</g><g
   id="g52"
   transform="translate(-1.9989998,-1.5163892)">
</g><g
   id="g54"
   transform="translate(-1.9989998,-1.5163892)">
</g><g
   id="g56"
   transform="translate(-1.9989998,-1.5163892)">
</g><g
   id="g58"
   transform="translate(-1.9989998,-1.5163892)">
</g><path
   inkscape:connector-curvature="0"
   id="path22-9"
   d="m 21.079285,18.426156 c -0.114,0 -0.229,-0.02 -0.342,-0.061 -1.111,-0.404 -2.181,-0.875 -3.181,-1.398 -0.489,-0.256 -0.679,-0.859 -0.423,-1.35 0.256,-0.489 0.86,-0.68 1.35,-0.422 0.922,0.481 1.911,0.916 2.939,1.291 0.519,0.189 0.786,0.763 0.597,1.282 -0.148,0.406 -0.532,0.658 -0.94,0.658 z"
   style="fill:#f9da49" /><path
   inkscape:connector-curvature="0"
   id="path22-9-0"
   d="m 32.28559,8.493956 c -0.06342,0 -0.127408,-0.01737 -0.190267,-0.052978 C 31.477232,8.0901073 30.881953,7.6810475 30.325614,7.2268262 30.053565,7.0044921 29.947861,6.4807915 30.090285,6.0543619 c 0.142421,-0.4246926 0.478449,-0.5905747 0.751053,-0.3665036 0.512944,0.4177447 1.063161,0.7955386 1.635076,1.1212232 0.288738,0.1641457 0.437281,0.6626595 0.332134,1.1134068 -0.08234,0.3526078 -0.295972,0.5714677 -0.522958,0.5714677 z"
   style="fill:#f9da49;stroke-width:0.69510752" /></svg>
