<?xml version="1.0" encoding="UTF-8" standalone="no"?>
<svg xmlns:dc="http://purl.org/dc/elements/1.1/" xmlns:cc="http://creativecommons.org/ns#" xmlns:rdf="http://www.w3.org/1999/02/22-rdf-syntax-ns#"
    xmlns="http://www.w3.org/2000/svg" xmlns:sodipodi="http://sodipodi.sourceforge.net/DTD/sodipodi-0.dtd"
    xmlns:inkscape="http://www.inkscape.org/namespaces/inkscape" height="680pt" version="1.1"
    viewBox="0 0 680 680.76613" width="680pt" id="svg17" sodipodi:docname="tool.svg"
    inkscape:version="0.92.3 (2405546, 2018-03-11)">
  <metadata
     id="metadata23">
    <rdf:RDF>
      <cc:Work
         rdf:about="">
        <dc:format>image/svg+xml</dc:format>
        <dc:type
           rdf:resource="http://purl.org/dc/dcmitype/StillImage" />
        <dc:title></dc:title>
      </cc:Work>
    </rdf:RDF>
  </metadata>
  <defs
     id="defs21" />
  <sodipodi:namedview
     pagecolor="#ffffff"
     bordercolor="#666666"
     borderopacity="1"
     objecttolerance="10"
     gridtolerance="10"
     guidetolerance="10"
     inkscape:pageopacity="0"
     inkscape:pageshadow="2"
     inkscape:window-width="1366"
     inkscape:window-height="705"
     id="namedview19"
     showgrid="false"
     inkscape:zoom="0.256296"
     inkscape:cx="863.33146"
     inkscape:cy="400"
     inkscape:window-x="-8"
     inkscape:window-y="-8"
     inkscape:window-maximized="1"
     inkscape:current-layer="svg17" />
  <g
     id="surface1"
     transform="translate(39.183353,39.883204)">
    <path
       d="M 579.87891,474.89062 456.54687,351.5625 l -5.16796,5.16797 c -8.5625,8.5625 -22.45704,8.5625 -31.01563,0 -8.5625,-8.5586 -8.5625,-22.45313 0,-31.01563 l 5.16797,-5.16797 -31.01563,-31.01562 -103.38671,103.38672 31.01562,31.01562 5.17188,-5.17187 c 8.55859,-8.5586 22.45312,-8.5586 31.01562,0 8.55859,8.5625 8.55859,22.45703 0,31.01953 l -5.17187,5.16797 123.33203,123.32812 c 3.74218,3.71485 7.86718,7.01172 12.3125,9.83203 L 589.71094,487.20703 c -2.83594,-4.44531 -6.13282,-8.58203 -9.83203,-12.31641 z m 0,0"
       style="fill:#87b335;fill-opacity:1;fill-rule:nonzero;stroke:none"
       id="path2"
       inkscape:connector-curvature="0" />
    <path
       d="M 589.71094,487.20703 488.80469,588.10937 c 33.92968,21.79688 79.11328,11.96485 100.90625,-21.96875 15.44531,-24.04687 15.44531,-54.89843 0,-78.93359 z m 0,0"
       style="fill:#d9dcde;fill-opacity:1;fill-rule:nonzero;stroke:none"
       id="path4"
       inkscape:connector-curvature="0" />
    <path
       d="M 125.71094,82.757812 115.375,41.402344 43.003906,0.0507812 1.648438,41.402344 43.003906,113.77344 84.359375,124.11328 322.14453,361.90234 363.5,320.54687 Z m 0,0"
       style="fill:#cfd1d4;fill-opacity:1;fill-rule:nonzero;stroke:none"
       id="path6"
       inkscape:connector-curvature="0" />
    <path
       d="m 597.79297,86.253906 -68.875,68.875004 -62.03125,-20.67579 -20.67578,-62.035151 68.875,-68.875 C 454.48047,-11.921875 392.82031,24.675781 377.35547,85.28125 c -4.6836,18.37109 -4.6836,37.62109 0,55.99219 L 142.875,375.75391 C 81.648438,360.21484 19.421875,397.23828 3.882812,458.46484 -11.660156,519.6875 25.363281,581.91797 86.589844,597.45703 147.81641,612.99609 210.04297,575.97266 225.58203,514.75 c 4.68359,-18.46484 4.68359,-37.82031 0,-56.28516 L 460.0625,223.98437 c 60.64844,15.42579 122.30469,-21.23437 137.73047,-81.88281 4.65234,-18.32812 4.65234,-37.52734 0,-55.847654 z M 146.39062,537.66016 H 84.359375 l -31.019531,-51.69532 31.019531,-51.6914 h 62.031245 l 31.01563,51.6914 z m 0,0"
       style="fill:#d9dcde;fill-opacity:1;fill-rule:nonzero;stroke:none"
       id="path8"
       inkscape:connector-curvature="0" />
    <path
       d="m 180.41016,406.27734 227.44921,-227.44922 14.6211,14.6211 -227.44922,227.44922 z m 0,0"
       style="fill:#b5b8b8;fill-opacity:1;fill-rule:nonzero;stroke:none"
       id="path10"
       inkscape:connector-curvature="0" />
    <path
       d="m 407.86719,420.90625 14.62109,-14.62109 103.38281,103.38671 -14.62109,14.6211 z m 0,0"
       style="fill:#689428;fill-opacity:1;fill-rule:nonzero;stroke:none"
       id="path12"
       inkscape:connector-curvature="0" />
    <path
       d="m 601.28906,526.58594 c -0.0117,-13.96875 -4.03125,-27.63672 -11.57812,-39.37891 l -29.77735,29.77344 v 75.3789 c 25.26953,-12.16796 41.33594,-37.73437 41.35547,-65.77343 z m 0,0"
       style="fill:#cfd1d4;fill-opacity:1;fill-rule:nonzero;stroke:none"
       id="path14"
       inkscape:connector-curvature="0" />
  </g>
</svg>
