<?xml version="1.0" encoding="UTF-8" standalone="no"?>
<svg xmlns:dc="http://purl.org/dc/elements/1.1/" xmlns:cc="http://creativecommons.org/ns#" xmlns:rdf="http://www.w3.org/1999/02/22-rdf-syntax-ns#"
    xmlns="http://www.w3.org/2000/svg" xmlns:sodipodi="http://sodipodi.sourceforge.net/DTD/sodipodi-0.dtd"
    xmlns:inkscape="http://www.inkscape.org/namespaces/inkscape" width="18.5" height="18.5" viewBox="0 0 18.5 18.5"
    version="1.1" id="svg6" sodipodi:docname="bakery.svg" inkscape:version="0.92.3 (2405546, 2018-03-11)">
  <metadata
     id="metadata12">
    <rdf:RDF>
      <cc:Work
         rdf:about="">
        <dc:format>image/svg+xml</dc:format>
        <dc:type
           rdf:resource="http://purl.org/dc/dcmitype/StillImage" />
        <dc:title />
      </cc:Work>
    </rdf:RDF>
  </metadata>
  <defs
     id="defs10" />
  <sodipodi:namedview
     pagecolor="#ffffff"
     bordercolor="#666666"
     borderopacity="1"
     objecttolerance="10"
     gridtolerance="10"
     guidetolerance="10"
     inkscape:pageopacity="0"
     inkscape:pageshadow="2"
     inkscape:window-width="1366"
     inkscape:window-height="705"
     id="namedview8"
     showgrid="false"
     inkscape:measure-start="0,0"
     inkscape:measure-end="0,0"
     inkscape:zoom="28.918919"
     inkscape:cx="9.25"
     inkscape:cy="9.25"
     inkscape:window-x="-8"
     inkscape:window-y="-8"
     inkscape:window-maximized="1"
     inkscape:current-layer="svg6"
     fit-margin-top="0"
     fit-margin-left="0"
     fit-margin-right="0"
     fit-margin-bottom="0" />
  <path
     d="m 16.539493,5.7367249 c -0.07131,-0.364464 -0.396157,-0.633851 -0.776467,-0.633851 H 6.76005 c -0.3803101,0 -0.7051584,0.269387 -0.7764667,0.633851 L 3.8829242,11.873027 c -0.095078,0.491234 0.245211,0.950776 0.7443681,0.950776 h 0.1426162 v 3.961564 c 0,0.435772 0.2790484,0.792313 0.7148205,0.792313 h 6.843156 c 0.435772,0 0.79834,-0.356583 0.792313,-0.792313 v -3.961564 h 2.961985 v 3.961564 c 0,0.435772 0.301127,0.792313 0.736899,0.792313 0.435772,0 0.79071,-0.356561 0.794972,-0.792313 v -3.961564 h 0.142616 c 0.499157,0 0.736503,-0.459542 0.641426,-0.950776 z"
     id="path4"
     inkscape:connector-curvature="0"
     sodipodi:nodetypes="cssccscssscccssscscc"
     style="stroke-width:0.79231286" />
  <g
     transform="matrix(0.32659495,0,0,0.32659495,0.08129746,-0.23134514)"
     id="g112">
    <path
       inkscape:connector-curvature="0"
       id="path2"
       d="m 6.8421567,53.678973 c -9.784,-4.462 3.099,-16.571 6.7420003,-21.436 5.051,-6.744 11.29,-12.945 18.148,-17.848 3.515,-2.513 9.668,-8.4209999 14.231,-8.5019999 4.643,-0.083 4.799,5.2159999 3.401,7.8759999 -3.477,6.613 -8.066,12.7 -13.195,18.1 -1.96,2.066 -26.037,25.1 -29.3270003,21.81 z"
       style="fill:#fbd490" />
    <path
       inkscape:connector-curvature="0"
       id="path4-8"
       d="m 10.057157,36.491973 c 1.402,-1.672 2.702,-3.147 3.527,-4.249 5.052,-6.744 11.29,-12.945 18.148,-17.848 0.723,-0.517 1.562,-1.181 2.472,-1.905 1.08,-1.634 2.091,-3.3109999 2.998,-5.0379999 1.128,-2.146 1.002,-6.421 -2.744,-6.354 -3.681,0.066 -8.644,4.832 -11.48,6.859 -5.532,3.9549999 -10.565,8.9569999 -14.6400003,14.3979999 -2.937,3.924 -13.329,13.692 -5.437,17.292 0.902,0.902 3.741,-0.651 7.1560003,-3.155 z"
       style="fill:#eeaf4b" />
    <path
       inkscape:connector-curvature="0"
       id="path8"
       d="m 14.392157,46.319973 c -1.087,0 -2.174,-0.414 -3.002,-1.241 -0.875,-0.875 -2.3010003,-0.875 -3.1760003,0 -0.391,0.391 -1.023,0.391 -1.414,0 -0.391,-0.391 -0.391,-1.023 0,-1.414 1.654,-1.656 4.3500003,-1.656 6.0040003,0 0.875,0.875 2.301,0.875 3.176,0 0.391,-0.391 1.023,-0.391 1.414,0 0.391,0.391 0.391,1.024 0,1.414 -0.829,0.827 -1.915,1.241 -3.002,1.241 z"
       style="fill:#f1b501" />
    <path
       inkscape:connector-curvature="0"
       id="path10"
       d="m 20.511157,40.199973 c -1.087,0 -2.175,-0.413 -3.002,-1.241 -0.85,-0.851 -2.326,-0.849 -3.175,0 -0.391,0.391 -1.023,0.391 -1.414,0 -0.391,-0.39 -0.391,-1.023 0,-1.414 0.802,-0.803 1.867,-1.244 3.002,-1.244 1.134,0 2.199,0.441 3.001,1.244 0.875,0.875 2.301,0.875 3.176,0 0.391,-0.391 1.023,-0.391 1.414,0 0.391,0.391 0.391,1.023 0,1.414 -0.827,0.828 -1.915,1.241 -3.002,1.241 z"
       style="fill:#f1b501" />
    <path
       inkscape:connector-curvature="0"
       id="path12"
       d="m 26.631157,34.079973 c -1.087,0 -2.175,-0.413 -3.002,-1.241 -0.875,-0.875 -2.301,-0.875 -3.176,0 -0.391,0.391 -1.023,0.391 -1.414,0 -0.391,-0.391 -0.391,-1.023 0,-1.414 1.654,-1.656 4.35,-1.656 6.004,0 0.875,0.875 2.301,0.875 3.176,0 0.391,-0.391 1.023,-0.391 1.414,0 0.391,0.391 0.391,1.023 0,1.414 -0.827,0.828 -1.915,1.241 -3.002,1.241 z"
       style="fill:#f1b501" />
    <path
       inkscape:connector-curvature="0"
       id="path14"
       d="m 32.750157,27.959973 c -1.087,0 -2.175,-0.413 -3.002,-1.241 -0.875,-0.875 -2.301,-0.875 -3.176,0 -0.391,0.391 -1.023,0.391 -1.414,0 -0.391,-0.391 -0.391,-1.023 0,-1.414 1.654,-1.656 4.35,-1.656 6.004,0 0.875,0.875 2.301,0.875 3.176,0 0.391,-0.391 1.023,-0.391 1.414,0 0.391,0.391 0.391,1.023 0,1.414 -0.827,0.828 -1.915,1.241 -3.002,1.241 z"
       style="fill:#f1b501" />
    <path
       inkscape:connector-curvature="0"
       id="path16"
       d="m 38.870157,21.843973 c -1.134,0 -2.199,-0.441 -3.002,-1.244 -0.875,-0.875 -2.301,-0.875 -3.176,0 -0.391,0.391 -1.023,0.391 -1.414,0 -0.391,-0.391 -0.391,-1.023 0,-1.414 1.654,-1.656 4.35,-1.656 6.004,0 0.848,0.849 2.323,0.85 3.175,0 0.391,-0.391 1.023,-0.391 1.414,0 0.391,0.39 0.391,1.023 0,1.414 -0.802,0.803 -1.867,1.244 -3.001,1.244 z"
       style="fill:#f1b501" />
    <path
       inkscape:connector-curvature="0"
       id="path18"
       d="m 28.791157,13.425973 c -0.989,0 -1.979,-0.377 -2.731,-1.13 -0.727,-0.727 -1.908,-0.727 -2.635,0 -0.391,0.391 -1.023,0.391 -1.414,0 -0.391,-0.391 -0.391,-1.023 0,-1.414 1.506,-1.5059999 3.957,-1.5059999 5.463,0 0.727,0.727 1.908,0.727 2.635,0 0.391,-0.391 1.023,-0.391 1.414,0 0.391,0.391 0.391,1.023 0,1.414 -0.753,0.753 -1.743,1.13 -2.732,1.13 z"
       style="fill:#fbd490" />
    <path
       inkscape:connector-curvature="0"
       id="path20"
       d="m 20.137157,20.624973 c -0.989,0 -1.979,-0.376 -2.731,-1.129 -0.728,-0.728 -1.909,-0.726 -2.635,0 -0.391,0.391 -1.023,0.391 -1.414,0 -0.391,-0.391 -0.391,-1.023 0,-1.414 1.506,-1.506 3.957,-1.506 5.463,0 0.727,0.725 1.908,0.725 2.635,0 0.391,-0.391 1.023,-0.391 1.414,0 0.391,0.391 0.391,1.024 0,1.414 -0.754,0.753 -1.743,1.129 -2.732,1.129 z"
       style="fill:#fbd490" />
    <path
       inkscape:connector-curvature="0"
       id="path22"
       d="m 12.563157,29.279973 c -0.989,0 -1.978,-0.376 -2.7310003,-1.129 -0.704,-0.704 -1.928,-0.706 -2.634,0 -0.391,0.391 -1.023,0.391 -1.414,0 -0.391,-0.39 -0.391,-1.023 0,-1.414 1.46,-1.461 4.004,-1.461 5.4620003,0 0.728,0.728 1.909,0.726 2.635,0 0.391,-0.391 1.023,-0.391 1.414,0 0.391,0.391 0.391,1.023 0,1.414 -0.753,0.753 -1.742,1.129 -2.732,1.129 z"
       style="fill:#fbd490" />
    <path
       inkscape:connector-curvature="0"
       id="path30"
       d="m 43.842157,15.565973 c -0.989,0 -1.92,-0.386 -2.619,-1.086 -0.665,-0.666 -1.748,-0.664 -2.411,0 -0.391,0.391 -1.023,0.391 -1.414,0 -0.391,-0.391 -0.391,-1.024 0,-1.414 1.447,-1.444 3.796,-1.442 5.239,0 0.645,0.645 1.766,0.645 2.41,0 0.391,-0.391 1.023,-0.391 1.414,0 0.391,0.39 0.391,1.023 0,1.414 -0.699,0.7 -1.63,1.086 -2.619,1.086 z"
       style="fill:#f1b501" />
    <g
       id="g34"
       transform="translate(-0.44184326,1.0979731)" />
    <g
       id="g36"
       transform="translate(-0.44184326,1.0979731)" />
    <g
       id="g38"
       transform="translate(-0.44184326,1.0979731)" />
    <g
       id="g40"
       transform="translate(-0.44184326,1.0979731)" />
    <g
       id="g42"
       transform="translate(-0.44184326,1.0979731)" />
    <g
       id="g44"
       transform="translate(-0.44184326,1.0979731)" />
    <g
       id="g46"
       transform="translate(-0.44184326,1.0979731)" />
    <g
       id="g48"
       transform="translate(-0.44184326,1.0979731)" />
    <g
       id="g50"
       transform="translate(-0.44184326,1.0979731)" />
    <g
       id="g52"
       transform="translate(-0.44184326,1.0979731)" />
    <g
       id="g54"
       transform="translate(-0.44184326,1.0979731)" />
    <g
       id="g56"
       transform="translate(-0.44184326,1.0979731)" />
    <g
       id="g58"
       transform="translate(-0.44184326,1.0979731)" />
    <g
       id="g60"
       transform="translate(-0.44184326,1.0979731)" />
    <g
       id="g62"
       transform="translate(-0.44184326,1.0979731)" />
  </g>
</svg>
