<?xml version="1.0" encoding="UTF-8" standalone="no"?>
<svg xmlns:dc="http://purl.org/dc/elements/1.1/" xmlns:cc="http://creativecommons.org/ns#" xmlns:rdf="http://www.w3.org/1999/02/22-rdf-syntax-ns#"
    xmlns="http://www.w3.org/2000/svg" xmlns:sodipodi="http://sodipodi.sourceforge.net/DTD/sodipodi-0.dtd"
    xmlns:inkscape="http://www.inkscape.org/namespaces/inkscape" width="18.5" height="18.5" viewBox="0 0 18.5 18.5"
    version="1.1" id="svg6" sodipodi:docname="hardwary.svg" inkscape:version="0.92.3 (2405546, 2018-03-11)">
  <metadata
     id="metadata12">
    <rdf:RDF>
      <cc:Work
         rdf:about="">
        <dc:format>image/svg+xml</dc:format>
        <dc:type
           rdf:resource="http://purl.org/dc/dcmitype/StillImage" />
        <dc:title />
      </cc:Work>
    </rdf:RDF>
  </metadata>
  <defs
     id="defs10" />
  <sodipodi:namedview
     pagecolor="#ffffff"
     bordercolor="#666666"
     borderopacity="1"
     objecttolerance="10"
     gridtolerance="10"
     guidetolerance="10"
     inkscape:pageopacity="0"
     inkscape:pageshadow="2"
     inkscape:window-width="1366"
     inkscape:window-height="705"
     id="namedview8"
     showgrid="false"
     inkscape:measure-start="0,0"
     inkscape:measure-end="0,0"
     inkscape:zoom="20.448764"
     inkscape:cx="13.162217"
     inkscape:cy="9.25"
     inkscape:window-x="-8"
     inkscape:window-y="-8"
     inkscape:window-maximized="1"
     inkscape:current-layer="svg6"
     fit-margin-top="0"
     fit-margin-left="0"
     fit-margin-right="0"
     fit-margin-bottom="0" />
  <path
     d="m 16.536209,3.8843589 c -0.07131,-0.364464 -0.396157,-0.633851 -0.776467,-0.633851 H 6.7567664 c -0.3803101,0 -0.7051584,0.269387 -0.7764667,0.633851 l -2.0104314,6.1363021 0.6541404,0.950776 h 0.1426162 v 3.961564 c 0,0.435772 0.2790484,0.792313 0.7148205,0.792313 h 6.8431556 c 0.435772,0 0.79834,-0.356583 0.792313,-0.792313 v -3.961564 h 2.961985 v 3.961564 c 0,0.435772 0.301127,0.792313 0.736899,0.792313 0.435772,0 0.79071,-0.356561 0.794972,-0.792313 v -3.961564 h 0.142616 c 0.499157,0 0.736503,-0.459542 0.641426,-0.950776 z"
     id="path4"
     inkscape:connector-curvature="0"
     sodipodi:nodetypes="cssccccssscccssscscc"
     style="stroke-width:0.79231286" />
  <g
     transform="matrix(0.22470598,0,0,0.22470598,1.3144908,-0.33305317)"
     id="g26" />
  <g
     transform="matrix(0.22470598,0,0,0.22470598,1.3144908,-0.33305317)"
     id="g28" />
  <g
     transform="matrix(0.22470598,0,0,0.22470598,1.3144908,-0.33305317)"
     id="g30" />
  <g
     transform="matrix(0.22470598,0,0,0.22470598,1.3144908,-0.33305317)"
     id="g32" />
  <g
     transform="matrix(0.22470598,0,0,0.22470598,1.3144908,-0.33305317)"
     id="g34" />
  <g
     transform="matrix(0.22470598,0,0,0.22470598,1.3144908,-0.33305317)"
     id="g36" />
  <g
     transform="matrix(0.22470598,0,0,0.22470598,1.3144908,-0.33305317)"
     id="g38" />
  <g
     transform="matrix(0.22470598,0,0,0.22470598,1.3144908,-0.33305317)"
     id="g40" />
  <g
     transform="matrix(0.22470598,0,0,0.22470598,1.3144908,-0.33305317)"
     id="g42" />
  <g
     transform="matrix(0.22470598,0,0,0.22470598,1.3144908,-0.33305317)"
     id="g44" />
  <g
     transform="matrix(0.22470598,0,0,0.22470598,1.3144908,-0.33305317)"
     id="g46" />
  <g
     transform="matrix(0.22470598,0,0,0.22470598,1.3144908,-0.33305317)"
     id="g48" />
  <g
     transform="matrix(0.22470598,0,0,0.22470598,1.3144908,-0.33305317)"
     id="g50" />
  <g
     transform="matrix(0.22470598,0,0,0.22470598,1.3144908,-0.33305317)"
     id="g52" />
  <g
     transform="matrix(0.22470598,0,0,0.22470598,1.3144908,-0.33305317)"
     id="g54" />
  <g
     transform="matrix(0.02041766,0,0,0.02041766,0.08567733,0.07547341)"
     id="surface1">
    <path
       inkscape:connector-curvature="0"
       id="path2-8"
       style="fill:#87b335;fill-opacity:1;fill-rule:nonzero;stroke:none"
       d="M 579.87891,474.89062 456.54687,351.5625 l -5.16796,5.16797 c -8.5625,8.5625 -22.45704,8.5625 -31.01563,0 -8.5625,-8.5586 -8.5625,-22.45313 0,-31.01563 l 5.16797,-5.16797 -31.01563,-31.01562 -103.38671,103.38672 31.01562,31.01562 5.17188,-5.17187 c 8.55859,-8.5586 22.45312,-8.5586 31.01562,0 8.55859,8.5625 8.55859,22.45703 0,31.01953 l -5.17187,5.16797 123.33203,123.32812 c 3.74218,3.71485 7.86718,7.01172 12.3125,9.83203 L 589.71094,487.20703 c -2.83594,-4.44531 -6.13282,-8.58203 -9.83203,-12.31641 z m 0,0" />
    <path
       inkscape:connector-curvature="0"
       id="path4-55"
       style="fill:#d9dcde;fill-opacity:1;fill-rule:nonzero;stroke:none"
       d="M 589.71094,487.20703 488.80469,588.10937 c 33.92968,21.79688 79.11328,11.96485 100.90625,-21.96875 15.44531,-24.04687 15.44531,-54.89843 0,-78.93359 z m 0,0" />
    <path
       inkscape:connector-curvature="0"
       id="path6-3"
       style="fill:#cfd1d4;fill-opacity:1;fill-rule:nonzero;stroke:none"
       d="M 125.71094,82.757812 115.375,41.402344 43.003906,0.0507812 1.648438,41.402344 43.003906,113.77344 84.359375,124.11328 322.14453,361.90234 363.5,320.54687 Z m 0,0" />
    <path
       inkscape:connector-curvature="0"
       id="path8-0"
       style="fill:#d9dcde;fill-opacity:1;fill-rule:nonzero;stroke:none"
       d="m 597.79297,86.253906 -68.875,68.875004 -62.03125,-20.67579 -20.67578,-62.035151 68.875,-68.875 C 454.48047,-11.921875 392.82031,24.675781 377.35547,85.28125 c -4.6836,18.37109 -4.6836,37.62109 0,55.99219 L 142.875,375.75391 C 81.648438,360.21484 19.421875,397.23828 3.882812,458.46484 -11.660156,519.6875 25.363281,581.91797 86.589844,597.45703 147.81641,612.99609 210.04297,575.97266 225.58203,514.75 c 4.68359,-18.46484 4.68359,-37.82031 0,-56.28516 L 460.0625,223.98437 c 60.64844,15.42579 122.30469,-21.23437 137.73047,-81.88281 4.65234,-18.32812 4.65234,-37.52734 0,-55.847654 z M 146.39062,537.66016 H 84.359375 l -31.019531,-51.69532 31.019531,-51.6914 h 62.031245 l 31.01563,51.6914 z m 0,0" />
    <path
       inkscape:connector-curvature="0"
       id="path10-4"
       style="fill:#b5b8b8;fill-opacity:1;fill-rule:nonzero;stroke:none"
       d="m 180.41016,406.27734 227.44921,-227.44922 14.6211,14.6211 -227.44922,227.44922 z m 0,0" />
    <path
       inkscape:connector-curvature="0"
       id="path12-7"
       style="fill:#689428;fill-opacity:1;fill-rule:nonzero;stroke:none"
       d="m 407.86719,420.90625 14.62109,-14.62109 103.38281,103.38671 -14.62109,14.6211 z m 0,0" />
    <path
       inkscape:connector-curvature="0"
       id="path14-6"
       style="fill:#cfd1d4;fill-opacity:1;fill-rule:nonzero;stroke:none"
       d="m 601.28906,526.58594 c -0.0117,-13.96875 -4.03125,-27.63672 -11.57812,-39.37891 l -29.77735,29.77344 v 75.3789 c 25.26953,-12.16796 41.33594,-37.73437 41.35547,-65.77343 z m 0,0" />
  </g>
</svg>
