<?xml version="1.0" encoding="UTF-8" standalone="no"?>
<svg xmlns:dc="http://purl.org/dc/elements/1.1/" xmlns:cc="http://creativecommons.org/ns#" xmlns:rdf="http://www.w3.org/1999/02/22-rdf-syntax-ns#"
    xmlns="http://www.w3.org/2000/svg" xmlns:sodipodi="http://sodipodi.sourceforge.net/DTD/sodipodi-0.dtd"
    xmlns:inkscape="http://www.inkscape.org/namespaces/inkscape" width="18.5" height="18.5" viewBox="0 0 18.5 18.5"
    version="1.1" id="svg6" sodipodi:docname="ice_creamy.svg" inkscape:version="0.92.3 (2405546, 2018-03-11)">
  <metadata
     id="metadata12">
    <rdf:RDF>
      <cc:Work
         rdf:about="">
        <dc:format>image/svg+xml</dc:format>
        <dc:type
           rdf:resource="http://purl.org/dc/dcmitype/StillImage" />
        <dc:title />
      </cc:Work>
    </rdf:RDF>
  </metadata>
  <defs
     id="defs10" />
  <sodipodi:namedview
     pagecolor="#ffffff"
     bordercolor="#666666"
     borderopacity="1"
     objecttolerance="10"
     gridtolerance="10"
     guidetolerance="10"
     inkscape:pageopacity="0"
     inkscape:pageshadow="2"
     inkscape:window-width="1366"
     inkscape:window-height="705"
     id="namedview8"
     showgrid="false"
     inkscape:measure-start="0,0"
     inkscape:measure-end="0,0"
     inkscape:zoom="20.448764"
     inkscape:cx="9.25"
     inkscape:cy="9.25"
     inkscape:window-x="-8"
     inkscape:window-y="-8"
     inkscape:window-maximized="1"
     inkscape:current-layer="g1014"
     fit-margin-top="0"
     fit-margin-left="0"
     fit-margin-right="0"
     fit-margin-bottom="0" />
  <path
     d="m 16.536209,3.8843589 c -0.07131,-0.364464 -0.396157,-0.633851 -0.776467,-0.633851 H 6.7567664 c -0.3803101,0 -0.7051584,0.269387 -0.7764667,0.633851 l -2.0104314,6.1363021 0.6541404,0.950776 h 0.1426162 v 3.961564 c 0,0.435772 0.2790484,0.792313 0.7148205,0.792313 h 6.8431556 c 0.435772,0 0.79834,-0.356583 0.792313,-0.792313 v -3.961564 h 2.961985 v 3.961564 c 0,0.435772 0.301127,0.792313 0.736899,0.792313 0.435772,0 0.79071,-0.356561 0.794972,-0.792313 v -3.961564 h 0.142616 c 0.499157,0 0.736503,-0.459542 0.641426,-0.950776 z"
     id="path4"
     inkscape:connector-curvature="0"
     sodipodi:nodetypes="cssccccssscccssscscc"
     style="stroke-width:0.79231286" />
  <g
     transform="matrix(0.22470598,0,0,0.22470598,1.3144908,-0.33305317)"
     id="g26" />
  <g
     transform="matrix(0.22470598,0,0,0.22470598,1.3144908,-0.33305317)"
     id="g28" />
  <g
     transform="matrix(0.22470598,0,0,0.22470598,1.3144908,-0.33305317)"
     id="g30" />
  <g
     transform="matrix(0.22470598,0,0,0.22470598,1.3144908,-0.33305317)"
     id="g32" />
  <g
     transform="matrix(0.22470598,0,0,0.22470598,1.3144908,-0.33305317)"
     id="g34" />
  <g
     transform="matrix(0.22470598,0,0,0.22470598,1.3144908,-0.33305317)"
     id="g36" />
  <g
     transform="matrix(0.22470598,0,0,0.22470598,1.3144908,-0.33305317)"
     id="g38" />
  <g
     transform="matrix(0.22470598,0,0,0.22470598,1.3144908,-0.33305317)"
     id="g40" />
  <g
     transform="matrix(0.22470598,0,0,0.22470598,1.3144908,-0.33305317)"
     id="g42" />
  <g
     transform="matrix(0.22470598,0,0,0.22470598,1.3144908,-0.33305317)"
     id="g44" />
  <g
     transform="matrix(0.22470598,0,0,0.22470598,1.3144908,-0.33305317)"
     id="g46" />
  <g
     transform="matrix(0.22470598,0,0,0.22470598,1.3144908,-0.33305317)"
     id="g48" />
  <g
     transform="matrix(0.22470598,0,0,0.22470598,1.3144908,-0.33305317)"
     id="g50" />
  <g
     transform="matrix(0.22470598,0,0,0.22470598,1.3144908,-0.33305317)"
     id="g52" />
  <g
     transform="matrix(0.22470598,0,0,0.22470598,1.3144908,-0.33305317)"
     id="g54" />
  <g
     id="g1014"
     transform="matrix(0.27766741,0.1675391,-0.1675391,0.27766741,2.9631979,-3.4663422)">
    <g
       id="g933"
       transform="matrix(0.82043775,-0.47367995,0.47367995,0.82043775,-2.2638928,13.740716)">
      <path
         id="path881"
         d="M 26.339,0 C 13.165,0 10.625,11.211 10.625,14.97 c 0,3.038 1.407,5.5 3.143,5.5 1.736,0 3.143,-0.962 3.143,-4 0,3.038 1.407,4 3.143,4 1.736,0 3.143,-0.962 3.143,-4 0,3.038 1.407,4 3.143,4 1.736,0 3.143,-0.962 3.143,-4 0,3.038 1.407,4 3.143,4 1.736,0 3.143,-0.962 3.143,-4 0,3.038 1.407,4 3.143,4 1.736,0 3.143,-2.462 3.143,-5.5 C 42.053,10.661 39.539,0 26.339,0 Z"
         style="fill:#f2ecd3"
         inkscape:connector-curvature="0" />
      <path
         id="path883"
         d="m 35.913,17.104 h -0.29 c -0.387,1.906 -1.575,2.574 -2.998,2.574 -1.423,0 -2.611,-0.668 -2.998,-2.574 h -0.29 c -0.387,1.906 -1.575,2.574 -2.998,2.574 -1.423,0 -2.611,-0.668 -2.998,-2.574 h -0.29 c -0.387,1.906 -1.575,2.574 -2.998,2.574 -1.401,0 -2.573,-0.648 -2.979,-2.486 -0.125,0.035 -0.245,0.081 -0.357,0.139 -0.201,0.805 -0.557,1.367 -1.02,1.736 0.007,0.202 0.042,0.408 0.121,0.612 l 5.031,15 6.025,18 6.025,-18 5.031,-15 c 0.016,-0.043 0.023,-0.085 0.032,-0.128 -0.986,-0.259 -1.753,-0.988 -2.049,-2.447 z"
         style="fill:#fbd490"
         inkscape:connector-curvature="0" />
      <g
         id="g921">
        <rect
           id="rect885"
           height="2"
           width="2"
           style="fill:#eeaf4b"
           transform="matrix(0.7071,-0.7071,0.7071,0.7071,-6.45,30.5011)"
           y="22.037001"
           x="32.595001" />
        <rect
           id="rect887"
           height="2"
           width="2"
           style="fill:#eeaf4b"
           transform="matrix(0.7071,0.7071,-0.7071,0.7071,23.0582,-12.4223)"
           y="20.622999"
           x="25.524" />
        <rect
           id="rect889"
           height="2"
           width="2"
           style="fill:#eeaf4b"
           transform="matrix(-0.7071,0.7071,-0.7071,-0.7071,67.3977,20.9867)"
           y="23.451"
           x="28.353001" />
        <rect
           id="rect891"
           height="2"
           width="2"
           style="fill:#eeaf4b"
           transform="matrix(-0.707,-0.7072,0.7072,-0.707,35.6435,69.3247)"
           y="26.278999"
           x="31.181" />
        <rect
           id="rect893"
           height="2"
           width="2"
           style="fill:#eeaf4b"
           transform="matrix(0.7071,0.7071,-0.7071,0.7071,22.8156,-9.0081)"
           y="22.037001"
           x="21.282" />
        <rect
           id="rect895"
           height="2"
           width="2"
           style="fill:#eeaf4b"
           transform="matrix(-0.7071,0.7071,-0.7071,-0.7071,61.1549,26.4009)"
           y="24.865"
           x="24.110001" />
        <rect
           id="rect897"
           height="2"
           width="2"
           style="fill:#eeaf4b"
           transform="matrix(0.7071,0.7071,-0.7071,0.7071,28.4742,-11.3512)"
           y="27.694"
           x="26.938" />
        <rect
           id="rect899"
           height="2"
           width="2"
           style="fill:#eeaf4b"
           transform="matrix(-0.7071,-0.7071,0.7071,-0.7071,30.2347,75.5671)"
           y="30.521999"
           x="29.767" />
        <rect
           id="rect901"
           height="2"
           width="2"
           style="fill:#eeaf4b"
           transform="matrix(0.7071,0.7071,-0.7071,0.7071,25.3999,-6.7657)"
           y="26.278999"
           x="19.867001" />
        <rect
           id="rect903"
           height="2"
           width="2"
           style="fill:#eeaf4b"
           transform="matrix(0.7071,-0.7071,0.7071,0.7071,-14.349,25.5722)"
           y="29.108"
           x="22.695999" />
        <rect
           id="rect905"
           height="2"
           width="2"
           style="fill:#eeaf4b"
           transform="matrix(0.7071,0.7071,-0.7071,0.7071,31.0582,-9.1086)"
           y="31.936001"
           x="25.524" />
        <rect
           id="rect907"
           height="2"
           width="2"
           style="fill:#eeaf4b"
           transform="matrix(-0.7071,-0.7071,0.7071,-0.7071,24.8187,81.8098)"
           y="34.764999"
           x="28.353001" />
        <rect
           id="rect909"
           height="2"
           width="2"
           style="fill:#eeaf4b"
           transform="matrix(0.7071,0.7071,-0.7071,0.7071,30.8156,-5.6944)"
           y="33.349998"
           x="21.282" />
        <rect
           id="rect911"
           height="2"
           width="2"
           style="fill:#eeaf4b"
           transform="matrix(-0.7071,0.7071,-0.7071,-0.7071,69.1545,45.7149)"
           y="36.179001"
           x="24.110001" />
        <rect
           id="rect913"
           height="2"
           width="2"
           style="fill:#eeaf4b"
           transform="matrix(-0.7071,-0.7071,0.7071,-0.7071,19.4065,88.0528)"
           y="39.007999"
           x="26.938999" />
        <rect
           id="rect915"
           height="2"
           width="2"
           style="fill:#eeaf4b"
           transform="matrix(-0.7071,-0.7071,0.7071,-0.7071,13.9923,94.2955)"
           y="43.25"
           x="25.524" />
        <polygon
           id="polygon917"
           points="19.453,24.451 18.039,23.037 17.219,23.856 17.819,25.646 18.039,25.865 "
           style="fill:#eeaf4b" />
        <polygon
           id="polygon919"
           points="23.52,42.661 23.696,42.836 25.11,41.422 23.696,40.007 22.899,40.804 "
           style="fill:#eeaf4b" />
      </g>
      <path
         id="path923"
         d="M 21.18,8.332 C 20.991,8.332 20.799,8.278 20.629,8.166 20.169,7.861 20.042,7.241 20.347,6.78 l 1.821,-2.753 c 0.305,-0.461 0.924,-0.588 1.386,-0.282 0.46,0.305 0.587,0.925 0.282,1.386 L 22.015,7.884 C 21.822,8.175 21.504,8.332 21.18,8.332 Z"
         style="fill:#9777a8"
         inkscape:connector-curvature="0" />
      <path
         id="path925"
         d="m 35.083,14 c -0.256,0 -0.512,-0.098 -0.707,-0.293 l -2.795,-2.796 c -0.391,-0.391 -0.391,-1.023 0,-1.414 0.391,-0.391 1.023,-0.391 1.414,0 l 2.795,2.796 c 0.391,0.391 0.391,1.023 0,1.414 C 35.594,13.903 35.339,14 35.083,14 Z"
         style="fill:#00d7ec"
         inkscape:connector-curvature="0" />
      <path
         id="path927"
         d="m 24.925,13.907 c -0.422,0 -0.813,-0.269 -0.951,-0.691 -0.17,-0.524 0.117,-1.089 0.642,-1.26 l 2.762,-0.897 c 0.527,-0.17 1.09,0.118 1.26,0.643 0.17,0.525 -0.117,1.089 -0.642,1.26 l -2.762,0.897 c -0.102,0.032 -0.207,0.048 -0.309,0.048 z"
         style="fill:#e22f37"
         inkscape:connector-curvature="0" />
      <path
         id="path929"
         d="m 21.214,12.027 c -0.152,0 -0.306,-0.034 -0.451,-0.108 l -1.855,-0.94 c -0.493,-0.249 -0.689,-0.851 -0.44,-1.344 0.25,-0.492 0.85,-0.692 1.344,-0.439 l 1.855,0.94 c 0.493,0.249 0.689,0.851 0.44,1.344 -0.177,0.347 -0.528,0.547 -0.893,0.547 z"
         style="fill:#f1b501"
         inkscape:connector-curvature="0" />
      <path
         id="path931"
         d="m 28.569,8.401 c -0.365,0 -0.717,-0.2 -0.893,-0.548 l -0.94,-1.855 c -0.25,-0.493 -0.053,-1.095 0.44,-1.344 0.493,-0.253 1.095,-0.053 1.344,0.439 l 0.94,1.855 c 0.25,0.493 0.053,1.095 -0.44,1.344 -0.145,0.075 -0.299,0.109 -0.451,0.109 z"
         style="fill:#79e09b"
         inkscape:connector-curvature="0" />
    </g>
    <g
       id="g935" />
    <g
       id="g937" />
    <g
       id="g939" />
    <g
       id="g941" />
    <g
       id="g943" />
    <g
       id="g945" />
    <g
       id="g947" />
    <g
       id="g949" />
    <g
       id="g951" />
    <g
       id="g953" />
    <g
       id="g955" />
    <g
       id="g957" />
    <g
       id="g959" />
    <g
       id="g961" />
    <g
       id="g963" />
  </g>
</svg>
