<?xml version="1.0" encoding="UTF-8" standalone="no"?>
<svg xmlns:dc="http://purl.org/dc/elements/1.1/" xmlns:cc="http://creativecommons.org/ns#" xmlns:rdf="http://www.w3.org/1999/02/22-rdf-syntax-ns#"
    xmlns="http://www.w3.org/2000/svg" xmlns:sodipodi="http://sodipodi.sourceforge.net/DTD/sodipodi-0.dtd"
    xmlns:inkscape="http://www.inkscape.org/namespaces/inkscape" width="18.5" height="18.5" viewBox="0 0 18.5 18.5"
    version="1.1" id="svg6" sodipodi:docname="other.svg" inkscape:version="0.92.4 (5da689c313, 2019-01-14)">
  <metadata
     id="metadata12">
    <rdf:RDF>
      <cc:Work
         rdf:about="">
        <dc:format>image/svg+xml</dc:format>
        <dc:type
           rdf:resource="http://purl.org/dc/dcmitype/StillImage" />
        <dc:title />
      </cc:Work>
    </rdf:RDF>
  </metadata>
  <defs
     id="defs10" />
  <sodipodi:namedview
     pagecolor="#ffffff"
     bordercolor="#666666"
     borderopacity="1"
     objecttolerance="10"
     gridtolerance="10"
     guidetolerance="10"
     inkscape:pageopacity="0"
     inkscape:pageshadow="2"
     inkscape:window-width="1366"
     inkscape:window-height="705"
     id="namedview8"
     showgrid="false"
     inkscape:measure-start="0,0"
     inkscape:measure-end="0,0"
     inkscape:zoom="30.162162"
     inkscape:cx="9.25"
     inkscape:cy="9.25"
     inkscape:window-x="-8"
     inkscape:window-y="-8"
     inkscape:window-maximized="1"
     inkscape:current-layer="svg6"
     fit-margin-top="0"
     fit-margin-left="0"
     fit-margin-right="0"
     fit-margin-bottom="0" />
  <path
     d="m 16.536209,3.8843589 c -0.07131,-0.364464 -0.396157,-0.633851 -0.776467,-0.633851 H 6.7567664 c -0.3803101,0 -0.7051584,0.269387 -0.7764667,0.633851 l -2.0104314,6.1363021 0.6541404,0.950776 h 0.1426162 v 3.961564 c 0,0.435772 0.2790484,0.792313 0.7148205,0.792313 h 6.8431556 c 0.435772,0 0.79834,-0.356583 0.792313,-0.792313 v -3.961564 h 2.961985 v 3.961564 c 0,0.435772 0.301127,0.792313 0.736899,0.792313 0.435772,0 0.79071,-0.356561 0.794972,-0.792313 v -3.961564 h 0.142616 c 0.499157,0 0.736503,-0.459542 0.641426,-0.950776 z"
     id="path4"
     inkscape:connector-curvature="0"
     sodipodi:nodetypes="cssccccssscccssscscc"
     style="stroke-width:0.79231286" />
  <g
     transform="matrix(0.22470598,0,0,0.22470598,1.3144908,-0.33305317)"
     id="g26" />
  <g
     transform="matrix(0.22470598,0,0,0.22470598,1.3144908,-0.33305317)"
     id="g28" />
  <g
     transform="matrix(0.22470598,0,0,0.22470598,1.3144908,-0.33305317)"
     id="g30" />
  <g
     transform="matrix(0.22470598,0,0,0.22470598,1.3144908,-0.33305317)"
     id="g32" />
  <g
     transform="matrix(0.22470598,0,0,0.22470598,1.3144908,-0.33305317)"
     id="g34" />
  <g
     transform="matrix(0.22470598,0,0,0.22470598,1.3144908,-0.33305317)"
     id="g36" />
  <g
     transform="matrix(0.22470598,0,0,0.22470598,1.3144908,-0.33305317)"
     id="g38" />
  <g
     transform="matrix(0.22470598,0,0,0.22470598,1.3144908,-0.33305317)"
     id="g40" />
  <g
     transform="matrix(0.22470598,0,0,0.22470598,1.3144908,-0.33305317)"
     id="g42" />
  <g
     transform="matrix(0.22470598,0,0,0.22470598,1.3144908,-0.33305317)"
     id="g44" />
  <g
     transform="matrix(0.22470598,0,0,0.22470598,1.3144908,-0.33305317)"
     id="g46" />
  <g
     transform="matrix(0.22470598,0,0,0.22470598,1.3144908,-0.33305317)"
     id="g48" />
  <g
     transform="matrix(0.22470598,0,0,0.22470598,1.3144908,-0.33305317)"
     id="g50" />
  <g
     transform="matrix(0.22470598,0,0,0.22470598,1.3144908,-0.33305317)"
     id="g52" />
  <g
     transform="matrix(0.22470598,0,0,0.22470598,1.3144908,-0.33305317)"
     id="g54" />
  <g
     transform="matrix(0.11449031,0,0,0.11449031,-2.8051807,-3.3457864)"
     id="g823"
     style="fill:#c2c4c8;fill-opacity:1;stroke:none;stroke-opacity:1">
    <g
       transform="translate(-20.5,-17.5)"
       style="fill:#c2c4c8;fill-opacity:1;stroke:none;stroke-width:8;stroke-miterlimit:4;stroke-dasharray:none;stroke-opacity:1"
       id="g4">
      <path
         style="fill:#c2c4c8;fill-opacity:1;stroke:none;stroke-width:8;stroke-miterlimit:4;stroke-dasharray:none;stroke-opacity:1"
         sodipodi:nodetypes="sssss"
         inkscape:connector-curvature="0"
         id="path2"
         d="m 101.1,88.7 c -14.7,0 -20.7,-6 -20.7,-20.7 0,-14.7 6,-20.7 20.7,-20.7 14.7,0 20.7,6 20.7,20.7 0,14.7 -6,20.7 -20.7,20.7 z" />
    </g>
    <g
       style="fill:#c2c4c8;fill-opacity:1;stroke:none;stroke-width:8;stroke-miterlimit:4;stroke-dasharray:none;stroke-opacity:1"
       transform="translate(-20.5,-17.5)"
       id="g8">
      <path
         style="fill:#c2c4c8;fill-opacity:1;stroke:none;stroke-width:8;stroke-miterlimit:4;stroke-dasharray:none;stroke-opacity:1"
         sodipodi:nodetypes="sssss"
         inkscape:connector-curvature="0"
         id="path6"
         d="m 134.8,147.7 c -14.7,0 -20.7,-6 -20.7,-20.7 0,-14.7 6,-20.7 20.7,-20.7 14.7,0 20.7,6 20.7,20.7 0,14.7 -6,20.7 -20.7,20.7 z" />
    </g>
    <g
       style="fill:#c2c4c8;fill-opacity:1;stroke:none;stroke-width:8;stroke-miterlimit:4;stroke-dasharray:none;stroke-opacity:1"
       transform="translate(-20.5,-17.5)"
       id="g12">
      <path
         style="fill:#c2c4c8;fill-opacity:1;stroke:none;stroke-width:8;stroke-miterlimit:4;stroke-dasharray:none;stroke-opacity:1"
         sodipodi:nodetypes="sssss"
         inkscape:connector-curvature="0"
         id="path10"
         d="m 66.2,147.7 c -14.7,0 -20.7,-6 -20.7,-20.7 0,-14.7 6,-20.7 20.7,-20.7 14.7,0 20.7,6 20.7,20.7 0,14.7 -6,20.7 -20.7,20.7 z" />
    </g>
  </g>
</svg>
