<svg width="48" height="24" version="1.1" viewBox="0 0 48 24" xmlns="http://www.w3.org/2000/svg">
  <g fill="none" stroke-linecap="round" stroke-width="2">
    <path d="m16 10h12c1.358 1e-4 2.547-0.9119 2.898-2.2235s-0.222-2.6958-1.398-3.3746c-1.176-0.6787-2.661-0.4832-3.621 0.4768" stroke="#3a86c7" />
    <path d="m16 13h15c0.9052-1e-4 1.6976 0.6077 1.932 1.482 0.2344 0.8745-0.1479 1.7974-0.932 2.25-0.7839 0.4525-1.774 0.322-2.414-0.318" stroke="#3ac786" />
    <path d="m16 16h8c0.9052-1e-4 1.6976 0.6077 1.932 1.482 0.2344 0.8745-0.1479 1.7974-0.932 2.25-0.784 0.4526-1.7742 0.3221-2.4142-0.318" stroke="#ba3ac7" />
  </g>
</svg>
