<?xml version="1.0" encoding="UTF-8" standalone="no"?>
<svg
   xmlns:dc="http://purl.org/dc/elements/1.1/"
   xmlns:cc="http://creativecommons.org/ns#"
   xmlns:rdf="http://www.w3.org/1999/02/22-rdf-syntax-ns#"
   xmlns:svg="http://www.w3.org/2000/svg"
   xmlns="http://www.w3.org/2000/svg"
   xmlns:xlink="http://www.w3.org/1999/xlink"
   xmlns:sodipodi="http://sodipodi.sourceforge.net/DTD/sodipodi-0.dtd"
   xmlns:inkscape="http://www.inkscape.org/namespaces/inkscape"
   width="24"
   height="24"
   viewBox="0 0 24 24"
   version="1.1"
   id="svg8"
   inkscape:version="1.0.2 (e86c870879, 2021-01-15, custom)"
   sodipodi:docname="clothes.svg">
  <defs
     id="defs2" />
  <sodipodi:namedview
     id="base"
     pagecolor="#ffffff"
     bordercolor="#666666"
     borderopacity="1.0"
     inkscape:pageopacity="0.0"
     inkscape:pageshadow="2"
     inkscape:zoom="32"
     inkscape:cx="8.9092"
     inkscape:cy="13.077"
     inkscape:document-units="px"
     inkscape:current-layer="layer2"
     inkscape:document-rotation="0"
     showgrid="true"
     units="px"
     lock-margins="true"
     inkscape:pagecheckerboard="false"
     inkscape:showpageshadow="false"
     inkscape:lockguides="false"
     guidecolor="#ff00ff"
     guideopacity="0.49804"
     guidehicolor="#ffb700"
     guidehiopacity="0.49804"
     inkscape:snap-tangential="true"
     inkscape:window-width="1920"
     inkscape:window-height="1017"
     inkscape:window-x="-8"
     inkscape:window-y="-8"
     inkscape:window-maximized="1"
     inkscape:snap-object-midpoints="true"
     inkscape:snap-smooth-nodes="true">
    <inkscape:grid
       type="xygrid"
       id="grid10"
       dotted="false"
       empspacing="4" />
  </sodipodi:namedview>
  <metadata
     id="metadata5">
    <rdf:RDF>
      <cc:Work
         rdf:about="">
        <dc:format>image/svg+xml</dc:format>
        <dc:type
           rdf:resource="http://purl.org/dc/dcmitype/StillImage" />
        <dc:title></dc:title>
      </cc:Work>
    </rdf:RDF>
  </metadata>
  <g
     inkscape:groupmode="layer"
     id="layer2"
     inkscape:label="vector">
    <path
       id="rect837"
       style="fill:#000000;fill-opacity:1;stroke-width:1.50561;stroke-linejoin:round;stroke-dashoffset:0.1;stop-color:#000000"
       d="M 7 3 L 5.957 5 L 6 19 C 6 20.105 6.8954 21 8 21 L 16 21 C 17.105 21 18 20.105 18 19 L 18 5 L 17 3 L 15 3 C 15 4.6569 13.657 6 12 6 C 10.343 6 9 4.6569 9 3 L 7 3 z M 12 10 A 1 1 0 0 1 13 11 A 1 1 0 0 1 12 12 A 1 1 0 0 1 11 11 A 1 1 0 0 1 12 10 z M 12 13 A 1 1 0 0 1 13 14 A 1 1 0 0 1 12 15 A 1 1 0 0 1 11 14 A 1 1 0 0 1 12 13 z M 12 16 A 1 1 0 0 1 13 17 A 1 1 0 0 1 12 18 A 1 1 0 0 1 11 17 A 1 1 0 0 1 12 16 z " />
    <path
       id="path834"
       style="fill:#000000;fill-opacity:1;stroke-width:1.50561;stroke-linejoin:round;stroke-dashoffset:0.1;stop-color:#000000"
       d="m 8.0235,-43 -1.043,2 0.04,12 c 0,1.105 0.895,2 2,2 h 5.9985 c 1.105,0 2,-0.895 2,-2 v -12 l -1,-2 h -2 c 0,1.105 -0.894,2 -1.999,2 -1.105,0 -2,-0.895 -2,-2 z"
       sodipodi:nodetypes="cccssscccscc" />
    <path
       style="fill:#000000;fill-opacity:1;stroke:none;stroke-width:1px;stroke-linecap:butt;stroke-linejoin:miter;stroke-opacity:1"
       d="m 8.0235,-43 c -4,0 -6,2 -6,6 h 3 c 0,-2 0,-3 3,-3 z"
       id="path836"
       sodipodi:nodetypes="ccccc" />
    <path
       style="fill:#000000;fill-opacity:1;stroke:none;stroke-width:1px;stroke-linecap:butt;stroke-linejoin:miter;stroke-opacity:1"
       d="m 16.022,-43 c 4.001,0 6.001,2 6.001,6 h -3.001 c 0,-2 0,-3 -3,-3 z"
       id="path838"
       sodipodi:nodetypes="ccccc" />
    <path
       style="fill:none;stroke:#000000;stroke-width:4;stroke-linecap:butt;stroke-linejoin:miter;stroke-miterlimit:4;stroke-dasharray:none;stroke-opacity:1"
       d="M 8,5 H 6 C 3,5 3,9 3,13"
       id="path870"
       sodipodi:nodetypes="csc" />
    <use
       x="0"
       y="0"
       xlink:href="#path870"
       id="use875"
       transform="matrix(-1,0,0,1,24,0)"
       width="100%"
       height="100%" />
    <path
       id="path883"
       style="fill:#000000;fill-opacity:1;stroke-width:1.50561;stroke-linejoin:round;stroke-dashoffset:0.1;stop-color:#000000"
       d="M 7,-20 5.957,-18 6,-4 c 0,1.105 0.8954,2 2,2 h 8 c 1.105,0 2,-0.895 2,-2 v -14 l -1,-2 h -2 c 0,1.657 -1.343,3 -3,3 -1.657,0 -3,-1.343 -3,-3 z"
       sodipodi:nodetypes="cccssscccscc" />
    <path
       style="fill:none;stroke:#000000;stroke-width:4;stroke-linecap:butt;stroke-linejoin:miter;stroke-miterlimit:4;stroke-dasharray:none;stroke-opacity:1"
       d="M 8,-18 H 6 c -3,0 -3,4 -3,8"
       id="path885"
       sodipodi:nodetypes="csc" />
    <use
       x="0"
       y="0"
       xlink:href="#path870"
       id="use887"
       transform="matrix(-1,0,0,1,24,-23)"
       width="100%"
       height="100%" />
  </g>
  <inkscape:templateinfo>
    <inkscape:name>alaki</inkscape:name>
    <inkscape:date>2020-12-14</inkscape:date>
  </inkscape:templateinfo>
  <inkscape:templateinfo>
    <inkscape:name>512×512</inkscape:name>
    <inkscape:author>Mahdi Hosseinzadeh</inkscape:author>
    <inkscape:date>2020-12-14</inkscape:date>
  </inkscape:templateinfo>
  <inkscape:templateinfo>
    <inkscape:name>default</inkscape:name>
    <inkscape:author>Mahdi Hosseinzadeh</inkscape:author>
    <inkscape:date>2020-12-14</inkscape:date>
  </inkscape:templateinfo>
</svg>
