<?xml version="1.0" encoding="UTF-8" standalone="no"?>
<svg
   xmlns:dc="http://purl.org/dc/elements/1.1/"
   xmlns:cc="http://creativecommons.org/ns#"
   xmlns:rdf="http://www.w3.org/1999/02/22-rdf-syntax-ns#"
   xmlns:svg="http://www.w3.org/2000/svg"
   xmlns="http://www.w3.org/2000/svg"
   xmlns:sodipodi="http://sodipodi.sourceforge.net/DTD/sodipodi-0.dtd"
   xmlns:inkscape="http://www.inkscape.org/namespaces/inkscape"
   width="24"
   height="24"
   viewBox="0 0 24 24"
   version="1.1"
   id="svg8"
   inkscape:version="1.0.2 (e86c870879, 2021-01-15, custom)"
   sodipodi:docname="fish.svg">
  <defs
     id="defs2" />
  <sodipodi:namedview
     id="base"
     pagecolor="#ffffff"
     bordercolor="#666666"
     borderopacity="1.0"
     inkscape:pageopacity="0.0"
     inkscape:pageshadow="2"
     inkscape:zoom="11.314"
     inkscape:cx="-3.0871"
     inkscape:cy="-0.81898"
     inkscape:document-units="px"
     inkscape:current-layer="layer1"
     inkscape:document-rotation="0"
     showgrid="true"
     units="px"
     lock-margins="true"
     inkscape:pagecheckerboard="false"
     inkscape:showpageshadow="false"
     inkscape:lockguides="false"
     guidecolor="#ff00ff"
     guideopacity="0.49804"
     guidehicolor="#ffb700"
     guidehiopacity="0.49804"
     inkscape:snap-tangential="true"
     inkscape:window-width="1920"
     inkscape:window-height="1017"
     inkscape:window-x="-8"
     inkscape:window-y="-8"
     inkscape:window-maximized="1"
     inkscape:snap-object-midpoints="true"
     inkscape:snap-grids="true"
     inkscape:snap-bbox="true"
     inkscape:bbox-nodes="true"
     inkscape:snap-bbox-edge-midpoints="true"
     inkscape:object-paths="true">
    <inkscape:grid
       type="xygrid"
       id="grid10"
       dotted="false"
       empspacing="4" />
  </sodipodi:namedview>
  <metadata
     id="metadata5">
    <rdf:RDF>
      <cc:Work
         rdf:about="">
        <dc:format>image/svg+xml</dc:format>
        <dc:type
           rdf:resource="http://purl.org/dc/dcmitype/StillImage" />
        <dc:title></dc:title>
      </cc:Work>
    </rdf:RDF>
  </metadata>
  <g
     inkscape:groupmode="layer"
     id="layer1"
     inkscape:label="vector 1">
    <g
       id="g858"
       transform="translate(0,-47)">
      <path
         id="path846"
         style="fill:#000000;stroke-width:2;stroke-linejoin:round;stroke-dashoffset:0.1;stop-color:#000000"
         d="M 13.852,8 C 10.044,8.046 6.999,9.8235 7,12 c 0,2.209 3.134,4 7,4 3.866,0 7,-3 7,-4 0,-1 -3.134,-4 -7,-4 -0.05,-3e-4 -0.1,-3e-4 -0.148,0 z M 17,11 a 1,1 0 0 1 1,1 1,1 0 0 1 -1,1 1,1 0 0 1 -1,-1 1,1 0 0 1 1,-1 z" />
      <path
         style="fill:#000000;fill-opacity:1;stroke:none;stroke-width:1px;stroke-linecap:butt;stroke-linejoin:miter;stroke-opacity:1"
         d="M 11,9 V 5 h 2 l 2,4 z"
         id="path848"
         sodipodi:nodetypes="ccccc" />
      <path
         style="fill:#000000;fill-opacity:1;stroke:none;stroke-width:1px;stroke-linecap:butt;stroke-linejoin:miter;stroke-opacity:1"
         d="M 9,12 H 5 L 3,8 h 2 z"
         id="path855"
         sodipodi:nodetypes="ccccc" />
      <path
         style="fill:#000000;fill-opacity:1;stroke:none;stroke-width:1px;stroke-linecap:butt;stroke-linejoin:miter;stroke-opacity:1"
         d="M 9,12 H 5 l -2,4 h 2 z"
         id="path861"
         sodipodi:nodetypes="ccccc" />
      <path
         style="fill:#000000;fill-opacity:1;stroke:none;stroke-width:1px;stroke-linecap:butt;stroke-linejoin:miter;stroke-opacity:1"
         d="m 11,15 v 4 h 2 l 2,-4 z"
         id="path863"
         sodipodi:nodetypes="ccccc" />
    </g>
    <path
       style="fill:#000000;fill-opacity:1;stroke:none;stroke-width:0.99998px;stroke-linecap:butt;stroke-linejoin:miter;stroke-opacity:1"
       d="m 11,-16 v -4 c 0,-1 1,-1 1,-1 l 2.999,5 z"
       id="path838"
       sodipodi:nodetypes="ccccc" />
    <path
       style="fill:#000000;fill-opacity:1;stroke:none;stroke-width:0.99998px;stroke-linecap:butt;stroke-linejoin:miter;stroke-opacity:1"
       d="M 7.9999,-12 H 3.9997 L 2,-16 c 0,0 0,-1 0.9999,-1 z"
       id="path840"
       sodipodi:nodetypes="ccccc" />
    <path
       style="fill:#000000;fill-opacity:1;stroke:none;stroke-width:0.99998px;stroke-linecap:butt;stroke-linejoin:miter;stroke-opacity:1"
       d="M 7.9999,-12 H 3.9997 L 2,-8 c 0,0 0,1 0.9999,1 z"
       id="path842"
       sodipodi:nodetypes="ccccc" />
    <path
       style="fill:#000000;fill-opacity:1;stroke:none;stroke-width:0.99998px;stroke-linecap:butt;stroke-linejoin:miter;stroke-opacity:1"
       d="m 11,-8 v 4 c 0,1 1,1 1,1 l 3,-5 z"
       id="path868"
       sodipodi:nodetypes="ccccc" />
    <path
       id="path870"
       style="fill:#000000;fill-opacity:1;stroke-width:3.99995;stroke-linejoin:round;stroke-dashoffset:0.1;stroke-opacity:0.50467;stop-color:#000000"
       d="m 14.5,-17 c -4.6944,0 -8.5,2.239 -8.5,5 0,2.761 3.8056,5 8.5,5 4.694,0 8.5,-4 8.5,-5 0,-1 -3.806,-5 -8.5,-5 z m 3.5,4 a 1,1 0 0 1 1,1 1,1 0 0 1 -1,1 1,1 0 0 1 -1,-1 1,1 0 0 1 1,-1 z" />
    <path
       id="path838-9"
       style="fill:#000000;fill-opacity:1;stroke:none;stroke-width:0.99998px;stroke-linecap:butt;stroke-linejoin:miter;stroke-opacity:1"
       d="M 12 2 A 1 1 0 0 0 11 3 L 11 7 L 14.998 7 L 12.904 2.5723 L 12.902 2.5723 A 1 1 0 0 0 12 2 z " />
    <path
       id="path840-0"
       style="fill:#000000;fill-opacity:1;stroke:none;stroke-width:0.99998px;stroke-linecap:butt;stroke-linejoin:miter;stroke-opacity:1"
       d="M 3 7 A 1 1 0 0 0 2 8 A 1 1 0 0 0 2.1172 8.4707 L 4 12 L 8 12 L 3.752 7.3418 L 3.7461 7.334 A 1 1 0 0 0 3.7383 7.3262 A 1 1 0 0 0 3 7 z " />
    <path
       id="path870-7"
       style="fill:#000000;fill-opacity:1;stroke-width:3.99995;stroke-linejoin:round;stroke-dashoffset:0.1;stroke-opacity:0.50467;stop-color:#000000"
       d="M 14.5,6 C 9.8056,6 6,9.2386 6,12 c 0,2.761 3.8056,6 8.5,6 4.694,0 8.5,-5 8.5,-6 0,-1 -3.806,-6 -8.5,-6 z m 3.5,5 c 0.552,0 1,0.448 1,1 0,0.552 -0.448,1 -1,1 -0.552,0 -1,-0.448 -1,-1 0,-0.552 0.448,-1 1,-1 z"
       sodipodi:nodetypes="ssssssssss" />
    <path
       id="path850"
       style="fill:#000000;fill-opacity:1;stroke:none;stroke-width:0.99998px;stroke-linecap:butt;stroke-linejoin:miter;stroke-opacity:1"
       d="m 12.002,22 a 1,1 0 0 1 -1,-1 V 17 H 15 l -2.094,4.428 v 0 A 1,1 0 0 1 12.002,22 Z" />
    <path
       id="path858"
       style="fill:#000000;fill-opacity:1;stroke:none;stroke-width:0.99998px;stroke-linecap:butt;stroke-linejoin:miter;stroke-opacity:1"
       d="M 3,17 A 1,1 0 0 1 2,16 1,1 0 0 1 2.1172,15.529 L 4,12 h 4 l -4.248,4.658 h -0.01 a 1,1 0 0 1 -0.01,0 A 1,1 0 0 1 3,17 Z" />
  </g>
  <inkscape:templateinfo>
    <inkscape:name>alaki</inkscape:name>
    <inkscape:date>2020-12-14</inkscape:date>
  </inkscape:templateinfo>
  <inkscape:templateinfo>
    <inkscape:name>512×512</inkscape:name>
    <inkscape:author>Mahdi Hosseinzadeh</inkscape:author>
    <inkscape:date>2020-12-14</inkscape:date>
  </inkscape:templateinfo>
  <inkscape:templateinfo>
    <inkscape:name>default</inkscape:name>
    <inkscape:author>Mahdi Hosseinzadeh</inkscape:author>
    <inkscape:date>2020-12-14</inkscape:date>
  </inkscape:templateinfo>
</svg>
