<?xml version="1.0" encoding="UTF-8" standalone="no"?>
<svg
   xmlns:dc="http://purl.org/dc/elements/1.1/"
   xmlns:cc="http://creativecommons.org/ns#"
   xmlns:rdf="http://www.w3.org/1999/02/22-rdf-syntax-ns#"
   xmlns:svg="http://www.w3.org/2000/svg"
   xmlns="http://www.w3.org/2000/svg"
   xmlns:sodipodi="http://sodipodi.sourceforge.net/DTD/sodipodi-0.dtd"
   xmlns:inkscape="http://www.inkscape.org/namespaces/inkscape"
   version="1.1"
   x="0px"
   y="0px"
   viewBox="0 0 24 24"
   enable-background="new 0 0 1000 1000"
   xml:space="preserve"
   id="svg10"
   sodipodi:docname="1icecream.svg"
   width="24"
   height="24"
   inkscape:version="1.0.2 (e86c870879, 2021-01-15, custom)"><defs
   id="defs14" /><sodipodi:namedview
   pagecolor="#ffffff"
   bordercolor="#999999"
   borderopacity="1"
   objecttolerance="10"
   gridtolerance="10"
   guidetolerance="10"
   inkscape:pageopacity="0"
   inkscape:pageshadow="2"
   inkscape:window-width="1920"
   inkscape:window-height="1017"
   id="namedview12"
   showgrid="true"
   inkscape:snap-object-midpoints="true"
   inkscape:zoom="5.6569"
   inkscape:cx="-32.23"
   inkscape:cy="21.216"
   inkscape:window-x="-8"
   inkscape:window-y="-8"
   inkscape:window-maximized="1"
   inkscape:current-layer="layer2"
   inkscape:document-rotation="0"
   showguides="false"
   inkscape:snap-bbox="false"
   inkscape:bbox-paths="false"
   inkscape:snap-bbox-edge-midpoints="true"
   inkscape:snap-intersection-paths="false"
   inkscape:snap-grids="true"
   inkscape:snap-tangential="true"
   inkscape:snap-smooth-nodes="false"
   inkscape:object-paths="true"
   inkscape:object-nodes="true"><inkscape:grid
     type="xygrid"
     id="grid839" /></sodipodi:namedview>
<metadata
   id="metadata2"> Svg Vector Icons : http://www.onlinewebfonts.com/icon <rdf:RDF><cc:Work
     rdf:about=""><dc:format>image/svg+xml</dc:format><dc:type
       rdf:resource="http://purl.org/dc/dcmitype/StillImage" /><dc:title></dc:title></cc:Work></rdf:RDF></metadata>

<g
   inkscape:groupmode="layer"
   id="layer1"
   inkscape:label="Layer 1"
   sodipodi:insensitive="true"
   style="display:none"><g
     id="g8"
     transform="matrix(0.02245,0,0,0.02245,1.5839,0.46549)"
     style="stroke-width:44.5449"><g
       transform="matrix(1,0,0,-1,0,1920)"
       id="g6"
       style="stroke-width:44.5449"><path
         d="m 293.4,1749.4 c 1.3,21.9 6.5,42.7 15.8,62.6 9.3,19.9 21.4,36.9 36.4,51.3 15,14.3 32.5,25.7 52.8,34.1 20.2,8.4 41.5,12.6 63.9,12.6 22.9,0 44.6,-4.3 65.2,-13 20.6,-8.7 38.6,-20.7 54.1,-36 15.5,-15.3 27.5,-33 36,-53.1 l -4.5,0.4 c -13.6,0 -27,-1.3 -40.3,-3.8 -13.3,-2.5 -26,-6.1 -38.1,-10.7 -12.1,-4.6 -23.6,-10.4 -34.5,-17.1 -10.9,-6.8 -21.3,-14.3 -31.1,-22.6 -27.1,11.1 -54.5,16.6 -82.2,16.6 -32.4,-0.2 -63.6,-7.2 -93.5,-21.3 z m 304.2,-254 c 5.3,19.9 7.9,38.7 7.9,56.5 0,35.4 -8,68.6 -24.1,99.5 -16.1,30.9 -37.9,56.5 -65.6,76.9 29.4,20.6 61.8,30.9 97.2,30.9 23.1,0 45.1,-4.5 66,-13.4 20.9,-8.9 38.9,-21 54.1,-36.2 15.2,-15.2 27.3,-33.2 36.2,-54.1 8.9,-20.9 13.4,-42.8 13.4,-66 0,-34.4 -9.5,-65.8 -28.6,-94.2 H 597.6 Z m -369.7,0 c -7,19.6 -10.6,38.4 -10.6,56.5 0,18.3 2.8,36.2 8.5,53.5 5.7,17.3 13.8,32.9 24.3,46.7 10.6,13.8 22.7,26 36.6,36.6 13.8,10.6 29.4,18.7 46.7,24.3 17.3,5.7 35.2,8.5 53.5,8.5 23.1,0 45.1,-4.5 66,-13.4 20.9,-8.9 38.9,-21 54.1,-36.2 15.2,-15.2 27.3,-33.2 36.2,-54.1 8.9,-20.9 13.4,-42.8 13.4,-66 0,-18.1 -3.5,-36.9 -10.6,-56.5 H 227.9 Z M 500,930 c -4.5,0 -9,1.7 -13.6,5.1 -4.5,3.4 -7.8,7.6 -9.8,12.6 l -164.3,434.6 h -24.9 l -32.4,75.4 h 490 l -32.4,-75.4 H 687.7 L 523.4,947.7 c -2,-5 -5.3,-9.2 -9.8,-12.6 C 509,931.7 504.5,930 500,930 Z"
         id="path4"
         style="stroke-width:44.5449" /></g></g></g><g
   inkscape:groupmode="layer"
   id="layer2"
   inkscape:label="Layer 2"
   style="display:inline"><path
     id="circle843"
     style="fill:#000000;fill-opacity:1;stroke-width:2;stroke-linejoin:round;stroke-dashoffset:0.1;stop-color:#000000"
     d="M 9,5.5 C 7.067,5.5 5.5,7.067 5.5,9 c 4e-4,0.1673 0.013,0.3344 0.037,0.5 H 12.465 C 12.489,9.3344 12.5,9.1673 12.5,9 12.5,7.067 10.933,5.5 9,5.5 Z"
     sodipodi:nodetypes="sscccs" /><circle
     style="fill:#e80000;fill-opacity:0.45327;stroke-width:2;stroke-linejoin:round;stroke-dashoffset:0.1;stop-color:#000000"
     id="circle877"
     cx="-1"
     cy="-4"
     r="3.5" /><path
     id="circle879"
     style="fill:#000000;fill-opacity:1;stroke-width:2;stroke-linejoin:round;stroke-dashoffset:0.1;stop-color:#000000"
     d="M 15,4.5 C 14.089,4.5001 13.214,4.8553 12.561,5.4902 13.483,6.4257 14,7.6865 14,9 c 0,0.167 -0,0.3339 -0.03,0.5 h 4.187 C 18.384,9.0312 18.5,8.5189 18.5,8 18.5,6.067 16.933,4.5 15,4.5 Z"
     sodipodi:nodetypes="scsccss" /><path
     id="circle881"
     style="fill:#000000;fill-opacity:1;stroke-width:2;stroke-linejoin:round;stroke-dashoffset:0.1;stop-color:#000000"
     d="M 12 1 A 3.5 3.5 0 0 0 8.5332 4.0234 A 5 5 0 0 1 9 4 A 5 5 0 0 1 11.348 4.5859 A 5 5 0 0 1 15 3 A 5 5 0 0 1 15.164 3.0039 A 3.5 3.5 0 0 0 12 1 z " /><circle
     style="fill:#46e800;fill-opacity:0.45327;stroke-width:2;stroke-linejoin:round;stroke-dashoffset:0.1;stop-color:#000000"
     id="circle883"
     cx="-12"
     cy="-5"
     r="5" /><ellipse
     style="fill:#41b3a0;fill-opacity:0.47922;stroke-width:0;stroke-linejoin:round;stroke-dashoffset:0.1;stop-color:#000000"
     id="path846"
     cx="12"
     cy="22"
     r="1" /><path
     id="path856"
     style="fill:#000000;stroke:none;stroke-width:1px;stroke-linecap:butt;stroke-linejoin:miter;stroke-opacity:1;fill-opacity:1"
     d="M 6 11 L 11.07 22.365 A 1 1 0 0 0 11.076 22.383 L 11.088 22.406 A 1 1 0 0 0 12 23 A 1 1 0 0 0 12.912 22.406 L 12.92 22.389 L 18 11 L 6 11 z " /></g></svg>
