<?xml version="1.0" encoding="UTF-8" standalone="no"?>
<svg
   xmlns:dc="http://purl.org/dc/elements/1.1/"
   xmlns:cc="http://creativecommons.org/ns#"
   xmlns:rdf="http://www.w3.org/1999/02/22-rdf-syntax-ns#"
   xmlns:svg="http://www.w3.org/2000/svg"
   xmlns="http://www.w3.org/2000/svg"
   xmlns:sodipodi="http://sodipodi.sourceforge.net/DTD/sodipodi-0.dtd"
   xmlns:inkscape="http://www.inkscape.org/namespaces/inkscape"
   height="24"
   viewBox="0 0 24 24"
   width="24"
   version="1.1"
   id="svg6"
   sodipodi:docname="price-en.svg"
   inkscape:version="1.0.2 (e86c870879, 2021-01-15, custom)">
  <metadata
     id="metadata12">
    <rdf:RDF>
      <cc:Work
         rdf:about="">
        <dc:format>image/svg+xml</dc:format>
        <dc:type
           rdf:resource="http://purl.org/dc/dcmitype/StillImage" />
        <dc:title></dc:title>
      </cc:Work>
    </rdf:RDF>
  </metadata>
  <defs
     id="defs10" />
  <sodipodi:namedview
     pagecolor="#ffffff"
     bordercolor="#999999"
     borderopacity="1"
     objecttolerance="10"
     gridtolerance="10"
     guidetolerance="10"
     inkscape:pageopacity="0"
     inkscape:pageshadow="2"
     inkscape:window-width="1920"
     inkscape:window-height="1017"
     id="namedview8"
     showgrid="true"
     inkscape:zoom="18.417"
     inkscape:cx="-0.89578"
     inkscape:cy="11.971"
     inkscape:window-x="-8"
     inkscape:window-y="-8"
     inkscape:window-maximized="1"
     inkscape:current-layer="svg6">
    <inkscape:grid
       type="xygrid"
       id="grid837" />
  </sodipodi:namedview>
  <path
     d="M0 0h24v24H0V0z"
     fill="none"
     id="path2" />
  <path
     id="path4"
     d="M 4 4 C 2.9 4 2 4.9 2 6 L 2 18 C 2 19.1 2.9 20 4 20 L 20 20 C 21.1 20 22 19.1 22 18 L 22 6 C 22 4.9 21.1 4 20 4 L 4 4 z M 6 8 C 6.55 8 7 8.45 7 9 L 7 15 C 7 15.55 6.55 16 6 16 C 5.45 16 5 15.55 5 15 L 5 9 C 5 8.45 5.45 8 6 8 z M 9 8 L 12 8 C 12.55 8 13 8.45 13 9 L 13 15 C 13 15.55 12.55 16 12 16 L 9 16 C 8.45 16 8 15.55 8 15 L 8 9 C 8 8.45 8.45 8 9 8 z M 15 8 L 18 8 C 18.55 8 19 8.45 19 9 L 19 15 C 19 15.55 18.55 16 18 16 L 15 16 C 14.45 16 14 15.55 14 15 L 14 9 C 14 8.45 14.45 8 15 8 z M 10 10 L 10 14 L 11 14 L 11 10 L 10 10 z M 16 10 L 16 14 L 17 14 L 17 10 L 16 10 z " />
  <path
     d="M 0,-25 H 24 V -1 H 0 Z"
     fill="none"
     id="path839" />
  <path
     d="m 15,-9 h 3 c 0.55,0 1,-0.45 1,-1 v -6 c 0,-0.55 -0.45,-1 -1,-1 h -3 c -0.55,0 -1,0.45 -1,1 v 6 c 0,0.55 0.45,1 1,1 z m 1,-6 h 1 v 4 h -1 z m -7,6 h 3 c 0.55,0 1,-0.45 1,-1 v -6 c 0,-0.55 -0.45,-1 -1,-1 H 9 c -0.55,0 -1,0.45 -1,1 v 6 c 0,0.55 0.45,1 1,1 z m 1,-6 h 1 v 4 h -1 z m -4,-2 c -0.55,0 -1,0.45 -1,1 v 6 c 0,0.55 0.45,1 1,1 0.55,0 1,-0.45 1,-1 v -6 c 0,-0.55 -0.45,-1 -1,-1 z m -4,-2 v 12 c 0,1.1 0.9,2 2,2 h 16 c 1.1,0 2,-0.9 2,-2 v -12 c 0,-1.1 -0.9,-2 -2,-2 H 4 c -1.1,0 -2,0.9 -2,2 z M 19,-7 H 5 C 4.45,-7 4,-7.45 4,-8 v -10 c 0,-0.55 0.45,-1 1,-1 h 14 c 0.55,0 1,0.45 1,1 v 10 c 0,0.55 -0.45,1 -1,1 z"
     id="path841" />
</svg>
