<?xml version="1.0" encoding="UTF-8" standalone="no"?>
<svg
   xmlns:dc="http://purl.org/dc/elements/1.1/"
   xmlns:cc="http://creativecommons.org/ns#"
   xmlns:rdf="http://www.w3.org/1999/02/22-rdf-syntax-ns#"
   xmlns:svg="http://www.w3.org/2000/svg"
   xmlns="http://www.w3.org/2000/svg"
   xmlns:sodipodi="http://sodipodi.sourceforge.net/DTD/sodipodi-0.dtd"
   xmlns:inkscape="http://www.inkscape.org/namespaces/inkscape"
   viewBox="0 0 24 24"
   fill="black"
   width="24px"
   height="24px"
   version="1.1"
   id="svg6"
   sodipodi:docname="store-black-24dp.svg"
   inkscape:version="1.0.2 (e86c870879, 2021-01-15, custom)">
  <metadata
     id="metadata12">
    <rdf:RDF>
      <cc:Work
         rdf:about="">
        <dc:format>image/svg+xml</dc:format>
        <dc:type
           rdf:resource="http://purl.org/dc/dcmitype/StillImage" />
        <dc:title></dc:title>
      </cc:Work>
    </rdf:RDF>
  </metadata>
  <defs
     id="defs10" />
  <sodipodi:namedview
     pagecolor="#ffffff"
     bordercolor="#999999"
     borderopacity="1"
     objecttolerance="10"
     gridtolerance="10"
     guidetolerance="10"
     inkscape:pageopacity="0"
     inkscape:pageshadow="2"
     inkscape:window-width="1920"
     inkscape:window-height="1017"
     id="namedview8"
     showgrid="true"
     inkscape:snap-object-midpoints="true"
     inkscape:zoom="26.045"
     inkscape:cx="11.164"
     inkscape:cy="10.867"
     inkscape:window-x="-8"
     inkscape:window-y="-8"
     inkscape:window-maximized="1"
     inkscape:current-layer="svg6"
     inkscape:document-rotation="0">
    <inkscape:grid
       type="xygrid"
       id="grid846" />
  </sodipodi:namedview>
  <path
     d="M0 0h24v24H0V0z"
     fill="none"
     id="path2" />
  <path
     id="path4"
     d="M 5,4 C 4.45,4 4,4.45 4,5 4,5.55 4.45,6 5,6 H 5.5605 C 5.7112,5.3789 6.1233,5.1322 6.3516,4.9609 6.6336,4.7493 6.8801,4.6209 7.1035,4.5 c 0.012,-0.01 0.017,-0.01 0.029,-0.016 0,-0.013 -0.01,-0.017 -0.01,-0.031 C 7.0851,4.3249 7.0532,4.1499 7.0156,4 Z m 11.984,0 c -0.04,0.1501 -0.07,0.3249 -0.107,0.4531 -0.01,0.013 -0.01,0.018 -0.01,0.031 0.01,0.01 0.02,0.01 0.03,0.016 0.223,0.121 0.47,0.2492 0.752,0.4609 0.229,0.1713 0.641,0.418 0.791,1.0391 H 19 C 19.55,6 20,5.55 20,5 20,4.45 19.55,4 19,4 Z M 4.8203,7 C 4.3403,7 3.9298,7.3408 3.8398,7.8008 l -1,5.0002 C 2.7198,13.421 3.1903,14 3.8203,14 H 4 v 5 c 0,0.55 0.45,1 1,1 h 8 c 0.55,0 1,-0.45 1,-1 v -5 h 4 v 5 c 0,0.55 0.45,1 1,1 0.55,0 1,-0.45 1,-1 v -5 h 0.18 c 0.63,0 1.1,-0.579 0.98,-1.199 l -1,-5.0002 C 20.07,7.3408 19.66,7 19.18,7 H 18.439 C 18.289,7.6211 17.876,7.8678 17.648,8.0391 17.366,8.2507 17.119,8.379 16.896,8.5 c -0.01,0.01 -0.02,0.01 -0.03,0.016 0.01,0.013 0.01,0.017 0.01,0.031 0.07,0.2431 0.155,0.5104 0.205,0.8593 0.05,0.349 0.23,0.9748 -0.482,1.6918 -0.716,0.713 -1.343,0.532 -1.692,0.482 -0.349,-0.05 -0.614,-0.133 -0.857,-0.203 -0.01,-0.01 -0.02,-0.01 -0.03,-0.01 -0.02,0.01 -0.02,0.02 -0.02,0.03 -0.121,0.223 -0.249,0.47 -0.461,0.752 C 13.327,12.43 13.012,13 12,13 c -1.012,0 -1.327,-0.571 -1.541,-0.854 -0.212,-0.282 -0.34,-0.528 -0.461,-0.751 -0.01,-0.01 -0.01,-0.02 -0.016,-0.03 -0.013,0.01 -0.017,0.01 -0.031,0.01 C 9.7081,11.447 9.4407,11.53 9.0918,11.58 8.7428,11.63 8.1182,11.81 7.4023,11.096 6.6884,10.381 6.868,9.7555 6.918,9.4062 6.9677,9.057 7.052,8.79 7.123,8.5469 c 0,-0.013 0.01,-0.018 0.01,-0.031 C 7.1208,8.5096 7.1165,8.51 7.1035,8.5 6.8806,8.379 6.6336,8.2508 6.3516,8.0391 6.1233,7.8678 5.7112,7.6211 5.5605,7 Z M 6,14 h 6 v 4 H 6 Z"
     sodipodi:nodetypes="ssscsscccsccccscssscsccscssssccssscsccscssccscscccssssccssscccscsccccc" />
  <path
     style="color:#000000;font-style:normal;font-variant:normal;font-weight:normal;font-stretch:normal;font-size:medium;line-height:normal;font-family:sans-serif;font-variant-ligatures:normal;font-variant-position:normal;font-variant-caps:normal;font-variant-numeric:normal;font-variant-alternates:normal;font-variant-east-asian:normal;font-feature-settings:normal;font-variation-settings:normal;text-indent:0;text-align:start;text-decoration:none;text-decoration-line:none;text-decoration-style:solid;text-decoration-color:#000000;letter-spacing:normal;word-spacing:normal;text-transform:none;writing-mode:lr-tb;direction:ltr;text-orientation:mixed;dominant-baseline:auto;baseline-shift:baseline;text-anchor:start;white-space:normal;shape-padding:0;shape-margin:0;inline-size:0;clip-rule:nonzero;display:inline;overflow:visible;visibility:visible;isolation:auto;mix-blend-mode:normal;color-interpolation:sRGB;color-interpolation-filters:linearRGB;solid-color:#000000;solid-opacity:1;vector-effect:none;fill:#bcae42;fill-opacity:0.46262;fill-rule:nonzero;stroke:none;stroke-width:2;stroke-linecap:butt;stroke-linejoin:round;stroke-miterlimit:4;stroke-dasharray:none;stroke-dashoffset:0.1;stroke-opacity:1;color-rendering:auto;image-rendering:auto;shape-rendering:auto;text-rendering:auto;enable-background:accumulate;stop-color:#000000"
     d="m 12,1.5 c 0.443,0 0.93,1.5968 1.339,1.7664 0.41,0.1697 1.883,-0.6154 2.197,-0.3019 C 15.849,3.278 15.064,4.751 15.234,5.1606 15.403,5.5702 17,6.0566 17,6.5 17,6.9433 15.403,7.4298 15.234,7.8394 15.064,8.249 15.849,9.722 15.536,10.036 15.222,10.349 13.749,9.5639 13.339,9.7336 12.93,9.9032 12.443,11.5 12,11.5 11.557,11.5 11.07,9.9032 10.661,9.7336 10.251,9.5639 8.7781,10.349 8.4646,10.036 8.151,9.722 8.9361,8.249 8.7665,7.8394 8.5968,7.4298 7,6.9434 7,6.5 7,6.0567 8.5968,5.5702 8.7665,5.1606 8.9361,4.751 8.151,3.278 8.4646,2.9645 8.7781,2.651 10.251,3.4361 10.661,3.2664 11.07,3.0968 11.557,1.5 12,1.5 Z"
     id="path846" />
  <path
     style="color:#000000;font-style:normal;font-variant:normal;font-weight:normal;font-stretch:normal;font-size:medium;line-height:normal;font-family:sans-serif;font-variant-ligatures:normal;font-variant-position:normal;font-variant-caps:normal;font-variant-numeric:normal;font-variant-alternates:normal;font-variant-east-asian:normal;font-feature-settings:normal;font-variation-settings:normal;text-indent:0;text-align:start;text-decoration:none;text-decoration-line:none;text-decoration-style:solid;text-decoration-color:#000000;letter-spacing:normal;word-spacing:normal;text-transform:none;writing-mode:lr-tb;direction:ltr;text-orientation:mixed;dominant-baseline:auto;baseline-shift:baseline;text-anchor:start;white-space:normal;shape-padding:0;shape-margin:0;inline-size:0;clip-rule:nonzero;display:inline;overflow:visible;visibility:visible;isolation:auto;mix-blend-mode:normal;color-interpolation:sRGB;color-interpolation-filters:linearRGB;solid-color:#000000;solid-opacity:1;vector-effect:none;fill:#bcae42;fill-opacity:0.46262;fill-rule:nonzero;stroke:none;stroke-width:3;stroke-linecap:butt;stroke-linejoin:round;stroke-miterlimit:4;stroke-dasharray:none;stroke-dashoffset:0.1;stroke-opacity:1;color-rendering:auto;image-rendering:auto;shape-rendering:auto;text-rendering:auto;enable-background:accumulate;stop-color:#000000"
     d="m 12,1.5 c 0.443,0 0.93,1.5968 1.339,1.7664 0.41,0.1697 1.883,-0.6154 2.197,-0.3019 C 15.849,3.278 15.064,4.751 15.234,5.1606 15.403,5.5702 17,6.0566 17,6.5 17,6.9433 15.403,7.4298 15.234,7.8394 15.064,8.249 15.849,9.722 15.536,10.036 15.222,10.349 13.749,9.5639 13.339,9.7336 12.93,9.9032 12.443,11.5 12,11.5 11.557,11.5 11.07,9.9032 10.661,9.7336 10.251,9.5639 8.7781,10.349 8.4646,10.036 8.151,9.722 8.9361,8.249 8.7665,7.8394 8.5968,7.4298 7,6.9434 7,6.5 7,6.0567 8.5968,5.5702 8.7665,5.1606 8.9361,4.751 8.151,3.278 8.4646,2.9645 8.7781,2.651 10.251,3.4361 10.661,3.2664 11.07,3.0968 11.557,1.5 12,1.5 Z"
     id="path845" />
</svg>
