<?xml version="1.0" encoding="UTF-8" standalone="no"?>
<svg
   xmlns:dc="http://purl.org/dc/elements/1.1/"
   xmlns:cc="http://creativecommons.org/ns#"
   xmlns:rdf="http://www.w3.org/1999/02/22-rdf-syntax-ns#"
   xmlns:svg="http://www.w3.org/2000/svg"
   xmlns="http://www.w3.org/2000/svg"
   xmlns:sodipodi="http://sodipodi.sourceforge.net/DTD/sodipodi-0.dtd"
   xmlns:inkscape="http://www.inkscape.org/namespaces/inkscape"
   version="1.1"
   id="Capa_1"
   x="0px"
   y="0px"
   viewBox="0 0 24 24"
   xml:space="preserve"
   sodipodi:docname="confectionery.svg"
   width="24"
   height="24"
   inkscape:version="1.0.2 (e86c870879, 2021-01-15, custom)"><metadata
   id="metadata39"><rdf:RDF><cc:Work
       rdf:about=""><dc:format>image/svg+xml</dc:format><dc:type
         rdf:resource="http://purl.org/dc/dcmitype/StillImage" /><dc:title></dc:title></cc:Work></rdf:RDF></metadata><defs
   id="defs37" /><sodipodi:namedview
   pagecolor="#ffffff"
   bordercolor="#999999"
   borderopacity="1"
   objecttolerance="10"
   gridtolerance="10"
   guidetolerance="10"
   inkscape:pageopacity="0"
   inkscape:pageshadow="2"
   inkscape:window-width="1920"
   inkscape:window-height="1017"
   id="namedview35"
   showgrid="true"
   inkscape:snap-object-midpoints="true"
   inkscape:zoom="2.8284"
   inkscape:cx="-79.611"
   inkscape:cy="20.302"
   inkscape:window-x="-8"
   inkscape:window-y="-8"
   inkscape:window-maximized="1"
   inkscape:current-layer="Capa_1"
   inkscape:document-rotation="0"
   showguides="false"><inkscape:grid
     type="xygrid"
     id="grid864" /></sodipodi:namedview>

<g
   id="g4">
</g>
<g
   id="g6">
</g>
<g
   id="g8">
</g>
<g
   id="g10">
</g>
<g
   id="g12">
</g>
<g
   id="g14">
</g>
<g
   id="g16">
</g>
<g
   id="g18">
</g>
<g
   id="g20">
</g>
<g
   id="g22">
</g>
<g
   id="g24">
</g>
<g
   id="g26">
</g>
<g
   id="g28">
</g>
<g
   id="g30">
</g>
<g
   id="g32">
</g>
<path
   id="path866"
   style="fill:#000000;fill-opacity:1;stroke:none;stroke-width:1px;stroke-linecap:butt;stroke-linejoin:miter;stroke-opacity:0.6285"
   d="m 6,13 c -0.5523,0 -1,0.448 -1,1 0,0.131 0.026,0.262 0.076,0.383 0,0 0,0 0,0 L 6,20 c 0,0.552 0.4477,1 1,1 h 10 c 0.552,0 1,-0.448 1,-1 l 0.924,-5.623 c 0.05,-0.12 0.07,-0.248 0.08,-0.377 0,-0.552 -0.448,-1 -1,-1 z"
   sodipodi:nodetypes="sssccssccsss" /><path
   id="path847"
   style="fill:#000000;fill-opacity:1;stroke:none;stroke-width:1px;stroke-linecap:butt;stroke-linejoin:miter;stroke-opacity:0.6285"
   d="m 5,-82 1,6 h 12 l 1,-6 z"
   sodipodi:nodetypes="ccccc" /><path
   id="path849"
   style="fill:#000000;fill-opacity:1;stroke:none;stroke-width:2;stroke-linejoin:round;stroke-dashoffset:0.1;stroke-opacity:0.6285;stop-color:#000000"
   d="m 12,-94 c -1.381,0 -2.5,1.119 -2.5,2.5 0.029,0.03 -0.2999,0 -0.5,0 -0.016,0 -0.033,0 -0.049,0 -1.0855,0.03 -1.9515,0.914 -1.9512,2 -0.016,0 -0.032,0 -0.049,0 -1.0855,0.03 -1.9515,0.914 -1.9512,2 4e-4,0.396 0.1187,0.784 0.3398,1.113 -0.8017,0.281 -1.339,1.037 -1.3394,1.887 0,0.174 0.029,0.339 0.07,0.5 h 15.86 c 0.04,-0.161 0.07,-0.326 0.07,-0.5 0,-0.873 -0.562,-1.608 -1.342,-1.881 C 18.874,-86.7 19,-87.086 19,-87.5 c 0,-1.105 -0.895,-2 -2,-2 0,-1.105 -0.895,-2 -2,-2 -0.199,0 -0.526,0.03 -0.496,0 0,-1.381 -1.119,-2.5 -2.5,-2.5 z"
   sodipodi:nodetypes="scscccscsccscscscss" /><path
   id="path913"
   style="fill:#000000;fill-opacity:1;stroke:none;stroke-width:1px;stroke-linecap:butt;stroke-linejoin:miter;stroke-opacity:0.6285"
   d="m 5,-56 1,6 h 12 l 1,-6 z"
   sodipodi:nodetypes="ccccc" /><path
   id="path915"
   style="fill:#3fac9a;fill-opacity:0.47196;stroke-width:3;stroke-linecap:round;stroke-linejoin:round;stroke-dashoffset:0.1;stroke-opacity:0.46262;stop-color:#000000"
   d="M 7.9395,-64 A 4,4 0 0 0 4,-60 4,4 0 0 0 8,-56 H 15.939 16 a 4,4 0 0 0 4,-4 4,4 0 0 0 -4,-4 H 8.0605 8 a 4,4 0 0 0 -0.061,0 z" /><circle
   style="fill:#3fac9a;fill-opacity:0.47196;stroke-width:3;stroke-linecap:round;stroke-linejoin:round;stroke-dashoffset:0.1;stroke-opacity:0.46262;stop-color:#000000"
   id="circle917"
   cx="12"
   cy="-64"
   r="3" /><circle
   style="fill:#3fac9a;fill-opacity:0.47196;stroke-width:3;stroke-linecap:round;stroke-linejoin:round;stroke-dashoffset:0.1;stroke-opacity:0.46262;stop-color:#000000"
   id="circle919"
   cx="12"
   cy="-64"
   r="4.5" /><path
   id="path866-4"
   style="fill:#000000;fill-opacity:1;stroke:none;stroke-width:1px;stroke-linecap:butt;stroke-linejoin:miter;stroke-opacity:0.6285"
   d="m 6,-152 1,5.5 h 10 l 1,-5.5 z"
   sodipodi:nodetypes="ccccc" /><path
   id="circle878"
   style="fill:#000000;fill-opacity:1;stroke:none;stroke-width:2;stroke-linejoin:round;stroke-dashoffset:0.1;stroke-opacity:0.6285;stop-color:#000000"
   d="m 12,-163.5 c -1.381,0 -2.5,1.12 -2.5,2.5 0.03,0 -0.3,0 -0.5,0 -0.02,0 -0.03,0 -0.05,0 -1.085,0 -1.9515,0.91 -1.9512,2 -0.016,0 -0.032,0 -0.049,0 -1.0855,0 -1.9515,0.91 -1.9512,2 1e-4,0.1 0.026,0.15 0.035,0.23 4.2354,-0.71 8.3274,-1.98 11.3944,-3.63 -0.363,-0.37 -0.868,-0.6 -1.43,-0.6 -0.199,0 -0.526,0 -0.496,0 0,-1.38 -1.119,-2.5 -2.5,-2.5 z m 5,4.49 c -3.479,1.84 -8.045,3.16 -12.625,3.85 -0.2376,0.33 -0.3748,0.73 -0.375,1.16 0,0.17 0.029,0.34 0.07,0.5 h 15.86 c 0.04,-0.16 0.07,-0.33 0.07,-0.5 0,-0.87 -0.562,-1.61 -1.342,-1.88 0.216,-0.32 0.342,-0.71 0.342,-1.12 0,-1.1 -0.895,-2 -2,-2 0,0 0,0 0,0 z" /><path
   id="path998"
   style="fill:#000000;fill-opacity:1;stroke:none;stroke-width:1px;stroke-linecap:butt;stroke-linejoin:miter;stroke-opacity:1"
   d="m 9,-141.71 c 0,0 1.124,1.69 0.508,2.9 -0.733,1.44 -2.267,1.54 -3.051,2.82 0.812,-0.2 1.637,-0.37 2.451,-0.56 1.996,-0.45 3.866,-1.01 5.381,-2.36 -0.77,-2 -2.72,-2.58 -5.289,-2.8 z m 6.475,3.72 c -1.83,1.71 -4.111,2.42 -6.233,2.9 -1.145,0.27 -2.2514,0.49 -3.2498,0.78 -0.021,0.31 -0.024,0.66 0.01,1.06 H 18.002 c 0,-2.19 -0.496,-3.89 -2.525,-4.74 z" /><path
   id="path1011"
   style="fill:#000000;fill-opacity:1;stroke:none;stroke-width:1px;stroke-linecap:butt;stroke-linejoin:miter;stroke-opacity:0.6285"
   d="m 6,-131.75 1,6.5 h 10 l 1,-6.5 z"
   sodipodi:nodetypes="ccccc" /><path
   style="fill:#000000;fill-opacity:1;stroke:none;stroke-width:1px;stroke-linecap:butt;stroke-linejoin:miter;stroke-opacity:1"
   d="m 4,-109.5 2,9 h 12 l 2,-9 z"
   id="path26"
   sodipodi:nodetypes="ccccc" /><path
   style="fill:#000000;fill-opacity:1;stroke:none;stroke-width:1px;stroke-linecap:butt;stroke-linejoin:miter;stroke-opacity:1"
   d="m 4,-111 h 16 c 0,-3 -1,-3.5 -3,-3.5 0,-4 -5.366,-6 -8,-6 0,7 -5,4 -5,9.5 z"
   id="path851"
   sodipodi:nodetypes="ccccc" /><path
   id="path866-5"
   style="fill:#000000;fill-opacity:1;stroke:none;stroke-width:1px;stroke-linecap:butt;stroke-linejoin:miter;stroke-opacity:0.6285"
   d="m 5,-36 1,7 h 12 l 1,-7 z"
   sodipodi:nodetypes="ccccc" /><path
   id="path881-6"
   style="fill:#000000;fill-opacity:1;stroke-width:3;stroke-linecap:round;stroke-linejoin:round;stroke-dashoffset:0.1;stroke-opacity:0.46262;stop-color:#000000"
   d="M 11.949,-47 A 3,3 0 0 0 9,-44 a 3,3 0 0 0 3,3 3,3 0 0 0 3,-3 3,3 0 0 0 -3,-3 3,3 0 0 0 -0.05,0 z M 7.5,-43.969 A 4,4 0 0 0 4,-40 4,4 0 0 0 4.5371,-38 H 19.465 A 4,4 0 0 0 20,-40 4,4 0 0 0 16.5,-43.969 4.5,4.5 0 0 1 12,-39.5 4.5,4.5 0 0 1 7.5,-43.969 Z" /><path
   id="path915-2"
   style="fill:#000000;fill-opacity:1;stroke-width:3;stroke-linecap:round;stroke-linejoin:round;stroke-dashoffset:0.1;stroke-opacity:0.46262;stop-color:#000000"
   d="M 7.5,5.031 A 4,4 0 0 0 4,9 4,4 0 0 0 4.877,11.5 H 19.121 A 4,4 0 0 0 20,9 4,4 0 0 0 16.5,5.031 4.5,4.5 0 0 1 12,9.5 4.5,4.5 0 0 1 7.5,5.031 Z" /><circle
   style="fill:#000000;fill-opacity:1;stroke-width:3;stroke-linecap:round;stroke-linejoin:round;stroke-dashoffset:0.1;stroke-opacity:0.46262;stop-color:#000000"
   id="path897"
   cx="12"
   cy="5"
   r="3" /><path
   id="path866-9"
   style="fill:#000000;fill-opacity:1;stroke:none;stroke-width:1px;stroke-linecap:butt;stroke-linejoin:miter;stroke-opacity:0.6285"
   d="m 12,-24 a 3,3 0 0 0 -2.949,3 3,3 0 0 0 3,3 3,3 0 0 0 3,-3 3,3 0 0 0 -3,-3 3,3 0 0 0 -0.05,0 z m -4.449,3.031 a 4,4 0 0 0 -3.5,3.969 4,4 0 0 0 0.877,2.5 h 14.244 a 4,4 0 0 0 0.879,-2.5 4,4 0 0 0 -3.5,-3.969 4.5,4.5 0 0 1 -4.5,4.469 4.5,4.5 0 0 1 -4.5,-4.469 z M 6.051,-13 c -0.552,0 -1,0.448 -1,1 0,0.131 0.03,0.262 0.08,0.383 L 6.051,-6 c 0,0.552 0.448,1 1,1 h 10 c 0.552,0 1,-0.448 1,-1 l 0.924,-5.623 c 0.05,-0.12 0.07,-0.248 0.08,-0.377 0,-0.552 -0.448,-1 -1,-1 z" /><path
   style="fill:none;stroke:#ffffff;stroke-width:1.5;stroke-linecap:butt;stroke-linejoin:miter;stroke-miterlimit:4;stroke-dasharray:none;stroke-opacity:1"
   d="m 9.051,-14 2,10"
   id="path846"
   sodipodi:nodetypes="cc" /><path
   style="fill:none;stroke:#ffffff;stroke-width:1.5;stroke-linecap:butt;stroke-linejoin:miter;stroke-miterlimit:4;stroke-dasharray:none;stroke-opacity:1"
   d="m 17.051,-14 -2,10"
   id="path2766"
   sodipodi:nodetypes="cc" /></svg>
