<?xml version="1.0" encoding="UTF-8" standalone="no"?>
<svg
   xmlns:dc="http://purl.org/dc/elements/1.1/"
   xmlns:cc="http://creativecommons.org/ns#"
   xmlns:rdf="http://www.w3.org/1999/02/22-rdf-syntax-ns#"
   xmlns:svg="http://www.w3.org/2000/svg"
   xmlns="http://www.w3.org/2000/svg"
   xmlns:sodipodi="http://sodipodi.sourceforge.net/DTD/sodipodi-0.dtd"
   xmlns:inkscape="http://www.inkscape.org/namespaces/inkscape"
   height="24px"
   viewBox="0 0 24 24"
   width="24px"
   fill="#000000"
   version="1.1"
   id="svg6"
   sodipodi:docname="arrow_right_alt_black_24dp.svg"
   inkscape:version="1.0.2-2 (e86c870879, 2021-01-15)">
  <metadata
     id="metadata12">
    <rdf:RDF>
      <cc:Work
         rdf:about="">
        <dc:format>image/svg+xml</dc:format>
        <dc:type
           rdf:resource="http://purl.org/dc/dcmitype/StillImage" />
      </cc:Work>
    </rdf:RDF>
  </metadata>
  <defs
     id="defs10" />
  <sodipodi:namedview
     pagecolor="#ffffff"
     bordercolor="#999999"
     borderopacity="1"
     objecttolerance="10"
     gridtolerance="10"
     guidetolerance="10"
     inkscape:pageopacity="0"
     inkscape:pageshadow="2"
     inkscape:window-width="1920"
     inkscape:window-height="1017"
     id="namedview8"
     showgrid="true"
     inkscape:snap-smooth-nodes="true"
     inkscape:zoom="6.3456"
     inkscape:cx="7.6869"
     inkscape:cy="33.465"
     inkscape:window-x="-8"
     inkscape:window-y="-8"
     inkscape:window-maximized="1"
     inkscape:current-layer="svg6">
    <inkscape:grid
       type="xygrid"
       id="grid837" />
  </sodipodi:namedview>
  <path
     d="M0 0h24v24H0V0z"
     fill="none"
     id="path2" />
  <circle
     style="fill:#000000;fill-opacity:1;stroke:none;stroke-width:3;stroke-linecap:round;stop-color:#000000"
     id="path839"
     cx="10"
     cy="6"
     r="2" />
  <circle
     style="fill:#000000;fill-opacity:1;stroke:none;stroke-width:3;stroke-linecap:round;stop-color:#000000"
     id="circle872"
     cx="10"
     cy="12"
     r="2" />
  <circle
     style="fill:#000000;fill-opacity:1;stroke:none;stroke-width:3;stroke-linecap:round;stop-color:#000000"
     id="circle874"
     cx="10"
     cy="18"
     r="2" />
  <circle
     style="fill:#000000;fill-opacity:1;stroke:none;stroke-width:3;stroke-linecap:round;stop-color:#000000"
     id="circle876"
     cx="4"
     cy="9"
     r="2" />
  <circle
     style="fill:#000000;fill-opacity:1;stroke:none;stroke-width:3;stroke-linecap:round;stop-color:#000000"
     id="circle878"
     cx="4"
     cy="15"
     r="2" />
  <path
     d="M 18.67,11 L 16.79,9.12 C 16.4,8.73 16.4,8.1 16.79,7.71 C 17.18,7.32 17.81,7.32 18.2,7.71 L 21.79,11.3 C 22.18,11.69 22.18,12.32 21.79,12.71 L 18.2,16.3 C 17.81,16.69 17.18,16.69 16.79,16.3 C 16.4,15.91 16.4,15.28 16.79,14.89 L 18.67,13 H 10 C 9.45,13 9,12.55 9,12 C 9,11.45 9.45,11 10,11 Z"
     id="path4-5"
     sodipodi:nodetypes="csssssssccsssc"
     style="fill:#000000;fill-opacity:1" />
  <circle
     style="fill:#000000;fill-opacity:1;stroke:none;stroke-width:3;stroke-linecap:round;stop-color:#000000"
     id="circle889"
     cx="10"
     cy="-15.5"
     r="2" />
  <circle
     style="fill:#000000;fill-opacity:1;stroke:none;stroke-width:3;stroke-linecap:round;stop-color:#000000"
     id="circle891"
     cx="10"
     cy="-10.5"
     r="2" />
  <circle
     style="fill:#000000;fill-opacity:1;stroke:none;stroke-width:3;stroke-linecap:round;stop-color:#000000"
     id="circle893"
     cx="10"
     cy="-5.5"
     r="2" />
  <circle
     style="fill:#000000;fill-opacity:1;stroke:none;stroke-width:3;stroke-linecap:round;stop-color:#000000"
     id="circle895"
     cx="5"
     cy="-13"
     r="2" />
  <circle
     style="fill:#000000;fill-opacity:1;stroke:none;stroke-width:3;stroke-linecap:round;stop-color:#000000"
     id="circle897"
     cx="5"
     cy="-8"
     r="2" />
  <path
     d="M 17.67,-11.5 L 15.79,-13.38 C 15.4,-13.77 15.4,-14.4 15.79,-14.79 C 16.18,-15.18 16.81,-15.18 17.2,-14.79 L 20.79,-11.2 C 21.18,-10.81 21.18,-10.18 20.79,-9.79 L 17.2,-6.2 C 16.81,-5.81 16.18,-5.81 15.79,-6.2 C 15.4,-6.59 15.4,-7.22 15.79,-7.61 L 17.67,-9.5 H 9 C 8.45,-9.5 8,-9.95 8,-10.5 C 8,-11.05 8.45,-11.5 9,-11.5 Z"
     id="path899"
     sodipodi:nodetypes="csssssssccsssc"
     style="fill:#000000;fill-opacity:1" />
</svg>
