<?xml version="1.0" encoding="UTF-8" standalone="no"?>
<svg
   xmlns:dc="http://purl.org/dc/elements/1.1/"
   xmlns:cc="http://creativecommons.org/ns#"
   xmlns:rdf="http://www.w3.org/1999/02/22-rdf-syntax-ns#"
   xmlns:svg="http://www.w3.org/2000/svg"
   xmlns="http://www.w3.org/2000/svg"
   xmlns:sodipodi="http://sodipodi.sourceforge.net/DTD/sodipodi-0.dtd"
   xmlns:inkscape="http://www.inkscape.org/namespaces/inkscape"
   height="24px"
   viewBox="0 0 24 24"
   width="24px"
   fill="#000000"
   version="1.1"
   id="svg6"
   sodipodi:docname="data-restore - Copy.svg"
   inkscape:version="1.0.2-2 (e86c870879, 2021-01-15)">
  <metadata
     id="metadata12">
    <rdf:RDF>
      <cc:Work
         rdf:about="">
        <dc:format>image/svg+xml</dc:format>
        <dc:type
           rdf:resource="http://purl.org/dc/dcmitype/StillImage" />
      </cc:Work>
    </rdf:RDF>
  </metadata>
  <defs
     id="defs10" />
  <sodipodi:namedview
     pagecolor="#ffffff"
     bordercolor="#999999"
     borderopacity="1"
     objecttolerance="10"
     gridtolerance="10"
     guidetolerance="10"
     inkscape:pageopacity="0"
     inkscape:pageshadow="2"
     inkscape:window-width="1920"
     inkscape:window-height="1017"
     id="namedview8"
     showgrid="true"
     inkscape:snap-smooth-nodes="true"
     inkscape:zoom="12.368"
     inkscape:cx="-11.933"
     inkscape:cy="11.494"
     inkscape:window-x="-8"
     inkscape:window-y="-8"
     inkscape:window-maximized="1"
     inkscape:current-layer="svg6"
     inkscape:document-rotation="0">
    <inkscape:grid
       type="xygrid"
       id="grid837" />
  </sodipodi:namedview>
  <path
     d="M0 0h24v24H0V0z"
     fill="none"
     id="path2" />
  <circle
     style="fill:#000000;fill-opacity:1;stroke:none;stroke-width:3;stroke-linecap:round;stop-color:#000000"
     id="path839"
     cx="-14.001"
     cy="6"
     r="2"
     transform="scale(-1,1)" />
  <circle
     style="fill:#000000;fill-opacity:1;stroke:none;stroke-width:3;stroke-linecap:round;stop-color:#000000"
     id="circle872"
     cx="-14.001"
     cy="12"
     r="2"
     transform="scale(-1,1)" />
  <circle
     style="fill:#000000;fill-opacity:1;stroke:none;stroke-width:3;stroke-linecap:round;stop-color:#000000"
     id="circle874"
     cx="-14.001"
     cy="18"
     r="2"
     transform="scale(-1,1)" />
  <circle
     style="fill:#000000;fill-opacity:1;stroke:none;stroke-width:3;stroke-linecap:round;stop-color:#000000"
     id="circle876"
     cx="-20.001"
     cy="9"
     r="2"
     transform="scale(-1,1)" />
  <circle
     style="fill:#000000;fill-opacity:1;stroke:none;stroke-width:3;stroke-linecap:round;stop-color:#000000"
     id="circle878"
     cx="-20.001"
     cy="15"
     r="2"
     transform="scale(-1,1)" />
  <path
     d="M 5.33,11 L 7.21,9.12 C 7.6,8.73 7.6,8.1 7.21,7.71 C 6.82,7.32 6.19,7.32 5.8,7.71 L 2.21,11.3 C 1.82,11.69 1.82,12.32 2.21,12.71 L 5.8,16.3 C 6.19,16.69 6.82,16.69 7.21,16.3 C 7.6,15.91 7.6,15.28 7.21,14.89 L 5.33,13 H 14 C 14.549,13 15,12.55 15,12 C 15,11.45 14.549,11 14,11 Z"
     id="path4-5"
     sodipodi:nodetypes="csssssssccsssc"
     style="fill:#000000;fill-opacity:1" />
</svg>
