<?xml version="1.0" encoding="UTF-8" standalone="no"?>
<svg
   xmlns:dc="http://purl.org/dc/elements/1.1/"
   xmlns:cc="http://creativecommons.org/ns#"
   xmlns:rdf="http://www.w3.org/1999/02/22-rdf-syntax-ns#"
   xmlns:svg="http://www.w3.org/2000/svg"
   xmlns="http://www.w3.org/2000/svg"
   xmlns:sodipodi="http://sodipodi.sourceforge.net/DTD/sodipodi-0.dtd"
   xmlns:inkscape="http://www.inkscape.org/namespaces/inkscape"
   enable-background="new 0 0 24 24"
   height="24"
   viewBox="0 0 24 24"
   width="24"
   version="1.1"
   id="svg10"
   sodipodi:docname="filter_alt-24px.svg"
   inkscape:version="1.0.2 (e86c870879, 2021-01-15, custom)">
  <metadata
     id="metadata16">
    <rdf:RDF>
      <cc:Work
         rdf:about="">
        <dc:format>image/svg+xml</dc:format>
        <dc:type
           rdf:resource="http://purl.org/dc/dcmitype/StillImage" />
      </cc:Work>
    </rdf:RDF>
  </metadata>
  <defs
     id="defs14" />
  <sodipodi:namedview
     pagecolor="#ffffff"
     bordercolor="#999999"
     borderopacity="1"
     objecttolerance="10"
     gridtolerance="10"
     guidetolerance="10"
     inkscape:pageopacity="0"
     inkscape:pageshadow="2"
     inkscape:window-width="1920"
     inkscape:window-height="1017"
     id="namedview12"
     showgrid="false"
     inkscape:snap-smooth-nodes="true"
     inkscape:zoom="13.023"
     inkscape:cx="-1.3254"
     inkscape:cy="15.976"
     inkscape:window-x="-8"
     inkscape:window-y="-8"
     inkscape:window-maximized="1"
     inkscape:current-layer="svg10" />
  <path
     d="m 0,0 h 24 m 0,24 H 0"
     fill="none"
     id="path2" />
  <path
     id="path4"
     d="M 6.8281 4 L 14.799 11.975 C 15.544 11.017 17.752 8.1757 19.75 5.6094 C 20.26 4.9494 19.789 4 18.949 4 L 6.8281 4 z M 4.3145 4.3164 C 4.0016 4.6514 3.924 5.1876 4.25 5.6094 C 6.57 8.5894 10 13 10 13 L 10 18 C 10 19.1 10.9 20 12 20 C 13.1 20 14 19.1 14 18 L 14 14.006 L 4.3145 4.3164 z " />
  <path
     d="M 0,0 H 24 V 24 H 0 Z"
     fill="none"
     id="path6" />
  <path
     d="m 2.1,3.511 v 0 c -0.39,0.39 -0.39,1.03 0,1.42 L 19.07,21.91 c 0.39,0.39 1.03,0.39 1.42,0 v 0 c 0.39,-0.39 0.39,-1.02 0,-1.41 L 3.51,3.511 c -0.38,-0.38 -1.02,-0.39 -1.41,0 z"
     id="path8"
     sodipodi:nodetypes="ssssssccs" />
</svg>
