<svg width="24px" height="24px" version="1.1" viewBox="0 0 24 24" xmlns="http://www.w3.org/2000/svg">
  <path fill="#3f51af"
      d="M12 1A1 1 0 0 0 11 2V3.0586C6.8387 3.5223 3.5223 6.8387 3.0586 11H2A1 1 0 0 0 1 12A1 1 0 0 0 2 13H3.0586C3.5223 17.162 6.8387 20.478 11 20.941V22A1 1 0 0 0 12 23A1 1 0 0 0 13 22V20.941C17.162 20.478 20.478 17.162 20.941 13H22A1 1 0 0 0 23 12A1 1 0 0 0 22 11H20.941C20.478 6.8387 17.162 3.5223 13 3.0586V2A1 1 0 0 0 12 1Z
         M 12 12 C 12 12 12 12 12 12 C 12 12 12 12 12 12 C 12 12 12 12 12 12 C 12 12 12 12 12 12 Z" />
</svg>
