<?xml version="1.0" encoding="UTF-8" standalone="no"?>
<svg
   xmlns:dc="http://purl.org/dc/elements/1.1/"
   xmlns:cc="http://creativecommons.org/ns#"
   xmlns:rdf="http://www.w3.org/1999/02/22-rdf-syntax-ns#"
   xmlns:svg="http://www.w3.org/2000/svg"
   xmlns="http://www.w3.org/2000/svg"
   xmlns:xlink="http://www.w3.org/1999/xlink"
   xmlns:sodipodi="http://sodipodi.sourceforge.net/DTD/sodipodi-0.dtd"
   xmlns:inkscape="http://www.inkscape.org/namespaces/inkscape"
   width="24"
   height="24"
   viewBox="0 0 24 24"
   version="1.1"
   id="svg8"
   inkscape:version="1.0.2 (e86c870879, 2021-01-15, custom)"
   sodipodi:docname="stationary.svg">
  <defs
     id="defs2" />
  <sodipodi:namedview
     id="base"
     pagecolor="#ffffff"
     bordercolor="#666666"
     borderopacity="1.0"
     inkscape:pageopacity="0.0"
     inkscape:pageshadow="2"
     inkscape:zoom="8.969"
     inkscape:cx="6.3011"
     inkscape:cy="9.8178"
     inkscape:document-units="px"
     inkscape:current-layer="layer2"
     inkscape:document-rotation="0"
     showgrid="false"
     units="px"
     lock-margins="true"
     inkscape:pagecheckerboard="false"
     inkscape:showpageshadow="false"
     inkscape:lockguides="false"
     guidecolor="#ff00ff"
     guideopacity="0.49804"
     guidehicolor="#ffb700"
     guidehiopacity="0.49804"
     inkscape:snap-tangential="true"
     inkscape:window-width="1920"
     inkscape:window-height="1017"
     inkscape:window-x="-8"
     inkscape:window-y="-8"
     inkscape:window-maximized="1"
     inkscape:snap-object-midpoints="true"
     inkscape:snap-smooth-nodes="true">
    <inkscape:grid
       type="xygrid"
       id="grid10"
       dotted="false"
       empspacing="4" />
  </sodipodi:namedview>
  <metadata
     id="metadata5">
    <rdf:RDF>
      <cc:Work
         rdf:about="">
        <dc:format>image/svg+xml</dc:format>
        <dc:type
           rdf:resource="http://purl.org/dc/dcmitype/StillImage" />
        <dc:title />
      </cc:Work>
    </rdf:RDF>
  </metadata>
  <g
     inkscape:groupmode="layer"
     id="layer2"
     inkscape:label="vector">
    <path
       id="path843"
       style="fill:#000000;fill-opacity:1;stroke:none;stroke-width:4;stroke-linecap:round;stop-color:#000000"
       d="M 11.949,-20 A 3,3 0 0 0 9,-17 a 3,3 0 0 0 3,3 3,3 0 0 0 3,-3 3,3 0 0 0 -3,-3 3,3 0 0 0 -0.05,0 z m 0.05,2 a 1,1 0 0 1 1,1 1,1 0 0 1 -1,1 1,1 0 0 1 -1,-1 1,1 0 0 1 1,-1 z" />
    <path
       style="fill:#000000;fill-opacity:1;stroke:#000000;stroke-width:1px;stroke-linecap:butt;stroke-linejoin:round;stroke-opacity:1"
       d="m 5,-3.9999 1,-2 L 12,-14 10,-16 5,-5.9999 Z"
       id="path857"
       sodipodi:nodetypes="cccccc" />
    <rect
       style="fill:#000000;fill-opacity:1;stroke-width:1.5;stroke-linejoin:round;stroke-dashoffset:0.1;stop-color:#000000"
       id="rect865"
       width="2"
       height="4"
       x="11"
       y="-22"
       rx="1"
       ry="1" />
    <use
       x="0"
       y="0"
       xlink:href="#path857"
       id="use869"
       transform="matrix(-1,0,0,1,24,5.4188e-5)"
       width="100%"
       height="100%" />
    <path
       style="fill:#000000;fill-opacity:1;stroke:#000000;stroke-width:1px;stroke-linecap:butt;stroke-linejoin:round;stroke-opacity:1"
       d="m 5,-25.5 1,-2 6,-8 -2,-2 -5,10 z"
       id="path835"
       sodipodi:nodetypes="cccccc" />
    <path
       id="path837"
       style="fill:#000000;fill-opacity:1;stroke:none;stroke-width:1px;stroke-linecap:butt;stroke-linejoin:miter;stroke-opacity:1"
       d="m 9,-40.5 c 0,2 1,5 3,5 2,0 3,-3 3,-5 h -3 z m 3,1 a 1,1 0 0 1 1,1 1,1 0 0 1 -1,1 1,1 0 0 1 -1,-1 1,1 0 0 1 1,-1 z" />
    <rect
       style="fill:#000000;fill-opacity:1;stroke-width:1.5;stroke-linejoin:round;stroke-dashoffset:0.1;stop-color:#000000"
       id="rect839"
       width="2"
       height="4"
       x="11"
       y="-43.5"
       rx="1"
       ry="1" />
    <use
       x="0"
       y="0"
       xlink:href="#path857"
       id="use841"
       transform="matrix(-1,0,0,1,24,-21.5)"
       width="100%"
       height="100%" />
    <path
       id="path839"
       style="fill:#000000;fill-opacity:1;stroke:none;stroke-width:4;stroke-linecap:round;stop-color:#000000"
       d="M 11.949,5 A 3,3 0 0 0 9,8 3,3 0 0 0 12,11 3,3 0 0 0 15,8 3,3 0 0 0 12,5 3,3 0 0 0 11.95,5 Z m 0.05,2 a 1,1 0 0 1 1,1 1,1 0 0 1 -1,1 1,1 0 0 1 -1,-1 1,1 0 0 1 1,-1 z" />
    <path
       id="path858"
       style="color:#000000;font-style:normal;font-variant:normal;font-weight:normal;font-stretch:normal;font-size:medium;line-height:normal;font-family:sans-serif;font-variant-ligatures:normal;font-variant-position:normal;font-variant-caps:normal;font-variant-numeric:normal;font-variant-alternates:normal;font-variant-east-asian:normal;font-feature-settings:normal;font-variation-settings:normal;text-indent:0;text-align:start;text-decoration:none;text-decoration-line:none;text-decoration-style:solid;text-decoration-color:#000000;letter-spacing:normal;word-spacing:normal;text-transform:none;writing-mode:lr-tb;direction:ltr;text-orientation:mixed;dominant-baseline:auto;baseline-shift:baseline;text-anchor:start;white-space:normal;shape-padding:0;shape-margin:0;inline-size:0;clip-rule:nonzero;display:inline;overflow:visible;visibility:visible;isolation:auto;mix-blend-mode:normal;color-interpolation:sRGB;color-interpolation-filters:linearRGB;solid-color:#000000;solid-opacity:1;vector-effect:none;fill:#000000;fill-opacity:1;fill-rule:nonzero;stroke:none;stroke-width:1px;stroke-linecap:butt;stroke-linejoin:round;stroke-miterlimit:4;stroke-dasharray:none;stroke-dashoffset:0;stroke-opacity:1;color-rendering:auto;image-rendering:auto;shape-rendering:auto;text-rendering:auto;enable-background:accumulate;stop-color:#000000"
       d="M 15.236 10.352 A 4 4 0 0 1 12.117 11.998 L 17.568 19.264 L 18.549 21.223 A 0.50005 0.50005 0 0 0 19.5 21 L 19.5 19 A 0.50005 0.50005 0 0 0 19.449 18.777 L 15.236 10.352 z M 8.7656 10.354 L 4.5527 18.777 A 0.50005 0.50005 0 0 0 4.5 19 L 4.5 21 A 0.50005 0.50005 0 0 0 5.4473 21.223 L 6.4277 19.264 L 11.879 11.998 A 4 4 0 0 1 8.7656 10.354 z " />
    <rect
       style="fill:#000000;fill-opacity:1;stroke-width:1.5;stroke-linejoin:round;stroke-dashoffset:0.1;stop-color:#000000"
       id="rect843"
       width="2"
       height="4"
       x="11"
       y="3"
       rx="1"
       ry="1" />
  </g>
  <inkscape:templateinfo>
    <inkscape:name>alaki</inkscape:name>
    <inkscape:date>2020-12-14</inkscape:date>
  </inkscape:templateinfo>
  <inkscape:templateinfo>
    <inkscape:name>512×512</inkscape:name>
    <inkscape:author>Mahdi Hosseinzadeh</inkscape:author>
    <inkscape:date>2020-12-14</inkscape:date>
  </inkscape:templateinfo>
  <inkscape:templateinfo>
    <inkscape:name>default</inkscape:name>
    <inkscape:author>Mahdi Hosseinzadeh</inkscape:author>
    <inkscape:date>2020-12-14</inkscape:date>
  </inkscape:templateinfo>
</svg>
