<?xml version="1.0" encoding="UTF-8" standalone="no"?>
<svg xmlns:dc="http://purl.org/dc/elements/1.1/" xmlns:cc="http://creativecommons.org/ns#" xmlns:rdf="http://www.w3.org/1999/02/22-rdf-syntax-ns#"
    xmlns="http://www.w3.org/2000/svg" xmlns:sodipodi="http://sodipodi.sourceforge.net/DTD/sodipodi-0.dtd"
    xmlns:inkscape="http://www.inkscape.org/namespaces/inkscape" width="18.5" height="18.5" viewBox="0 0 18.5 18.5"
    version="1.1" id="svg6" sodipodi:docname="fast_food.svg" inkscape:version="0.92.3 (2405546, 2018-03-11)">
  <metadata
     id="metadata12">
    <rdf:RDF>
      <cc:Work
         rdf:about="">
        <dc:format>image/svg+xml</dc:format>
        <dc:type
           rdf:resource="http://purl.org/dc/dcmitype/StillImage" />
        <dc:title />
      </cc:Work>
    </rdf:RDF>
  </metadata>
  <defs
     id="defs10" />
  <sodipodi:namedview
     pagecolor="#ffffff"
     bordercolor="#666666"
     borderopacity="1"
     objecttolerance="10"
     gridtolerance="10"
     guidetolerance="10"
     inkscape:pageopacity="0"
     inkscape:pageshadow="2"
     inkscape:window-width="1366"
     inkscape:window-height="705"
     id="namedview8"
     showgrid="false"
     inkscape:measure-start="0,0"
     inkscape:measure-end="0,0"
     inkscape:zoom="28.918919"
     inkscape:cx="9.25"
     inkscape:cy="9.25"
     inkscape:window-x="-8"
     inkscape:window-y="-8"
     inkscape:window-maximized="1"
     inkscape:current-layer="svg6"
     fit-margin-top="0"
     fit-margin-left="0"
     fit-margin-right="0"
     fit-margin-bottom="0" />
  <path
     d="m 16.536209,3.8843589 c -0.07131,-0.364464 -0.396157,-0.633851 -0.776467,-0.633851 H 6.7567664 c -0.3803101,0 -0.7051584,0.269387 -0.7764667,0.633851 L 3.8796406,10.020661 c -0.095078,0.491234 0.245211,0.950776 0.7443681,0.950776 h 0.1426162 v 3.961564 c 0,0.435772 0.2790484,0.792313 0.7148205,0.792313 h 6.8431556 c 0.435772,0 0.79834,-0.356583 0.792313,-0.792313 v -3.961564 h 2.961985 v 3.961564 c 0,0.435772 0.301127,0.792313 0.736899,0.792313 0.435772,0 0.79071,-0.356561 0.794972,-0.792313 v -3.961564 h 0.142616 c 0.499157,0 0.736503,-0.459542 0.641426,-0.950776 z"
     id="path4"
     inkscape:connector-curvature="0"
     sodipodi:nodetypes="cssccscssscccssscscc"
     style="stroke-width:0.79231286" />
  <g
     id="g1013"
     transform="matrix(0.24698552,0,0,0.24698552,0.07075237,-1.4241815)">
    <g
       id="g929">
      <path
         id="path871"
         d="M 56,33 H 3 C 1.35,33 0,31.65 0,30 v 0 c 0,-1.65 1.35,-3 3,-3 h 53 c 1.65,0 3,1.35 3,3 v 0 c 0,1.65 -1.35,3 -3,3 z"
         style="fill:#6a3311"
         inkscape:connector-curvature="0" />
      <path
         id="path873"
         d="M 54,39 H 5 C 3.35,39 2,37.65 2,36 v 0 c 0,-1.65 1.35,-3 3,-3 h 49 c 1.65,0 3,1.35 3,3 v 0 c 0,1.65 -1.35,3 -3,3 z"
         style="fill:#8e4a28"
         inkscape:connector-curvature="0" />
      <g
         id="g885">
        <path
           id="path875"
           d="m 32.293,31.913 c -0.438,0.438 -1.148,0.438 -1.586,0 -1.217,-1.217 -3.197,-1.217 -4.414,0 -0.438,0.438 -1.148,0.438 -1.586,0 -1.217,-1.217 -3.197,-1.217 -4.414,0 -0.425,0.424 -1.161,0.424 -1.586,0 -1.217,-1.217 -3.197,-1.217 -4.414,0 -0.425,0.424 -1.161,0.424 -1.586,0 -1.217,-1.217 -3.197,-1.217 -4.414,0 -0.438,0.438 -1.148,0.438 -1.586,0 -1.18,-1.18 -3.234,-1.18 -4.414,0 -0.391,0.391 -0.391,1.023 0,1.414 0.391,0.391 1.023,0.391 1.414,0 0.438,-0.438 1.148,-0.438 1.586,0 1.217,1.217 3.197,1.217 4.414,0 0.438,-0.438 1.148,-0.438 1.586,0 1.217,1.217 3.197,1.217 4.414,0 0.425,-0.424 1.161,-0.424 1.586,0 1.217,1.217 3.197,1.217 4.414,0 0.425,-0.424 1.161,-0.424 1.586,0 1.217,1.217 3.197,1.217 4.414,0 0.438,-0.438 1.148,-0.438 1.586,0 0.59,0.59 1.374,0.915 2.207,0.915 0.833,0 1.617,-0.325 2.207,-0.915 0.391,-0.391 0.391,-1.023 0,-1.414 -0.391,-0.391 -1.023,-0.391 -1.414,0 z"
           style="fill:#e3e82a"
           inkscape:connector-curvature="0" />
        <path
           id="path877"
           d="m 39.707,31.913 c -0.391,-0.391 -1.023,-0.391 -1.414,0 -0.425,0.424 -1.161,0.424 -1.586,0 -1.217,-1.217 -3.197,-1.217 -4.414,0 -0.391,0.391 -0.391,1.023 0,1.414 0.391,0.391 1.023,0.391 1.414,0 0.425,-0.424 1.161,-0.424 1.586,0 0.608,0.608 1.408,0.913 2.207,0.913 0.799,0 1.599,-0.305 2.207,-0.913 0.391,-0.391 0.391,-1.024 0,-1.414 z"
           style="fill:#e3e82a"
           inkscape:connector-curvature="0" />
        <path
           id="path879"
           d="m 45.707,31.913 c -0.391,-0.391 -1.023,-0.391 -1.414,0 -0.425,0.424 -1.161,0.424 -1.586,0 -1.217,-1.217 -3.197,-1.217 -4.414,0 -0.391,0.391 -0.391,1.023 0,1.414 0.391,0.391 1.023,0.391 1.414,0 0.425,-0.424 1.161,-0.424 1.586,0 0.608,0.608 1.408,0.913 2.207,0.913 0.799,0 1.599,-0.305 2.207,-0.913 0.391,-0.391 0.391,-1.024 0,-1.414 z"
           style="fill:#e3e82a"
           inkscape:connector-curvature="0" />
        <path
           id="path881"
           d="m 51.707,31.913 c -0.391,-0.391 -1.023,-0.391 -1.414,0 -0.425,0.424 -1.161,0.424 -1.586,0 -1.217,-1.217 -3.197,-1.217 -4.414,0 -0.391,0.391 -0.391,1.023 0,1.414 0.391,0.391 1.023,0.391 1.414,0 0.425,-0.424 1.161,-0.424 1.586,0 0.608,0.608 1.408,0.913 2.207,0.913 0.799,0 1.599,-0.305 2.207,-0.913 0.391,-0.391 0.391,-1.024 0,-1.414 z"
           style="fill:#e3e82a"
           inkscape:connector-curvature="0" />
        <path
           id="path883"
           d="m 57.707,31.913 c -0.391,-0.391 -1.023,-0.391 -1.414,0 -0.425,0.424 -1.161,0.424 -1.586,0 -1.217,-1.217 -3.197,-1.217 -4.414,0 -0.391,0.391 -0.391,1.023 0,1.414 0.391,0.391 1.023,0.391 1.414,0 0.425,-0.424 1.161,-0.424 1.586,0 0.608,0.608 1.408,0.913 2.207,0.913 0.799,0 1.599,-0.305 2.207,-0.913 0.391,-0.391 0.391,-1.024 0,-1.414 z"
           style="fill:#e3e82a"
           inkscape:connector-curvature="0" />
      </g>
      <path
         id="path887"
         d="m 44.295,53 h -29.6 C 11.892,53 9.405,51.204 8.524,48.543 L 6,40.924 H 52.973 L 50.47,48.531 C 49.593,51.198 47.103,53 44.295,53 Z"
         style="fill:#d28f1b"
         inkscape:connector-curvature="0" />
      <g
         id="g901">
        <path
           id="path889"
           d="m 15.555,44.092 c -0.46,-0.307 -1.08,-0.183 -1.387,0.277 -0.306,0.46 -0.182,1.08 0.277,1.387 l 3,2 c 0.17,0.113 0.363,0.168 0.554,0.168 0.323,0 0.64,-0.156 0.833,-0.445 0.306,-0.46 0.182,-1.08 -0.277,-1.387 z"
           style="fill:#fcc66f"
           inkscape:connector-curvature="0" />
        <path
           id="path891"
           d="m 24.447,44.029 c -0.496,-0.246 -1.095,-0.047 -1.342,0.447 l -1,2 c -0.247,0.494 -0.047,1.095 0.447,1.342 0.144,0.071 0.296,0.105 0.446,0.105 0.367,0 0.72,-0.202 0.896,-0.553 l 1,-2 c 0.248,-0.493 0.047,-1.094 -0.447,-1.341 z"
           style="fill:#fcc66f"
           inkscape:connector-curvature="0" />
        <path
           id="path893"
           d="m 28.895,47.477 c -0.247,-0.493 -0.846,-0.693 -1.342,-0.447 -0.494,0.247 -0.694,0.848 -0.447,1.342 l 1,2 c 0.175,0.351 0.528,0.553 0.896,0.553 0.15,0 0.303,-0.034 0.446,-0.105 0.494,-0.247 0.694,-0.848 0.447,-1.342 z"
           style="fill:#fcc66f"
           inkscape:connector-curvature="0" />
        <path
           id="path895"
           d="m 34.447,43.029 c -0.496,-0.246 -1.095,-0.047 -1.342,0.447 l -1,2 c -0.247,0.494 -0.047,1.095 0.447,1.342 0.144,0.071 0.296,0.105 0.446,0.105 0.367,0 0.72,-0.202 0.896,-0.553 l 1,-2 c 0.248,-0.493 0.047,-1.094 -0.447,-1.341 z"
           style="fill:#fcc66f"
           inkscape:connector-curvature="0" />
        <path
           id="path897"
           d="m 39.895,46.477 c -0.248,-0.494 -0.846,-0.693 -1.342,-0.447 -0.494,0.247 -0.694,0.848 -0.447,1.342 l 1,2 c 0.175,0.351 0.528,0.553 0.896,0.553 0.15,0 0.303,-0.034 0.446,-0.105 0.494,-0.247 0.694,-0.848 0.447,-1.342 z"
           style="fill:#fcc66f"
           inkscape:connector-curvature="0" />
        <path
           id="path899"
           d="m 45.447,43.029 c -0.495,-0.246 -1.095,-0.047 -1.342,0.447 l -1,2 c -0.247,0.494 -0.047,1.095 0.447,1.342 0.144,0.071 0.296,0.105 0.446,0.105 0.367,0 0.72,-0.202 0.896,-0.553 l 1,-2 c 0.248,-0.493 0.047,-1.094 -0.447,-1.341 z"
           style="fill:#fcc66f"
           inkscape:connector-curvature="0" />
      </g>
      <path
         id="path903"
         d="M 51,40 V 37.904 C 51,36.852 49.769,36 48.25,36 46.731,36 45.5,36.852 45.5,37.904 45.5,36.853 44.269,36 42.75,36 41.231,36 40,36.852 40,37.904 40,36.852 38.769,36 37.25,36 35.731,36 34.5,36.852 34.5,37.904 34.5,36.853 33.269,36 31.75,36 30.231,36 29,36.852 29,37.904 29,36.852 27.769,36 26.25,36 24.731,36 23.5,36.852 23.5,37.904 23.5,36.853 22.269,36 20.75,36 19.231,36 18,36.852 18,37.904 18,36.852 16.769,36 15.25,36 13.731,36 12.5,36.852 12.5,37.904 12.5,36.852 11.269,36 9.75,36 8.231,36 7,36.852 7,37.904 V 40 Z"
         style="fill:#88c057"
         inkscape:connector-curvature="0" />
      <path
         id="path905"
         d="M 53,41 V 40.25 C 53,39.007 51.685,38 50.062,38 48.44,38 47.125,39.007 47.125,40.25 47.125,39.007 45.81,38 44.187,38 42.565,38 41.25,39.007 41.25,40.25 41.25,39.007 39.935,38 38.312,38 36.69,38 35.375,39.007 35.375,40.25 35.375,39.007 34.06,38 32.437,38 30.815,38 29.5,39.007 29.5,40.25 29.5,39.007 28.185,38 26.562,38 24.94,38 23.625,39.007 23.625,40.25 23.625,39.007 22.31,38 20.687,38 19.065,38 17.75,39.007 17.75,40.25 17.75,39.007 16.435,38 14.812,38 13.19,38 11.875,39.007 11.875,40.25 11.875,39.007 10.56,38 8.937,38 7.315,38 6,39.007 6,40.25 V 41 Z"
         style="fill:#659c35"
         inkscape:connector-curvature="0" />
      <path
         id="path907"
         d="m 54.728,27 h -51 c -0.552,0 -1,-0.447 -1,-1 0,-0.553 0.448,-1 1,-1 h 51 c 0.552,0 1,0.447 1,1 0,0.553 -0.448,1 -1,1 z"
         style="fill:#f9ea80"
         inkscape:connector-curvature="0" />
      <path
         id="path909"
         d="M 53.372,25 C 50.875,14.119 41.139,6 29.5,6 17.861,6 8.125,14.119 5.628,25 Z"
         style="fill:#d28f1b"
         inkscape:connector-curvature="0" />
      <g
         id="g925">
        <path
           id="path911"
           d="m 45.555,18.168 -3,-2 c -0.461,-0.306 -1.081,-0.182 -1.387,0.277 -0.306,0.46 -0.182,1.08 0.277,1.387 l 3,2 c 0.171,0.113 0.364,0.168 0.554,0.168 0.323,0 0.64,-0.156 0.833,-0.445 0.306,-0.46 0.182,-1.08 -0.277,-1.387 z"
           style="fill:#efdfa0"
           inkscape:connector-curvature="0" />
        <path
           id="path913"
           d="m 37.447,17.105 c -0.496,-0.246 -1.095,-0.046 -1.342,0.447 l -1,2 c -0.247,0.494 -0.047,1.095 0.447,1.342 0.144,0.072 0.297,0.106 0.447,0.106 0.367,0 0.72,-0.202 0.896,-0.553 l 1,-2 c 0.247,-0.494 0.046,-1.094 -0.448,-1.342 z"
           style="fill:#efdfa0"
           inkscape:connector-curvature="0" />
        <path
           id="path915"
           d="m 33.895,12.553 c -0.247,-0.494 -0.847,-0.692 -1.342,-0.447 -0.494,0.247 -0.694,0.848 -0.447,1.342 l 1,2 c 0.175,0.35 0.528,0.552 0.895,0.552 0.15,0 0.303,-0.034 0.446,-0.105 0.494,-0.247 0.694,-0.848 0.447,-1.342 z"
           style="fill:#efdfa0"
           inkscape:connector-curvature="0" />
        <path
           id="path917"
           d="m 27.447,18.105 c -0.496,-0.245 -1.095,-0.046 -1.342,0.447 l -1,2 c -0.247,0.494 -0.047,1.095 0.447,1.342 0.144,0.072 0.297,0.106 0.447,0.106 0.367,0 0.72,-0.202 0.896,-0.553 l 1,-2 c 0.247,-0.494 0.046,-1.094 -0.448,-1.342 z"
           style="fill:#efdfa0"
           inkscape:connector-curvature="0" />
        <path
           id="path919"
           d="M 28.447,9.105 C 27.952,8.859 27.352,9.058 27.105,9.552 l -1,2 c -0.247,0.494 -0.047,1.095 0.447,1.342 0.144,0.072 0.297,0.106 0.447,0.106 0.367,0 0.72,-0.202 0.896,-0.553 l 1,-2 C 29.142,9.953 28.941,9.353 28.447,9.105 Z"
           style="fill:#efdfa0"
           inkscape:connector-curvature="0" />
        <path
           id="path921"
           d="m 20.895,14.553 c -0.247,-0.494 -0.847,-0.693 -1.342,-0.447 -0.494,0.247 -0.694,0.848 -0.447,1.342 l 1,2 c 0.175,0.35 0.528,0.552 0.895,0.552 0.15,0 0.303,-0.034 0.446,-0.105 0.494,-0.247 0.694,-0.848 0.447,-1.342 z"
           style="fill:#efdfa0"
           inkscape:connector-curvature="0" />
        <path
           id="path923"
           d="m 16.447,18.105 c -0.496,-0.245 -1.095,-0.046 -1.342,0.447 l -1,2 c -0.247,0.494 -0.047,1.095 0.447,1.342 0.144,0.072 0.297,0.106 0.447,0.106 0.367,0 0.72,-0.202 0.896,-0.553 l 1,-2 c 0.247,-0.494 0.046,-1.094 -0.448,-1.342 z"
           style="fill:#efdfa0"
           inkscape:connector-curvature="0" />
      </g>
      <polygon
         id="polygon927"
         points="37,25.998 41.796,25.998 46.593,25.998 41.796,32.229 "
         style="fill:#f9ea80" />
    </g>
    <g
       id="g931" />
    <g
       id="g933" />
    <g
       id="g935" />
    <g
       id="g937" />
    <g
       id="g939" />
    <g
       id="g941" />
    <g
       id="g943" />
    <g
       id="g945" />
    <g
       id="g947" />
    <g
       id="g949" />
    <g
       id="g951" />
    <g
       id="g953" />
    <g
       id="g955" />
    <g
       id="g957" />
    <g
       id="g959" />
  </g>
</svg>
