<?xml version="1.0" encoding="iso-8859-1"?>
<!-- Generator: Adobe Illustrator 19.0.0, SVG Export Plug-In . SVG Version: 6.00 Build 0)  -->
<svg version="1.1" id="Layer_1" xmlns="http://www.w3.org/2000/svg" xmlns:xlink="http://www.w3.org/1999/xlink" x="0px" y="0px"
	 viewBox="0 0 455 455" style="enable-background:new 0 0 455 455;" xml:space="preserve">
<g>
	<path d="M408.547,191.058c0-95.629-81.057-173.152-181.047-173.152c-99.989,0-181.046,77.523-181.046,173.152
		C20.798,191.058,0,211.855,0,237.511s20.798,46.454,46.454,46.454h362.093c25.656,0,46.453-20.798,46.453-46.454
		S434.202,191.058,408.547,191.058z"/>
	<polygon points="185.985,437.094 269.014,437.094 274.333,313.965 180.667,313.965 	"/>
	<polygon points="50.341,313.965 66.298,437.094 155.957,437.094 150.638,313.965 	"/>
	<polygon points="299.042,437.094 388.701,437.094 404.659,313.965 304.362,313.965 	"/>
</g>
<g>
</g>
<g>
</g>
<g>
</g>
<g>
</g>
<g>
</g>
<g>
</g>
<g>
</g>
<g>
</g>
<g>
</g>
<g>
</g>
<g>
</g>
<g>
</g>
<g>
</g>
<g>
</g>
<g>
</g>
</svg>
