<?xml version="1.0" encoding="UTF-8" standalone="no"?>
<!-- Generator: Adobe Illustrator 18.0.0, SVG Export Plug-In . SVG Version: 6.00 Build 0)  -->

<svg xmlns:dc="http://purl.org/dc/elements/1.1/" xmlns:cc="http://creativecommons.org/ns#" xmlns:rdf="http://www.w3.org/1999/02/22-rdf-syntax-ns#"
    xmlns="http://www.w3.org/2000/svg" xmlns:sodipodi="http://sodipodi.sourceforge.net/DTD/sodipodi-0.dtd"
    xmlns:inkscape="http://www.inkscape.org/namespaces/inkscape" version="1.1" id="Capa_1" x="0px" y="0px"
    viewBox="0 0 61.999999 61.999999" xml:space="preserve" sodipodi:docname="fish-shripm.svg" width="62"
    height="62" inkscape:version="0.92.3 (2405546, 2018-03-11)"><metadata
   id="metadata55"><rdf:RDF><cc:Work
       rdf:about=""><dc:format>image/svg+xml</dc:format><dc:type
         rdf:resource="http://purl.org/dc/dcmitype/StillImage" /><dc:title></dc:title></cc:Work></rdf:RDF></metadata><defs
   id="defs53" /><sodipodi:namedview
   pagecolor="#ffffff"
   bordercolor="#666666"
   borderopacity="1"
   objecttolerance="10"
   gridtolerance="10"
   guidetolerance="10"
   inkscape:pageopacity="0"
   inkscape:pageshadow="2"
   inkscape:window-width="1366"
   inkscape:window-height="705"
   id="namedview51"
   showgrid="false"
   fit-margin-top="0"
   fit-margin-left="0"
   fit-margin-right="0"
   fit-margin-bottom="0"
   inkscape:zoom="3.5810268"
   inkscape:cx="36.278972"
   inkscape:cy="28.559576"
   inkscape:window-x="-8"
   inkscape:window-y="-8"
   inkscape:window-maximized="1"
   inkscape:current-layer="Capa_1" />
















<g
   id="g108"
   transform="translate(0.25923987,-4.456323)"><g
     transform="rotate(45,14.582163,39.301871)"
     id="g18">
	<path
   inkscape:connector-curvature="0"
   id="path2"
   d="M 45.028,13.98 C 45.602,13.361 45.35,12.297 44.578,11.953 42.78,11.153 43.517,8.494 42.014,8.635 40.29,8.796 39.024,7.531 39.186,5.807 39.347,4.083 38.082,2.817 36.358,2.979 34.634,3.14 36.314,0.46 33.53,0.151 c 0,0 -1.945,-0.751 -2.13,1.111 L 31.371,8.52 H 20.164 C 9.126,8.52 0.178,17.468 0.178,28.506 V 45.52 h 16.876 c 11.114,0 20.124,-9.01 20.124,-20.124 V 14.237 l 7.244,0.067 c 0.256,-0.04 0.453,-0.16 0.606,-0.324 z"
   style="fill:#698b9e" />
	<path
   inkscape:connector-curvature="0"
   id="path4"
   d="m 21.951,39.899 h -2 c 0,-7.72 -6.28,-14 -14,-14 v -2 c 8.822,0 16,7.177 16,16 z"
   style="fill:#5d7989" />
	<path
   inkscape:connector-curvature="0"
   id="path6"
   d="m 25.206,36.644 h -2 c 0,-7.72 -6.28,-14 -14,-14 v -2 c 8.822,0 16,7.178 16,16 z"
   style="fill:#5d7989" />
	<path
   inkscape:connector-curvature="0"
   id="path8"
   d="m 28.315,33.534 h -2 c 0,-7.72 -6.28,-14 -14,-14 v -2 c 8.822,0 16,7.178 16,16 z"
   style="fill:#5d7989" />
	<path
   inkscape:connector-curvature="0"
   id="path10"
   d="m 31.57,30.28 h -2 c 0,-7.72 -6.28,-14 -14,-14 v -2 c 8.822,0 16,7.177 16,16 z"
   style="fill:#5d7989" />
	<path
   inkscape:connector-curvature="0"
   id="path12"
   d="M 14.824,9.263 C 14.43,7.283 13.613,5.13 12.054,2.978 c 0,0 -8.224,4.078 -4.851,10.331 2.185,-1.865 4.775,-3.257 7.621,-4.046 z"
   style="fill:#546a79" />
	<path
   inkscape:connector-curvature="0"
   id="path14"
   d="m 36.819,29.131 c -0.605,3.221 -1.979,6.164 -3.922,8.647 2.863,0.326 7.064,0.045 11.238,-2.98 0,0 -2.8,-5.647 -7.316,-5.667 z"
   style="fill:#546a79" />
	<circle
   id="circle16"
   r="2"
   cy="33.383999"
   cx="5.9510002"
   style="fill:#38454f" />
</g><g
     transform="translate(5.2387301,7.0289672)"
     id="g20">
</g><g
     transform="translate(5.2387301,7.0289672)"
     id="g22">
</g><g
     transform="translate(5.2387301,7.0289672)"
     id="g24">
</g><g
     transform="translate(5.2387301,7.0289672)"
     id="g26">
</g><g
     transform="translate(5.2387301,7.0289672)"
     id="g28">
</g><g
     transform="translate(5.2387301,7.0289672)"
     id="g30">
</g><g
     transform="translate(5.2387301,7.0289672)"
     id="g32">
</g><g
     transform="translate(5.2387301,7.0289672)"
     id="g34">
</g><g
     transform="translate(5.2387301,7.0289672)"
     id="g36">
</g><g
     transform="translate(5.2387301,7.0289672)"
     id="g38">
</g><g
     transform="translate(5.2387301,7.0289672)"
     id="g40">
</g><g
     transform="translate(5.2387301,7.0289672)"
     id="g42">
</g><g
     transform="translate(5.2387301,7.0289672)"
     id="g44">
</g><g
     transform="translate(5.2387301,7.0289672)"
     id="g46">
</g><g
     transform="translate(5.2387301,7.0289672)"
     id="g48">
</g><g
     transform="matrix(-0.63830716,0.59323514,0.59323514,0.63830716,51.93865,8.1032619)"
     id="g947"><g
       id="g882">
	<path
   inkscape:connector-curvature="0"
   style="fill:#e06b65"
   d="M 5.684,7.912 19.682,1.138 c 0,0 10.174,-3.035 10.623,4.841 0,0 1.476,8.599 -7.606,9.191 C 15.429,15.644 8.186,11.051 5.586,9.199 5.133,8.877 5.189,8.151 5.684,7.912 Z"
   id="path862" />
	<path
   inkscape:connector-curvature="0"
   style="fill:#4c312c"
   d="M 23.027,5.489 C 22.993,6.04 22.548,6.458 22.033,6.422 21.518,6.386 21.127,5.91 21.161,5.359 21.195,4.808 21.64,4.39 22.155,4.426 c 0.515,0.036 0.906,0.512 0.872,1.063 z"
   id="path864" />
	<path
   inkscape:connector-curvature="0"
   style="fill:#ed8680"
   d="m 12.522,9.765 c -0.023,0 -0.047,-0.001 -0.07,-0.002 C 5.62,9.286 0.481,5.41 0.753,0.938 0.787,0.387 1.269,-0.022 1.812,0 2.364,0.033 2.783,0.508 2.75,1.059 c -0.197,3.25 4.31,6.321 9.842,6.707 0.551,0.039 0.967,0.517 0.929,1.067 -0.039,0.528 -0.478,0.932 -0.999,0.932 z"
   id="path866" />
	<path
   inkscape:connector-curvature="0"
   style="fill:#d3605e"
   d="M 40.848,3.715 29.58,1.938 c -0.474,-0.101 -0.943,-0.063 -1.385,0.064 0.955,0.826 1.627,2.083 1.735,3.976 0,0 0.584,3.419 -1.26,6.094 -0.758,1.499 -2.183,2.89 -4.855,3.398 0.084,0.088 0.166,0.178 0.26,0.256 l 3.373,4.123 c 1.11,1.357 2.894,2.016 4.602,1.624 C 40.948,19.43 43.107,8.19 43.107,8.19 43.834,6.271 42.747,4.118 40.848,3.715 Z"
   id="path868" />
	<path
   inkscape:connector-curvature="0"
   style="fill:#e06b65"
   d="M 49.153,14.196 42.939,9.26 c -0.074,0.159 -0.155,0.329 -0.244,0.509 -0.897,2.95 -3.442,9.194 -9.3,11.304 l 1.223,4.01 c 0.896,1.722 3.105,2.018 4.428,0.594 l 10.49,-6.902 c 1.25,-1.345 1.066,-3.547 -0.383,-4.579 z"
   id="path870" />
	<path
   inkscape:connector-curvature="0"
   style="fill:#ea847d"
   d="m 51.054,27.196 -3.594,-7.055 -8.412,5.535 c -0.978,1.053 -2.439,1.16 -3.497,0.451 l -0.537,2.25 c -0.095,1.681 1.364,2.918 2.923,2.481 l 11.432,-0.115 c 1.472,-0.413 2.282,-2.119 1.685,-3.547 z"
   id="path872" />
	<path
   inkscape:connector-curvature="0"
   style="fill:#f2968f"
   d="m 48.104,30.755 -9.97,0.1 -1.967,2.281 c -0.709,1.198 -0.145,2.691 1.131,2.993 l 8.508,2.014 c 1.205,0.285 2.433,-0.645 2.553,-1.934 l -0.185,-4.702 c 0.025,-0.262 -0.002,-0.516 -0.07,-0.752 z"
   id="path874" />
	<path
   inkscape:connector-curvature="0"
   style="fill:#ed7161"
   d="m 24.368,23.196 c -0.553,0 -1,-0.447 -1,-1 0,-0.553 0.447,-1 1,-1 2.206,0 4,-1.794 4,-4 0,-0.553 0.447,-1 1,-1 0.553,0 1,0.447 1,1 0,3.309 -2.691,6 -6,6 z"
   id="path876" />
	<path
   inkscape:connector-curvature="0"
   style="fill:#ed7161"
   d="m 26.368,27.196 c -0.553,0 -1,-0.447 -1,-1 0,-0.553 0.447,-1 1,-1 3.309,0 6,-2.691 6,-6 0,-0.553 0.447,-1 1,-1 0.553,0 1,0.447 1,1 0,4.411 -3.589,8 -8,8 z"
   id="path878" />
	<path
   inkscape:connector-curvature="0"
   style="fill:#f4a7a4"
   d="m 45.807,38.145 -8.508,-2.014 c -0.109,-0.026 -0.206,-0.072 -0.305,-0.114 -2.087,0.718 -4.668,1.327 -6.525,1.43 -1.683,0.093 -2.778,2.197 -1.624,3.043 0.967,0.709 4.609,-0.22 6.171,-0.114 1.053,0.072 1.562,1.011 1.02,2.004 -0.974,1.784 -4.041,6.241 -3.291,8.754 0.412,1.381 2.7,1.027 3.399,-0.538 1.175,-2.627 4.556,-6.54 8.008,-10.626 0.16,-0.189 0.934,-0.998 1.683,-1.822 -0.01,-0.002 -0.019,-0.001 -0.028,-0.003 z"
   id="path880" />
</g><g
       id="g884">
</g><g
       id="g886">
</g><g
       id="g888">
</g><g
       id="g890">
</g><g
       id="g892">
</g><g
       id="g894">
</g><g
       id="g896">
</g><g
       id="g898">
</g><g
       id="g900">
</g><g
       id="g902">
</g><g
       id="g904">
</g><g
       id="g906">
</g><g
       id="g908">
</g><g
       id="g910">
</g><g
       id="g912">
</g></g></g></svg>
