<?xml version="1.0" encoding="UTF-8" standalone="no"?>
<!-- Generator: Adobe Illustrator 18.0.0, SVG Export Plug-In . SVG Version: 6.00 Build 0)  -->

<svg xmlns:dc="http://purl.org/dc/elements/1.1/" xmlns:cc="http://creativecommons.org/ns#" xmlns:rdf="http://www.w3.org/1999/02/22-rdf-syntax-ns#"
    xmlns="http://www.w3.org/2000/svg" xmlns:sodipodi="http://sodipodi.sourceforge.net/DTD/sodipodi-0.dtd"
    xmlns:inkscape="http://www.inkscape.org/namespaces/inkscape" version="1.1" id="Capa_1" x="0px" y="0px"
    viewBox="0 0 52 52" xml:space="preserve" sodipodi:docname="flower.svg" width="52" height="52"
    inkscape:version="0.92.4 (5da689c313, 2019-01-14)"><metadata
   id="metadata51"><rdf:RDF><cc:Work
       rdf:about=""><dc:format>image/svg+xml</dc:format><dc:type
         rdf:resource="http://purl.org/dc/dcmitype/StillImage" /><dc:title /></cc:Work></rdf:RDF></metadata><defs
   id="defs49">







</defs><sodipodi:namedview
   pagecolor="#ffffff"
   bordercolor="#666666"
   borderopacity="1"
   objecttolerance="10"
   gridtolerance="10"
   guidetolerance="10"
   inkscape:pageopacity="0"
   inkscape:pageshadow="2"
   inkscape:window-width="1366"
   inkscape:window-height="705"
   id="namedview47"
   showgrid="false"
   fit-margin-top="0"
   fit-margin-left="0"
   fit-margin-right="0"
   fit-margin-bottom="0"
   inkscape:zoom="10.540437"
   inkscape:cx="32.132603"
   inkscape:cy="25.378454"
   inkscape:window-x="-8"
   inkscape:window-y="-8"
   inkscape:window-maximized="1"
   inkscape:current-layer="Capa_1" />

<g
   id="g16"
   transform="translate(-5.9620041,1.2393129)">
</g>
<g
   id="g18"
   transform="translate(-5.9620041,1.2393129)">
</g>
<g
   id="g20"
   transform="translate(-5.9620041,1.2393129)">
</g>
<g
   id="g22"
   transform="translate(-5.9620041,1.2393129)">
</g>
<g
   id="g24"
   transform="translate(-5.9620041,1.2393129)">
</g>
<g
   id="g26"
   transform="translate(-5.9620041,1.2393129)">
</g>
<g
   id="g28"
   transform="translate(-5.9620041,1.2393129)">
</g>
<g
   id="g30"
   transform="translate(-5.9620041,1.2393129)">
</g>
<g
   id="g32"
   transform="translate(-5.9620041,1.2393129)">
</g>
<g
   id="g34"
   transform="translate(-5.9620041,1.2393129)">
</g>
<g
   id="g36"
   transform="translate(-5.9620041,1.2393129)">
</g>
<g
   id="g38"
   transform="translate(-5.9620041,1.2393129)">
</g>
<g
   id="g40"
   transform="translate(-5.9620041,1.2393129)">
</g>
<g
   id="g42"
   transform="translate(-5.9620041,1.2393129)">
</g>
<g
   id="g44"
   transform="translate(-5.9620041,1.2393129)">
</g>
<g
   transform="matrix(0.05884395,0,0,0.05884395,24.948064,32.374894)"
   id="g4529"><g
     transform="matrix(1.3333334,0,0,1.3333334,-648.89609,-706.17477)"
     id="#ec463aff"><path
       id="path4087"
       d="m 483.2,120.41 c 2.6,-0.98 5,0.93 6.89,2.47 7.85,6.74 13.82,15.31 19.69,23.74 -3.16,6.05 -7.48,11.39 -10.85,17.32 -2.53,3.85 -4.46,8.09 -7.24,11.77 -3.55,0.27 -7.14,-0.06 -10.65,-0.57 -1.98,-0.05 -2.78,-2.08 -3.81,-3.41 -5.21,-7.99 -10.71,-15.78 -16.41,-23.44 4.23,-7.37 8.84,-14.58 14.32,-21.1 2.32,-2.62 4.74,-5.42 8.06,-6.78 z"
       inkscape:connector-curvature="0"
       style="opacity:1;fill:#ec463a" /><path
       id="path4089"
       d="m 388.37,144.32 c 2.06,-4.52 6.52,-7.95 11.61,-7.96 7.97,-0.08 15.11,4.23 21.53,8.52 -11.7,15.19 -22.06,31.63 -28.93,49.6 -0.58,1.39 -1.1,2.83 -1.98,4.07 -3.28,1.41 -6.96,1.95 -9.85,4.19 -4.63,2.94 -7.91,7.42 -11.01,11.84 0.51,-6.92 1.95,-13.72 3.15,-20.54 3.46,-17.01 7.55,-34.16 15.48,-49.72 z"
       inkscape:connector-curvature="0"
       style="opacity:1;fill:#ec463a" /><path
       id="path4091"
       d="m 546.11,148.3 c 5.81,-4.97 11.82,-11.23 19.88,-11.87 5.43,0.05 6.6,6.34 8.22,10.35 6.12,19.8 8.23,40.58 10.29,61.12 -0.19,1.32 -0.38,2.66 -0.59,3.98 -1.34,-1.27 -2.56,-2.73 -4.19,-3.63 -2.42,-1.09 -5.11,-0.47 -7.64,-0.32 -5.32,-21.14 -14.87,-40.96 -25.97,-59.63 z"
       inkscape:connector-curvature="0"
       style="opacity:1;fill:#ec463a" /><path
       id="path4093"
       d="m 441.15,223.11 c 2.09,-0.83 4.37,-0.88 6.58,-1.19 9.36,7.49 16.13,17.59 22.92,27.33 -6.69,12.27 -12.51,24.99 -18.27,37.72 -1.71,-2.12 -2.25,-4.83 -3.18,-7.32 -4.34,-11.73 -9.2,-23.26 -14.31,-34.68 -1.64,-3.78 -4.09,-7.15 -5.69,-10.95 1.37,-2.85 4.4,-4.16 6.54,-6.31 1.76,-1.58 3.27,-3.52 5.41,-4.6 z"
       inkscape:connector-curvature="0"
       style="opacity:1;fill:#ec463a" /><path
       id="path4095"
       d="m 536.06,226.95 c 1.49,-2.07 3.18,-4.58 5.86,-5.09 2.84,-0.01 5.46,1.36 7.95,2.6 2.53,1.9 5.14,3.95 6.48,6.92 -5.57,12.19 -9.88,24.9 -14.09,37.62 -1.21,-5.58 -2.3,-11.23 -4.85,-16.39 -1.72,-4.42 -4.95,-7.97 -7.09,-12.15 0.44,-5.06 4.11,-8.86 5.74,-13.51 z"
       inkscape:connector-curvature="0"
       style="opacity:1;fill:#ec463a" /><path
       id="path4097"
       d="m 633.05,297.09 c 2.14,-1.28 4.5,-2.39 7.04,-2.48 2.88,1.56 4.35,4.67 5.87,7.42 3.85,7.87 6.59,16.23 8.82,24.69 -8.55,6.38 -16.07,14.01 -24.22,20.84 -2.97,0.74 -6.08,-1.48 -8.99,-2.23 -3.14,-10.02 -6.99,-19.79 -10.34,-29.73 6.72,-6.78 13.7,-13.41 21.82,-18.51 z"
       inkscape:connector-curvature="0"
       style="opacity:1;fill:#ec463a" /><path
       id="path4099"
       d="m 673.54,332.12 c 6.21,-3.88 13.03,-7.85 20.54,-7.98 2.62,-0.3 5.06,1.66 5.34,4.28 1.06,7.26 0.36,14.65 -0.3,21.93 -1.84,15.45 -4.8,30.75 -8.05,45.96 -1.41,-1.97 -2.53,-4.25 -4.47,-5.75 -1.47,-0.53 -3.02,-0.79 -4.52,-1.13 0.17,-19.39 -2.92,-38.78 -8.54,-57.31 z"
       inkscape:connector-curvature="0"
       style="opacity:1;fill:#ec463a" /><path
       id="path4101"
       d="m 571.17,376.52 c 4.7,-0.35 8.17,-4.25 12.83,-4.69 2.24,-0.36 3.98,1.32 5.22,2.95 4.82,6.62 5.57,15.39 10.4,21.95 -4.34,4.65 -9.02,8.97 -13.38,13.6 -2.91,3.26 -5.29,6.95 -8.45,9.99 -0.85,-0.92 -1.77,-1.89 -1.62,-3.25 -0.28,-13.63 -2.09,-27.23 -5,-40.55 z"
       inkscape:connector-curvature="0"
       style="opacity:1;fill:#ec463a" /><path
       id="path4103"
       d="m 356.78,375.82 c 1.95,-1.77 4.84,-0.71 6.76,0.59 6.6,4.49 12.07,10.4 17.32,16.37 -0.87,3.62 -2.33,7.07 -3.61,10.57 -2.66,6.51 -3.64,13.63 -6.95,19.89 -6.68,-13.45 -14.22,-26.53 -23.03,-38.7 3.59,-2.44 6.21,-5.96 9.51,-8.72 z"
       inkscape:connector-curvature="0"
       style="opacity:1;fill:#ec463a" /></g><g
     transform="matrix(1.3333334,0,0,1.3333334,-648.89609,-706.17477)"
     id="#f16e66ff"><path
       id="path4106"
       d="m 509.78,146.62 c 5.47,-6.81 9.69,-15.06 17.11,-20 3.68,0.17 6.06,3.58 8.36,6.07 4.04,4.9 7.59,10.18 10.86,15.61 11.1,18.67 20.65,38.49 25.97,59.63 2.53,-0.15 5.22,-0.77 7.64,0.32 1.63,0.9 2.85,2.36 4.19,3.63 0.21,-1.32 0.4,-2.66 0.59,-3.98 2.96,15.49 4.14,31.31 3.48,47.07 -1.05,12.64 -2.61,25.29 -5.67,37.61 -2.49,8.18 -5.03,16.37 -8.42,24.24 -5.63,13.14 -13.41,25.43 -23.21,35.86 -7.27,6.74 -14.77,14.04 -24.41,17.17 -0.34,0.53 -0.67,1.08 -0.98,1.63 -14.27,6.22 -29.95,9.05 -45.51,7.94 -1.86,-0.14 -3.72,-0.34 -5.56,-0.59 -1.65,-0.37 -3.28,-0.82 -4.91,-1.24 -1.29,-7.13 -2.27,-14.39 -4.62,-21.27 -1.02,-3.4 -4.47,-4.85 -7.42,-6.16 -3.38,-11.58 -6.1,-23.42 -10.83,-34.56 -1.58,-3.22 -2.8,-7.18 -6.06,-9.07 -4.17,-1.12 -7.59,2.42 -10.63,4.7 -4.11,-5.18 -8.6,-10.07 -13.54,-14.46 -1.66,-1.51 -4.58,-3.04 -6.46,-1.02 -2.59,2.86 -4.32,6.37 -6.31,9.65 -2.25,3.68 -3.37,8.12 -6.69,11.08 -4.5,-4.96 -9.27,-9.83 -15.1,-13.24 0.14,-2.95 -1.54,-5.54 -2.35,-8.28 -8.05,-23.4 -11.87,-48.23 -11.66,-72.95 -0.16,-2.64 0.63,-5.25 2.1,-7.43 3.1,-4.42 6.38,-8.9 11.01,-11.84 2.89,-2.24 6.57,-2.78 9.85,-4.19 0.88,-1.24 1.4,-2.68 1.98,-4.07 6.87,-17.97 17.23,-34.41 28.93,-49.6 5.21,-5.9 10.08,-12.58 17.25,-16.25 2.65,-1.2 5.03,1.1 6.99,2.57 5.8,4.96 10.4,11.12 15.07,17.09 5.7,7.66 11.2,15.45 16.41,23.44 1.03,1.33 1.83,3.36 3.81,3.41 3.51,0.51 7.1,0.84 10.65,0.57 2.78,-3.68 4.71,-7.92 7.24,-11.77 3.37,-5.93 7.69,-11.27 10.85,-17.32 m -42.81,33.22 c -8.23,2.08 -17.18,0.38 -25.13,3.71 -8.6,2.04 -16.95,5.03 -25.35,7.81 -0.24,0.55 -0.73,1.64 -0.97,2.19 -2.35,0.63 -4.7,1.26 -7.04,1.9 -0.24,0.5 -0.73,1.49 -0.97,1.99 -1.91,0.79 -3.76,1.71 -5.55,2.76 3.24,3.64 6.86,6.96 10.76,9.89 3.28,3.66 6.26,7.59 8.98,11.69 2.87,3.84 5.08,8.11 7.5,12.24 1.6,3.8 4.05,7.17 5.69,10.95 5.11,11.42 9.97,22.95 14.31,34.68 0.93,2.49 1.47,5.2 3.18,7.32 5.76,-12.73 11.58,-25.45 18.27,-37.72 6.67,-10.21 13.35,-20.98 23.53,-28.07 2.69,-1.55 5.59,-4.27 8.93,-2.91 10.37,5.63 19.54,13.23 27.21,22.19 2.14,4.18 5.37,7.73 7.09,12.15 2.55,5.16 3.64,10.81 4.85,16.39 4.21,-12.72 8.52,-25.43 14.09,-37.62 l 0.39,0.74 c 0.44,-2.17 0.74,-4.48 2.17,-6.26 2.62,-3.42 3.93,-7.7 4.97,-11.78 -1.76,-4.94 -7.06,-7.03 -9.71,-11.32 -1.27,-0.46 -2.64,-0.7 -3.76,-1.44 -3.72,-3.31 -8.33,-5.64 -13.17,-6.75 -2.63,-1.1 -4.51,-3.63 -7.39,-4.22 -4.86,-0.64 -8.6,-4.31 -13.53,-4.75 -7.22,-2.4 -14.72,-3.95 -22.31,-4.57 -5.02,-0.16 -9.97,-1.45 -15.02,-1.08 -4.02,0.38 -8.06,-1.21 -12.02,-0.11 z"
       inkscape:connector-curvature="0"
       style="opacity:1;fill:#f16e66" /></g><g
     transform="matrix(1.3333334,0,0,1.3333334,-648.89609,-706.17477)"
     id="#ec6056ff"><path
       id="path4109"
       d="m 466.97,179.84 c 3.96,-1.1 8,0.49 12.02,0.11 5.05,-0.37 10,0.92 15.02,1.08 7.59,0.62 15.09,2.17 22.31,4.57 4.93,0.44 8.67,4.11 13.53,4.75 2.88,0.59 4.76,3.12 7.39,4.22 4.84,1.11 9.45,3.44 13.17,6.75 1.12,0.74 2.49,0.98 3.76,1.44 2.65,4.29 7.95,6.38 9.71,11.32 -1.04,4.08 -2.35,8.36 -4.97,11.78 -1.43,1.78 -1.73,4.09 -2.17,6.26 l -0.39,-0.74 c -1.34,-2.97 -3.95,-5.02 -6.48,-6.92 0.11,-4.87 -3.33,-8.62 -6.31,-12.06 -1.87,-2.17 -4.33,-3.67 -6.75,-5.13 -1.74,-2.76 -5.04,-3.13 -7.92,-3.85 -0.89,-0.85 -1.66,-1.85 -2.75,-2.44 -11.49,-6.14 -24.35,-8.93 -37.12,-10.87 -7.33,-0.41 -14.69,-0.08 -22.03,-0.22 -4.42,-0.19 -8.67,1.15 -12.98,1.82 -11.22,1.09 -21.73,5.61 -31.7,10.62 -3.78,1.78 -6.86,4.66 -9.59,7.76 -3.9,-2.93 -7.52,-6.25 -10.76,-9.89 1.79,-1.05 3.64,-1.97 5.55,-2.76 0.24,-0.5 0.73,-1.49 0.97,-1.99 2.34,-0.64 4.69,-1.27 7.04,-1.9 0.24,-0.55 0.73,-1.64 0.97,-2.19 8.4,-2.78 16.75,-5.77 25.35,-7.81 7.95,-3.33 16.9,-1.63 25.13,-3.71 z"
       inkscape:connector-curvature="0"
       style="opacity:1;fill:#ec6056" /></g><g
     transform="matrix(1.3333334,0,0,1.3333334,-648.89609,-706.17477)"
     id="#e85349ff"><path
       id="path4112"
       d="m 454.01,191.71 c 4.31,-0.67 8.56,-2.01 12.98,-1.82 7.34,0.14 14.7,-0.19 22.03,0.22 12.77,1.94 25.63,4.73 37.12,10.87 1.09,0.59 1.86,1.59 2.75,2.44 2.88,0.72 6.18,1.09 7.92,3.85 2.42,1.46 4.88,2.96 6.75,5.13 2.98,3.44 6.42,7.19 6.31,12.06 -2.49,-1.24 -5.11,-2.61 -7.95,-2.6 -2.68,0.51 -4.37,3.02 -5.86,5.09 -3.08,-2.62 -4.21,-6.56 -6.08,-9.98 -1.39,-2.71 -4.66,-3.35 -7.08,-4.79 -4.01,-1.78 -7.52,-4.45 -11.36,-6.5 -6.19,-1.81 -12.33,-3.85 -18.55,-5.53 -11.25,-1.95 -22.75,-1.3 -34.05,-0.13 -3.7,0.39 -6.98,2.3 -10.5,3.35 -2.99,1.01 -6.23,1.39 -8.97,3.03 -5.41,3.6 -11.7,6.4 -15.19,12.18 -0.23,-0.36 -0.7,-1.1 -0.93,-1.47 -0.56,1.56 -1.11,3.11 -1.65,4.67 -2.72,-4.1 -5.7,-8.03 -8.98,-11.69 2.73,-3.1 5.81,-5.98 9.59,-7.76 9.97,-5.01 20.48,-9.53 31.7,-10.62 z"
       inkscape:connector-curvature="0"
       style="opacity:1;fill:#e85349" /></g><g
     transform="matrix(1.3333334,0,0,1.3333334,-648.89609,-706.17477)"
     id="#e3453aff"><path
       id="path4115"
       d="m 458.94,200.02 c 11.3,-1.17 22.8,-1.82 34.05,0.13 6.22,1.68 12.36,3.72 18.55,5.53 3.84,2.05 7.35,4.72 11.36,6.5 2.42,1.44 5.69,2.08 7.08,4.79 1.87,3.42 3,7.36 6.08,9.98 -1.63,4.65 -5.3,8.45 -5.74,13.51 -7.67,-8.96 -16.84,-16.56 -27.21,-22.19 0.61,-0.67 1.22,-1.35 1.84,-2.02 -5.99,0.08 -10.57,-4.56 -16.49,-4.88 -8.78,-0.81 -17.76,-1.03 -26.49,0.3 -5.7,0.58 -9.94,5.46 -15.79,5.33 0.43,0.43 1.31,1.29 1.75,1.72 -1.65,0.7 -3.32,1.32 -5.02,1.84 1.62,0.36 3.26,0.73 4.82,1.36 -2.21,0.31 -4.49,0.36 -6.58,1.19 -2.14,1.08 -3.65,3.02 -5.41,4.6 -2.14,2.15 -5.17,3.46 -6.54,6.31 -2.42,-4.13 -4.63,-8.4 -7.5,-12.24 0.54,-1.56 1.09,-3.11 1.65,-4.67 0.23,0.37 0.7,1.11 0.93,1.47 3.49,-5.78 9.78,-8.58 15.19,-12.18 2.74,-1.64 5.98,-2.02 8.97,-3.03 3.52,-1.05 6.8,-2.96 10.5,-3.35 z"
       inkscape:connector-curvature="0"
       style="opacity:1;fill:#e3453a" /></g><g
     transform="matrix(1.3333334,0,0,1.3333334,-648.89609,-706.17477)"
     id="#e13b2dff"><path
       id="path4118"
       d="m 461.97,211.67 c 8.73,-1.33 17.71,-1.11 26.49,-0.3 5.92,0.32 10.5,4.96 16.49,4.88 -0.62,0.67 -1.23,1.35 -1.84,2.02 -3.34,-1.36 -6.24,1.36 -8.93,2.91 -10.18,7.09 -16.86,17.86 -23.53,28.07 -6.79,-9.74 -13.56,-19.84 -22.92,-27.33 -1.56,-0.63 -3.2,-1 -4.82,-1.36 1.7,-0.52 3.37,-1.14 5.02,-1.84 -0.44,-0.43 -1.32,-1.29 -1.75,-1.72 5.85,0.13 10.09,-4.75 15.79,-5.33 z"
       inkscape:connector-curvature="0"
       style="opacity:1;fill:#e13b2d" /><path
       id="path4120"
       d="m 376.46,303.33 c 1.37,-1.55 3.64,-1.14 5.19,-0.09 5.83,3.41 10.6,8.28 15.1,13.24 0.37,3.11 -1.44,5.8 -2.66,8.5 -1.73,3.38 -2.75,7.12 -4.87,10.29 -2.85,0.84 -5.96,0.87 -8.86,0.32 -1.47,-0.8 -2.46,-2.21 -3.54,-3.42 -3.34,-4.17 -7.17,-7.89 -10.73,-11.86 2.74,-6.02 5.52,-12.34 10.37,-16.98 z"
       inkscape:connector-curvature="0"
       style="opacity:1;fill:#e13b2d" /><path
       id="path4122"
       d="m 316.79,322.75 c 4.51,-2.15 9.53,-0.48 14.03,0.83 -4.64,8.49 -8.87,17.24 -11.76,26.49 -1.49,4.1 -2.27,8.42 -3.76,12.51 -3.29,2.21 -7.16,3.64 -9.78,6.76 0.34,-12.25 1.68,-24.58 5.02,-36.39 1.15,-3.81 2.27,-8.38 6.25,-10.2 z"
       inkscape:connector-curvature="0"
       style="opacity:1;fill:#e13b2d" /></g><g
     transform="matrix(1.3333334,0,0,1.3333334,-648.89609,-706.17477)"
     id="#ec4539ff"><path
       id="path4125"
       d="m 573.89,316.82 c 3.39,-7.87 5.93,-16.06 8.42,-24.24 4.25,3.7 7.76,8.19 10.64,13.02 -6.62,3.97 -12.97,8.38 -18.87,13.35 -0.05,-0.53 -0.15,-1.6 -0.19,-2.13 z"
       inkscape:connector-curvature="0"
       style="opacity:1;fill:#ec4539" /></g><g
     transform="matrix(1.3333334,0,0,1.3333334,-648.89609,-706.17477)"
     id="#ed594dff"><path
       id="path4128"
       d="m 409.75,295.75 c 1.88,-2.02 4.8,-0.49 6.46,1.02 4.94,4.39 9.43,9.28 13.54,14.46 9.22,12.73 18.42,25.86 23.86,40.73 1.21,-0.6 2.43,-1.2 3.66,-1.8 2.95,1.31 6.4,2.76 7.42,6.16 2.35,6.88 3.33,14.14 4.62,21.27 1.63,0.42 3.26,0.87 4.91,1.24 -1.6,-0.17 -3.19,-0.33 -4.78,-0.46 3.17,26.86 0.44,55.61 -13.73,79.19 -9.61,16.34 -26.27,28.34 -44.98,31.73 -5.64,0.87 -11.32,1.58 -17.04,1.41 -16.27,0.19 -32.51,-5.17 -45.59,-14.83 -13.14,-9.64 -23.21,-22.91 -30.74,-37.24 -9,-17.36 -14.55,-36.4 -17.04,-55.76 -0.84,-5.09 2.71,-9.45 5.2,-13.53 2.62,-3.12 6.49,-4.55 9.78,-6.76 1.49,-4.09 2.27,-8.41 3.76,-12.51 2.89,-9.25 7.12,-18 11.76,-26.49 3.41,-6.5 7.36,-12.96 12.81,-17.95 2.06,-2.13 4.94,-0.67 6.93,0.73 5.75,3.96 10.7,8.95 15.53,13.95 3.56,3.97 7.39,7.69 10.73,11.86 1.08,1.21 2.07,2.62 3.54,3.42 2.9,0.55 6.01,0.52 8.86,-0.32 2.12,-3.17 3.14,-6.91 4.87,-10.29 1.22,-2.7 3.03,-5.39 2.66,-8.5 3.32,-2.96 4.44,-7.4 6.69,-11.08 1.99,-3.28 3.72,-6.79 6.31,-9.65 m -34.15,45.71 c -3.85,-0.86 -6.67,3.04 -10.52,2.66 -2.74,-0.22 -4.83,1.57 -7.16,2.63 -4.65,0.41 -8.97,2.55 -13.69,2.48 0.08,0.76 0.16,1.54 0.24,2.32 -4,0.72 -6.67,4.11 -10.44,5.36 -2.07,0.74 -3.83,2.05 -5.52,3.42 0.3,0.46 0.6,0.93 0.91,1.4 -0.5,1.04 -1.24,2.01 -1.4,3.18 0.76,2.23 3.23,2.93 4.97,4.19 4.56,3.28 7.68,8.06 11.63,11.97 0.89,1.14 1.77,2.3 2.65,3.47 8.81,12.17 16.35,25.25 23.03,38.7 3.31,-6.26 4.29,-13.38 6.95,-19.89 1.28,-3.5 2.74,-6.95 3.61,-10.57 2.6,-3.9 3.71,-8.57 6.41,-12.41 3.6,-5.54 7.65,-11.62 13.86,-14.36 7.84,2.27 14.71,6.86 21.3,11.53 l 0.01,0.53 c 4.03,3.84 7.97,7.91 10.54,12.91 1.74,2.97 2.5,6.45 4.67,9.18 0.92,-8.27 2.9,-16.39 5.04,-24.41 2.11,-5.3 2.98,-10.94 3.92,-16.53 -5.46,-6.38 -12.96,-11.48 -21.41,-12.61 -3.24,-2.07 -7.36,-1.94 -10.41,-4.33 -8.88,-1.24 -17.82,-2.72 -26.81,-2.14 -4.16,0.19 -8.18,1.98 -12.38,1.32 z"
       inkscape:connector-curvature="0"
       style="opacity:1;fill:#ed594d" /><path
       id="path4130"
       d="m 592.95,305.6 c 3.2,-1.59 6.76,-4.07 10.47,-3 3.81,3.46 5.46,8.55 7.81,13 3.35,9.94 7.2,19.71 10.34,29.73 2.91,0.75 6.02,2.97 8.99,2.23 8.15,-6.83 15.67,-14.46 24.22,-20.84 3.85,-2.44 7.42,-6.3 12.14,-6.65 3.82,2.76 4.83,7.91 6.62,12.05 5.62,18.53 8.71,37.92 8.54,57.31 1.5,0.34 3.05,0.6 4.52,1.13 1.94,1.5 3.06,3.78 4.47,5.75 -3.68,19.31 -9.3,38.46 -19.28,55.52 -7.6,13.11 -17.49,25.04 -29.76,34.04 -10.51,7.59 -23.04,12.57 -36.04,13.34 -9.42,0.58 -18.83,-1.21 -27.75,-4.08 -4.88,-1.91 -9.74,-3.92 -14.31,-6.49 -12.45,-6.94 -22.82,-17.45 -29.64,-29.96 -10.14,-18.39 -13.22,-39.89 -12.47,-60.65 0.55,-8.9 1.18,-17.9 3.47,-26.55 0.31,-0.55 0.64,-1.1 0.98,-1.63 9.64,-3.13 17.14,-10.43 24.41,-17.17 9.8,-10.43 17.58,-22.72 23.21,-35.86 0.04,0.53 0.14,1.6 0.19,2.13 5.9,-4.97 12.25,-9.38 18.87,-13.35 m -18.04,40.51 c -4.75,-0.17 -8.9,3.62 -13.69,2.07 3.41,8.27 7.13,16.42 9.48,25.07 0.12,0.82 0.35,2.45 0.47,3.27 2.91,13.32 4.72,26.92 5,40.55 -0.15,1.36 0.77,2.33 1.62,3.25 3.16,-3.04 5.54,-6.73 8.45,-9.99 4.36,-4.63 9.04,-8.95 13.38,-13.6 7.61,-6.84 16.06,-13.71 26.37,-15.7 3.05,-0.59 4.77,2.62 6.56,4.51 4.86,5.29 8.4,11.6 11.82,17.88 -0.7,1.92 0.8,3.99 1.14,5.94 2.11,5.64 1.26,11.71 1.64,17.59 3.54,-4.75 7.13,-9.47 10.33,-14.46 3.01,-4.26 7.05,-7.65 10.15,-11.84 1.67,-2.43 4.67,-4.23 4.46,-7.53 -4.72,-2.51 -2.95,-9.08 -7.16,-11.95 -3.2,-2.54 -5.16,-6.21 -8.13,-8.96 -2.54,-2.85 -6.08,-4.48 -8.68,-7.26 -3.34,-1.63 -5.92,-4.44 -9.4,-5.8 -2.91,-1.28 -5.6,-2.98 -8.45,-4.38 -2.66,-1.35 -5.73,-1.47 -8.45,-2.64 -5.46,-2.53 -11.34,-3.86 -16.99,-5.84 -4.62,-0.55 -9.34,0.1 -13.93,-0.92 -5.35,-1.15 -10.65,0.6 -15.99,0.74 z"
       inkscape:connector-curvature="0"
       style="opacity:1;fill:#ed594d" /></g><g
     transform="matrix(1.3333334,0,0,1.3333334,-648.89609,-706.17477)"
     id="#e13a2cff"><path
       id="path4133"
       d="m 429.75,311.23 c 3.04,-2.28 6.46,-5.82 10.63,-4.7 3.26,1.89 4.48,5.85 6.06,9.07 4.73,11.14 7.45,22.98 10.83,34.56 -1.23,0.6 -2.45,1.2 -3.66,1.8 -5.44,-14.87 -14.64,-28 -23.86,-40.73 z"
       inkscape:connector-curvature="0"
       style="opacity:1;fill:#e13a2c" /></g><g
     transform="matrix(1.3333334,0,0,1.3333334,-648.89609,-706.17477)"
     id="#e84b3fff"><path
       id="path4136"
       d="m 375.6,341.46 c 4.2,0.66 8.22,-1.13 12.38,-1.32 8.99,-0.58 17.93,0.9 26.81,2.14 3.05,2.39 7.17,2.26 10.41,4.33 8.45,1.13 15.95,6.23 21.41,12.61 -0.94,5.59 -1.81,11.23 -3.92,16.53 -2.14,8.02 -4.12,16.14 -5.04,24.41 -2.17,-2.73 -2.93,-6.21 -4.67,-9.18 -2.57,-5 -6.51,-9.07 -10.54,-12.91 l -0.01,-0.53 c -0.02,-0.39 -0.05,-1.15 -0.07,-1.53 -0.71,-2.65 -0.78,-5.4 -1.32,-8.06 -4.16,-5.74 -11.68,-6.61 -17.75,-9.28 -5.71,-2.66 -12.13,-1.52 -18.21,-1.79 -7.93,-0.59 -15.33,2.87 -22.47,5.83 -4.95,2.77 -10.3,5.44 -13.87,9.99 -1.55,2.7 -2.25,5.82 -4.12,8.37 -3.95,-3.91 -7.07,-8.69 -11.63,-11.97 -1.74,-1.26 -4.21,-1.96 -4.97,-4.19 0.16,-1.17 0.9,-2.14 1.4,-3.18 -0.31,-0.47 -0.61,-0.94 -0.91,-1.4 1.69,-1.37 3.45,-2.68 5.52,-3.42 3.77,-1.25 6.44,-4.64 10.44,-5.36 -0.08,-0.78 -0.16,-1.56 -0.24,-2.32 4.72,0.07 9.04,-2.07 13.69,-2.48 2.33,-1.06 4.42,-2.85 7.16,-2.63 3.85,0.38 6.67,-3.52 10.52,-2.66 z"
       inkscape:connector-curvature="0"
       style="opacity:1;fill:#e84b3f" /></g><g
     transform="matrix(1.3333334,0,0,1.3333334,-648.89609,-706.17477)"
     id="#e9493dff"><path
       id="path4139"
       d="m 574.91,346.11 c 5.34,-0.14 10.64,-1.89 15.99,-0.74 4.59,1.02 9.31,0.37 13.93,0.92 5.65,1.98 11.53,3.31 16.99,5.84 2.72,1.17 5.79,1.29 8.45,2.64 2.85,1.4 5.54,3.1 8.45,4.38 3.48,1.36 6.06,4.17 9.4,5.8 2.6,2.78 6.14,4.41 8.68,7.26 2.97,2.75 4.93,6.42 8.13,8.96 4.21,2.87 2.44,9.44 7.16,11.95 0.21,3.3 -2.79,5.1 -4.46,7.53 -3.1,4.19 -7.14,7.58 -10.15,11.84 -3.2,4.99 -6.79,9.71 -10.33,14.46 -0.38,-5.88 0.47,-11.95 -1.64,-17.59 -0.34,-1.95 -1.84,-4.02 -1.14,-5.94 0.46,-0.34 1.38,-1 1.85,-1.33 1.03,-3.24 3.28,-6.72 1.75,-10.16 -1.55,-3.58 -2.9,-7.44 -5.56,-10.34 -3.01,-2.28 -5.99,-4.67 -7.84,-8.04 -1.25,-0.36 -2.5,-0.7 -3.73,-1.05 -0.63,-0.8 -1.29,-1.55 -1.98,-2.26 -10.38,-5.6 -21.9,-9.74 -33.86,-9.37 -7.09,0.27 -14.4,1.24 -20.7,4.72 -0.17,-0.71 -0.51,-2.12 -0.67,-2.82 -0.82,3.54 -1.93,6.99 -2.93,10.48 -2.35,-8.65 -6.07,-16.8 -9.48,-25.07 4.79,1.55 8.94,-2.24 13.69,-2.07 z"
       inkscape:connector-curvature="0"
       style="opacity:1;fill:#e9493d" /></g><g
     transform="matrix(1.3333334,0,0,1.3333334,-648.89609,-706.17477)"
     id="#e13b2eff"><path
       id="path4142"
       d="m 362.61,362.71 c 7.14,-2.96 14.54,-6.42 22.47,-5.83 6.08,0.27 12.5,-0.87 18.21,1.79 6.07,2.67 13.59,3.54 17.75,9.28 0.54,2.66 0.61,5.41 1.32,8.06 0.02,0.38 0.05,1.14 0.07,1.53 -6.59,-4.67 -13.46,-9.26 -21.3,-11.53 -6.21,2.74 -10.26,8.82 -13.86,14.36 -2.7,3.84 -3.81,8.51 -6.41,12.41 -5.25,-5.97 -10.72,-11.88 -17.32,-16.37 -1.92,-1.3 -4.81,-2.36 -6.76,-0.59 -3.3,2.76 -5.92,6.28 -9.51,8.72 -0.88,-1.17 -1.76,-2.33 -2.65,-3.47 1.87,-2.55 2.57,-5.67 4.12,-8.37 3.57,-4.55 8.92,-7.22 13.87,-9.99 z"
       inkscape:connector-curvature="0"
       style="opacity:1;fill:#e13b2e" /></g><g
     transform="matrix(1.3333334,0,0,1.3333334,-648.89609,-706.17477)"
     id="#e53b2eff"><path
       id="path4145"
       d="m 574.3,365.59 c 6.3,-3.48 13.61,-4.45 20.7,-4.72 11.96,-0.37 23.48,3.77 33.86,9.37 0.69,0.71 1.35,1.46 1.98,2.26 1.23,0.35 2.48,0.69 3.73,1.05 1.85,3.37 4.83,5.76 7.84,8.04 2.66,2.9 4.01,6.76 5.56,10.34 1.53,3.44 -0.72,6.92 -1.75,10.16 -0.47,0.33 -1.39,0.99 -1.85,1.33 -3.42,-6.28 -6.96,-12.59 -11.82,-17.88 -1.79,-1.89 -3.51,-5.1 -6.56,-4.51 -10.31,1.99 -18.76,8.86 -26.37,15.7 -4.83,-6.56 -5.58,-15.33 -10.4,-21.95 -1.24,-1.63 -2.98,-3.31 -5.22,-2.95 -4.66,0.44 -8.13,4.34 -12.83,4.69 -0.12,-0.82 -0.35,-2.45 -0.47,-3.27 1,-3.49 2.11,-6.94 2.93,-10.48 0.16,0.7 0.5,2.11 0.67,2.82 z"
       inkscape:connector-curvature="0"
       style="opacity:1;fill:#e53b2e" /></g><g
     transform="matrix(1.3333334,0,0,1.3333334,-648.89609,-706.17477)"
     id="#2ac90cff"><path
       id="path4148"
       d="m 469.44,378.37 c 1.59,0.13 3.18,0.29 4.78,0.46 1.84,0.25 3.7,0.45 5.56,0.59 -4.06,38.73 -5.3,77.71 -4.98,116.63 0.81,48.13 3.42,96.38 11.29,143.93 3.32,22.07 6.65,44.16 8.79,66.39 -8.25749,34.40244 -16.37089,24.11042 -22.98,54.00796 -2.33904,-25.35544 -4.99159,-8.84218 -7.35,-32.09796 0.74,-50.48 -2.69,-100.9 -5.09,-151.29 -2.09,-39.78 -3.8,-79.59 -3.75,-119.43 14.17,-23.58 16.9,-52.33 13.73,-79.19 z"
       inkscape:connector-curvature="0"
       style="opacity:1;fill:#2ac90c"
       sodipodi:nodetypes="ccccccccccc" /></g><g
     transform="matrix(1.3333334,0,0,1.3333334,-648.89609,-706.17477)"
     id="#29d90cff"><path
       id="path4151"
       d="m 393.69,490.7 c 5.72,0.17 11.4,-0.54 17.04,-1.41 -0.74,0.29 -1.47,0.59 -2.19,0.9 1.58,20.18 3.97,40.29 6.78,60.34 -1.93,-1.7 -3.69,-3.61 -5.11,-5.75 -3.75,-5.61 -8.46,-10.45 -12.54,-15.79 -1.95,-12.67 -3.18,-25.49 -3.98,-38.29 z"
       inkscape:connector-curvature="0"
       style="opacity:1;fill:#29d90c" /><path
       id="path4153"
       d="m 563.93,488.64 c 4.57,2.57 9.43,4.58 14.31,6.49 l 1.01,0.41 c -7,20.13 -12.35,40.8 -17.32,61.51 -7.16,7.94 -13.3,16.71 -19.33,25.52 -2.28,3.33 -4.06,7.16 -7.5,9.51 7.13,-35.09 16.16,-69.91 28.83,-103.44 z"
       inkscape:connector-curvature="0"
       style="opacity:1;fill:#29d90c" /></g><g
     transform="matrix(1.3333334,0,0,1.3333334,-648.89609,-706.17477)"
     id="#2aa70dff"><path
       id="path4156"
       d="m 377.18,508.41 c 7.29,6.39 14.03,13.37 20.49,20.58 4.08,5.34 8.79,10.18 12.54,15.79 1.42,2.14 3.18,4.05 5.11,5.75 0.51,1.73 1.35,3.34 2.34,4.85 19.1,28.49 32.14,61.16 37.06,95.15 3.73,25.86 6.98,-7.28542 9.83,18.68458 2,16.53 3.31,33.14 5.08,49.7 0.86,8.58 0.76,17.28 2.27,25.79 0.52,-1.53 1.02,-3.06 1.41,-4.62 6.34,-31.12 13.83,-61.99 21.57,-92.78 4.3,-16.95 8.83,25.22542 13.45,8.36542 5.64,-20.29 14.06,-39.78 24.68,-57.95 1.02,-1.75 1.6,-3.7 2.09,-5.64 3.44,-2.35 5.22,-6.18 7.5,-9.51 6.03,-8.81 12.17,-17.58 19.33,-25.52 12.74,-14.81 26.58,-28.86 42.3,-40.52 -4.3,25.25 -9.04,50.42 -14.16,75.51 -23.63602,42.65504 -51.73521,81.48367 -65.87438,116.40979 -12.84,31.93 -17.65562,22.48606 -33.31562,53.15606 -2.11,4 -4.49,8.14 -8.42,10.63 -4.31,2.97 -9.82,2.36 -14.55,4.2 -6.96,0.71 -15.57,-0.48 -19.56,-7.01 -3.9,-6.77 -5.84,-14.43 -8.59,-21.69 -12.85,-39.05 -16.59166,-44.41604 -32.94,-74.67127 -16.34834,-30.25523 -20.41696,-34.50614 -25.18,-83.94458 -1.95,-26.87 -3.7,-53.77 -4.46,-80.71 z"
       inkscape:connector-curvature="0"
       style="opacity:1;fill:#2aa70d"
       sodipodi:nodetypes="cccccccccccccccccccccccczcc" /></g></g></svg>
