<?xml version="1.0" encoding="UTF-8" standalone="no"?>
<svg
   xmlns:dc="http://purl.org/dc/elements/1.1/"
   xmlns:cc="http://creativecommons.org/ns#"
   xmlns:rdf="http://www.w3.org/1999/02/22-rdf-syntax-ns#"
   xmlns:svg="http://www.w3.org/2000/svg"
   xmlns="http://www.w3.org/2000/svg"
   xmlns:sodipodi="http://sodipodi.sourceforge.net/DTD/sodipodi-0.dtd"
   xmlns:inkscape="http://www.inkscape.org/namespaces/inkscape"
   width="24"
   height="24"
   viewBox="0 0 24 24"
   version="1.1"
   id="svg8"
   inkscape:version="1.0.2 (e86c870879, 2021-01-15, custom)"
   sodipodi:docname="1bread.svg">
  <defs
     id="defs2" />
  <sodipodi:namedview
     id="base"
     pagecolor="#ffffff"
     bordercolor="#666666"
     borderopacity="1.0"
     inkscape:pageopacity="0.0"
     inkscape:pageshadow="2"
     inkscape:zoom="45.255"
     inkscape:cx="12.272"
     inkscape:cy="13.192"
     inkscape:document-units="px"
     inkscape:current-layer="layer2"
     inkscape:document-rotation="0"
     showgrid="true"
     units="px"
     lock-margins="true"
     inkscape:pagecheckerboard="false"
     inkscape:showpageshadow="false"
     inkscape:lockguides="false"
     guidecolor="#ff00ff"
     guideopacity="0.49804"
     guidehicolor="#ffb700"
     guidehiopacity="0.49804"
     inkscape:snap-tangential="true"
     inkscape:window-width="1920"
     inkscape:window-height="1017"
     inkscape:window-x="-8"
     inkscape:window-y="-8"
     inkscape:window-maximized="1"
     inkscape:snap-smooth-nodes="true">
    <inkscape:grid
       type="xygrid"
       id="grid10"
       dotted="false"
       empspacing="4" />
  </sodipodi:namedview>
  <metadata
     id="metadata5">
    <rdf:RDF>
      <cc:Work
         rdf:about="">
        <dc:format>image/svg+xml</dc:format>
        <dc:type
           rdf:resource="http://purl.org/dc/dcmitype/StillImage" />
        <dc:title></dc:title>
      </cc:Work>
    </rdf:RDF>
  </metadata>
  <g
     inkscape:groupmode="layer"
     id="layer2"
     inkscape:label="vector">
    <path
       id="path832"
       style="fill:#000000;fill-opacity:1;stroke:none;stroke-width:1px;stroke-linecap:butt;stroke-linejoin:miter;stroke-opacity:1"
       d="m 11,-52.682 c -1.1384,0.05 -2.128,0.193 -3,0.389 v 4.586 H 6 v -3.961 c -3.9854,1.716 -4,4.961 -4,4.961 v 3 c 1e-4,0.265 0.1054,0.52 0.293,0.707 0.1875,0.188 0.4418,0.293 0.707,0.293 H 21 A 1,1 0 0 0 21.707,-43 1,1 0 0 0 22,-43.707 v -3 c 0,0 -0.03,-3.223 -4,-4.938 v 3.938 h -2 v -4.584 c -0.869,-0.195 -1.861,-0.328 -3,-0.379 v 4.963 h -2 z" />
    <path
       id="path849"
       style="fill:#000000;fill-opacity:1;stroke:none;stroke-width:2;stroke-linecap:butt;stroke-linejoin:miter;stroke-miterlimit:4;stroke-dasharray:none;stroke-opacity:1"
       d="m 12,-63.707 v 4 h -1 v -3.947 c -0.992,0.07 -2.02,0.243 -3,0.49 v 3.457 H 7 v -3.172 c -2.239,0.72 -4,1.858 -4,3.172 v 4 h 18 v -4 c 0,-1.502 -2.33,-2.767 -5,-3.451 v 3.451 h -1 v -3.691 c -1.02,-0.199 -2.055,-0.309 -3,-0.309 z"
       sodipodi:nodetypes="ccccccccsccsccccc" />
    <path
       id="path853"
       style="fill:#000000;fill-opacity:1;stroke:none;stroke-width:1px;stroke-linecap:butt;stroke-linejoin:miter;stroke-opacity:1"
       d="m 12.268,-39.707 c -0.913,0 -1.717,0.06 -2.471,0.154 l -2.796,4.846 -1.733,-1 1.901,-3.291 c -4.879,1.582 -4.901,5.291 -4.901,5.291 v 4 h 20 v -4 c 0,0 -0.02,-1.892 -1.795,-3.551 l -1.473,2.551 -1.732,-1 1.557,-2.697 c -0.824,-0.423 -1.84,-0.781 -3.106,-1.012 l -2.719,4.709 -1.732,-1 2.281,-3.951 c -0.414,-0.02 -0.826,-0.05 -1.281,-0.05 z" />
    <path
       id="path874"
       style="fill:#000000;fill-opacity:1;stroke:none;stroke-width:1px;stroke-linecap:butt;stroke-linejoin:miter;stroke-opacity:1"
       d="m 11,-26.389 c -1.1384,0.05 -2.128,0.193 -3,0.389 v 3.586 c -10e-5,0.265 -0.1055,0.52 -0.293,0.707 -0.1875,0.188 -0.4418,0.293 -0.707,0.293 -0.2652,0 -0.5195,-0.105 -0.707,-0.293 C 6.1055,-21.894 6.0001,-22.149 6,-22.414 v -2.961 c -3.9854,1.716 -4,4.961 -4,4.961 v 3 c 1e-4,0.265 0.1054,0.52 0.293,0.707 0.1875,0.188 0.4418,0.293 0.707,0.293 h 18 c 0.265,0 0.52,-0.105 0.707,-0.293 0.188,-0.187 0.293,-0.442 0.293,-0.707 v -3 c 0,0 -0.03,-3.222 -4,-4.938 v 2.938 A 1,1 0 0 1 17.707,-21.707 1,1 0 0 1 17,-21.414 1,1 0 0 1 16.293,-21.707 1,1 0 0 1 16,-22.414 v -3.584 c -0.869,-0.195 -1.861,-0.328 -3,-0.379 v 3.963 c 0,0.265 -0.105,0.52 -0.293,0.707 -0.187,0.188 -0.442,0.293 -0.707,0.293 -0.265,0 -0.52,-0.105 -0.707,-0.293 C 11.105,-21.894 11,-22.149 11,-22.414 Z" />
    <path
       id="path897"
       style="fill:#000000;fill-opacity:1;stroke:none;stroke-width:1px;stroke-linecap:butt;stroke-linejoin:miter;stroke-opacity:1"
       d="m 11,-12.975 c -1.1384,0.05 -2.128,0.193 -3,0.389 V -9 C 7.9999,-8.735 7.8945,-8.48 7.707,-8.293 7.5195,-8.105 7.2652,-8 7,-8 6.7348,-8 6.4805,-8.105 6.293,-8.293 6.1055,-8.48 6.0001,-8.735 6,-9 v -2.961 C 2.0146,-10.245 2,-7 2,-7 v 2 c 1e-4,0.53 0.2108,1.039 0.5859,1.414 C 2.9609,-3.211 3.4696,-3 4,-3 H 20 A 2,2 0 0 0 21.414,-3.586 2,2 0 0 0 22,-5 v -2 c 0,0 -0.03,-3.222 -4,-4.938 V -9 c 0,0.265 -0.105,0.52 -0.293,0.707 C 17.52,-8.105 17.265,-8 17,-8 16.735,-8 16.48,-8.105 16.293,-8.293 16.105,-8.48 16,-8.735 16,-9 v -3.584 c -0.869,-0.195 -1.861,-0.328 -3,-0.379 V -9 c 0,0.265 -0.105,0.52 -0.293,0.707 C 12.52,-8.105 12.265,-8 12,-8 11.735,-8 11.48,-8.105 11.293,-8.293 11.105,-8.48 11,-8.735 11,-9 Z" />
    <path
       id="path838"
       style="fill:#000000;fill-opacity:1;stroke:none;stroke-width:1px;stroke-linecap:butt;stroke-linejoin:miter;stroke-opacity:1"
       d="M 11,7.0254 C 9.8786,7.0754 8.8871,7.2017 8,7.3867 V 12 C 8,12.552 7.5523,13 7,13 6.4477,13 6,12.552 6,12 V 7.9668 C 1.0207,9.8828 1,14 1,14 v 1 c 0,1.657 1.3431,3 3,3 h 16 c 1.657,0 3,-1.343 3,-3 V 14 C 23,14 22.96,9.9082 18,7.9922 V 12 c 0,0.552 -0.448,1 -1,1 -0.552,0 -1,-0.448 -1,-1 V 7.4102 C 15.112,7.2242 14.128,7.089 13,7.041 V 12 c 0,0.552 -0.448,1 -1,1 -0.552,0 -1,-0.448 -1,-1 z"
       sodipodi:nodetypes="ccsssccssssccsssccsssc" />
  </g>
  <inkscape:templateinfo>
    <inkscape:name>alaki</inkscape:name>
    <inkscape:date>2020-12-14</inkscape:date>
  </inkscape:templateinfo>
  <inkscape:templateinfo>
    <inkscape:name>512×512</inkscape:name>
    <inkscape:author>Mahdi Hosseinzadeh</inkscape:author>
    <inkscape:date>2020-12-14</inkscape:date>
  </inkscape:templateinfo>
  <inkscape:templateinfo>
    <inkscape:name>default</inkscape:name>
    <inkscape:author>Mahdi Hosseinzadeh</inkscape:author>
    <inkscape:date>2020-12-14</inkscape:date>
  </inkscape:templateinfo>
</svg>
