<?xml version="1.0" encoding="UTF-8" standalone="no"?>
<svg
   xmlns:dc="http://purl.org/dc/elements/1.1/"
   xmlns:cc="http://creativecommons.org/ns#"
   xmlns:rdf="http://www.w3.org/1999/02/22-rdf-syntax-ns#"
   xmlns:svg="http://www.w3.org/2000/svg"
   xmlns="http://www.w3.org/2000/svg"
   xmlns:xlink="http://www.w3.org/1999/xlink"
   xmlns:sodipodi="http://sodipodi.sourceforge.net/DTD/sodipodi-0.dtd"
   xmlns:inkscape="http://www.inkscape.org/namespaces/inkscape"
   width="24"
   height="24"
   viewBox="0 0 24 24"
   version="1.1"
   id="svg8"
   inkscape:version="1.0.2 (e86c870879, 2021-01-15, custom)"
   sodipodi:docname="dairy.svg">
  <defs
     id="defs2" />
  <sodipodi:namedview
     id="base"
     pagecolor="#ffffff"
     bordercolor="#666666"
     borderopacity="1.0"
     inkscape:pageopacity="0.0"
     inkscape:pageshadow="2"
     inkscape:zoom="2"
     inkscape:cx="-73.762"
     inkscape:cy="-102.16"
     inkscape:document-units="px"
     inkscape:current-layer="layer2"
     inkscape:document-rotation="0"
     showgrid="true"
     units="px"
     lock-margins="true"
     inkscape:pagecheckerboard="false"
     inkscape:showpageshadow="false"
     inkscape:lockguides="false"
     guidecolor="#ff00ff"
     guideopacity="0.49804"
     guidehicolor="#ffb700"
     guidehiopacity="0.49804"
     inkscape:snap-tangential="true"
     inkscape:window-width="1920"
     inkscape:window-height="1017"
     inkscape:window-x="-8"
     inkscape:window-y="-8"
     inkscape:window-maximized="1"
     inkscape:snap-object-midpoints="true"
     inkscape:object-nodes="true"
     inkscape:object-paths="true"
     inkscape:snap-grids="true"
     inkscape:snap-intersection-paths="true"
     inkscape:snap-smooth-nodes="false"
     inkscape:snap-midpoints="false"
     showguides="true"
     inkscape:guide-bbox="true">
    <inkscape:grid
       type="xygrid"
       id="grid10"
       dotted="false"
       empspacing="4" />
  </sodipodi:namedview>
  <metadata
     id="metadata5">
    <rdf:RDF>
      <cc:Work
         rdf:about="">
        <dc:format>image/svg+xml</dc:format>
        <dc:type
           rdf:resource="http://purl.org/dc/dcmitype/StillImage" />
        <dc:title></dc:title>
      </cc:Work>
    </rdf:RDF>
  </metadata>
  <g
     inkscape:groupmode="layer"
     id="layer2"
     inkscape:label="vector">
    <path
       id="path833"
       style="fill:#000000;fill-opacity:1;stroke:none;stroke-width:1px;stroke-linecap:butt;stroke-linejoin:miter;stroke-opacity:1"
       d="m 12,-72.213 c -3,0 -6,2 -6,6 l 1.629,8.486 a 6,4 0 0 1 4.371,-1.259 6,4 0 0 1 4.371,1.259 L 18,-66.213 c 0,-4 -3,-6 -6,-6 z m -3,6 c 0.552,0 1,0.448 1,1 0,0.552 -0.448,1 -1,1 -0.552,0 -1,-0.448 -1,-1 0,-0.552 0.448,-1 1,-1 z m 6,0 c 0.552,0 1,0.448 1,1 0,0.552 -0.448,1 -1,1 -0.552,0 -1,-0.448 -1,-1 0,-0.552 0.448,-1 1,-1 z" />
    <ellipse
       style="fill:#000000;fill-opacity:1;stroke:none;stroke-width:4.76734;stroke-linejoin:round;stroke-dashoffset:0.1;stop-color:#000000"
       id="path839"
       cx="12"
       cy="-54.986"
       rx="4.5"
       ry="2.5" />
    <path
       style="fill:#000000;fill-opacity:1;stroke:none;stroke-width:1px;stroke-linecap:butt;stroke-linejoin:miter;stroke-opacity:1"
       d="m 4,-67.213 c -1,0 -2,2 -2,2 0,0 1,2 2,2 h 3 v -4 z"
       id="path843"
       sodipodi:nodetypes="cccccc" />
    <use
       x="0"
       y="0"
       xlink:href="#path843"
       id="use845"
       transform="matrix(-1,0,0,1,24,0)"
       width="100%"
       height="100%" />
    <path
       id="ellipse878"
       style="fill:#000000;fill-opacity:1;stroke:none;stroke-width:5;stroke-linejoin:round;stroke-dashoffset:0.1;stroke-opacity:1;stop-color:#000000"
       d="m 12,-80.713 c -5,0 -9,-1 -9,-2 H 2 c 0,3 5,5 10,5"
       sodipodi:nodetypes="cccc" />
    <use
       x="0"
       y="0"
       xlink:href="#ellipse878"
       id="use883"
       transform="matrix(-1,0,0,1,24,0)"
       width="100%"
       height="100%" />
    <path
       id="path1051"
       style="font-variation-settings:normal;opacity:1;vector-effect:none;fill:#000000;fill-opacity:1;stroke:none;stroke-width:5;stroke-linecap:butt;stroke-linejoin:round;stroke-miterlimit:4;stroke-dasharray:none;stroke-dashoffset:0.1;stroke-opacity:1;stop-color:#000000;stop-opacity:1"
       d="m 3,-74.213 c 0,4.971 4.029,8 9,8 v -3 c -3.463,0 -6.501,-2.012 -8,-5 z"
       sodipodi:nodetypes="ccccc" />
    <use
       x="0"
       y="0"
       xlink:href="#path1051"
       id="use923"
       transform="matrix(-1,0,0,1,24,0)"
       width="100%"
       height="100%" />
    <path
       id="path925"
       style="font-variation-settings:normal;opacity:1;vector-effect:none;fill:#40ae8f;fill-opacity:0.49299;stroke:none;stroke-width:5;stroke-linecap:butt;stroke-linejoin:round;stroke-miterlimit:4;stroke-dasharray:none;stroke-dashoffset:0.1;stroke-opacity:1;stop-color:#000000;stop-opacity:1"
       d="m 3,-92.213 c 0,4.971 4.029,9 9,9 v -4 c -3.463,0 -6.501,-2.012 -8,-5 z"
       sodipodi:nodetypes="ccccc" />
    <use
       x="0"
       y="0"
       xlink:href="#path1051"
       id="use927"
       transform="matrix(-1,0,0,1,24,-18)"
       width="100%"
       height="100%" />
    <path
       id="path929"
       style="font-variation-settings:normal;opacity:1;vector-effect:none;fill:#000000;fill-opacity:1;stroke:none;stroke-width:5;stroke-linecap:butt;stroke-linejoin:round;stroke-miterlimit:4;stroke-dasharray:none;stroke-dashoffset:0.1;stroke-opacity:1;stop-color:#000000;stop-opacity:1"
       d="m 3,-100.21 c 0,4.968 4.029,7.997 9,7.997 v -3 c -3.463,0 -6.501,-2.012 -8,-4.997 z"
       sodipodi:nodetypes="ccccc" />
    <use
       x="0"
       y="0"
       xlink:href="#path1051"
       id="use931"
       transform="matrix(-1,0,0,1,24,-26)"
       width="100%"
       height="100%" />
    <path
       id="path833-0"
       style="fill:#000000;fill-opacity:1;stroke:none;stroke-width:1px;stroke-linecap:butt;stroke-linejoin:miter;stroke-opacity:1"
       d="m 12,-47.213 c -3,0 -6,2 -6,6 l 1.6289,8.486 A 6,4 0 0 1 12,-33.986 a 6,4 0 0 1 4.371,1.259 L 18,-41.213 c 0,-4 -3,-6 -6,-6 z m -3,6 c 0.5523,0 1,0.448 1,1 0,0.552 -0.4477,1 -1,1 -0.5523,0 -1,-0.448 -1,-1 0,-0.552 0.4477,-1 1,-1 z m 6,0 c 0.552,0 1,0.448 1,1 0,0.552 -0.448,1 -1,1 -0.552,0 -1,-0.448 -1,-1 0,-0.552 0.448,-1 1,-1 z" />
    <ellipse
       style="fill:#000000;fill-opacity:1;stroke:none;stroke-width:4.26404;stroke-linejoin:round;stroke-dashoffset:0.1;stop-color:#000000"
       id="path839-0"
       cx="12"
       cy="-30.486"
       rx="4.5"
       ry="2" />
    <path
       style="fill:#000000;fill-opacity:1;stroke:none;stroke-width:1px;stroke-linecap:butt;stroke-linejoin:miter;stroke-opacity:1"
       d="m 4,-42.213 c -1,0 -2,2 -2,2 0,0 1,2 2,2 h 3 v -4 z"
       id="path843-8"
       sodipodi:nodetypes="cccccc" />
    <use
       x="0"
       y="0"
       xlink:href="#path843-8"
       id="use845-4"
       transform="matrix(-1,0,0,1,24,0)"
       width="100%"
       height="100%" />
    <path
       id="path1051-9"
       style="font-variation-settings:normal;vector-effect:none;fill:#000000;fill-opacity:1;stroke:none;stroke-width:5;stroke-linecap:butt;stroke-linejoin:round;stroke-miterlimit:4;stroke-dasharray:none;stroke-dashoffset:0.1;stroke-opacity:1;stop-color:#000000"
       d="m 3,-49.213 c 0,4.971 4.0294,8 9,8 v -3 c -3.4629,0 -6.5013,-2.012 -8,-5 z"
       sodipodi:nodetypes="ccccc" />
    <use
       x="0"
       y="0"
       xlink:href="#path1051-9"
       id="use923-3"
       transform="matrix(-1,0,0,1,24,0)"
       width="100%"
       height="100%" />
    <path
       id="path901"
       style="fill:#000000;fill-opacity:1;stroke:none;stroke-width:0;stroke-linejoin:round;stroke-dashoffset:0.1;stroke-opacity:1;stop-color:#000000"
       d="m 3,-126.21 c -1e-4,2.91 1.4096,5.64 3.7832,7.33 -1.148,1.28 -1.7828,2.94 -1.7832,4.67 3e-4,1.83 0.719,3.59 2.002,4.9 -3e-4,0 -3e-4,0.1 0,0.1 0,2.76 2.2386,5 5,5 2.761,0 5,-2.24 5,-5 0,-0 0,-0.1 0,-0.11 1.281,-1.3 1.998,-3.06 1.998,-4.89 0,-1.73 -0.635,-3.39 -1.783,-4.67 2.373,-1.69 3.782,-4.42 3.783,-7.33 h -0.939 c -0.787,1.58 -2.026,2.9 -3.561,3.79 -1.341,0.78 -2.858,1.19 -4.406,1.21 -0.03,0 -0.06,0 -0.09,0 -0.03,0 -0.05,0 -0.08,0 h -0.01 c -1.556,-0 -3.0734,-0.43 -4.414,-1.21 -1.5354,-0.89 -2.7747,-2.21 -3.5625,-3.79 z m 6,10 c 0.5523,0 1,0.44 1,1 0,0.55 -0.4477,1 -1,1 -0.5523,0 -1,-0.45 -1,-1 0,-0.56 0.4477,-1 1,-1 z m 6,0 c 0.552,0 1,0.44 1,1 0,0.55 -0.448,1 -1,1 -0.552,0 -1,-0.45 -1,-1 0,-0.56 0.448,-1 1,-1 z"
       sodipodi:nodetypes="ccsccsscscccssssssccssssssssss" />
    <circle
       style="fill:#717171;fill-opacity:0.4229;stroke:none;stroke-width:5;stroke-linejoin:round;stroke-dashoffset:0.1;stop-color:#000000"
       id="path1051-7"
       cx="-20"
       cy="-80"
       r="9" />
    <circle
       style="fill:#717171;fill-opacity:0.4229;stroke:none;stroke-width:5;stroke-linejoin:round;stroke-dashoffset:0.1;stop-color:#000000"
       id="circle1053"
       cx="-20"
       cy="-84"
       r="9" />
    <path
       id="path872"
       style="fill:#000000;fill-opacity:1;stroke:none;stroke-width:1px;stroke-linecap:butt;stroke-linejoin:miter;stroke-opacity:1"
       d="m 12,-22.486 c -3,0 -6,2 -6,6 L 7.629,-8 A 6,4 0 0 1 12,-9.259 6,4 0 0 1 16.371,-8 L 18,-16.486 c 0,-4 -3,-6 -6,-6 z m -3,6 c 0.552,0 1,0.448 1,1 0,0.552 -0.448,1 -1,1 -0.552,0 -1,-0.448 -1,-1 0,-0.552 0.448,-1 1,-1 z m 6,0 c 0.552,0 1,0.448 1,1 0,0.552 -0.448,1 -1,1 -0.552,0 -1,-0.448 -1,-1 0,-0.552 0.448,-1 1,-1 z" />
    <ellipse
       style="fill:#000000;fill-opacity:1;stroke:none;stroke-width:4.26404;stroke-linejoin:round;stroke-dashoffset:0.1;stop-color:#000000"
       id="ellipse874"
       cx="12"
       cy="-5.759"
       rx="4.5"
       ry="2" />
    <path
       id="path876"
       style="fill:#000000;fill-opacity:1;stroke:none;stroke-width:1px;stroke-linecap:butt;stroke-linejoin:miter;stroke-opacity:1"
       d="m 3.9512,-17.486 a 2,2 0 0 0 -1.9512,2 2,2 0 0 0 2,2 H 4.0488 7 v -4 H 4 a 2,2 0 0 0 -0.049,0 z" />
    <use
       x="0"
       y="0"
       xlink:href="#path876"
       id="use861"
       transform="matrix(-1,0,0,1,24,0)"
       width="100%"
       height="100%" />
    <circle
       style="fill:#4040bf;fill-opacity:0.50367;stroke-width:0.1;stroke-linecap:round;stroke-linejoin:round;stroke-miterlimit:4;stroke-dasharray:none;stroke-dashoffset:0.1;stroke-opacity:0.46262;stop-color:#000000"
       id="path1007"
       cx="-20"
       cy="-53"
       r="10" />
    <circle
       style="fill:#4040bf;fill-opacity:0.50196;stroke-width:0.1;stroke-linecap:round;stroke-linejoin:round;stroke-miterlimit:4;stroke-dasharray:none;stroke-dashoffset:0.1;stroke-opacity:0.46262;stop-color:#000000"
       id="circle1009"
       cx="-20"
       cy="-57"
       r="10" />
    <circle
       style="fill:#bfbf40;fill-opacity:0.50367;stroke-width:3;stroke-linecap:round;stroke-linejoin:round;stroke-dashoffset:0.1;stroke-opacity:0.46262;stop-color:#000000"
       id="circle1011"
       cx="-20"
       cy="-53"
       r="9" />
    <circle
       style="fill:#bf4040;fill-opacity:0.50367;stroke-width:0.1;stroke-linecap:round;stroke-linejoin:round;stroke-miterlimit:4;stroke-dasharray:none;stroke-dashoffset:0.1;stroke-opacity:0.46262;stop-color:#000000"
       id="path1013"
       cx="-28.485"
       cy="-50"
       r="1" />
    <circle
       style="fill:#bfbf40;fill-opacity:0.50367;stroke-width:3;stroke-linecap:round;stroke-linejoin:round;stroke-dashoffset:0.1;stroke-opacity:0.46262;stop-color:#000000"
       id="circle1015"
       cx="-20"
       cy="-53"
       r="8" />
    <path
       style="fill:none;stroke:#000000;stroke-width:0.1;stroke-linecap:butt;stroke-linejoin:miter;stroke-miterlimit:4;stroke-dasharray:none;stroke-opacity:1"
       d="m -30,-50 h 2"
       id="path1017" />
    <text
       xml:space="preserve"
       style="font-style:normal;font-weight:normal;font-size:5.33333px;line-height:1.25;font-family:sans-serif;fill:#000000;fill-opacity:1;stroke:none"
       x="-123.73"
       y="-64.015"
       id="text1021"><tspan
         sodipodi:role="line"
         id="tspan1019"
         x="-123.73"
         y="-64.015"
         style="font-style:normal;font-variant:normal;font-weight:normal;font-stretch:normal;font-size:5.33333px;font-family:Roboto;-inkscape-font-specification:Roboto">Disable sanp to guides</tspan><tspan
         sodipodi:role="line"
         x="-123.73"
         y="-57.149"
         style="font-style:normal;font-variant:normal;font-weight:normal;font-stretch:normal;font-size:5.33333px;font-family:Roboto;-inkscape-font-specification:Roboto"
         id="tspan1023">and enable snap to paths</tspan><tspan
         sodipodi:role="line"
         x="-123.73"
         y="-50.283"
         style="font-style:normal;font-variant:normal;font-weight:normal;font-stretch:normal;font-size:5.33333px;font-family:Roboto;-inkscape-font-specification:Roboto"
         id="tspan1025">and enable snap to path intersections</tspan></text>
    <path
       id="circle1027"
       style="fill:#4040bf;fill-opacity:0.50367;stroke-width:0.1;stroke-linecap:round;stroke-linejoin:round;stroke-miterlimit:4;stroke-dasharray:none;stroke-dashoffset:0.1;stroke-opacity:0.46262;stop-color:#000000"
       d="m -29.539,-25 a 10,10 0 0 0 9.539,7 v -7 z" />
    <circle
       style="fill:#4040bf;fill-opacity:0.50196;stroke-width:0.1;stroke-linecap:round;stroke-linejoin:round;stroke-miterlimit:4;stroke-dasharray:none;stroke-dashoffset:0.1;stroke-opacity:0.46262;stop-color:#000000"
       id="circle1029"
       cx="-20"
       cy="-32"
       r="10" />
    <circle
       style="fill:#bf4040;fill-opacity:0.50367;stroke-width:0.1;stroke-linecap:round;stroke-linejoin:round;stroke-miterlimit:4;stroke-dasharray:none;stroke-dashoffset:0.1;stroke-opacity:0.46262;stop-color:#000000"
       id="circle1031"
       cx="-28.485"
       cy="-24.999"
       r="1" />
    <path
       style="fill:none;stroke:#000000;stroke-width:0.1;stroke-linecap:butt;stroke-linejoin:miter;stroke-miterlimit:4;stroke-dasharray:none;stroke-opacity:1"
       d="m -29.442,-24.708 5.026,-2.902"
       id="path1048" />
    <path
       id="path1050"
       style="fill:#4040bf;fill-opacity:0.50367;stroke-width:0.1;stroke-linecap:round;stroke-linejoin:round;stroke-miterlimit:4;stroke-dasharray:none;stroke-dashoffset:0.1;stroke-opacity:0.46262;stop-color:#000000"
       d="M -29.539,0 A 10,10 0 0 0 -20,7 V 0 Z" />
    <circle
       style="fill:#4040bf;fill-opacity:0.50196;stroke-width:0.1;stroke-linecap:round;stroke-linejoin:round;stroke-miterlimit:4;stroke-dasharray:none;stroke-dashoffset:0.1;stroke-opacity:0.46262;stop-color:#000000"
       id="circle1052"
       cx="-20"
       cy="-7"
       r="10" />
    <circle
       style="fill:#bf4040;fill-opacity:0.50367;stroke-width:0.1;stroke-linecap:round;stroke-linejoin:round;stroke-miterlimit:4;stroke-dasharray:none;stroke-dashoffset:0.1;stroke-opacity:0.46262;stop-color:#000000"
       id="circle1054"
       cx="-28.485"
       cy="0.0010004"
       r="1" />
    <path
       style="fill:none;stroke:#000000;stroke-width:0.1;stroke-linecap:butt;stroke-linejoin:miter;stroke-miterlimit:4;stroke-dasharray:none;stroke-opacity:1"
       d="M -29.442,0.292 -24.416,-2.61 -24,0 Z"
       id="path1058"
       sodipodi:nodetypes="cccc" />
    <path
       id="path1061"
       style="fill:#4040bf;fill-opacity:0.50367;stroke-width:0.1;stroke-linecap:round;stroke-linejoin:round;stroke-miterlimit:4;stroke-dasharray:none;stroke-dashoffset:0.1;stroke-opacity:0.46262;stop-color:#000000"
       d="m -27.71,7.369 -1.719,0.961 c 1.4,4.015 5.177,6.669 9.429,6.67 v -4 c -3.006,0 -5.811,-1.3 -7.71,-3.631 z"
       sodipodi:nodetypes="ccccc" />
    <circle
       style="fill:#bf4040;fill-opacity:0.50367;stroke-width:0.1;stroke-linecap:round;stroke-linejoin:round;stroke-miterlimit:4;stroke-dasharray:none;stroke-dashoffset:0.1;stroke-opacity:0.46262;stop-color:#000000"
       id="circle1065"
       cx="-28.485"
       cy="8.001"
       r="1" />
    <path
       id="path1085"
       style="fill:#4040bf;fill-opacity:0.50367;stroke-width:0.1;stroke-linecap:round;stroke-linejoin:round;stroke-miterlimit:4;stroke-dasharray:none;stroke-dashoffset:0.1;stroke-opacity:0.46262;stop-color:#000000"
       d="m -28.543,16.002 a 1,1 0 0 0 -0.941,1 1,1 0 0 0 0.06,0.328 v 0 c 0,0.02 0.01,0.03 0.02,0.05 1.416,3.983 5.176,6.612 9.408,6.613 v -4 c -2.993,0 -5.787,-1.29 -7.686,-3.602 a 1,1 0 0 0 -0.02,-0.02 c 0,0 0,0 0,0 a 1,1 0 0 0 -0.773,-0.367 1,1 0 0 0 -0.06,0 z" />
    <path
       id="path1092"
       style="fill:#000000;fill-opacity:1;stroke-width:0.1;stroke-linecap:round;stroke-linejoin:round;stroke-miterlimit:4;stroke-dasharray:none;stroke-dashoffset:0.1;stroke-opacity:0.46262;stop-color:#000000"
       d="m 3.453,-24.477 a 1,1 0 0 0 -0.941,1 1,1 0 0 0 0.06,0.328 v 0 c 0,0.02 0.01,0.03 0.02,0.05 1.416,3.983 5.176,6.612 9.408,6.613 v -4 c -2.993,0 -5.787,-1.29 -7.686,-3.602 a 1,1 0 0 0 -0.02,-0.02 c 0,0 0,0 0,0 a 1,1 0 0 0 -0.773,-0.367 1,1 0 0 0 -0.06,0 z" />
    <use
       x="0"
       y="0"
       xlink:href="#path1092"
       id="use1096"
       transform="matrix(-1,0,0,1,24,0)"
       width="100%"
       height="100%" />
    <path
       id="path872-3"
       style="fill:#000000;fill-opacity:1;stroke:none;stroke-width:1px;stroke-linecap:butt;stroke-linejoin:miter;stroke-opacity:1"
       d="M 12,4 C 9,4 6,6 6,10 l 1.629,8.486 A 6,4 0 0 1 12,17.227 6,4 0 0 1 16.371,18.486 L 18,10 C 18,6 15,4 12,4 Z m -3,6 c 0.552,0 1,0.448 1,1 0,0.552 -0.448,1 -1,1 -0.552,0 -1,-0.448 -1,-1 0,-0.552 0.448,-1 1,-1 z m 6,0 c 0.552,0 1,0.448 1,1 0,0.552 -0.448,1 -1,1 -0.552,0 -1,-0.448 -1,-1 0,-0.552 0.448,-1 1,-1 z" />
    <path
       id="path876-1"
       style="fill:#000000;fill-opacity:1;stroke:none;stroke-width:1px;stroke-linecap:butt;stroke-linejoin:miter;stroke-opacity:1"
       d="M 3.951,9 A 2,2 0 0 0 2,11 2,2 0 0 0 4,13 H 4.049 7 V 9 H 4 A 2,2 0 0 0 3.95,9 Z" />
    <use
       x="0"
       y="0"
       xlink:href="#path876-1"
       id="use861-9"
       transform="matrix(-1,0,0,1,24,0)"
       width="100%"
       height="100%" />
    <path
       id="path1092-6"
       style="fill:#000000;fill-opacity:1;stroke-width:0.1;stroke-linecap:round;stroke-linejoin:round;stroke-miterlimit:4;stroke-dasharray:none;stroke-dashoffset:0.1;stroke-opacity:0.46262;stop-color:#000000"
       d="m 3.453,2.009 a 1,1 0 0 0 -0.941,1 1,1 0 0 0 0.06,0.328 v 0 c 0,0.02 0.01,0.03 0.02,0.05 C 4.008,7.37 7.768,9.999 12,10 V 6 C 9.007,6 6.213,4.71 4.314,2.398 a 1,1 0 0 0 -0.02,-0.02 c 0,0 0,0 0,0 a 1,1 0 0 0 -0.773,-0.367 1,1 0 0 0 -0.06,0 z" />
    <use
       x="0"
       y="0"
       xlink:href="#path1092-6"
       id="use1096-4"
       transform="matrix(-1,0,0,1,24,0)"
       width="100%"
       height="100%" />
    <ellipse
       style="fill:#000000;fill-opacity:1;stroke:none;stroke-width:4.26404;stroke-linejoin:round;stroke-dashoffset:0.1;stop-color:#000000"
       id="ellipse893"
       cx="12"
       cy="20.727"
       rx="4"
       ry="2" />
  </g>
  <inkscape:templateinfo>
    <inkscape:name>alaki</inkscape:name>
    <inkscape:date>2020-12-14</inkscape:date>
  </inkscape:templateinfo>
  <inkscape:templateinfo>
    <inkscape:name>512×512</inkscape:name>
    <inkscape:author>Mahdi Hosseinzadeh</inkscape:author>
    <inkscape:date>2020-12-14</inkscape:date>
  </inkscape:templateinfo>
  <inkscape:templateinfo>
    <inkscape:name>default</inkscape:name>
    <inkscape:author>Mahdi Hosseinzadeh</inkscape:author>
    <inkscape:date>2020-12-14</inkscape:date>
  </inkscape:templateinfo>
</svg>
