<?xml version="1.0" encoding="UTF-8" standalone="no"?>
<svg
   xmlns:dc="http://purl.org/dc/elements/1.1/"
   xmlns:cc="http://creativecommons.org/ns#"
   xmlns:rdf="http://www.w3.org/1999/02/22-rdf-syntax-ns#"
   xmlns:svg="http://www.w3.org/2000/svg"
   xmlns="http://www.w3.org/2000/svg"
   xmlns:sodipodi="http://sodipodi.sourceforge.net/DTD/sodipodi-0.dtd"
   xmlns:inkscape="http://www.inkscape.org/namespaces/inkscape"
   width="24"
   height="24"
   viewBox="0 0 24 24"
   version="1.1"
   id="svg8"
   inkscape:version="1.0.2 (e86c870879, 2021-01-15, custom)"
   sodipodi:docname="1fruit.svg">
  <defs
     id="defs2" />
  <sodipodi:namedview
     id="base"
     pagecolor="#ffffff"
     bordercolor="#666666"
     borderopacity="1.0"
     inkscape:pageopacity="0.0"
     inkscape:pageshadow="2"
     inkscape:zoom="25.843"
     inkscape:cx="6.6968"
     inkscape:cy="16.334"
     inkscape:document-units="px"
     inkscape:current-layer="layer2"
     inkscape:document-rotation="0"
     showgrid="true"
     units="px"
     lock-margins="true"
     inkscape:pagecheckerboard="false"
     inkscape:showpageshadow="false"
     inkscape:lockguides="false"
     guidecolor="#ff00ff"
     guideopacity="0.49804"
     guidehicolor="#ffb700"
     guidehiopacity="0.49804"
     inkscape:snap-tangential="true"
     inkscape:window-width="1920"
     inkscape:window-height="1017"
     inkscape:window-x="-8"
     inkscape:window-y="-8"
     inkscape:window-maximized="1"
     inkscape:snap-object-midpoints="true"
     inkscape:snap-grids="true">
    <inkscape:grid
       type="xygrid"
       id="grid10"
       dotted="false"
       empspacing="4" />
  </sodipodi:namedview>
  <metadata
     id="metadata5">
    <rdf:RDF>
      <cc:Work
         rdf:about="">
        <dc:format>image/svg+xml</dc:format>
        <dc:type
           rdf:resource="http://purl.org/dc/dcmitype/StillImage" />
        <dc:title></dc:title>
      </cc:Work>
    </rdf:RDF>
  </metadata>
  <g
     inkscape:groupmode="layer"
     id="layer2"
     inkscape:label="vector">
    <path
       id="path861"
       style="fill:#000000;fill-opacity:1;stroke:none;stroke-width:0;stroke-linejoin:round;stroke-miterlimit:4;stroke-dasharray:none;stroke-dashoffset:0.1;stroke-opacity:1;stop-color:#000000"
       d="M 11.99 5 A 9 9 0 0 0 3 14 A 9 9 0 0 0 12 23 A 9 9 0 0 0 21 14 A 9 9 0 0 0 12 5 A 9 9 0 0 0 11.99 5 z M 12 9 A 1 1 0 0 1 13 10 A 1 1 0 0 1 12 11 A 1 1 0 0 1 11 10 A 1 1 0 0 1 12 9 z M 8 11 A 1 1 0 0 1 9 12 A 1 1 0 0 1 8 13 A 1 1 0 0 1 7 12 A 1 1 0 0 1 8 11 z M 16 11 A 1 1 0 0 1 17 12 A 1 1 0 0 1 16 13 A 1 1 0 0 1 15 12 A 1 1 0 0 1 16 11 z M 12 13 A 1 1 0 0 1 13 14 A 1 1 0 0 1 12 15 A 1 1 0 0 1 11 14 A 1 1 0 0 1 12 13 z M 8 15 A 1 1 0 0 1 9 16 A 1 1 0 0 1 8 17 A 1 1 0 0 1 7 16 A 1 1 0 0 1 8 15 z M 16 15 A 1 1 0 0 1 17 16 A 1 1 0 0 1 16 17 A 1 1 0 0 1 15 16 A 1 1 0 0 1 16 15 z M 12 17 A 1 1 0 0 1 13 18 A 1 1 0 0 1 12 19 A 1 1 0 0 1 11 18 A 1 1 0 0 1 12 17 z " />
    <path
       style="fill:#000000;fill-opacity:1;stroke:none;stroke-width:1px;stroke-linecap:butt;stroke-linejoin:miter;stroke-opacity:1"
       d="M 9,6 V 1 l 2,2 1,-2 1,2 2,-2 v 5 z"
       id="path863"
       sodipodi:nodetypes="cccccccc" />
    <ellipse
       style="fill:#000000;fill-opacity:1;stroke:#000000;stroke-width:2;stroke-linejoin:round;stroke-miterlimit:4;stroke-dasharray:none;stroke-dashoffset:0.1;stroke-opacity:1;stop-color:#000000"
       id="circle2142"
       cx="12"
       cy="-11"
       rx="8"
       ry="7" />
    <path
       style="fill:#000000;fill-opacity:1;stroke:none;stroke-width:1px;stroke-linecap:butt;stroke-linejoin:miter;stroke-opacity:1"
       d="m 9,-18 v -5 l 2,2 1,-2 1,2 2,-2 v 5 z"
       id="path2144"
       sodipodi:nodetypes="cccccccc" />
    <circle
       style="fill:#ffffff;fill-opacity:1;stroke:none;stroke-width:2;stroke-linejoin:round;stroke-miterlimit:4;stroke-dasharray:none;stroke-dashoffset:0.1;stroke-opacity:1;stop-color:#000000"
       id="circle2146"
       cx="8"
       cy="-9"
       r="1"
       inkscape:tile-cx="-13"
       inkscape:tile-cy="4"
       inkscape:tile-w="2"
       inkscape:tile-h="2"
       inkscape:tile-x0="-14"
       inkscape:tile-y0="3" />
    <circle
       style="fill:#ffffff;fill-opacity:1;stroke:none;stroke-width:2;stroke-linejoin:round;stroke-miterlimit:4;stroke-dasharray:none;stroke-dashoffset:0.1;stroke-opacity:1;stop-color:#000000"
       id="use2148"
       cx="8"
       cy="-13"
       r="1"
       inkscape:tile-x0="-14"
       inkscape:tile-y0="3" />
    <circle
       style="fill:#ffffff;fill-opacity:1;stroke:none;stroke-width:2;stroke-linejoin:round;stroke-miterlimit:4;stroke-dasharray:none;stroke-dashoffset:0.1;stroke-opacity:1;stop-color:#000000"
       id="use2150"
       cx="16"
       cy="-13"
       r="1"
       inkscape:tile-x0="-14"
       inkscape:tile-y0="3" />
    <circle
       style="fill:#ffffff;fill-opacity:1;stroke:none;stroke-width:2;stroke-linejoin:round;stroke-miterlimit:4;stroke-dasharray:none;stroke-dashoffset:0.1;stroke-opacity:1;stop-color:#000000"
       id="use2152"
       cx="12"
       cy="-15"
       r="1"
       inkscape:tile-x0="-14"
       inkscape:tile-y0="3" />
    <circle
       style="fill:#ffffff;fill-opacity:1;stroke:none;stroke-width:2;stroke-linejoin:round;stroke-miterlimit:4;stroke-dasharray:none;stroke-dashoffset:0.1;stroke-opacity:1;stop-color:#000000"
       id="use2154"
       cx="12"
       cy="-11"
       r="1"
       inkscape:tile-x0="-14"
       inkscape:tile-y0="3" />
    <circle
       style="fill:#ffffff;fill-opacity:1;stroke:none;stroke-width:2;stroke-linejoin:round;stroke-miterlimit:4;stroke-dasharray:none;stroke-dashoffset:0.1;stroke-opacity:1;stop-color:#000000"
       id="use2156"
       cx="12"
       cy="-7"
       r="1"
       inkscape:tile-x0="-14"
       inkscape:tile-y0="3" />
    <circle
       style="fill:#ffffff;fill-opacity:1;stroke:none;stroke-width:2;stroke-linejoin:round;stroke-miterlimit:4;stroke-dasharray:none;stroke-dashoffset:0.1;stroke-opacity:1;stop-color:#000000"
       id="use2158"
       cx="16"
       cy="-9"
       r="1"
       inkscape:tile-x0="-14"
       inkscape:tile-y0="3" />
  </g>
  <inkscape:templateinfo>
    <inkscape:name>alaki</inkscape:name>
    <inkscape:date>2020-12-14</inkscape:date>
  </inkscape:templateinfo>
  <inkscape:templateinfo>
    <inkscape:name>512×512</inkscape:name>
    <inkscape:author>Mahdi Hosseinzadeh</inkscape:author>
    <inkscape:date>2020-12-14</inkscape:date>
  </inkscape:templateinfo>
  <inkscape:templateinfo>
    <inkscape:name>default</inkscape:name>
    <inkscape:author>Mahdi Hosseinzadeh</inkscape:author>
    <inkscape:date>2020-12-14</inkscape:date>
  </inkscape:templateinfo>
</svg>
