<svg width="24px" height="24px" version="1.1" viewBox="0 0 24 24" xmlns="http://www.w3.org/2000/svg">
  <path fill="#3f51af" d="m12 1a1 1 0 0 0-1 1v1.0586c-4.1613 0.4637-7.4777 3.7801-7.9414 7.9414h-1.0586a1 1 0 0 0-1 1 1 1 0 0 0 1 1h1.0586c0.4637 4.162 3.7801 7.478 7.9414 7.941v1.059a1 1 0 0 0 1 1 1 1 0 0 0 1-1v-1.059c4.162-0.463 7.478-3.779 7.941-7.941h1.059a1 1 0 0 0 1-1 1 1 0 0 0-1-1h-1.059c-0.463-4.1613-3.779-7.4777-7.941-7.9414v-1.0586a1 1 0 0 0-1-1zm0 4c3.878 0 7 3.1222 7 7 0 3.878-3.122 7-7 7-3.8778 0-7-3.122-7-7 0-3.8778 3.1222-7 7-7z" />
  <path fill="#42a1c1" d="m16 12a4 4 0 0 1-4 4 4 4 0 0 1-4-4 4 4 0 0 1 4-4 4 4 0 0 1 4 4z" />
</svg>
