<?xml version="1.0" encoding="UTF-8" standalone="no"?>
<svg
   xmlns:dc="http://purl.org/dc/elements/1.1/"
   xmlns:cc="http://creativecommons.org/ns#"
   xmlns:rdf="http://www.w3.org/1999/02/22-rdf-syntax-ns#"
   xmlns:svg="http://www.w3.org/2000/svg"
   xmlns="http://www.w3.org/2000/svg"
   xmlns:xlink="http://www.w3.org/1999/xlink"
   xmlns:sodipodi="http://sodipodi.sourceforge.net/DTD/sodipodi-0.dtd"
   xmlns:inkscape="http://www.inkscape.org/namespaces/inkscape"
   width="24"
   height="24"
   viewBox="0 0 24 24"
   version="1.1"
   id="svg8"
   inkscape:version="1.0.2 (e86c870879, 2021-01-15, custom)"
   sodipodi:docname="meat-alt.svg">
  <defs
     id="defs2" />
  <sodipodi:namedview
     id="base"
     pagecolor="#ffffff"
     bordercolor="#666666"
     borderopacity="1.0"
     inkscape:pageopacity="0.0"
     inkscape:pageshadow="2"
     inkscape:zoom="16"
     inkscape:cx="-4.4034"
     inkscape:cy="-4.6174"
     inkscape:document-units="px"
     inkscape:current-layer="layer2"
     inkscape:document-rotation="0"
     showgrid="true"
     units="px"
     lock-margins="true"
     inkscape:pagecheckerboard="false"
     inkscape:showpageshadow="false"
     inkscape:lockguides="false"
     guidecolor="#ff00ff"
     guideopacity="0.49804"
     guidehicolor="#ffb700"
     guidehiopacity="0.49804"
     inkscape:snap-tangential="true"
     inkscape:window-width="1920"
     inkscape:window-height="1017"
     inkscape:window-x="-8"
     inkscape:window-y="-8"
     inkscape:window-maximized="1"
     inkscape:snap-object-midpoints="true"
     inkscape:snap-smooth-nodes="true">
    <inkscape:grid
       type="xygrid"
       id="grid10"
       dotted="false"
       empspacing="4" />
  </sodipodi:namedview>
  <metadata
     id="metadata5">
    <rdf:RDF>
      <cc:Work
         rdf:about="">
        <dc:format>image/svg+xml</dc:format>
        <dc:type
           rdf:resource="http://purl.org/dc/dcmitype/StillImage" />
        <dc:title></dc:title>
      </cc:Work>
    </rdf:RDF>
  </metadata>
  <g
     inkscape:groupmode="layer"
     id="layer2"
     inkscape:label="vector">
    <path
       id="path831"
       style="fill:#000000;fill-opacity:1;stroke:none;stroke-width:1px;stroke-linecap:butt;stroke-linejoin:miter;stroke-opacity:1"
       d="M 4.949,5 C 3.312,5.03 2,6.363 2,8 2,8.02 2,8.03 2,8.05 v 7.898 c 0,0.02 0,0.03 0,0.05 0,1.637 1.312,2.972 2.949,3 h 0.05 c 3.639,0 6.754,-0.972 8.912,-3.498 h -1.859 -0.05 c -1.915,0 -3.5,-1.585 -3.5,-3.5 0,-1.882 1.527,-3.448 3.404,-3.5 h 0.02 0.07 1.912 C 11.747,5.976 8.632,5 4.996,5 4.976,5 4.966,5 4.946,5 Z m 15,3 C 18.865,8.03 18,8.914 18,10 h -2 -4 -0.05 c -1.084,0.03 -1.947,0.915 -1.947,2 0,1.105 0.895,2 2,2 h 0.05 3.951 2 c 0,1.105 0.895,2 2,2 1.105,0 2,-0.895 2,-2 0,-1.087 -0.865,-1.972 -1.949,-2 1.083,-0.03 1.947,-0.915 1.947,-2 0,-1.105 -0.895,-2 -2,-2 -0.02,0 -0.03,0 -0.05,0 z" />
    <path
       id="path831-9"
       style="fill:#000000;fill-opacity:1;stroke:none;stroke-width:1px;stroke-linecap:butt;stroke-linejoin:miter;stroke-opacity:1"
       d="m 4.9492,-20.5 c -1.637,0.03 -2.9494,1.362 -2.9492,3 -10e-5,0.02 -10e-5,0.03 0,0.05 v 3.949 h 13 c 0,-4 -5,-7 -10,-7 -0.017,0 -0.034,0 -0.051,0 z"
       sodipodi:nodetypes="cscccccc" />
    <path
       id="path833"
       style="fill:#000000;fill-opacity:1;stroke:none;stroke-width:1px;stroke-linecap:butt;stroke-linejoin:miter;stroke-opacity:1"
       d="m 20.949,-17.5 c -1.084,0.03 -1.949,0.915 -1.949,2 h -2.836 c 0.212,0.633 0.336,1.299 0.336,2 0,0.701 -0.124,1.367 -0.336,2 H 19 c 0,1.105 0.895,1.9999 2,1.9999 1.105,0 2,-0.8949 2,-1.9999 0,-1.086 -0.866,-1.973 -1.951,-2 1.085,-0.03 1.951,-0.914 1.951,-2 0,-1.105 -0.895,-2 -2,-2 -0.02,0 -0.03,0 -0.05,0 z" />
    <use
       x="0"
       y="0"
       xlink:href="#path831-9"
       id="use837"
       transform="matrix(1,0,0,-1,0,-27)"
       width="100%"
       height="100%" />
    <path
       id="path831-1"
       style="fill:#000000;fill-opacity:1;stroke:none;stroke-width:1px;stroke-linecap:butt;stroke-linejoin:miter;stroke-opacity:1"
       d="m 4.9492,-39 c -1.637,0.03 -2.9494,1.363 -2.9492,3 -10e-5,0.02 -10e-5,0.03 0,0.05 V -32 h 13 c -1.345,-5.217 -5,-7 -10,-7 -0.017,0 -0.034,0 -0.051,0 z"
       sodipodi:nodetypes="csccccc" />
    <path
       id="path833-2"
       style="fill:#000000;fill-opacity:1;stroke:none;stroke-width:1px;stroke-linecap:butt;stroke-linejoin:miter;stroke-opacity:1"
       d="M 19.951,-36 C 18.866,-35.97 18,-35.086 18,-34 h -4 v 4 h 4 c 0,1.105 0.895,2 2,2 1.105,0 2,-0.895 2,-2 0,-1.086 -0.866,-1.973 -1.951,-2 1.085,-0.03 1.951,-0.914 1.951,-2 0,-1.105 -0.895,-2 -2,-2 -0.02,0 -0.03,0 -0.05,0 z"
       sodipodi:nodetypes="cccccsscsscc" />
    <use
       x="0"
       y="0"
       xlink:href="#path831-1"
       id="use837-0"
       transform="matrix(1,0,0,-1,4.25e-5,-64)"
       width="100%"
       height="100%" />
  </g>
  <inkscape:templateinfo>
    <inkscape:name>alaki</inkscape:name>
    <inkscape:date>2020-12-14</inkscape:date>
  </inkscape:templateinfo>
  <inkscape:templateinfo>
    <inkscape:name>512×512</inkscape:name>
    <inkscape:author>Mahdi Hosseinzadeh</inkscape:author>
    <inkscape:date>2020-12-14</inkscape:date>
  </inkscape:templateinfo>
  <inkscape:templateinfo>
    <inkscape:name>default</inkscape:name>
    <inkscape:author>Mahdi Hosseinzadeh</inkscape:author>
    <inkscape:date>2020-12-14</inkscape:date>
  </inkscape:templateinfo>
</svg>
