<svg width="24px" height="24px" fill="#000000" version="1.1" viewBox="0 0 24 24" xmlns="http://www.w3.org/2000/svg">
  <path fill="#888" d="m13.03 14.01v6.81c0 0.64 0.59 1.12 1.22 0.98 3.76-0.85 6.71-3.82 7.56-7.58 0.14-0.62-0.35-1.22-0.98-1.22h-6.79c-0.56 0.01-1.01 0.46-1.01 1.01z"/>
  <path fill="#444" d="m13.03 3.18v6.81c0 0.55 0.45 1 1 1h6.79c0.64 0 1.12-0.59 0.98-1.22-0.85-3.76-3.8-6.72-7.55-7.57-0.63-0.14-1.22 0.34-1.22 0.98z"/>
  <path d="m11 3.18v17.64c0 0.64-0.59 1.12-1.21 0.98-4.47-1-7.79-5.01-7.79-9.8s3.32-8.8 7.79-9.8c0.62-0.14 1.21 0.34 1.21 0.98z"/>
</svg>
