<?xml version="1.0" encoding="UTF-8" standalone="no"?>
<svg
   xmlns:dc="http://purl.org/dc/elements/1.1/"
   xmlns:cc="http://creativecommons.org/ns#"
   xmlns:rdf="http://www.w3.org/1999/02/22-rdf-syntax-ns#"
   xmlns:svg="http://www.w3.org/2000/svg"
   xmlns="http://www.w3.org/2000/svg"
   xmlns:xlink="http://www.w3.org/1999/xlink"
   xmlns:sodipodi="http://sodipodi.sourceforge.net/DTD/sodipodi-0.dtd"
   xmlns:inkscape="http://www.inkscape.org/namespaces/inkscape"
   enable-background="new 0 0 24 24"
   viewBox="0 0 24 24"
   fill="black"
   width="24px"
   height="24px"
   version="1.1"
   id="svg18"
   sodipodi:docname="scale.svg"
   inkscape:version="1.0.2 (e86c870879, 2021-01-15, custom)">
  <path
     id="path861-5"
     style="fill:#000000;fill-opacity:1;stroke:none;stroke-width:1px;stroke-linecap:butt;stroke-linejoin:miter;stroke-opacity:1"
     d="M 3,2 A 1.0001,1.0001 0 0 0 2,3 v 1 a 1.0001,1.0001 0 0 0 1,1 h 9 V 2 Z" />
  <use
     x="0"
     y="0"
     xlink:href="#path861-5"
     id="use865-3"
     transform="matrix(-1,0,0,1,24,-1.8e-4)"
     width="100%"
     height="100%" />
  <metadata
     id="metadata24">
    <rdf:RDF>
      <cc:Work
         rdf:about="">
        <dc:format>image/svg+xml</dc:format>
        <dc:type
           rdf:resource="http://purl.org/dc/dcmitype/StillImage" />
        <dc:title />
      </cc:Work>
    </rdf:RDF>
  </metadata>
  <defs
     id="defs22" />
  <sodipodi:namedview
     pagecolor="#ffffff"
     bordercolor="#999999"
     borderopacity="1"
     objecttolerance="10"
     gridtolerance="10"
     guidetolerance="10"
     inkscape:pageopacity="0"
     inkscape:pageshadow="2"
     inkscape:window-width="1920"
     inkscape:window-height="1017"
     id="namedview20"
     showgrid="true"
     inkscape:snap-object-midpoints="true"
     inkscape:zoom="8.0002"
     inkscape:cx="-16.769"
     inkscape:cy="9.5096"
     inkscape:window-x="-8"
     inkscape:window-y="-8"
     inkscape:window-maximized="1"
     inkscape:current-layer="svg18"
     inkscape:document-rotation="0"
     inkscape:snap-smooth-nodes="true"
     inkscape:snap-center="false"
     inkscape:snap-midpoints="false"
     inkscape:snap-tangential="true"
     inkscape:snap-grids="true"
     inkscape:object-paths="true"
     inkscape:object-nodes="true">
    <inkscape:grid
       type="xygrid"
       id="grid849" />
  </sodipodi:namedview>
  <path
     style="fill:#000000;fill-opacity:1;stroke:none;stroke-width:1px;stroke-linecap:butt;stroke-linejoin:miter;stroke-opacity:1"
     d="m 10,-39 v -5 h 4 v 5 z"
     id="path851"
     sodipodi:nodetypes="ccccc" />
  <g
     id="g4"
     transform="translate(-1e-4)">
    <path
       d="M 0,0 H 24 V 24 H 0 Z"
       fill="none"
       id="path2" />
  </g>
  <path
     id="path843"
     style="fill:#000000;fill-opacity:1;stroke:none;stroke-width:3;stroke-linejoin:round;stroke-dashoffset:0.1;stroke-opacity:0.48364;stop-color:#000000"
     d="m 12,-42 a 8,8 0 0 0 -8,8 8,8 0 0 0 8,8 8,8 0 0 0 8,-8 8,8 0 0 0 -8,-8 z m 3.889,3.404 0.707,0.707 -2.151,2.151 A 3,3 0 0 1 15,-34 a 3,3 0 0 1 -3,3 3,3 0 0 1 -3,-3 3,3 0 0 1 3,-3 3,3 0 0 1 1.738,0.555 z" />
  <circle
     style="fill:#000000;fill-opacity:1;stroke:none;stroke-width:3;stroke-linejoin:round;stroke-dashoffset:0.1;stroke-opacity:1;stop-color:#000000"
     id="path911"
     cx="12"
     cy="-34"
     r="1" />
  <path
     style="fill:#000000;fill-opacity:1;stroke:none;stroke-width:1px;stroke-linecap:butt;stroke-linejoin:miter;stroke-opacity:1"
     d="m 10,-63 v -5 h 4 v 5 z"
     id="path916"
     sodipodi:nodetypes="ccccc" />
  <g
     id="g920"
     transform="translate(0,-48)">
    <path
       d="M 0,0 H 24 V 24 H 0 Z"
       fill="none"
       id="path918" />
  </g>
  <path
     id="path922"
     style="fill:#000000;fill-opacity:1;stroke:none;stroke-width:3;stroke-linejoin:round;stroke-dashoffset:0.1;stroke-opacity:0.48364;stop-color:#000000"
     d="m 12,-66 a 8,8 0 0 0 -8,8 8,8 0 0 0 8,8 8,8 0 0 0 8,-8 8,8 0 0 0 -8,-8 z m 3.889,3.404 0.707,0.707 -2.873,2.873 a 2,2 0 0 1 -0.309,2.43 2,2 0 0 1 -2.828,0 2,2 0 0 1 0,-2.828 2,2 0 0 1 2.43,-0.309 z" />
  <circle
     style="fill:#000000;fill-opacity:1;stroke:none;stroke-width:3;stroke-linejoin:round;stroke-dashoffset:0.1;stroke-opacity:1;stop-color:#000000"
     id="circle928"
     cx="12"
     cy="-58"
     r="1" />
  <path
     style="fill:#000000;fill-opacity:1;stroke:none;stroke-width:1px;stroke-linecap:butt;stroke-linejoin:miter;stroke-opacity:1"
     d="M 9.9999,9 V 4 H 14 v 5 z"
     id="path933"
     sodipodi:nodetypes="ccccc" />
  <path
     id="path935"
     style="fill:#000000;fill-opacity:1;stroke:none;stroke-width:3;stroke-linejoin:round;stroke-dashoffset:0.1;stroke-opacity:0.48364;stop-color:#000000"
     d="m 12,7 c -4.4184,0 -8,3.582 -8,8 0,4.418 3.5816,8 8,8 4.418,0 8,-3.582 8,-8 0,-4.418 -3.582,-8 -8,-8 z m -0.05,5 A 3,3 0 0 1 12,12 h 3 V 14.949 15 a 3,3 0 0 1 -3,3 3,3 0 0 1 -3,-3 3,3 0 0 1 2.947,-3 z" />
  <circle
     style="fill:#000000;fill-opacity:1;stroke:none;stroke-width:3;stroke-linejoin:round;stroke-dashoffset:0.1;stroke-opacity:1;stop-color:#000000"
     id="circle941"
     cx="12"
     cy="15"
     r="1" />
  <path
     style="fill:#000000;fill-opacity:1;stroke:none;stroke-width:1px;stroke-linecap:butt;stroke-linejoin:miter;stroke-opacity:1"
     d="m 9.9999,-15.373 v -5 H 14 v 5 z"
     id="path857"
     sodipodi:nodetypes="ccccc" />
  <path
     id="path859"
     style="fill:#000000;fill-opacity:1;stroke:none;stroke-width:3;stroke-linejoin:round;stroke-dashoffset:0.1;stroke-opacity:0.48364;stop-color:#000000"
     d="m 12,-18.373 c -4.4184,0 -8.0001,3.582 -8.0001,8 0,4.4176 3.5817,7.9996 8.0001,7.9996 4.418,0 8,-3.582 8,-7.9996 0,-4.418 -3.582,-8 -8,-8 z m 3,5 -1.086,3.5796 A 2,2 0 0 1 12,-8.3734 2,2 0 0 1 9.9999,-10.373 2,2 0 0 1 11.42,-12.287 l 0.06,-0.02 z" />
  <path
     id="path861"
     style="fill:#000000;fill-opacity:1;stroke:none;stroke-width:1px;stroke-linecap:butt;stroke-linejoin:miter;stroke-opacity:1"
     d="m 2.9999,-22.373 a 1,1 0 0 0 -1,1 1,1 0 0 0 1,1 H 12 v -2 z" />
  <circle
     style="fill:#000000;fill-opacity:1;stroke:none;stroke-width:3;stroke-linejoin:round;stroke-dashoffset:0.1;stop-color:#000000"
     id="path874"
     cx="12"
     cy="-10.373"
     r="1" />
  <use
     x="0"
     y="0"
     xlink:href="#path861"
     id="use865"
     transform="matrix(-1,0,0,1,24,-4.2578e-4)"
     width="100%"
     height="100%" />
  <path
     id="path861-55"
     style="fill:#000000;fill-opacity:1;stroke:none;stroke-width:1px;stroke-linecap:butt;stroke-linejoin:miter;stroke-opacity:1"
     d="m 3,-46 a 1,1 0 0 0 -1,1 1,1 0 0 0 1,1 h 9 v -2 z" />
  <use
     x="0"
     y="0"
     xlink:href="#path861-55"
     id="use865-9"
     transform="matrix(-1,0,0,1,24,0)"
     width="100%"
     height="100%" />
  <path
     id="path861-8"
     style="fill:#000000;fill-opacity:1;stroke:none;stroke-width:1px;stroke-linecap:butt;stroke-linejoin:miter;stroke-opacity:1"
     d="m 3,-70 a 1,1 0 0 0 -1,1 1,1 0 0 0 1,1 h 9 v -2 z" />
  <use
     x="0"
     y="0"
     xlink:href="#path861-8"
     id="use865-5"
     transform="matrix(-1,0,0,1,24,0)"
     width="100%"
     height="100%" />
</svg>
