<?xml version="1.0" encoding="UTF-8" standalone="no"?>
<svg
   xmlns:dc="http://purl.org/dc/elements/1.1/"
   xmlns:cc="http://creativecommons.org/ns#"
   xmlns:rdf="http://www.w3.org/1999/02/22-rdf-syntax-ns#"
   xmlns:svg="http://www.w3.org/2000/svg"
   xmlns="http://www.w3.org/2000/svg"
   xmlns:sodipodi="http://sodipodi.sourceforge.net/DTD/sodipodi-0.dtd"
   xmlns:inkscape="http://www.inkscape.org/namespaces/inkscape"
   viewBox="0 0 24 24"
   fill="black"
   width="24px"
   height="24px"
   version="1.1"
   id="svg6"
   sodipodi:docname="store-black-24dp - Copy (2) - Copy.svg"
   inkscape:version="1.0.2 (e86c870879, 2021-01-15, custom)">
  <metadata
     id="metadata12">
    <rdf:RDF>
      <cc:Work
         rdf:about="">
        <dc:format>image/svg+xml</dc:format>
        <dc:type
           rdf:resource="http://purl.org/dc/dcmitype/StillImage" />
        <dc:title></dc:title>
      </cc:Work>
    </rdf:RDF>
  </metadata>
  <defs
     id="defs10" />
  <sodipodi:namedview
     pagecolor="#ffffff"
     bordercolor="#999999"
     borderopacity="1"
     objecttolerance="10"
     gridtolerance="10"
     guidetolerance="10"
     inkscape:pageopacity="0"
     inkscape:pageshadow="2"
     inkscape:window-width="1920"
     inkscape:window-height="1017"
     id="namedview8"
     showgrid="true"
     inkscape:snap-object-midpoints="true"
     inkscape:zoom="36.833"
     inkscape:cx="10.269"
     inkscape:cy="11.639"
     inkscape:window-x="-8"
     inkscape:window-y="-8"
     inkscape:window-maximized="1"
     inkscape:current-layer="svg6"
     inkscape:document-rotation="0">
    <inkscape:grid
       type="xygrid"
       id="grid846" />
  </sodipodi:namedview>
  <path
     d="M0 0h24v24H0V0z"
     fill="none"
     id="path2" />
  <path
     id="path4"
     d="M 5 4 C 4.45 4 4 4.45 4 5 C 4 5.55 4.45 6 5 6 L 6.0527 6 C 6.1964 5.1702 6.6803 4.4509 7.3613 4 L 5 4 z M 16.641 4 C 17.32 4.4509 17.804 5.171 17.947 6 L 19 6 C 19.55 6 20 5.55 20 5 C 20 4.45 19.55 4 19 4 L 16.641 4 z M 4.8203 7 C 4.3403 7 3.9298 7.3408 3.8398 7.8008 L 2.8398 12.801 C 2.7198 13.421 3.1903 14 3.8203 14 L 4 14 L 4 19 C 4 19.55 4.45 20 5 20 L 13 20 C 13.55 20 14 19.55 14 19 L 14 14 L 18 14 L 18 19 C 18 19.55 18.45 20 19 20 C 19.55 20 20 19.55 20 19 L 20 14 L 20.18 14 C 20.81 14 21.28 13.421 21.16 12.801 L 20.16 7.8008 C 20.07 7.3408 19.66 7 19.18 7 L 17.947 7 C 17.704 8.4068 16.47 9.5 15 9.5 C 15 11.141 13.641 12.5 12 12.5 C 10.359 12.5 9 11.141 9 9.5 C 7.5299 9.5 6.296 8.4068 6.0527 7 L 4.8203 7 z M 6 14 L 12 14 L 12 18 L 6 18 L 6 14 z " />
  <path
     style="color:#000000;font-style:normal;font-variant:normal;font-weight:normal;font-stretch:normal;font-size:medium;line-height:normal;font-family:sans-serif;font-variant-ligatures:normal;font-variant-position:normal;font-variant-caps:normal;font-variant-numeric:normal;font-variant-alternates:normal;font-variant-east-asian:normal;font-feature-settings:normal;font-variation-settings:normal;text-indent:0;text-align:start;text-decoration:none;text-decoration-line:none;text-decoration-style:solid;text-decoration-color:#000000;letter-spacing:normal;word-spacing:normal;text-transform:none;writing-mode:lr-tb;direction:ltr;text-orientation:mixed;dominant-baseline:auto;baseline-shift:baseline;text-anchor:start;white-space:normal;shape-padding:0;shape-margin:0;inline-size:0;clip-rule:nonzero;display:inline;overflow:visible;visibility:visible;isolation:auto;mix-blend-mode:normal;color-interpolation:sRGB;color-interpolation-filters:linearRGB;solid-color:#000000;solid-opacity:1;vector-effect:none;fill:#af993e;fill-opacity:0.47196;fill-rule:nonzero;stroke:none;stroke-width:3;stroke-linecap:butt;stroke-linejoin:miter;stroke-miterlimit:4;stroke-dasharray:none;stroke-dashoffset:0;stroke-opacity:1;color-rendering:auto;image-rendering:auto;shape-rendering:auto;text-rendering:auto;enable-background:accumulate;stop-color:#000000"
     d="m 12,2.5 c 0.55,0 1,0.45 1,0.9999 v 2 h 2 c 0.55,0 1,0.4498 1,0.9999 0,0.5499 -0.45,1 -1,1 H 13 V 9.4999 C 13,10.05 12.55,10.5 12,10.5 11.45,10.5 11,10.05 11,9.4999 V 7.4998 H 9 c -0.55,0 -1,-0.4501 -1,-1 C 8,5.9495 8.45,5.4999 9,5.4999 h 2 v -2 c 0,-0.55 0.45,-1 1,-0.9999 z"
     id="path846" />
</svg>
