<?xml version="1.0" encoding="iso-8859-1"?>
<!-- Generator: Adobe Illustrator 18.0.0, SVG Export Plug-In . SVG Version: 6.00 Build 0)  -->
<!DOCTYPE svg PUBLIC "-//W3C//DTD SVG 1.1//EN" "http://www.w3.org/Graphics/SVG/1.1/DTD/svg11.dtd">
<svg version="1.1" id="Capa_1" xmlns="http://www.w3.org/2000/svg" xmlns:xlink="http://www.w3.org/1999/xlink" x="0px" y="0px"
	 viewBox="0 0 295.721 295.721" style="enable-background:new 0 0 295.721 295.721;" xml:space="preserve">
<path d="M240.312,107.878c-13.959,12.879-23.647,28.525-27.189,44.323c-1.041,4.653-5.172,7.816-9.748,7.816
	c-0.725,0-1.459-0.08-2.195-0.245c-5.39-1.207-8.779-6.556-7.572-11.943c3.841-17.137,13.443-34.508,27.9-49.492
	c-9.305-3.979-19.188-7.186-29.512-9.578c-6.918,3.374-12.789,7.025-17.613,10.5c-19.617,14.121-33.377,33.417-37.754,52.942
	c-1.043,4.653-5.172,7.816-9.748,7.816c-0.725,0-1.459-0.08-2.195-0.245c-5.391-1.207-8.779-6.556-7.572-11.943
	c5.123-22.855,20.496-46.137,43.977-63.605c-4.361-0.285-8.77-0.441-13.225-0.441c-5.064,0-10.063,0.209-15.002,0.576
	c-11.492,4.398-20.73,9.838-27.761,14.9c-19.618,14.121-33.378,33.417-37.753,52.942c-1.043,4.653-5.172,7.816-9.75,7.816
	c-0.723,0-1.459-0.08-2.195-0.245c-5.389-1.207-8.779-6.556-7.57-11.943c3.928-17.529,13.883-35.305,28.897-50.52
	c-33.376,13.646-59.718,36.877-73.53,66.369c-4.92,10.501-4.129,22.791,2.099,32.575c6.226,9.784,17.021,15.685,28.618,15.685
	h227.895c11.592,0,22.377-5.921,28.602-15.699c6.223-9.779,7.031-22.064,2.115-32.563
	C281.811,140.792,263.549,121.675,240.312,107.878z"/>
<g>
</g>
<g>
</g>
<g>
</g>
<g>
</g>
<g>
</g>
<g>
</g>
<g>
</g>
<g>
</g>
<g>
</g>
<g>
</g>
<g>
</g>
<g>
</g>
<g>
</g>
<g>
</g>
<g>
</g>
</svg>
