<?xml version="1.0" encoding="UTF-8" standalone="no"?>
<svg
   xmlns:dc="http://purl.org/dc/elements/1.1/"
   xmlns:cc="http://creativecommons.org/ns#"
   xmlns:rdf="http://www.w3.org/1999/02/22-rdf-syntax-ns#"
   xmlns:svg="http://www.w3.org/2000/svg"
   xmlns="http://www.w3.org/2000/svg"
   xmlns:xlink="http://www.w3.org/1999/xlink"
   xmlns:sodipodi="http://sodipodi.sourceforge.net/DTD/sodipodi-0.dtd"
   xmlns:inkscape="http://www.inkscape.org/namespaces/inkscape"
   width="249.91"
   height="369.91"
   version="1.1"
   viewBox="0 0 249.91 369.91"
   id="svg625"
   sodipodi:docname="4444.svg"
   inkscape:version="1.0.2 (e86c870879, 2021-01-15, custom)">
  <metadata
     id="metadata629">
    <rdf:RDF>
      <cc:Work
         rdf:about="">
        <dc:format>image/svg+xml</dc:format>
        <dc:type
           rdf:resource="http://purl.org/dc/dcmitype/StillImage" />
        <dc:title></dc:title>
      </cc:Work>
    </rdf:RDF>
  </metadata>
  <sodipodi:namedview
     pagecolor="#ffffff"
     bordercolor="#999999"
     borderopacity="1"
     objecttolerance="10"
     gridtolerance="10"
     guidetolerance="10"
     inkscape:pageopacity="0"
     inkscape:pageshadow="2"
     inkscape:window-width="1920"
     inkscape:window-height="1017"
     id="namedview627"
     showgrid="false"
     fit-margin-top="0"
     fit-margin-left="0"
     fit-margin-right="0"
     fit-margin-bottom="0"
     inkscape:zoom="1.9596"
     inkscape:cx="48.52"
     inkscape:cy="160.05"
     inkscape:window-x="-8"
     inkscape:window-y="-8"
     inkscape:window-maximized="1"
     inkscape:current-layer="svg625" />
  <defs
     id="defs10">
    <clipPath
       id="clipPath905">
      <path
         d="M 11.939,10 A 4,4 0 0 0 8,14 A 4,4 0 0 0 8,14.061 V 20 L 13.533,17.695 A 4,4 0 0 0 16,14 A 4,4 0 0 0 12,10 A 4,4 0 0 0 11.939,10 Z M 12,12.5 A 1.5,1.5 0 0 1 13.5,14 A 1.5,1.5 0 0 1 12,15.5 A 1.5,1.5 0 0 1 10.5,14 A 1.5,1.5 0 0 1 12,12.5 Z"
         fill="#56ab2f"
         id="path2" />
    </clipPath>
    <linearGradient
       id="linearGradient492"
       x1="11.641"
       x2="11.402"
       y1="13.144"
       y2="12.574"
       gradientUnits="userSpaceOnUse">
      <stop
         stop-opacity="0"
         offset="0"
         id="stop5" />
      <stop
         stop-opacity=".3"
         offset="1"
         id="stop7" />
    </linearGradient>
  </defs>
  <g
     id="use5960"
     transform="matrix(0.78795,0,0,0.78795,87.342,33.327)"
     inkscape:tile-x0="-59.803"
     inkscape:tile-y0="10.346"
     inkscape:tile-cx="-47.803"
     inkscape:tile-cy="22.346"
     inkscape:tile-w="23.999"
     inkscape:tile-h="23.999">
    <rect
       x="-104.57"
       y="-36.019"
       width="30.458"
       height="30.458"
       fill="none"
       stop-color="#000000"
       id="rect7345" />
    <g
       transform="translate(-18,-2.719)"
       id="g7353">
      <path
         d="M -71.402,-20.067 A 4,4 0 0 0 -75.341,-16.067 A 4,4 0 0 0 -75.341,-16.006 V -10.066 L -69.808,-12.372 A 4,4 0 0 0 -67.341,-16.067 A 4,4 0 0 0 -71.341,-20.067 A 4,4 0 0 0 -71.402,-20.067 Z M -71.341,-17.567 A 1.5,1.5 0 0 1 -69.841,-16.067 A 1.5,1.5 0 0 1 -71.341,-14.567 A 1.5,1.5 0 0 1 -72.841,-16.067 A 1.5,1.5 0 0 1 -71.341,-17.567 Z"
         fill="#56ab2f"
         id="path7347" />
      <path
         transform="translate(-83.34,-30.066)"
         d="M 8,12 V 14.67 L 13.535,12.35 C 14.983,11.75 16,10.33 16,8.6595 Z"
         clip-path="url(#clipPath905)"
         fill="url(#linearGradient492)"
         id="path7349"
         style="fill:#000000;fill-opacity:0.25" />
      <path
         d="M -71.402,-26.076 C -73.586,-26.076 -75.342,-24.256 -75.341,-22.077 V -16.067 L -69.806,-18.387 C -68.358,-18.987 -67.341,-20.407 -67.341,-22.077 C -67.341,-24.286 -69.132,-26.076 -71.341,-26.076 Z M -71.342,-23.577 A 1.5,1.5 0 0 1 -69.842,-22.077 A 1.5,1.5 0 0 1 -71.342,-20.577 A 1.5,1.5 0 0 1 -72.842,-22.077 A 1.5,1.5 0 0 1 -71.342,-23.577 Z"
         fill="#70ae28"
         id="path7351" />
    </g>
  </g>
  <use
     x="0"
     y="0"
     inkscape:tiled-clone-of="#use5960"
     xlink:href="#use5960"
     id="use13945"
     transform="translate(-65.831)"
     width="100%"
     height="100%" />
  <use
     x="0"
     y="0"
     inkscape:tiled-clone-of="#use5960"
     xlink:href="#use5960"
     transform="rotate(8,-154.66,28.944)"
     id="use13947"
     width="100%"
     height="100%" />
  <use
     x="0"
     y="0"
     inkscape:tiled-clone-of="#use5960"
     xlink:href="#use5960"
     transform="rotate(16,-153.82,40.945)"
     id="use13949"
     width="100%"
     height="100%" />
  <use
     x="0"
     y="0"
     inkscape:tiled-clone-of="#use5960"
     xlink:href="#use5960"
     transform="rotate(24,-152.42,52.945)"
     id="use13951"
     width="100%"
     height="100%" />
  <use
     x="0"
     y="0"
     inkscape:tiled-clone-of="#use5960"
     xlink:href="#use5960"
     transform="rotate(32,-150.44,64.944)"
     id="use13953"
     width="100%"
     height="100%" />
  <use
     x="0"
     y="0"
     inkscape:tiled-clone-of="#use5960"
     xlink:href="#use5960"
     transform="rotate(40,-147.9,76.944)"
     id="use13955"
     width="100%"
     height="100%" />
  <use
     x="0"
     y="0"
     inkscape:tiled-clone-of="#use5960"
     xlink:href="#use5960"
     transform="rotate(48,-144.76,88.944)"
     id="use13957"
     width="100%"
     height="100%" />
  <use
     x="0"
     y="0"
     inkscape:tiled-clone-of="#use5960"
     xlink:href="#use5960"
     transform="rotate(56,-141.03,100.94)"
     id="use13959"
     width="100%"
     height="100%" />
  <use
     x="0"
     y="0"
     inkscape:tiled-clone-of="#use5960"
     xlink:href="#use5960"
     transform="rotate(64,-136.68,112.94)"
     id="use13961"
     width="100%"
     height="100%" />
  <use
     x="0"
     y="0"
     inkscape:tiled-clone-of="#use5960"
     xlink:href="#use5960"
     transform="rotate(72,-131.7,124.94)"
     id="use13963"
     width="100%"
     height="100%" />
  <use
     x="0"
     y="0"
     inkscape:tiled-clone-of="#use5960"
     xlink:href="#use5960"
     transform="rotate(80,-126.06,136.94)"
     id="use13965"
     width="100%"
     height="100%" />
  <use
     x="0"
     y="0"
     inkscape:tiled-clone-of="#use5960"
     xlink:href="#use5960"
     transform="rotate(88,-119.74,148.94)"
     id="use13967"
     width="100%"
     height="100%" />
  <use
     x="0"
     y="0"
     inkscape:tiled-clone-of="#use5960"
     xlink:href="#use5960"
     transform="rotate(96,-112.71,160.94)"
     id="use13969"
     width="100%"
     height="100%" />
  <use
     x="0"
     y="0"
     inkscape:tiled-clone-of="#use5960"
     xlink:href="#use5960"
     transform="rotate(104,-104.94,172.94)"
     id="use13971"
     width="100%"
     height="100%" />
  <use
     x="0"
     y="0"
     inkscape:tiled-clone-of="#use5960"
     xlink:href="#use5960"
     transform="rotate(112,-96.375,184.94)"
     id="use13973"
     width="100%"
     height="100%" />
  <use
     x="0"
     y="0"
     inkscape:tiled-clone-of="#use5960"
     xlink:href="#use5960"
     transform="rotate(8,28.944,188.55)"
     id="use13975"
     width="100%"
     height="100%" />
  <use
     x="0"
     y="0"
     inkscape:tiled-clone-of="#use5960"
     xlink:href="#use5960"
     transform="rotate(16,-56.445,114.33)"
     id="use13977"
     width="100%"
     height="100%" />
  <use
     x="0"
     y="0"
     inkscape:tiled-clone-of="#use5960"
     xlink:href="#use5960"
     transform="rotate(24,-83.963,97.4)"
     id="use13979"
     width="100%"
     height="100%" />
  <use
     x="0"
     y="0"
     inkscape:tiled-clone-of="#use5960"
     xlink:href="#use5960"
     transform="rotate(32,-96.6,94.79)"
     id="use13981"
     width="100%"
     height="100%" />
  <use
     x="0"
     y="0"
     inkscape:tiled-clone-of="#use5960"
     xlink:href="#use5960"
     transform="rotate(40,-102.93,97.91)"
     id="use13983"
     width="100%"
     height="100%" />
  <use
     x="0"
     y="0"
     inkscape:tiled-clone-of="#use5960"
     xlink:href="#use5960"
     transform="rotate(48,-105.81,103.9)"
     id="use13985"
     width="100%"
     height="100%" />
  <use
     x="0"
     y="0"
     inkscape:tiled-clone-of="#use5960"
     xlink:href="#use5960"
     transform="rotate(56,-106.46,111.51)"
     id="use13987"
     width="100%"
     height="100%" />
  <use
     x="0"
     y="0"
     inkscape:tiled-clone-of="#use5960"
     xlink:href="#use5960"
     transform="rotate(64,-105.48,120.15)"
     id="use13989"
     width="100%"
     height="100%" />
  <use
     x="0"
     y="0"
     inkscape:tiled-clone-of="#use5960"
     xlink:href="#use5960"
     transform="rotate(72,-103.18,129.46)"
     id="use13991"
     width="100%"
     height="100%" />
  <use
     x="0"
     y="0"
     inkscape:tiled-clone-of="#use5960"
     xlink:href="#use5960"
     transform="rotate(80,-99.758,139.24)"
     id="use13993"
     width="100%"
     height="100%" />
  <use
     x="0"
     y="0"
     inkscape:tiled-clone-of="#use5960"
     xlink:href="#use5960"
     transform="rotate(88,-95.31,149.37)"
     id="use13995"
     width="100%"
     height="100%" />
  <use
     x="0"
     y="0"
     inkscape:tiled-clone-of="#use5960"
     xlink:href="#use5960"
     transform="rotate(96,-89.905,159.75)"
     id="use13997"
     width="100%"
     height="100%" />
  <use
     x="0"
     y="0"
     inkscape:tiled-clone-of="#use5960"
     xlink:href="#use5960"
     transform="rotate(104,-83.566,170.32)"
     id="use13999"
     width="100%"
     height="100%" />
  <use
     x="0"
     y="0"
     inkscape:tiled-clone-of="#use5960"
     xlink:href="#use5960"
     transform="rotate(112,-76.275,181.04)"
     id="use14001"
     width="100%"
     height="100%" />
  <use
     x="0"
     y="0"
     inkscape:tiled-clone-of="#use5960"
     xlink:href="#use5960"
     transform="rotate(120,-68.047,191.87)"
     id="use14003"
     width="100%"
     height="100%" />
  <use
     x="0"
     y="0"
     inkscape:tiled-clone-of="#use5960"
     xlink:href="#use5960"
     transform="rotate(16,40.944,187.71)"
     id="use14005"
     width="100%"
     height="100%" />
  <use
     x="0"
     y="0"
     inkscape:tiled-clone-of="#use5960"
     xlink:href="#use5960"
     transform="rotate(24,-15.509,141.85)"
     id="use14007"
     width="100%"
     height="100%" />
  <use
     x="0"
     y="0"
     inkscape:tiled-clone-of="#use5960"
     xlink:href="#use5960"
     transform="rotate(32,-42.752,124.64)"
     id="use14009"
     width="100%"
     height="100%" />
  <use
     x="0"
     y="0"
     inkscape:tiled-clone-of="#use5960"
     xlink:href="#use5960"
     transform="rotate(40,-57.962,118.88)"
     id="use14011"
     width="100%"
     height="100%" />
  <use
     x="0"
     y="0"
     inkscape:tiled-clone-of="#use5960"
     xlink:href="#use5960"
     transform="rotate(48,-66.861,118.85)"
     id="use14013"
     width="100%"
     height="100%" />
  <use
     x="0"
     y="0"
     inkscape:tiled-clone-of="#use5960"
     xlink:href="#use5960"
     transform="rotate(56,-71.888,122.08)"
     id="use14015"
     width="100%"
     height="100%" />
  <use
     x="0"
     y="0"
     inkscape:tiled-clone-of="#use5960"
     xlink:href="#use5960"
     transform="rotate(64,-74.275,127.35)"
     id="use14017"
     width="100%"
     height="100%" />
  <use
     x="0"
     y="0"
     inkscape:tiled-clone-of="#use5960"
     xlink:href="#use5960"
     transform="rotate(72,-74.67,133.98)"
     id="use14019"
     width="100%"
     height="100%" />
  <use
     x="0"
     y="0"
     inkscape:tiled-clone-of="#use5960"
     xlink:href="#use5960"
     transform="rotate(80,-73.458,141.54)"
     id="use14021"
     width="100%"
     height="100%" />
  <use
     x="0"
     y="0"
     inkscape:tiled-clone-of="#use5960"
     xlink:href="#use5960"
     transform="rotate(88,-70.89,149.79)"
     id="use14023"
     width="100%"
     height="100%" />
  <use
     x="0"
     y="0"
     inkscape:tiled-clone-of="#use5960"
     xlink:href="#use5960"
     transform="rotate(96,-67.105,158.55)"
     id="use14025"
     width="100%"
     height="100%" />
  <use
     x="0"
     y="0"
     inkscape:tiled-clone-of="#use5960"
     xlink:href="#use5960"
     transform="rotate(104,-62.181,167.69)"
     id="use14027"
     width="100%"
     height="100%" />
  <use
     x="0"
     y="0"
     inkscape:tiled-clone-of="#use5960"
     xlink:href="#use5960"
     transform="rotate(112,-56.182,177.13)"
     id="use14029"
     width="100%"
     height="100%" />
  <use
     x="0"
     y="0"
     inkscape:tiled-clone-of="#use5960"
     xlink:href="#use5960"
     transform="rotate(120,-49.122,186.8)"
     id="use14031"
     width="100%"
     height="100%" />
  <use
     x="0"
     y="0"
     inkscape:tiled-clone-of="#use5960"
     xlink:href="#use5960"
     transform="rotate(128,-40.992,196.65)"
     id="use14033"
     width="100%"
     height="100%" />
  <use
     x="0"
     y="0"
     inkscape:tiled-clone-of="#use5960"
     xlink:href="#use5960"
     transform="rotate(24,52.945,186.31)"
     id="use14035"
     width="100%"
     height="100%" />
  <use
     x="0"
     y="0"
     inkscape:tiled-clone-of="#use5960"
     xlink:href="#use5960"
     transform="rotate(32,11.096,154.49)"
     id="use14037"
     width="100%"
     height="100%" />
  <use
     x="0"
     y="0"
     inkscape:tiled-clone-of="#use5960"
     xlink:href="#use5960"
     transform="rotate(40,-12.994,139.85)"
     id="use14039"
     width="100%"
     height="100%" />
  <use
     x="0"
     y="0"
     inkscape:tiled-clone-of="#use5960"
     xlink:href="#use5960"
     transform="rotate(48,-27.91,133.8)"
     id="use14041"
     width="100%"
     height="100%" />
  <use
     x="0"
     y="0"
     inkscape:tiled-clone-of="#use5960"
     xlink:href="#use5960"
     transform="rotate(56,-37.332,132.65)"
     id="use14043"
     width="100%"
     height="100%" />
  <use
     x="0"
     y="0"
     inkscape:tiled-clone-of="#use5960"
     xlink:href="#use5960"
     transform="rotate(64,-43.072,134.55)"
     id="use14045"
     width="100%"
     height="100%" />
  <use
     x="0"
     y="0"
     inkscape:tiled-clone-of="#use5960"
     xlink:href="#use5960"
     transform="rotate(72,-46.152,138.49)"
     id="use14047"
     width="100%"
     height="100%" />
  <use
     x="0"
     y="0"
     inkscape:tiled-clone-of="#use5960"
     xlink:href="#use5960"
     transform="rotate(80,-47.161,143.85)"
     id="use14049"
     width="100%"
     height="100%" />
  <use
     x="0"
     y="0"
     inkscape:tiled-clone-of="#use5960"
     xlink:href="#use5960"
     transform="rotate(88,-46.462,150.22)"
     id="use14051"
     width="100%"
     height="100%" />
  <use
     x="0"
     y="0"
     inkscape:tiled-clone-of="#use5960"
     xlink:href="#use5960"
     transform="rotate(96,-44.302,157.36)"
     id="use14053"
     width="100%"
     height="100%" />
  <use
     x="0"
     y="0"
     inkscape:tiled-clone-of="#use5960"
     xlink:href="#use5960"
     transform="rotate(104,-40.811,165.07)"
     id="use14055"
     width="100%"
     height="100%" />
  <use
     x="0"
     y="0"
     inkscape:tiled-clone-of="#use5960"
     xlink:href="#use5960"
     transform="rotate(112,-36.092,173.22)"
     id="use14057"
     width="100%"
     height="100%" />
  <use
     x="0"
     y="0"
     inkscape:tiled-clone-of="#use5960"
     xlink:href="#use5960"
     transform="rotate(120,-30.192,181.73)"
     id="use14059"
     width="100%"
     height="100%" />
  <use
     x="0"
     y="0"
     inkscape:tiled-clone-of="#use5960"
     xlink:href="#use5960"
     transform="rotate(128,-23.14,190.5)"
     id="use14061"
     width="100%"
     height="100%" />
  <use
     x="0"
     y="0"
     inkscape:tiled-clone-of="#use5960"
     xlink:href="#use5960"
     transform="rotate(136,-14.931,199.49)"
     id="use14063"
     width="100%"
     height="100%" />
  <use
     x="0"
     y="0"
     inkscape:tiled-clone-of="#use5960"
     xlink:href="#use5960"
     transform="rotate(32,64.944,184.34)"
     id="use14065"
     width="100%"
     height="100%" />
  <use
     x="0"
     y="0"
     inkscape:tiled-clone-of="#use5960"
     xlink:href="#use5960"
     transform="rotate(40,31.976,160.82)"
     id="use14067"
     width="100%"
     height="100%" />
  <use
     x="0"
     y="0"
     inkscape:tiled-clone-of="#use5960"
     xlink:href="#use5960"
     transform="rotate(48,11.041,148.75)"
     id="use14069"
     width="100%"
     height="100%" />
  <use
     x="0"
     y="0"
     inkscape:tiled-clone-of="#use5960"
     xlink:href="#use5960"
     transform="rotate(56,-2.7608,143.22)"
     id="use14071"
     width="100%"
     height="100%" />
  <use
     x="0"
     y="0"
     inkscape:tiled-clone-of="#use5960"
     xlink:href="#use5960"
     transform="rotate(64,-11.871,141.76)"
     id="use14073"
     width="100%"
     height="100%" />
  <use
     x="0"
     y="0"
     inkscape:tiled-clone-of="#use5960"
     xlink:href="#use5960"
     transform="rotate(72,-17.637,143.01)"
     id="use14075"
     width="100%"
     height="100%" />
  <use
     x="0"
     y="0"
     inkscape:tiled-clone-of="#use5960"
     xlink:href="#use5960"
     transform="rotate(80,-20.86,146.15)"
     id="use14077"
     width="100%"
     height="100%" />
  <use
     x="0"
     y="0"
     inkscape:tiled-clone-of="#use5960"
     xlink:href="#use5960"
     transform="rotate(88,-22.039,150.65)"
     id="use14079"
     width="100%"
     height="100%" />
  <use
     x="0"
     y="0"
     inkscape:tiled-clone-of="#use5960"
     xlink:href="#use5960"
     transform="rotate(96,-21.493,156.16)"
     id="use14081"
     width="100%"
     height="100%" />
  <use
     x="0"
     y="0"
     inkscape:tiled-clone-of="#use5960"
     xlink:href="#use5960"
     transform="rotate(104,-19.432,162.44)"
     id="use14083"
     width="100%"
     height="100%" />
  <use
     x="0"
     y="0"
     inkscape:tiled-clone-of="#use5960"
     xlink:href="#use5960"
     transform="rotate(112,-15.995,169.32)"
     id="use14085"
     width="100%"
     height="100%" />
  <use
     x="0"
     y="0"
     inkscape:tiled-clone-of="#use5960"
     xlink:href="#use5960"
     transform="rotate(120,-11.265,176.65)"
     id="use14087"
     width="100%"
     height="100%" />
  <use
     x="0"
     y="0"
     inkscape:tiled-clone-of="#use5960"
     xlink:href="#use5960"
     transform="rotate(128,-5.2878,184.35)"
     id="use14089"
     width="100%"
     height="100%" />
  <use
     x="0"
     y="0"
     inkscape:tiled-clone-of="#use5960"
     xlink:href="#use5960"
     transform="rotate(136,1.9172,192.33)"
     id="use14091"
     width="100%"
     height="100%" />
  <use
     x="0"
     y="0"
     inkscape:tiled-clone-of="#use5960"
     xlink:href="#use5960"
     transform="rotate(144,10.359,200.54)"
     id="use14093"
     width="100%"
     height="100%" />
  <use
     x="0"
     y="0"
     inkscape:tiled-clone-of="#use5960"
     xlink:href="#use5960"
     transform="rotate(40,76.943,181.79)"
     id="use14095"
     width="100%"
     height="100%" />
  <use
     x="0"
     y="0"
     inkscape:tiled-clone-of="#use5960"
     xlink:href="#use5960"
     transform="rotate(48,49.992,163.7)"
     id="use14097"
     width="100%"
     height="100%" />
  <use
     x="0"
     y="0"
     inkscape:tiled-clone-of="#use5960"
     xlink:href="#use5960"
     transform="rotate(56,31.808,153.79)"
     id="use14099"
     width="100%"
     height="100%" />
  <use
     x="0"
     y="0"
     inkscape:tiled-clone-of="#use5960"
     xlink:href="#use5960"
     transform="rotate(64,19.333,148.96)"
     id="use14101"
     width="100%"
     height="100%" />
  <use
     x="0"
     y="0"
     inkscape:tiled-clone-of="#use5960"
     xlink:href="#use5960"
     transform="rotate(72,10.879,147.53)"
     id="use14103"
     width="100%"
     height="100%" />
  <use
     x="0"
     y="0"
     inkscape:tiled-clone-of="#use5960"
     xlink:href="#use5960"
     transform="rotate(80,5.441,148.45)"
     id="use14105"
     width="100%"
     height="100%" />
  <use
     x="0"
     y="0"
     inkscape:tiled-clone-of="#use5960"
     xlink:href="#use5960"
     transform="rotate(88,2.3872,151.07)"
     id="use14107"
     width="100%"
     height="100%" />
  <use
     x="0"
     y="0"
     inkscape:tiled-clone-of="#use5960"
     xlink:href="#use5960"
     transform="rotate(96,1.3114,154.97)"
     id="use14109"
     width="100%"
     height="100%" />
  <use
     x="0"
     y="0"
     inkscape:tiled-clone-of="#use5960"
     xlink:href="#use5960"
     transform="rotate(104,1.9427,159.82)"
     id="use14111"
     width="100%"
     height="100%" />
  <use
     x="0"
     y="0"
     inkscape:tiled-clone-of="#use5960"
     xlink:href="#use5960"
     transform="rotate(112,4.0985,165.41)"
     id="use14113"
     width="100%"
     height="100%" />
  <use
     x="0"
     y="0"
     inkscape:tiled-clone-of="#use5960"
     xlink:href="#use5960"
     transform="rotate(120,7.6631,171.58)"
     id="use14115"
     width="100%"
     height="100%" />
  <use
     x="0"
     y="0"
     inkscape:tiled-clone-of="#use5960"
     xlink:href="#use5960"
     transform="rotate(128,12.564,178.21)"
     id="use14117"
     width="100%"
     height="100%" />
  <use
     x="0"
     y="0"
     inkscape:tiled-clone-of="#use5960"
     xlink:href="#use5960"
     transform="rotate(136,18.765,185.18)"
     id="use14119"
     width="100%"
     height="100%" />
  <use
     x="0"
     y="0"
     inkscape:tiled-clone-of="#use5960"
     xlink:href="#use5960"
     transform="rotate(144,26.258,192.44)"
     id="use14121"
     width="100%"
     height="100%" />
  <use
     x="0"
     y="0"
     inkscape:tiled-clone-of="#use5960"
     xlink:href="#use5960"
     transform="rotate(152,35.058,199.9)"
     id="use14123"
     width="100%"
     height="100%" />
  <use
     x="0"
     y="0"
     inkscape:tiled-clone-of="#use5960"
     xlink:href="#use5960"
     transform="rotate(48,88.944,178.66)"
     id="use14125"
     width="100%"
     height="100%" />
  <use
     x="0"
     y="0"
     inkscape:tiled-clone-of="#use5960"
     xlink:href="#use5960"
     transform="rotate(56,66.375,164.35)"
     id="use14127"
     width="100%"
     height="100%" />
  <use
     x="0"
     y="0"
     inkscape:tiled-clone-of="#use5960"
     xlink:href="#use5960"
     transform="rotate(64,50.536,156.17)"
     id="use14129"
     width="100%"
     height="100%" />
  <use
     x="0"
     y="0"
     inkscape:tiled-clone-of="#use5960"
     xlink:href="#use5960"
     transform="rotate(72,39.395,152.04)"
     id="use14131"
     width="100%"
     height="100%" />
  <use
     x="0"
     y="0"
     inkscape:tiled-clone-of="#use5960"
     xlink:href="#use5960"
     transform="rotate(80,31.741,150.75)"
     id="use14133"
     width="100%"
     height="100%" />
  <use
     x="0"
     y="0"
     inkscape:tiled-clone-of="#use5960"
     xlink:href="#use5960"
     transform="rotate(88,26.814,151.5)"
     id="use14135"
     width="100%"
     height="100%" />
  <use
     x="0"
     y="0"
     inkscape:tiled-clone-of="#use5960"
     xlink:href="#use5960"
     transform="rotate(96,24.115,153.77)"
     id="use14137"
     width="100%"
     height="100%" />
  <use
     x="0"
     y="0"
     inkscape:tiled-clone-of="#use5960"
     xlink:href="#use5960"
     transform="rotate(104,23.318,157.19)"
     id="use14139"
     width="100%"
     height="100%" />
  <use
     x="0"
     y="0"
     inkscape:tiled-clone-of="#use5960"
     xlink:href="#use5960"
     transform="rotate(112,24.192,161.51)"
     id="use14141"
     width="100%"
     height="100%" />
  <use
     x="0"
     y="0"
     inkscape:tiled-clone-of="#use5960"
     xlink:href="#use5960"
     transform="rotate(120,26.592,166.51)"
     id="use14143"
     width="100%"
     height="100%" />
  <use
     x="0"
     y="0"
     inkscape:tiled-clone-of="#use5960"
     xlink:href="#use5960"
     transform="rotate(128,30.418,172.06)"
     id="use14145"
     width="100%"
     height="100%" />
  <use
     x="0"
     y="0"
     inkscape:tiled-clone-of="#use5960"
     xlink:href="#use5960"
     transform="rotate(136,35.614,178.03)"
     id="use14147"
     width="100%"
     height="100%" />
  <use
     x="0"
     y="0"
     inkscape:tiled-clone-of="#use5960"
     xlink:href="#use5960"
     transform="rotate(144,42.157,184.34)"
     id="use14149"
     width="100%"
     height="100%" />
  <use
     x="0"
     y="0"
     inkscape:tiled-clone-of="#use5960"
     xlink:href="#use5960"
     transform="rotate(152,50.049,190.89)"
     id="use14151"
     width="100%"
     height="100%" />
  <use
     x="0"
     y="0"
     inkscape:tiled-clone-of="#use5960"
     xlink:href="#use5960"
     transform="rotate(160,59.321,197.64)"
     id="use14153"
     width="100%"
     height="100%" />
  <use
     x="0"
     y="0"
     inkscape:tiled-clone-of="#use5960"
     xlink:href="#use5960"
     transform="rotate(56,100.94,174.92)"
     id="use14155"
     width="100%"
     height="100%" />
  <use
     x="0"
     y="0"
     inkscape:tiled-clone-of="#use5960"
     xlink:href="#use5960"
     transform="rotate(64,81.739,163.37)"
     id="use14157"
     width="100%"
     height="100%" />
  <use
     x="0"
     y="0"
     inkscape:tiled-clone-of="#use5960"
     xlink:href="#use5960"
     transform="rotate(72,67.91,156.56)"
     id="use14159"
     width="100%"
     height="100%" />
  <use
     x="0"
     y="0"
     inkscape:tiled-clone-of="#use5960"
     xlink:href="#use5960"
     transform="rotate(80,58.041,153.05)"
     id="use14161"
     width="100%"
     height="100%" />
  <use
     x="0"
     y="0"
     inkscape:tiled-clone-of="#use5960"
     xlink:href="#use5960"
     transform="rotate(88,51.238,151.93)"
     id="use14163"
     width="100%"
     height="100%" />
  <use
     x="0"
     y="0"
     inkscape:tiled-clone-of="#use5960"
     xlink:href="#use5960"
     transform="rotate(96,46.92,152.58)"
     id="use14165"
     width="100%"
     height="100%" />
  <use
     x="0"
     y="0"
     inkscape:tiled-clone-of="#use5960"
     xlink:href="#use5960"
     transform="rotate(104,44.692,154.57)"
     id="use14167"
     width="100%"
     height="100%" />
  <use
     x="0"
     y="0"
     inkscape:tiled-clone-of="#use5960"
     xlink:href="#use5960"
     transform="rotate(112,44.285,157.6)"
     id="use14169"
     width="100%"
     height="100%" />
  <use
     x="0"
     y="0"
     inkscape:tiled-clone-of="#use5960"
     xlink:href="#use5960"
     transform="rotate(120,45.518,161.44)"
     id="use14171"
     width="100%"
     height="100%" />
  <use
     x="0"
     y="0"
     inkscape:tiled-clone-of="#use5960"
     xlink:href="#use5960"
     transform="rotate(128,48.269,165.91)"
     id="use14173"
     width="100%"
     height="100%" />
  <use
     x="0"
     y="0"
     inkscape:tiled-clone-of="#use5960"
     xlink:href="#use5960"
     transform="rotate(136,52.461,170.88)"
     id="use14175"
     width="100%"
     height="100%" />
  <use
     x="0"
     y="0"
     inkscape:tiled-clone-of="#use5960"
     xlink:href="#use5960"
     transform="rotate(144,58.055,176.23)"
     id="use14177"
     width="100%"
     height="100%" />
  <use
     x="0"
     y="0"
     inkscape:tiled-clone-of="#use5960"
     xlink:href="#use5960"
     transform="rotate(152,65.04,181.88)"
     id="use14179"
     width="100%"
     height="100%" />
  <use
     x="0"
     y="0"
     inkscape:tiled-clone-of="#use5960"
     xlink:href="#use5960"
     transform="rotate(160,73.437,187.75)"
     id="use14181"
     width="100%"
     height="100%" />
  <use
     x="0"
     y="0"
     inkscape:tiled-clone-of="#use5960"
     xlink:href="#use5960"
     transform="rotate(168,83.287,193.77)"
     id="use14183"
     width="100%"
     height="100%" />
  <use
     x="0"
     y="0"
     inkscape:tiled-clone-of="#use5960"
     xlink:href="#use5960"
     transform="rotate(64,112.94,170.57)"
     id="use14185"
     width="100%"
     height="100%" />
  <use
     x="0"
     y="0"
     inkscape:tiled-clone-of="#use5960"
     xlink:href="#use5960"
     transform="rotate(72,96.426,161.07)"
     id="use14187"
     width="100%"
     height="100%" />
  <use
     x="0"
     y="0"
     inkscape:tiled-clone-of="#use5960"
     xlink:href="#use5960"
     transform="rotate(80,84.342,155.35)"
     id="use14189"
     width="100%"
     height="100%" />
  <use
     x="0"
     y="0"
     inkscape:tiled-clone-of="#use5960"
     xlink:href="#use5960"
     transform="rotate(88,75.664,152.35)"
     id="use14191"
     width="100%"
     height="100%" />
  <use
     x="0"
     y="0"
     inkscape:tiled-clone-of="#use5960"
     xlink:href="#use5960"
     transform="rotate(96,69.724,151.38)"
     id="use14193"
     width="100%"
     height="100%" />
  <use
     x="0"
     y="0"
     inkscape:tiled-clone-of="#use5960"
     xlink:href="#use5960"
     transform="rotate(104,66.067,151.95)"
     id="use14195"
     width="100%"
     height="100%" />
  <use
     x="0"
     y="0"
     inkscape:tiled-clone-of="#use5960"
     xlink:href="#use5960"
     transform="rotate(112,64.379,153.69)"
     id="use14197"
     width="100%"
     height="100%" />
  <use
     x="0"
     y="0"
     inkscape:tiled-clone-of="#use5960"
     xlink:href="#use5960"
     transform="rotate(120,64.447,156.37)"
     id="use14199"
     width="100%"
     height="100%" />
  <use
     x="0"
     y="0"
     inkscape:tiled-clone-of="#use5960"
     xlink:href="#use5960"
     transform="rotate(128,66.122,159.76)"
     id="use14201"
     width="100%"
     height="100%" />
  <use
     x="0"
     y="0"
     inkscape:tiled-clone-of="#use5960"
     xlink:href="#use5960"
     transform="rotate(136,69.309,163.73)"
     id="use14203"
     width="100%"
     height="100%" />
  <use
     x="0"
     y="0"
     inkscape:tiled-clone-of="#use5960"
     xlink:href="#use5960"
     transform="rotate(144,73.954,168.13)"
     id="use14205"
     width="100%"
     height="100%" />
  <use
     x="0"
     y="0"
     inkscape:tiled-clone-of="#use5960"
     xlink:href="#use5960"
     transform="rotate(152,80.032,172.88)"
     id="use14207"
     width="100%"
     height="100%" />
  <use
     x="0"
     y="0"
     inkscape:tiled-clone-of="#use5960"
     xlink:href="#use5960"
     transform="rotate(160,87.552,177.87)"
     id="use14209"
     width="100%"
     height="100%" />
  <use
     x="0"
     y="0"
     inkscape:tiled-clone-of="#use5960"
     xlink:href="#use5960"
     transform="rotate(168,96.547,183.03)"
     id="use14211"
     width="100%"
     height="100%" />
  <use
     x="0"
     y="0"
     inkscape:tiled-clone-of="#use5960"
     xlink:href="#use5960"
     transform="rotate(176,107.08,188.29)"
     id="use14213"
     width="100%"
     height="100%" />
  <use
     x="0"
     y="0"
     inkscape:tiled-clone-of="#use5960"
     xlink:href="#use5960"
     transform="rotate(72,124.94,165.59)"
     id="use14215"
     width="100%"
     height="100%" />
  <use
     x="0"
     y="0"
     inkscape:tiled-clone-of="#use5960"
     xlink:href="#use5960"
     transform="rotate(80,110.64,157.65)"
     id="use14217"
     width="100%"
     height="100%" />
  <use
     x="0"
     y="0"
     inkscape:tiled-clone-of="#use5960"
     xlink:href="#use5960"
     transform="rotate(88,100.09,152.78)"
     id="use14219"
     width="100%"
     height="100%" />
  <use
     x="0"
     y="0"
     inkscape:tiled-clone-of="#use5960"
     xlink:href="#use5960"
     transform="rotate(96,92.528,150.19)"
     id="use14221"
     width="100%"
     height="100%" />
  <use
     x="0"
     y="0"
     inkscape:tiled-clone-of="#use5960"
     xlink:href="#use5960"
     transform="rotate(104,87.442,149.32)"
     id="use14223"
     width="100%"
     height="100%" />
  <use
     x="0"
     y="0"
     inkscape:tiled-clone-of="#use5960"
     xlink:href="#use5960"
     transform="rotate(112,84.473,149.79)"
     id="use14225"
     width="100%"
     height="100%" />
  <use
     x="0"
     y="0"
     inkscape:tiled-clone-of="#use5960"
     xlink:href="#use5960"
     transform="rotate(120,83.374,151.3)"
     id="use14227"
     width="100%"
     height="100%" />
  <use
     x="0"
     y="0"
     inkscape:tiled-clone-of="#use5960"
     xlink:href="#use5960"
     transform="rotate(128,83.973,153.62)"
     id="use14229"
     width="100%"
     height="100%" />
  <use
     x="0"
     y="0"
     inkscape:tiled-clone-of="#use5960"
     xlink:href="#use5960"
     transform="rotate(136,86.156,156.58)"
     id="use14231"
     width="100%"
     height="100%" />
  <use
     x="0"
     y="0"
     inkscape:tiled-clone-of="#use5960"
     xlink:href="#use5960"
     transform="rotate(144,89.853,160.03)"
     id="use14233"
     width="100%"
     height="100%" />
  <use
     x="0"
     y="0"
     inkscape:tiled-clone-of="#use5960"
     xlink:href="#use5960"
     transform="rotate(152,95.023,163.87)"
     id="use14235"
     width="100%"
     height="100%" />
  <use
     x="0"
     y="0"
     inkscape:tiled-clone-of="#use5960"
     xlink:href="#use5960"
     transform="rotate(160,101.67,167.98)"
     id="use14237"
     width="100%"
     height="100%" />
  <use
     x="0"
     y="0"
     inkscape:tiled-clone-of="#use5960"
     xlink:href="#use5960"
     transform="rotate(168,109.81,172.29)"
     id="use14239"
     width="100%"
     height="100%" />
  <use
     x="0"
     y="0"
     inkscape:tiled-clone-of="#use5960"
     xlink:href="#use5960"
     transform="rotate(176,119.49,176.71)"
     id="use14241"
     width="100%"
     height="100%" />
  <use
     x="0"
     y="0"
     inkscape:tiled-clone-of="#use5960"
     xlink:href="#use5960"
     transform="rotate(-176,130.81,181.17)"
     id="use14243"
     width="100%"
     height="100%" />
</svg>
