<?xml version="1.0" encoding="UTF-8" standalone="no"?>
<svg
   xmlns:dc="http://purl.org/dc/elements/1.1/"
   xmlns:cc="http://creativecommons.org/ns#"
   xmlns:rdf="http://www.w3.org/1999/02/22-rdf-syntax-ns#"
   xmlns:svg="http://www.w3.org/2000/svg"
   xmlns="http://www.w3.org/2000/svg"
   xmlns:xlink="http://www.w3.org/1999/xlink"
   xmlns:sodipodi="http://sodipodi.sourceforge.net/DTD/sodipodi-0.dtd"
   xmlns:inkscape="http://www.inkscape.org/namespaces/inkscape"
   version="1.1"
   viewBox="0 0 24 24"
   id="svg23"
   sodipodi:docname="new-logo-pattern.svg"
   inkscape:version="1.0.2 (e86c870879, 2021-01-15, custom)">
  <metadata
     id="metadata27">
    <rdf:RDF>
      <cc:Work
         rdf:about="">
        <dc:format>image/svg+xml</dc:format>
        <dc:type
           rdf:resource="http://purl.org/dc/dcmitype/StillImage" />
        <dc:title></dc:title>
      </cc:Work>
    </rdf:RDF>
  </metadata>
  <sodipodi:namedview
     pagecolor="#ffffff"
     bordercolor="#999999"
     borderopacity="1"
     objecttolerance="10"
     gridtolerance="10"
     guidetolerance="10"
     inkscape:pageopacity="0"
     inkscape:pageshadow="2"
     inkscape:window-width="1920"
     inkscape:window-height="1017"
     id="namedview25"
     showgrid="false"
     inkscape:zoom="6.3419"
     inkscape:cx="29.788"
     inkscape:cy="-13.909"
     inkscape:window-x="-8"
     inkscape:window-y="-8"
     inkscape:window-maximized="1"
     inkscape:current-layer="svg23">
    <inkscape:grid
       type="xygrid"
       id="grid854" />
  </sodipodi:namedview>
  <defs
     id="defs16">
    <pattern
       inkscape:collect="always"
       xlink:href="#pattern1976"
       id="pattern2040"
       patternTransform="translate(-2,-38)" />
    <pattern
       inkscape:collect="always"
       xlink:href="#pattern1858"
       id="pattern1957"
       patternTransform="translate(22,2)" />
    <pattern
       inkscape:collect="always"
       xlink:href="#pattern1854"
       id="pattern1955"
       patternTransform="translate(-6.0001,2)" />
    <pattern
       inkscape:collect="always"
       xlink:href="#pattern1883"
       id="pattern1952"
       patternTransform="translate(8,16)" />
    <pattern
       inkscape:collect="always"
       xlink:href="#pattern1883"
       id="pattern1939"
       patternTransform="translate(7.9999,-12)" />
    <pattern
       inkscape:collect="always"
       xlink:href="#pattern1833"
       id="pattern1883"
       patternTransform="translate(8,11)" />
    <pattern
       inkscape:collect="always"
       xlink:href="#pattern1833"
       id="pattern1858"
       patternTransform="translate(22,-1)" />
    <pattern
       inkscape:collect="always"
       xlink:href="#pattern1829"
       id="pattern1854"
       patternTransform="translate(-6.0001,-1)" />
    <pattern
       inkscape:collect="always"
       xlink:href="#pattern1829"
       id="pattern1833"
       patternTransform="translate(8,5)" />
    <pattern
       inkscape:collect="always"
       xlink:href="#pattern863"
       id="pattern1829"
       patternTransform="translate(-10e-5)" />
    <filter
       id="filter"
       x="0"
       y="0"
       color-interpolation-filters="sRGB">
      <feFlood
         flood-color="rgb(0,0,0)"
         flood-opacity=".33"
         result="flood"
         id="feFlood2" />
      <feComposite
         in="flood"
         in2="SourceGraphic"
         operator="in"
         result="composite1"
         id="feComposite4" />
      <feGaussianBlur
         in="composite1"
         result="blur"
         stdDeviation="0.2"
         id="feGaussianBlur6" />
      <feOffset
         dx="0"
         dy="0.3"
         result="offset"
         id="feOffset8" />
      <feComposite
         in="SourceGraphic"
         in2="offset"
         result="composite2"
         id="feComposite10" />
    </filter>
    <clipPath
       id="clip">
      <use
         xlink:href="#pin"
         id="use13" />
    </clipPath>
    <pattern
       patternUnits="userSpaceOnUse"
       width="8.0001"
       height="16.01"
       patternTransform="translate(7.9999,3.99)"
       id="pattern863">
      <g
         id="g861"
         transform="translate(-7.9999,-3.99)">
        <path
           id="pin"
           fill="#56ab2f"
           d="M 11.939,10 A 4,4 0 0 0 8,14 A 4,4 0 0 0 8,14.061 V 20 L 13.533,17.695 A 4,4 0 0 0 16,14 A 4,4 0 0 0 12,10 A 4,4 0 0 0 11.939,10 Z M 12,12.5 A 1.5,1.5 0 0 1 13.5,14 A 1.5,1.5 0 0 1 12,15.5 A 1.5,1.5 0 0 1 10.5,14 A 1.5,1.5 0 0 1 12,12.5 Z" />
        <path
           clip-path="url(#clip)"
           fill="#56ab2f"
           filter="url(#filter)"
           d="M 11.94,9.99 C 9.756,9.99 7.999,11.81 8,14 L 13.535,11.679 C 13.939,11.512 14.304,11.278 14.627,10.996 C 13.923,10.377 13.011,9.99 12,9.99 Z"
           id="path19" />
        <path
           fill="#70ae28"
           d="M 11.939,3.99 C 9.755,3.99 7.999,5.81 8,7.99 V 14 L 13.535,11.68 C 14.983,11.08 16,9.66 16,7.99 C 16,5.78 14.209,3.99 12,3.99 Z M 11.999,6.49 A 1.5,1.5 0 0 1 13.499,7.99 A 1.5,1.5 0 0 1 11.999,9.49 A 1.5,1.5 0 0 1 10.499,7.99 A 1.5,1.5 0 0 1 11.999,6.49 Z"
           id="path21" />
      </g>
    </pattern>
    <pattern
       patternUnits="userSpaceOnUse"
       width="28"
       height="28"
       patternTransform="translate(-2,42)"
       id="pattern1976">
      <g
         id="g1974"
         transform="translate(2,-42)">
        <g
           id="g1967"
           transform="translate(0,44)">
          <path
             id="path1959"
             style="fill:url(#pattern1955);stroke:none"
             d="M -2,2 V 18.01 H 2 V 2 Z" />
          <path
             id="path1961"
             style="fill:url(#pattern1952);stroke:none"
             d="M 8,16 V 26 H 16 V 16 Z" />
          <path
             id="path1963"
             style="fill:url(#pattern1957);stroke:none"
             d="M 22,2 V 18.01 H 26 V 2 Z" />
          <path
             id="path1965"
             style="fill:url(#pattern1939);stroke:none"
             d="M 8,-2 V 4.0098 H 16 V -2 Z" />
        </g>
      </g>
    </pattern>
    <filter
       inkscape:collect="always"
       style="color-interpolation-filters:sRGB"
       id="filter1986"
       x="-0.0038438"
       width="1.0077"
       y="-0.00246"
       height="1.0049">
      <feGaussianBlur
         inkscape:collect="always"
         stdDeviation="0.12813"
         id="feGaussianBlur1988" />
    </filter>
  </defs>
  <rect
     style="opacity:0.1;mix-blend-mode:normal;fill:url(#pattern1976);fill-opacity:1;stop-color:#000000;filter:url(#filter1986)"
     id="rect856"
     width="80"
     height="125"
     x="50"
     y="-35" />
  <g
     id="g1910">
    <path
       id="rect869"
       style="fill:url(#pattern1955);stroke:none"
       d="M -2,2 V 18.01 H 2 V 2 Z" />
    <path
       id="rect1831"
       style="fill:url(#pattern1952);stroke:none"
       d="M 8,16 V 26 H 16 V 16 Z" />
    <path
       id="rect1856"
       style="fill:url(#pattern1957);stroke:none"
       d="M 22,2 V 18.01 H 26 V 2 Z" />
    <path
       id="rect1935"
       style="fill:url(#pattern1939);stroke:none"
       d="M 8,-2 V 4.0098 H 16 V -2 Z" />
  </g>
  <g
     id="g1928"
     transform="translate(0,-74)">
    <path
       id="path1922"
       style="fill:url(#pattern1854);stroke:none"
       d="M -2,-1 V 15.01 H 2 V -1 Z" />
    <rect
       style="fill:url(#pattern1883);stroke:none"
       width="8.0001"
       height="16.01"
       x="8"
       y="11"
       id="rect1924" />
    <path
       id="path1926"
       style="fill:url(#pattern1858);stroke:none"
       d="M 22,-1 V 15.01 H 26 V -1 Z" />
  </g>
  <rect
     style="fill:url(#pattern2040);stroke:none"
     width="28"
     height="28"
     x="-2"
     y="-38"
     id="rect1984" />
</svg>
