<svg version="1.1" viewBox="0 0 24 24" xmlns="http://www.w3.org/2000/svg">
  <defs>
    <linearGradient id="gradient" x1="11.403" x2="11.642" y1="12.574" y2="13.145" gradientUnits="userSpaceOnUse">
      <stop stop-opacity=".3" offset="0" />
      <stop stop-opacity="0" offset="1" />
    </linearGradient>
  </defs>
  <path fill="#56ab2f" d="m14.633 10.99c-0.325 0.285-0.692 0.522-1.098 0.69l-5.535 2.32c-2e-4 0.02 0 6 0 6l5.533-2.305c1.494-0.62 2.467-2.078 2.467-3.695 0-1.154-0.499-2.251-1.367-3.01zm-2.633 1.51c0.828 0 1.5 0.672 1.5 1.5s-0.672 1.5-1.5 1.5-1.5-0.672-1.5-1.5 0.672-1.5 1.5-1.5z" />
  <path fill="url(#gradient)" d="m14.633 10.988c-0.325 0.285-0.692 0.523-1.098 0.692l-5.535 2.32a4 4 0 0 0 0 0.061v0.609l2.555-1.07a1.5 1.5 0 0 1 1.445-1.1 1.5 1.5 0 0 1 0.727 0.189l0.808-0.339c0.556-0.231 1.046-0.583 1.442-1.022a4 4 0 0 0-0.344-0.34z" />
  <path fill="#70ae28" d="m11.939 3.99c-2.184 0-3.94 1.83-3.939 4.01v6l5.535-2.32c1.448-0.6 2.465-2.02 2.465-3.69 0-2.21-1.791-4-4-4zm0.06 2.5c0.828 0 1.5 0.6716 1.5 1.5s-0.672 1.5-1.5 1.5-1.5-0.6716-1.5-1.5 0.672-1.5 1.5-1.5z" />
</svg>
