<?xml version="1.0" encoding="UTF-8" standalone="no"?>
<svg
   version="1.1"
   viewBox="0 0 24 24"
   id="svg15"
   sodipodi:docname="new-logo-4-hidden-parts-removed - Copy.svg"
   inkscape:version="1.1.2 (0a00cf5339, 2022-02-04, custom)"
   xmlns:inkscape="http://www.inkscape.org/namespaces/inkscape"
   xmlns:sodipodi="http://sodipodi.sourceforge.net/DTD/sodipodi-0.dtd"
   xmlns="http://www.w3.org/2000/svg"
   xmlns:svg="http://www.w3.org/2000/svg">
  <sodipodi:namedview
     id="namedview17"
     pagecolor="#ffffff"
     bordercolor="#999999"
     borderopacity="1"
     inkscape:pageshadow="0"
     inkscape:pageopacity="0"
     inkscape:pagecheckerboard="0"
     showgrid="false"
     inkscape:snap-object-midpoints="true"
     inkscape:zoom="8.0001"
     inkscape:cx="29.187"
     inkscape:cy="-18.375"
     inkscape:window-width="1920"
     inkscape:window-height="1017"
     inkscape:window-x="-8"
     inkscape:window-y="-8"
     inkscape:window-maximized="1"
     inkscape:current-layer="svg15"
     inkscape:snap-text-baseline="true">
    <inkscape:grid
       type="xygrid"
       id="grid856" />
  </sodipodi:namedview>
  <defs
     id="defs7">
    <linearGradient
       id="gradient"
       x1="11.403"
       x2="11.642"
       y1="12.574"
       y2="13.145"
       gradientUnits="userSpaceOnUse"
       gradientTransform="translate(-0.99958,0.01)">
      <stop
         stop-opacity=".3"
         offset="0"
         id="stop2" />
      <stop
         stop-opacity="0"
         offset="1"
         id="stop4" />
    </linearGradient>
    <linearGradient
       id="gradient-2"
       x1="11.403"
       x2="11.642"
       y1="12.574"
       y2="13.145"
       gradientUnits="userSpaceOnUse"
       gradientTransform="translate(2.0003,0.01)">
      <stop
         stop-opacity=".3"
         offset="0"
         id="stop2-7" />
      <stop
         stop-opacity="0"
         offset="1"
         id="stop4-5" />
    </linearGradient>
    <linearGradient
       id="gradient-4"
       x1="11.403"
       x2="11.642"
       y1="12.574"
       y2="13.145"
       gradientTransform="translate(4.3628e-4,0.01)"
       gradientUnits="userSpaceOnUse">
      <stop
         stop-opacity=".3"
         offset="0"
         id="stop936" />
      <stop
         stop-opacity="0"
         offset="1"
         id="stop938" />
    </linearGradient>
  </defs>
  <circle
     style="fill:#d0eb9a;fill-opacity:1;stroke-linecap:round;stroke-opacity:0;stop-color:#000000"
     id="path3066"
     cx="9"
     cy="-6"
     r="3" />
  <path
     d="M 9.112,-7.774 H 7.693 V -4.226 H 9.112 C 10.09,-4.226 10.835,-4.996 10.835,-5.999 C 10.835,-7.0035 10.09,-7.774 9.112,-7.774 Z M 9.112,-5.006 H 8.504 V -6.992 H 9.112 C 9.669,-6.992 10.054,-6.607 10.054,-5.999 C 10.054,-5.391 9.669,-5.006 9.112,-5.006 Z"
     id="path5569"
     style="font-weight:800;font-size:5.06667px;line-height:1.25;font-family:Gilroy;-inkscape-font-specification:'Gilroy Ultra-Bold';text-align:center;writing-mode:tb-rl;text-orientation:upright;text-anchor:middle;stroke-linecap:round;stroke-opacity:0" />
  <circle
     style="fill:#d0eb9a;fill-opacity:1;stroke-linecap:round;stroke-opacity:0;stop-color:#000000"
     id="circle5778"
     cx="17"
     cy="-6"
     r="3" />
  <path
     d="M 18.317,-7.5927 H 15.683 V -6.8124 H 16.595 V -4.046 H 17.405 V -6.8124 H 18.317 Z"
     id="path6960"
     style="font-weight:800;font-size:5.06667px;line-height:1.25;font-family:Gilroy;-inkscape-font-specification:'Gilroy Ultra-Bold';text-align:center;writing-mode:tb-rl;text-orientation:upright;text-anchor:middle;stroke-linecap:round;stroke-opacity:0" />
  <text
     xml:space="preserve"
     style="font-weight:800;font-size:2.66667px;line-height:1.25;font-family:Gilroy;-inkscape-font-specification:'Gilroy Ultra-Bold';text-align:center;text-decoration:none;text-decoration-line:none;text-decoration-color:#000000;writing-mode:tb-rl;text-orientation:upright;text-anchor:middle;fill:#000000;fill-opacity:1;stroke-linecap:round;stroke-opacity:0;stop-color:#000000"
     x="14.625"
     y="-10.75"
     id="text7732"><tspan
       sodipodi:role="line"
       id="tspan7730"
       x="14.625"
       y="-10.75"
       style="font-size:2.66667px;writing-mode:lr-tb">Font: Gilroy ExtraBold (Ultra-Bold)</tspan></text>
  <g
     id="g854"
     transform="translate(-25.956,0.29847)">
    <path
       fill="#56ab2f"
       d="M 16.633,11 C 16.308,11.285 15.941,11.522 15.535,11.69 L 10,14.01 C 9.9999,14.03 10,20.01 10,20.01 L 15.533,17.705 C 17.027,17.085 18,15.627 18,14.01 C 18,12.856 17.501,11.759 16.633,11 Z M 14,12.51 C 14.828,12.51 15.5,13.182 15.5,14.01 C 15.5,14.838 14.828,15.51 14,15.51 C 13.172,15.51 12.5,14.838 12.5,14.01 C 12.5,13.182 13.172,12.51 14,12.51 Z"
       id="path9-8" />
    <path
       fill="url(#gradient)"
       d="M 16.633,10.998 C 16.308,11.283 15.941,11.521 15.535,11.69 L 10,14.01 A 4,4 0 0 0 10,14.071 V 14.68 L 12.555,13.61 A 1.5,1.5 0 0 1 14,12.51 A 1.5,1.5 0 0 1 14.727,12.699 L 15.535,12.36 C 16.091,12.129 16.581,11.777 16.977,11.338 A 4,4 0 0 0 16.633,10.998 Z"
       id="path11-9"
       style="fill:url(#gradient-2)" />
    <path
       fill="#70ae28"
       d="M 13.939,4 C 11.755,4 9.9991,5.83 10,8.01 V 14.01 L 15.535,11.69 C 16.983,11.09 18,9.67 18,8 C 18,5.79 16.209,4 14,4 Z M 13.999,6.5 C 14.827,6.5 15.499,7.1716 15.499,8 C 15.499,8.8284 14.827,9.5 13.999,9.5 C 13.171,9.5 12.499,8.8284 12.499,8 C 12.499,7.1716 13.171,6.5 13.999,6.5 Z"
       id="path13-2" />
    <text
       xml:space="preserve"
       style="font-style:normal;font-variant:normal;font-weight:800;font-stretch:normal;font-size:5.06667px;line-height:1.25;font-family:Gilroy;-inkscape-font-specification:'Gilroy Ultra-Bold';text-align:center;text-decoration:none;text-decoration-line:none;text-decoration-color:#000000;text-anchor:middle;fill:#cfeb9a;fill-opacity:1;stroke:none;stroke-width:1;stroke-linecap:round;stroke-miterlimit:4;stroke-dasharray:none;stroke-opacity:0;stop-color:#000000"
       x="7"
       y="11.934"
       id="text59434"><tspan
         sodipodi:role="line"
         id="tspan59432"
         x="11.934"
         y="7"
         style="font-size:5.06667px;writing-mode:tb-rl;direction:ltr;fill:#cfeb9a;fill-opacity:1;stroke:none">DEBUG</tspan></text>
  </g>
  <g
     id="g962"
     transform="translate(1.6283e-5)">
    <path
       d="M 14.633,11 C 14.308,11.285 13.941,11.522 13.535,11.69 L 8.0001,14.01 C 8,14.03 8.0001,20.01 8.0001,20.01 L 13.533,17.705 C 15.027,17.085 16,15.627 16,14.01 C 16,12.856 15.501,11.759 14.633,11 Z M 12,12.51 C 12.828,12.51 13.5,13.182 13.5,14.01 C 13.5,14.838 12.828,15.51 12,15.51 C 11.172,15.51 10.5,14.838 10.5,14.01 C 10.5,13.182 11.172,12.51 12,12.51 Z"
       fill="#56ab2f"
       id="path943" />
    <path
       d="M 14.633,10.998 C 14.308,11.283 13.941,11.521 13.535,11.69 L 8.0001,14.01 A 4,4 0 0 0 8.0001,14.071 V 14.68 L 10.555,13.61 A 1.5,1.5 0 0 1 12,12.51 A 1.5,1.5 0 0 1 12.727,12.699 L 13.535,12.36 C 14.091,12.129 14.581,11.777 14.977,11.338 A 4,4 0 0 0 14.633,10.998 Z"
       fill="url(#gradient)"
       id="path945"
       style="fill:url(#gradient-4)" />
    <path
       d="M 11.939,4 C 9.7556,4 7.9991,5.8298 8,8.0098 V 14.01 L 13.535,11.689 C 14.505,11.288 15.28,10.518 15.688,9.5527 C 15.626,9.5211 15.564,9.4825 15.502,9.4375 C 14.991,9.0648 14.936,8.5204 14.943,8.2637 C 14.95,8.0065 14.997,7.8531 15.041,7.707 C 15.129,7.4148 15.239,7.1713 15.344,6.9355 C 15.359,6.9012 15.366,6.8831 15.381,6.8496 C 15.349,6.8315 15.333,6.8213 15.301,6.8027 C 15.078,6.6735 14.847,6.5437 14.604,6.3594 C 14.482,6.2672 14.354,6.1707 14.197,5.9668 C 14.041,5.7632 13.764,5.2899 13.959,4.6875 C 13.975,4.6373 13.995,4.59 14.016,4.5449 C 13.424,4.1988 12.735,4 12,4 Z M 11.998,6.5 C 12.826,6.5 13.498,7.1716 13.498,8 C 13.498,8.8284 12.826,9.5 11.998,9.5 C 11.17,9.5 10.498,8.8284 10.498,8 C 10.498,7.1716 11.17,6.5 11.998,6.5 Z"
       fill="#70ae28"
       id="path947" />
    <path
       d="M 18,3 C 18.322,3 18.445,4.8398 18.705,5.0292 C 18.966,5.2186 20.754,4.7665 20.853,5.0729 C 20.953,5.3794 19.241,6.0643 19.141,6.3708 C 19.042,6.6773 20.024,8.2376 19.763,8.4271 C 19.503,8.6165 18.322,7.2 18,7.2 C 17.678,7.2 16.497,8.6165 16.237,8.4271 C 15.976,8.2376 16.958,6.6773 16.859,6.3708 C 16.759,6.0644 15.047,5.3794 15.147,5.0729 C 15.246,4.7665 17.034,5.2186 17.295,5.0292 C 17.555,4.8398 17.678,3 18,3 Z"
       fill="#d5eb9a"
       stop-color="#000000"
       stroke="#d5eb9a"
       stroke-linecap="round"
       stroke-width="0.5"
       id="path949" />
  </g>
</svg>
