<?xml version='1.0' encoding='iso-8859-1'?>
<svg version="1.1" xmlns="http://www.w3.org/2000/svg" viewBox="0 0 250.159 250.159" xmlns:xlink="http://www.w3.org/1999/xlink" enable-background="new 0 0 250.159 250.159">
  <path d="m250.159,77.736c0-30.144-24.524-54.668-54.668-54.668-9.857,0-19.104,2.636-27.098,7.219-11.434-10.447-26.642-16.83-43.314-16.83-16.672,0-31.879,6.383-43.313,16.829-7.994-4.583-17.241-7.219-27.098-7.219-30.144,0.001-54.668,24.525-54.668,54.669 0,19.191 9.949,36.092 24.95,45.849l20.756,113.117h37.873 27.625 27.751 27.624 37.874l20.756-113.117c15.002-9.757 24.95-26.658 24.95-45.849zm-168.955,128.966h-10.502l-13.643-74.358c7.004-0.303 13.665-1.935 19.75-4.642h4.396v79zm32.374,0v-65.738c3.734,0.678 7.573,1.051 11.5,1.051s7.766-0.373 11.5-1.051v65.738h-23zm55.376,0v-79h4.396c6.084,2.707 12.746,4.338 19.75,4.642l-13.643,74.358h-10.503z"/>
</svg>
